M48
; DRILL file {KiCad 5.1.10-88a1d61d58~90~ubuntu20.04.1} date Thu Sep 16 23:32:27 2021
; FORMAT={-:-/ absolute / inch / decimal}
; #@! TF.CreationDate,2021-09-16T23:32:27-03:00
; #@! TF.GenerationSoftware,Kicad,Pcbnew,5.1.10-88a1d61d58~90~ubuntu20.04.1
FMAT,2
INCH
T1C0.0118
T2C0.0120
T3C0.0276
T4C0.0300
T5C0.0394
T6C0.0394
T7C0.0400
T8C0.1181
%
G90
G05
T1
X5.8228Y-3.0669
X5.8228Y-3.0945
X5.8524Y-3.0669
X5.8524Y-3.0945
X5.9685Y-3.8327
X6.019Y-3.832
X6.062Y-3.827
X6.091Y-3.734
X6.091Y-3.766
T2
X5.189Y-3.75
X5.4287Y-4.4118
X5.5256Y-3.2579
X5.5571Y-2.7894
X5.5571Y-2.8642
X5.565Y-2.4567
X5.565Y-2.4843
X5.5925Y-2.4567
X5.5925Y-2.4843
X5.5941Y-4.3705
X5.5941Y-4.7232
X5.6841Y-3.5566
X5.6841Y-3.5842
X5.6841Y-3.6117
X5.6949Y-3.2461
X5.7116Y-3.5566
X5.7116Y-3.5842
X5.7116Y-3.6117
X5.7392Y-3.5566
X5.7392Y-3.5842
X5.7392Y-3.6117
X5.7402Y-4.4035
X5.7402Y-4.4311
X5.7402Y-4.4587
X5.7402Y-4.4862
X5.761Y-2.452
X5.7667Y-3.5566
X5.7667Y-3.5842
X5.7667Y-3.6117
X5.7677Y-4.4035
X5.7677Y-4.4311
X5.7677Y-4.4587
X5.7677Y-4.4862
X5.7953Y-4.4035
X5.7953Y-4.4311
X5.7953Y-4.4587
X5.7953Y-4.4862
X5.8169Y-4.5945
X5.8169Y-4.624
X5.8169Y-4.6496
X5.8169Y-4.6772
X5.8406Y-3.3524
X5.8445Y-4.5945
X5.8445Y-4.624
X5.8445Y-4.6496
X5.8445Y-4.6772
X5.872Y-4.5945
X5.872Y-4.622
X5.872Y-4.6496
X5.872Y-4.6772
X5.9151Y-3.7301
X5.9319Y-4.3386
X6.039Y-2.89
X6.084Y-3.802
X6.086Y-2.76
X6.189Y-2.075
T3
X5.146Y-1.7054
X5.146Y-1.7842
X5.146Y-1.863
X5.146Y-1.9417
X5.146Y-2.02
X5.146Y-2.0987
X6.625Y-1.7045
X6.625Y-1.7832
X6.625Y-1.8615
X6.625Y-1.9402
X6.625Y-2.019
X6.625Y-2.0978
T5
X5.3863Y-1.7266
X5.3863Y-1.9266
X5.3863Y-2.0266
X5.3863Y-2.1266
X5.3863Y-2.2266
X5.3863Y-2.3266
X5.3863Y-2.4266
X5.3863Y-2.5266
X5.3863Y-2.6266
X5.3863Y-2.7266
X5.3863Y-2.8266
X5.3863Y-2.9266
X5.3863Y-3.0266
X5.3863Y-3.1266
X5.3863Y-3.2266
X5.3863Y-3.3266
X5.3863Y-3.4266
X6.2863Y-1.7266
X6.2863Y-1.8266
X6.2863Y-1.9266
X6.2863Y-2.0266
X6.2863Y-2.1266
X6.2863Y-2.2266
X6.2863Y-2.3266
X6.2863Y-2.4266
X6.2863Y-2.5266
X6.2863Y-2.6266
X6.2863Y-2.7266
X6.2863Y-2.8266
X6.2863Y-2.9266
X6.2863Y-3.0266
X6.2863Y-3.1266
X6.2863Y-3.2266
X6.2863Y-3.3266
X6.2863Y-3.4266
X6.2863Y-3.5266
X6.3863Y-1.7266
X6.3863Y-1.8266
X6.3863Y-1.9266
X6.3863Y-2.0266
X6.3863Y-2.1266
X6.3863Y-2.2266
X6.3863Y-2.3266
X6.3863Y-2.4266
X6.3863Y-2.5266
X6.3863Y-2.6266
X6.3863Y-2.7266
X6.3863Y-2.8266
X6.3863Y-2.9266
X6.3863Y-3.0266
X6.3863Y-3.1266
X6.3863Y-3.2266
X6.3863Y-3.3266
X6.3863Y-3.4266
X6.3863Y-3.5266
X6.675Y-2.83
X6.675Y-2.93
X6.675Y-3.03
X6.675Y-3.13
X6.675Y-3.23
X6.675Y-3.33
X6.775Y-2.83
X6.775Y-2.93
X6.775Y-3.03
X6.775Y-3.13
X6.775Y-3.23
X6.775Y-3.33
T6
X5.3863Y-1.8266
X5.3863Y-3.5266
T7
X4.8713Y-2.6327
X4.8713Y-2.7327
X4.8713Y-2.8327
X4.8713Y-2.9327
X4.8713Y-3.0327
X4.8713Y-3.1327
X4.8713Y-3.2327
X4.8713Y-3.3327
X4.8713Y-3.4327
X4.8713Y-3.5327
X4.8713Y-3.6327
X4.8713Y-3.7327
X4.8713Y-3.8327
X4.8713Y-3.9327
X4.8713Y-4.0327
X4.8713Y-4.1327
X4.8713Y-4.2327
X4.8713Y-4.3327
X4.8713Y-4.4327
X4.8713Y-4.5327
X4.9713Y-2.6327
X4.9713Y-2.7327
X4.9713Y-2.8327
X4.9713Y-2.9327
X4.9713Y-3.0327
X4.9713Y-3.1327
X4.9713Y-3.2327
X4.9713Y-3.3327
X4.9713Y-3.4327
X4.9713Y-3.5327
X4.9713Y-3.6327
X4.9713Y-3.7327
X4.9713Y-3.8327
X4.9713Y-3.9327
X4.9713Y-4.0327
X4.9713Y-4.1327
X4.9713Y-4.2327
X4.9713Y-4.3327
X4.9713Y-4.4327
X4.9713Y-4.5327
T8
X4.9213Y-2.4409
X4.9213Y-4.7244
X6.8504Y-2.4409
X6.8504Y-4.7244
T4
G00X6.4685Y-4.3752
M15
G01X6.4685Y-4.4437
M16
G05
G00X6.5524Y-4.2244
M15
G01X6.6208Y-4.2244
M16
G05
G00X6.7047Y-4.3752
M15
G01X6.7047Y-4.4437
M16
G05
T0
M30
