M48
; DRILL file {KiCad 5.1.10-88a1d61d58~90~ubuntu20.04.1} date Fri Oct 22 14:48:58 2021
; FORMAT={-:-/ absolute / metric / decimal}
; #@! TF.CreationDate,2021-10-22T14:48:58-03:00
; #@! TF.GenerationSoftware,Kicad,Pcbnew,5.1.10-88a1d61d58~90~ubuntu20.04.1
FMAT,2
METRIC
T1C0.300
T2C0.305
T3C0.700
T4C0.762
T5C0.800
T6C1.000
T7C1.001
T8C1.016
T9C3.000
%
G90
G05
T1
X147.9Y-77.9
X147.9Y-78.6
X148.65Y-77.9
X148.65Y-78.6
X151.6Y-97.35
X152.883Y-97.333
X153.975Y-97.206
X154.711Y-94.844
X154.711Y-95.656
T2
X131.801Y-95.25
X137.89Y-112.06
X140.35Y-82.75
X141.15Y-70.85
X141.15Y-72.75
X141.35Y-62.4
X141.35Y-63.1
X142.05Y-62.4
X142.05Y-63.1
X142.09Y-111.01
X142.09Y-119.97
X144.375Y-90.338
X144.375Y-91.038
X144.375Y-91.738
X144.65Y-82.45
X145.075Y-90.338
X145.075Y-91.038
X145.075Y-91.738
X145.775Y-90.338
X145.775Y-91.038
X145.775Y-91.738
X145.8Y-111.85
X145.8Y-112.55
X145.8Y-113.25
X145.8Y-113.95
X146.202Y-62.89
X146.475Y-90.338
X146.475Y-91.038
X146.475Y-91.738
X146.5Y-111.85
X146.5Y-112.55
X146.5Y-113.25
X146.5Y-113.95
X147.2Y-111.85
X147.2Y-112.55
X147.2Y-113.25
X147.2Y-113.95
X147.75Y-116.7
X147.75Y-117.45
X147.75Y-118.1
X147.75Y-118.8
X147.843Y-66.918
X147.843Y-67.618
X148.35Y-85.15
X148.45Y-116.7
X148.45Y-117.45
X148.45Y-118.1
X148.45Y-118.8
X148.543Y-66.918
X148.543Y-67.618
X149.15Y-116.7
X149.15Y-117.4
X149.15Y-118.1
X149.15Y-118.8
X150.243Y-94.744
X150.67Y-110.2
X153.391Y-73.406
X154.534Y-96.571
X154.584Y-70.104
X157.201Y-52.705
T3
X130.708Y-43.317
X130.708Y-45.318
X130.708Y-47.32
X130.708Y-49.319
X130.708Y-51.307
X130.708Y-53.306
X168.275Y-43.294
X168.275Y-45.293
X168.275Y-47.281
X168.275Y-49.28
X168.275Y-51.282
X168.275Y-53.283
T5
X132.766Y-111.813
X132.766Y-115.313
T6
X136.812Y-43.855
X136.812Y-48.935
X136.812Y-51.475
X136.812Y-54.015
X136.812Y-56.555
X136.812Y-59.095
X136.812Y-61.635
X136.812Y-64.175
X136.812Y-66.715
X136.812Y-69.255
X136.812Y-71.795
X136.812Y-74.335
X136.812Y-76.875
X136.812Y-79.415
X136.812Y-81.955
X136.812Y-84.495
X136.812Y-87.035
X159.672Y-43.855
X159.672Y-46.395
X159.672Y-48.935
X159.672Y-51.475
X159.672Y-54.015
X159.672Y-56.555
X159.672Y-59.095
X159.672Y-61.635
X159.672Y-64.175
X159.672Y-66.715
X159.672Y-69.255
X159.672Y-71.795
X159.672Y-74.335
X159.672Y-76.875
X159.672Y-79.415
X159.672Y-81.955
X159.672Y-84.495
X159.672Y-87.035
X159.672Y-89.575
X162.212Y-43.855
X162.212Y-46.395
X162.212Y-48.935
X162.212Y-51.475
X162.212Y-54.015
X162.212Y-56.555
X162.212Y-59.095
X162.212Y-61.635
X162.212Y-64.175
X162.212Y-66.715
X162.212Y-69.255
X162.212Y-71.795
X162.212Y-74.335
X162.212Y-76.875
X162.212Y-79.415
X162.212Y-81.955
X162.212Y-84.495
X162.212Y-87.035
X162.212Y-89.575
X169.545Y-71.882
X169.545Y-74.422
X169.545Y-76.962
X169.545Y-79.502
X169.545Y-82.042
X169.545Y-84.582
X172.085Y-71.882
X172.085Y-74.422
X172.085Y-76.962
X172.085Y-79.502
X172.085Y-82.042
X172.085Y-84.582
T7
X136.812Y-46.395
X136.812Y-89.575
T8
X123.73Y-66.87
X123.73Y-69.41
X123.73Y-71.95
X123.73Y-74.49
X123.73Y-77.03
X123.73Y-79.57
X123.73Y-82.11
X123.73Y-84.65
X123.73Y-87.19
X123.73Y-89.73
X123.73Y-92.27
X123.73Y-94.81
X123.73Y-97.35
X123.73Y-99.89
X123.73Y-102.43
X123.73Y-104.97
X123.73Y-107.51
X123.73Y-110.05
X123.73Y-112.59
X123.73Y-115.13
X126.27Y-66.87
X126.27Y-69.41
X126.27Y-71.95
X126.27Y-74.49
X126.27Y-77.03
X126.27Y-79.57
X126.27Y-82.11
X126.27Y-84.65
X126.27Y-87.19
X126.27Y-89.73
X126.27Y-92.27
X126.27Y-94.81
X126.27Y-97.35
X126.27Y-99.89
X126.27Y-102.43
X126.27Y-104.97
X126.27Y-107.51
X126.27Y-110.05
X126.27Y-112.59
X126.27Y-115.13
T9
X125.0Y-62.0
X125.0Y-120.0
X174.0Y-62.0
X174.0Y-120.0
T4
X164.3Y-111.131G85X164.3Y-112.869
G05
X166.431Y-107.3G85X168.169Y-107.3
G05
X170.3Y-111.131G85X170.3Y-112.869
G05
T0
M30
