%TF.GenerationSoftware,KiCad,Pcbnew,5.1.10-88a1d61d58~90~ubuntu20.04.1*%
%TF.CreationDate,2021-09-14T14:42:45-03:00*%
%TF.ProjectId,IAuto,49417574-6f2e-46b6-9963-61645f706362,rev?*%
%TF.SameCoordinates,Original*%
%TF.FileFunction,Soldermask,Bot*%
%TF.FilePolarity,Negative*%
%FSLAX46Y46*%
G04 Gerber Fmt 4.6, Leading zero omitted, Abs format (unit mm)*
G04 Created by KiCad (PCBNEW 5.1.10-88a1d61d58~90~ubuntu20.04.1) date 2021-09-14 14:42:45*
%MOMM*%
%LPD*%
G01*
G04 APERTURE LIST*
%ADD10O,2.199640X1.524000*%
%ADD11R,1.650000X1.650000*%
%ADD12C,1.650000*%
%ADD13R,2.199640X1.524000*%
%ADD14O,3.900000X3.900000*%
%ADD15R,1.727200X1.727200*%
%ADD16O,1.727200X1.727200*%
G04 APERTURE END LIST*
D10*
%TO.C,U1*%
X162212000Y-64175000D03*
X162212000Y-51475000D03*
X162212000Y-54015000D03*
X162212000Y-46395000D03*
X162212000Y-59095000D03*
X162212000Y-61635000D03*
X162212000Y-48935000D03*
X162212000Y-56555000D03*
X162212000Y-79415000D03*
X162212000Y-66715000D03*
X162212000Y-69255000D03*
X162212000Y-71795000D03*
X162212000Y-74335000D03*
X162212000Y-76875000D03*
X162212000Y-43855000D03*
X162212000Y-89575000D03*
X162212000Y-87035000D03*
X162212000Y-84495000D03*
X162212000Y-81955000D03*
X136812000Y-81955000D03*
X136812000Y-84495000D03*
X136812000Y-87035000D03*
X136812000Y-89575000D03*
X136812000Y-79415000D03*
X136812000Y-61635000D03*
X136812000Y-59095000D03*
X136812000Y-56555000D03*
X136812000Y-48935000D03*
X136812000Y-46395000D03*
X136812000Y-54015000D03*
X136812000Y-51475000D03*
X136812000Y-43855000D03*
X136812000Y-76875000D03*
X136812000Y-74335000D03*
X136812000Y-71795000D03*
X136812000Y-69255000D03*
X136812000Y-66715000D03*
X136812000Y-64175000D03*
X159672000Y-69255000D03*
X159672000Y-81955000D03*
X159672000Y-84495000D03*
X159672000Y-76875000D03*
X159672000Y-71795000D03*
X159672000Y-66715000D03*
X159672000Y-87035000D03*
X159672000Y-89575000D03*
X159672000Y-56555000D03*
X159672000Y-79415000D03*
X159672000Y-51475000D03*
X159672000Y-64175000D03*
X159672000Y-54015000D03*
X159672000Y-46395000D03*
X159672000Y-59095000D03*
X159672000Y-43855000D03*
X159672000Y-74335000D03*
X159672000Y-61635000D03*
X159672000Y-48935000D03*
%TD*%
D11*
%TO.C,J4*%
X131700000Y-54550000D03*
D12*
X131700000Y-52050000D03*
X131700000Y-49550000D03*
X131700000Y-47050000D03*
X131700000Y-44550000D03*
X131700000Y-42050000D03*
%TD*%
D10*
%TO.C,P2*%
X169545000Y-79502000D03*
X169545000Y-74422000D03*
X172085000Y-74422000D03*
X172085000Y-71882000D03*
X169545000Y-82042000D03*
X169545000Y-76962000D03*
D13*
X172085000Y-84582000D03*
D10*
X172085000Y-82042000D03*
X169545000Y-71882000D03*
X169545000Y-84582000D03*
X172085000Y-76962000D03*
X172085000Y-79502000D03*
%TD*%
D14*
%TO.C,J1*%
X164300000Y-112000000D03*
X167300000Y-107300000D03*
X170300000Y-112000000D03*
%TD*%
D11*
%TO.C,J5*%
X167300000Y-42050000D03*
D12*
X167300000Y-44550000D03*
X167300000Y-47050000D03*
X167300000Y-49550000D03*
X167300000Y-52050000D03*
X167300000Y-54550000D03*
%TD*%
D15*
%TO.C,P1*%
X123730000Y-66870000D03*
D16*
X126270000Y-66870000D03*
X123730000Y-69410000D03*
X126270000Y-69410000D03*
X123730000Y-71950000D03*
X126270000Y-71950000D03*
X123730000Y-74490000D03*
X126270000Y-74490000D03*
X123730000Y-77030000D03*
X126270000Y-77030000D03*
X123730000Y-79570000D03*
X126270000Y-79570000D03*
X123730000Y-82110000D03*
X126270000Y-82110000D03*
X123730000Y-84650000D03*
X126270000Y-84650000D03*
X123730000Y-87190000D03*
X126270000Y-87190000D03*
X123730000Y-89730000D03*
X126270000Y-89730000D03*
X123730000Y-92270000D03*
X126270000Y-92270000D03*
X123730000Y-94810000D03*
X126270000Y-94810000D03*
X123730000Y-97350000D03*
X126270000Y-97350000D03*
X123730000Y-99890000D03*
X126270000Y-99890000D03*
X123730000Y-102430000D03*
X126270000Y-102430000D03*
X123730000Y-104970000D03*
X126270000Y-104970000D03*
X123730000Y-107510000D03*
X126270000Y-107510000D03*
X123730000Y-110050000D03*
X126270000Y-110050000D03*
X123730000Y-112590000D03*
X126270000Y-112590000D03*
X123730000Y-115130000D03*
X126270000Y-115130000D03*
%TD*%
M02*
