%TF.GenerationSoftware,KiCad,Pcbnew,5.1.10-88a1d61d58~90~ubuntu20.04.1*%
%TF.CreationDate,2021-10-22T14:45:26-03:00*%
%TF.ProjectId,IAuto,49417574-6f2e-46b6-9963-61645f706362,rev?*%
%TF.SameCoordinates,Original*%
%TF.FileFunction,Copper,L2,Bot*%
%TF.FilePolarity,Positive*%
%FSLAX46Y46*%
G04 Gerber Fmt 4.6, Leading zero omitted, Abs format (unit mm)*
G04 Created by KiCad (PCBNEW 5.1.10-88a1d61d58~90~ubuntu20.04.1) date 2021-10-22 14:45:26*
%MOMM*%
%LPD*%
G01*
G04 APERTURE LIST*
%TA.AperFunction,ComponentPad*%
%ADD10C,1.800000*%
%TD*%
%TA.AperFunction,ComponentPad*%
%ADD11R,1.800000X1.800000*%
%TD*%
%TA.AperFunction,ComponentPad*%
%ADD12O,2.200000X1.500000*%
%TD*%
%TA.AperFunction,ComponentPad*%
%ADD13R,1.700000X1.200000*%
%TD*%
%TA.AperFunction,ComponentPad*%
%ADD14O,1.700000X1.200000*%
%TD*%
%TA.AperFunction,ComponentPad*%
%ADD15R,2.200000X1.500000*%
%TD*%
%TA.AperFunction,ComponentPad*%
%ADD16O,3.900000X3.900000*%
%TD*%
%TA.AperFunction,ComponentPad*%
%ADD17R,1.727200X1.727200*%
%TD*%
%TA.AperFunction,ComponentPad*%
%ADD18O,1.727200X1.727200*%
%TD*%
%TA.AperFunction,ComponentPad*%
%ADD19C,3.000000*%
%TD*%
%TA.AperFunction,ViaPad*%
%ADD20C,0.508000*%
%TD*%
%TA.AperFunction,ViaPad*%
%ADD21C,0.500000*%
%TD*%
%TA.AperFunction,Conductor*%
%ADD22C,0.762000*%
%TD*%
%TA.AperFunction,Conductor*%
%ADD23C,0.508000*%
%TD*%
%TA.AperFunction,Conductor*%
%ADD24C,1.016000*%
%TD*%
%TA.AperFunction,Conductor*%
%ADD25C,1.270000*%
%TD*%
%TA.AperFunction,Conductor*%
%ADD26C,0.304800*%
%TD*%
%TA.AperFunction,Conductor*%
%ADD27C,0.254000*%
%TD*%
%TA.AperFunction,Conductor*%
%ADD28C,0.100000*%
%TD*%
G04 APERTURE END LIST*
D10*
%TO.P,C12,2*%
%TO.N,GND*%
X132765800Y-115313400D03*
D11*
%TO.P,C12,1*%
%TO.N,+5V*%
X132765800Y-111813400D03*
%TD*%
D12*
%TO.P,U1,36*%
%TO.N,AIN1*%
X159672000Y-48935000D03*
%TO.P,U1,31*%
%TO.N,/Logical Part/GPIO19*%
X159672000Y-61635000D03*
%TO.P,U1,26*%
%TO.N,/Logical Part/TXD*%
X159672000Y-74335000D03*
%TO.P,U1,38*%
%TO.N,GND*%
X159672000Y-43855000D03*
%TO.P,U1,15*%
X159672000Y-59095000D03*
%TO.P,U1,37*%
%TO.N,AO2*%
X159672000Y-46395000D03*
%TO.P,U1,34*%
%TO.N,Net-(U1-Pad34)*%
X159672000Y-54015000D03*
%TO.P,U1,30*%
%TO.N,/Logical Part/GPIO18*%
X159672000Y-64175000D03*
%TO.P,U1,35*%
%TO.N,Net-(U1-Pad35)*%
X159672000Y-51475000D03*
%TO.P,U1,24*%
%TO.N,/Logical Part/RXD*%
X159672000Y-79415000D03*
%TO.P,U1,33*%
%TO.N,AIN2*%
X159672000Y-56555000D03*
%TO.P,U1,20*%
%TO.N,Net-(U1-Pad20)*%
X159672000Y-89575000D03*
%TO.P,U1,21*%
%TO.N,Net-(U1-Pad21)*%
X159672000Y-87035000D03*
%TO.P,U1,29*%
%TO.N,/Logical Part/GPIO5*%
X159672000Y-66715000D03*
%TO.P,U1,27*%
%TO.N,/Logical Part/SCL*%
X159672000Y-71795000D03*
%TO.P,U1,25*%
%TO.N,/Logical Part/GPIO0*%
X159672000Y-76875000D03*
%TO.P,U1,22*%
%TO.N,Net-(U1-Pad22)*%
X159672000Y-84495000D03*
%TO.P,U1,23*%
%TO.N,/Logical Part/CS*%
X159672000Y-81955000D03*
%TO.P,U1,28*%
%TO.N,/Logical Part/SDA*%
X159672000Y-69255000D03*
%TO.P,U1,10*%
%TO.N,/Logical Part/GPIO25*%
X136812000Y-64175000D03*
%TO.P,U1,11*%
%TO.N,/Logical Part/GPIO26*%
X136812000Y-66715000D03*
%TO.P,U1,12*%
%TO.N,BIN2*%
X136812000Y-69255000D03*
%TO.P,U1,13*%
%TO.N,/Logical Part/MOSI*%
X136812000Y-71795000D03*
%TO.P,U1,14*%
%TO.N,/Logical Part/MISO*%
X136812000Y-74335000D03*
%TO.P,U1,1*%
%TO.N,GND*%
X136812000Y-76875000D03*
%TO.P,U1,2*%
%TO.N,+3V3*%
X136812000Y-43855000D03*
%TO.P,U1,5*%
%TO.N,GPIO39*%
X136812000Y-51475000D03*
%TO.P,U1,6*%
%TO.N,/Logical Part/GPIO34*%
X136812000Y-54015000D03*
%TO.P,U1,3*%
%TO.N,N/C*%
X136812000Y-46395000D03*
%TO.P,U1,4*%
%TO.N,AO1*%
X136812000Y-48935000D03*
%TO.P,U1,7*%
%TO.N,/Logical Part/GPIO35*%
X136812000Y-56555000D03*
%TO.P,U1,8*%
%TO.N,/Logical Part/GPIO32*%
X136812000Y-59095000D03*
%TO.P,U1,9*%
%TO.N,BIN1*%
X136812000Y-61635000D03*
%TO.P,U1,16*%
%TO.N,/Logical Part/CLK*%
X136812000Y-79415000D03*
%TO.P,U1,32*%
%TO.N,+5V*%
X136812000Y-89575000D03*
%TO.P,U1,19*%
%TO.N,N/C*%
X136812000Y-87035000D03*
%TO.P,U1,18*%
X136812000Y-84495000D03*
%TO.P,U1,17*%
X136812000Y-81955000D03*
%TO.P,U1,23*%
%TO.N,/Logical Part/CS*%
X162212000Y-81955000D03*
%TO.P,U1,22*%
%TO.N,Net-(U1-Pad22)*%
X162212000Y-84495000D03*
%TO.P,U1,21*%
%TO.N,Net-(U1-Pad21)*%
X162212000Y-87035000D03*
%TO.P,U1,20*%
%TO.N,Net-(U1-Pad20)*%
X162212000Y-89575000D03*
%TO.P,U1,38*%
%TO.N,GND*%
X162212000Y-43855000D03*
%TO.P,U1,25*%
%TO.N,/Logical Part/GPIO0*%
X162212000Y-76875000D03*
%TO.P,U1,26*%
%TO.N,/Logical Part/TXD*%
X162212000Y-74335000D03*
%TO.P,U1,27*%
%TO.N,/Logical Part/SCL*%
X162212000Y-71795000D03*
%TO.P,U1,28*%
%TO.N,/Logical Part/SDA*%
X162212000Y-69255000D03*
%TO.P,U1,29*%
%TO.N,/Logical Part/GPIO5*%
X162212000Y-66715000D03*
%TO.P,U1,24*%
%TO.N,/Logical Part/RXD*%
X162212000Y-79415000D03*
%TO.P,U1,33*%
%TO.N,AIN2*%
X162212000Y-56555000D03*
%TO.P,U1,36*%
%TO.N,AIN1*%
X162212000Y-48935000D03*
%TO.P,U1,31*%
%TO.N,/Logical Part/GPIO19*%
X162212000Y-61635000D03*
%TO.P,U1,15*%
%TO.N,GND*%
X162212000Y-59095000D03*
%TO.P,U1,37*%
%TO.N,AO2*%
X162212000Y-46395000D03*
%TO.P,U1,34*%
%TO.N,Net-(U1-Pad34)*%
X162212000Y-54015000D03*
%TO.P,U1,35*%
%TO.N,Net-(U1-Pad35)*%
X162212000Y-51475000D03*
%TO.P,U1,30*%
%TO.N,/Logical Part/GPIO18*%
X162212000Y-64175000D03*
%TD*%
D13*
%TO.P,J5,1*%
%TO.N,Net-(F4-Pad2)*%
X168275000Y-53283480D03*
D14*
%TO.P,J5,2*%
%TO.N,/Power Part/AOUT2*%
X168275000Y-51281960D03*
%TO.P,J5,6*%
%TO.N,/Power Part/A2*%
X168275000Y-43293660D03*
%TO.P,J5,4*%
%TO.N,GND*%
X168275000Y-47281460D03*
%TO.P,J5,5*%
%TO.N,N/C*%
X168275000Y-45292640D03*
%TO.P,J5,3*%
%TO.N,+5V*%
X168275000Y-49280440D03*
%TD*%
D13*
%TO.P,J4,1*%
%TO.N,Net-(F3-Pad2)*%
X130708400Y-43316520D03*
D14*
%TO.P,J4,2*%
%TO.N,/Power Part/BOUT1*%
X130708400Y-45318040D03*
%TO.P,J4,6*%
%TO.N,/Power Part/A1*%
X130708400Y-53306340D03*
%TO.P,J4,4*%
%TO.N,+5V*%
X130708400Y-49318540D03*
%TO.P,J4,5*%
%TO.N,N/C*%
X130708400Y-51307360D03*
%TO.P,J4,3*%
%TO.N,GND*%
X130708400Y-47319560D03*
%TD*%
D12*
%TO.P,P2,6*%
%TO.N,/Logical Part/GPIO18*%
X169545000Y-79502000D03*
%TO.P,P2,10*%
%TO.N,/Logical Part/F+3.3V*%
X169545000Y-74422000D03*
%TO.P,P2,9*%
%TO.N,/Logical Part/GPIO34*%
X172085000Y-74422000D03*
%TO.P,P2,11*%
%TO.N,GND*%
X172085000Y-71882000D03*
%TO.P,P2,4*%
%TO.N,/Logical Part/GPIO5*%
X169545000Y-82042000D03*
%TO.P,P2,8*%
%TO.N,/Logical Part/GPIO19*%
X169545000Y-76962000D03*
D15*
%TO.P,P2,1*%
%TO.N,/Logical Part/GPIO25*%
X172085000Y-84582000D03*
D12*
%TO.P,P2,3*%
%TO.N,/Logical Part/GPIO26*%
X172085000Y-82042000D03*
%TO.P,P2,12*%
%TO.N,+5VF*%
X169545000Y-71882000D03*
%TO.P,P2,2*%
%TO.N,/Logical Part/GPIO0*%
X169545000Y-84582000D03*
%TO.P,P2,7*%
%TO.N,/Logical Part/GPIO35*%
X172085000Y-76962000D03*
%TO.P,P2,5*%
%TO.N,/Logical Part/GPIO32*%
X172085000Y-79502000D03*
%TD*%
D16*
%TO.P,J1,1*%
%TO.N,+BATT*%
X164300000Y-112000000D03*
%TO.P,J1,3*%
%TO.N,GND*%
X167300000Y-107300000D03*
%TO.P,J1,2*%
X170300000Y-112000000D03*
%TD*%
D17*
%TO.P,P1,1*%
%TO.N,N/C*%
X123730000Y-66870000D03*
D18*
%TO.P,P1,2*%
%TO.N,+5V*%
X126270000Y-66870000D03*
%TO.P,P1,3*%
%TO.N,/Logical Part/SDA*%
X123730000Y-69410000D03*
%TO.P,P1,4*%
%TO.N,+5V*%
X126270000Y-69410000D03*
%TO.P,P1,5*%
%TO.N,/Logical Part/SCL*%
X123730000Y-71950000D03*
%TO.P,P1,6*%
%TO.N,GND*%
X126270000Y-71950000D03*
%TO.P,P1,7*%
%TO.N,N/C*%
X123730000Y-74490000D03*
%TO.P,P1,8*%
%TO.N,/Logical Part/TXD*%
X126270000Y-74490000D03*
%TO.P,P1,9*%
%TO.N,GND*%
X123730000Y-77030000D03*
%TO.P,P1,10*%
%TO.N,/Logical Part/RXD*%
X126270000Y-77030000D03*
%TO.P,P1,11*%
%TO.N,N/C*%
X123730000Y-79570000D03*
%TO.P,P1,12*%
X126270000Y-79570000D03*
%TO.P,P1,13*%
X123730000Y-82110000D03*
%TO.P,P1,14*%
%TO.N,GND*%
X126270000Y-82110000D03*
%TO.P,P1,15*%
%TO.N,N/C*%
X123730000Y-84650000D03*
%TO.P,P1,16*%
X126270000Y-84650000D03*
%TO.P,P1,17*%
X123730000Y-87190000D03*
%TO.P,P1,18*%
X126270000Y-87190000D03*
%TO.P,P1,19*%
%TO.N,/Logical Part/MOSI*%
X123730000Y-89730000D03*
%TO.P,P1,20*%
%TO.N,GND*%
X126270000Y-89730000D03*
%TO.P,P1,21*%
%TO.N,/Logical Part/MISO*%
X123730000Y-92270000D03*
%TO.P,P1,22*%
%TO.N,N/C*%
X126270000Y-92270000D03*
%TO.P,P1,23*%
%TO.N,/Logical Part/CLK*%
X123730000Y-94810000D03*
%TO.P,P1,24*%
%TO.N,/Logical Part/CS*%
X126270000Y-94810000D03*
%TO.P,P1,25*%
%TO.N,GND*%
X123730000Y-97350000D03*
%TO.P,P1,26*%
%TO.N,N/C*%
X126270000Y-97350000D03*
%TO.P,P1,27*%
X123730000Y-99890000D03*
%TO.P,P1,28*%
X126270000Y-99890000D03*
%TO.P,P1,29*%
X123730000Y-102430000D03*
%TO.P,P1,30*%
%TO.N,GND*%
X126270000Y-102430000D03*
%TO.P,P1,31*%
%TO.N,N/C*%
X123730000Y-104970000D03*
%TO.P,P1,32*%
X126270000Y-104970000D03*
%TO.P,P1,33*%
X123730000Y-107510000D03*
%TO.P,P1,34*%
%TO.N,GND*%
X126270000Y-107510000D03*
%TO.P,P1,35*%
%TO.N,N/C*%
X123730000Y-110050000D03*
%TO.P,P1,36*%
X126270000Y-110050000D03*
%TO.P,P1,37*%
X123730000Y-112590000D03*
%TO.P,P1,38*%
X126270000Y-112590000D03*
%TO.P,P1,39*%
%TO.N,GND*%
X123730000Y-115130000D03*
%TO.P,P1,40*%
%TO.N,N/C*%
X126270000Y-115130000D03*
%TD*%
D19*
%TO.P,J9,1*%
%TO.N,N/C*%
X174000000Y-120000000D03*
%TD*%
%TO.P,J8,1*%
%TO.N,N/C*%
X125000000Y-120000000D03*
%TD*%
%TO.P,J7,1*%
%TO.N,N/C*%
X125000000Y-62000000D03*
%TD*%
%TO.P,J6,1*%
%TO.N,N/C*%
X174000000Y-62000000D03*
%TD*%
D20*
%TO.N,GND*%
X147843400Y-66918000D03*
X148543400Y-67618000D03*
X147843400Y-67618000D03*
X148543400Y-66918000D03*
X145775400Y-91738000D03*
X146475400Y-91738000D03*
X145075400Y-91738000D03*
X146475400Y-91038000D03*
X144375400Y-91738000D03*
X147200000Y-113950000D03*
X146500000Y-113950000D03*
X145800000Y-113950000D03*
X145800000Y-113250000D03*
X146500000Y-113250000D03*
X147200000Y-113250000D03*
X145800000Y-112550000D03*
X146500000Y-112550000D03*
X147200000Y-112550000D03*
X146500000Y-111850000D03*
X145800000Y-111850000D03*
X147200000Y-111850000D03*
X149150000Y-116700000D03*
X149150000Y-117400000D03*
X149150000Y-118100000D03*
X148450000Y-117450000D03*
X148450000Y-118100000D03*
X147750000Y-117450000D03*
X147750000Y-118100000D03*
X148450000Y-118800000D03*
X147750000Y-118800000D03*
X147750000Y-116700000D03*
X148450000Y-116700000D03*
X149150000Y-118800000D03*
X144375400Y-91038000D03*
X146475400Y-90338000D03*
X145775400Y-91038000D03*
X145075400Y-91038000D03*
X145775400Y-90338000D03*
X145075400Y-90338000D03*
X144375400Y-90338000D03*
D21*
X147900000Y-78600000D03*
X148650000Y-78600000D03*
X148650000Y-77900000D03*
X147900000Y-77900000D03*
D20*
X141350000Y-62400000D03*
X142050000Y-62400000D03*
X142050000Y-63100000D03*
X141350000Y-63100000D03*
X141150000Y-72750000D03*
X141150000Y-70850000D03*
%TO.N,/Power Part/OUT_BAT*%
X137890000Y-112060000D03*
X150670000Y-110200000D03*
X144650000Y-82450000D03*
X150242547Y-94743547D03*
%TO.N,Net-(C5-Pad2)*%
X142090000Y-111010000D03*
X142090000Y-119970000D03*
%TO.N,Net-(C6-Pad2)*%
X140350000Y-82750000D03*
X148350000Y-85150000D03*
%TO.N,+5V*%
X131800600Y-95250000D03*
%TO.N,/Logical Part/F+3.3V*%
X157200600Y-52705000D03*
%TO.N,/Power Part/BOUT1*%
X146202400Y-62890400D03*
D21*
%TO.N,/Logical Part/GPIO26*%
X154711400Y-95656400D03*
D20*
%TO.N,AIN2*%
X153390600Y-73406000D03*
%TO.N,AIN1*%
X154584400Y-70104000D03*
%TO.N,/Logical Part/GPIO32*%
X154533600Y-96570800D03*
D21*
%TO.N,/Logical Part/GPIO25*%
X154711400Y-94843600D03*
%TO.N,/Logical Part/GPIO35*%
X153974800Y-97205800D03*
%TO.N,/Logical Part/GPIO34*%
X152882600Y-97332800D03*
%TO.N,GPIO39*%
X151600000Y-97350000D03*
%TD*%
D22*
%TO.N,GND*%
X159672000Y-43855000D02*
X162212000Y-43855000D01*
X162212000Y-59095000D02*
X159672000Y-59095000D01*
D23*
%TO.N,/Power Part/OUT_BAT*%
X137890000Y-112060000D02*
X137890000Y-111270000D01*
X150667192Y-110197192D02*
X150670000Y-110200000D01*
X138962808Y-110197192D02*
X150667192Y-110197192D01*
X137890000Y-111270000D02*
X138962808Y-110197192D01*
X148650000Y-81850000D02*
X145250000Y-81850000D01*
X150750000Y-83950000D02*
X148650000Y-81850000D01*
X150750000Y-94250000D02*
X150750000Y-83950000D01*
X145250000Y-81850000D02*
X144650000Y-82450000D01*
X150242547Y-94743547D02*
X150750000Y-94250000D01*
%TO.N,Net-(C5-Pad2)*%
X142090000Y-111010000D02*
X141360000Y-111740000D01*
X141360000Y-119240000D02*
X142090000Y-119970000D01*
X141360000Y-111740000D02*
X141360000Y-119240000D01*
%TO.N,Net-(C6-Pad2)*%
X140350000Y-82750000D02*
X140850000Y-82250000D01*
X140850000Y-82250000D02*
X142350000Y-82250000D01*
X142350000Y-82250000D02*
X143950000Y-83850000D01*
X147050000Y-83850000D02*
X148350000Y-85150000D01*
X143950000Y-83850000D02*
X147050000Y-83850000D01*
D24*
%TO.N,+5V*%
X126270000Y-66870000D02*
X126270000Y-69410000D01*
D25*
X130471600Y-69410000D02*
X131800600Y-70739000D01*
X131800600Y-70739000D02*
X131800600Y-95250000D01*
X126270000Y-69410000D02*
X130471600Y-69410000D01*
D23*
X129294260Y-49318540D02*
X130708400Y-49318540D01*
X128778000Y-49834800D02*
X129294260Y-49318540D01*
X128778000Y-65684400D02*
X128778000Y-49834800D01*
X127592400Y-66870000D02*
X128778000Y-65684400D01*
X126270000Y-66870000D02*
X127592400Y-66870000D01*
%TO.N,/Logical Part/F+3.3V*%
X169545000Y-74422000D02*
X168122600Y-74422000D01*
X168122600Y-74422000D02*
X167386000Y-73685400D01*
X167386000Y-73685400D02*
X167386000Y-59131200D01*
X167386000Y-59131200D02*
X164744400Y-56489600D01*
X164744400Y-56489600D02*
X164744400Y-53492400D01*
X164744400Y-53492400D02*
X163957000Y-52705000D01*
X163957000Y-52705000D02*
X157200600Y-52705000D01*
%TO.N,/Power Part/BOUT1*%
X132558160Y-45318040D02*
X130708400Y-45318040D01*
X133248400Y-44627800D02*
X132558160Y-45318040D01*
X133248400Y-42900600D02*
X133248400Y-44627800D01*
X134924800Y-41224200D02*
X133248400Y-42900600D01*
X142697200Y-41224200D02*
X134924800Y-41224200D01*
X145796000Y-62484000D02*
X145796000Y-44323000D01*
X146202400Y-62890400D02*
X145796000Y-62484000D01*
X145796000Y-44323000D02*
X142697200Y-41224200D01*
D22*
%TO.N,/Logical Part/CS*%
X159672000Y-81955000D02*
X162212000Y-81955000D01*
D26*
X165850000Y-82950000D02*
X164855000Y-81955000D01*
X165850000Y-98437000D02*
X165850000Y-82950000D01*
X164007800Y-100279200D02*
X165850000Y-98437000D01*
X128150000Y-98889200D02*
X129540000Y-100279200D01*
X164855000Y-81955000D02*
X162212000Y-81955000D01*
X129540000Y-100279200D02*
X164007800Y-100279200D01*
X128150000Y-95700000D02*
X128150000Y-98889200D01*
X127260000Y-94810000D02*
X128150000Y-95700000D01*
X126270000Y-94810000D02*
X127260000Y-94810000D01*
D22*
%TO.N,/Logical Part/RXD*%
X162212000Y-79415000D02*
X159672000Y-79415000D01*
D26*
X157985000Y-79415000D02*
X159672000Y-79415000D01*
X155925600Y-99700000D02*
X157050000Y-98575600D01*
X157050000Y-98575600D02*
X157050000Y-80350000D01*
X130281600Y-99700000D02*
X155925600Y-99700000D01*
X157050000Y-80350000D02*
X157985000Y-79415000D01*
X129000000Y-98418400D02*
X130281600Y-99700000D01*
X129000000Y-77793600D02*
X129000000Y-98418400D01*
X128236400Y-77030000D02*
X129000000Y-77793600D01*
X126270000Y-77030000D02*
X128236400Y-77030000D01*
D22*
%TO.N,/Logical Part/TXD*%
X162212000Y-74335000D02*
X159672000Y-74335000D01*
D26*
X156500000Y-75900000D02*
X158065000Y-74335000D01*
X156500000Y-98109600D02*
X156500000Y-75900000D01*
X155459600Y-99150000D02*
X156500000Y-98109600D01*
X154900000Y-99150000D02*
X155459600Y-99150000D01*
X131495800Y-99161600D02*
X154900000Y-99150000D01*
X130911600Y-99161600D02*
X131495800Y-99161600D01*
X129540000Y-75387200D02*
X129540000Y-97790000D01*
X158065000Y-74335000D02*
X159672000Y-74335000D01*
X129540000Y-97790000D02*
X130911600Y-99161600D01*
X128642800Y-74490000D02*
X129540000Y-75387200D01*
X126270000Y-74490000D02*
X128642800Y-74490000D01*
D22*
%TO.N,/Logical Part/SCL*%
X159672000Y-71795000D02*
X162212000Y-71795000D01*
D26*
X158155000Y-71795000D02*
X159672000Y-71795000D01*
X155950000Y-97618200D02*
X155950000Y-74000000D01*
X154968200Y-98600000D02*
X155950000Y-97618200D01*
X130098800Y-97298800D02*
X131400000Y-98600000D01*
X130098800Y-74269600D02*
X130098800Y-97298800D01*
X129032000Y-73202800D02*
X130098800Y-74269600D01*
X131400000Y-98600000D02*
X154968200Y-98600000D01*
X125018800Y-73202800D02*
X129032000Y-73202800D01*
X155950000Y-74000000D02*
X158155000Y-71795000D01*
X123766000Y-71950000D02*
X125018800Y-73202800D01*
X123730000Y-71950000D02*
X123766000Y-71950000D01*
D22*
%TO.N,/Logical Part/SDA*%
X162212000Y-69255000D02*
X159672000Y-69255000D01*
D26*
X130100000Y-70700000D02*
X125020000Y-70700000D01*
X130628400Y-71228400D02*
X130100000Y-70700000D01*
X131908200Y-98050000D02*
X130628400Y-96770200D01*
X154400000Y-98050000D02*
X131908200Y-98050000D01*
X130628400Y-96770200D02*
X130628400Y-71228400D01*
X155400000Y-97050000D02*
X154400000Y-98050000D01*
X155400000Y-72100000D02*
X155400000Y-97050000D01*
X158245000Y-69255000D02*
X155400000Y-72100000D01*
X125020000Y-70700000D02*
X123730000Y-69410000D01*
X159672000Y-69255000D02*
X158245000Y-69255000D01*
%TO.N,/Logical Part/GPIO26*%
X138215000Y-66715000D02*
X136812000Y-66715000D01*
X138950000Y-67450000D02*
X138215000Y-66715000D01*
X138950000Y-76100000D02*
X138950000Y-67450000D01*
X141650000Y-78800000D02*
X138950000Y-76100000D01*
X141650000Y-80204354D02*
X141650000Y-78800000D01*
X149350000Y-80950000D02*
X142395646Y-80950000D01*
X142395646Y-80950000D02*
X141650000Y-80204354D01*
X151600000Y-83200000D02*
X149350000Y-80950000D01*
X153924000Y-95656400D02*
X151600000Y-93332400D01*
X154711400Y-95656400D02*
X153924000Y-95656400D01*
X151600000Y-93332400D02*
X151600000Y-83200000D01*
D22*
%TO.N,/Logical Part/GPIO0*%
X159672000Y-76875000D02*
X162212000Y-76875000D01*
%TO.N,AIN2*%
X159672000Y-56555000D02*
X162212000Y-56555000D01*
D26*
X159672000Y-56555000D02*
X158303600Y-56555000D01*
X158303600Y-56555000D02*
X157175200Y-57683400D01*
X157175200Y-57683400D02*
X157175200Y-68935600D01*
X157175200Y-68935600D02*
X153924000Y-72186800D01*
X153924000Y-72872600D02*
X153390600Y-73406000D01*
X153924000Y-72186800D02*
X153924000Y-72872600D01*
D22*
%TO.N,AIN1*%
X159672000Y-48935000D02*
X162212000Y-48935000D01*
D26*
X159672000Y-48935000D02*
X158252800Y-48935000D01*
X158252800Y-48935000D02*
X156260800Y-50927000D01*
X156260800Y-68427600D02*
X154584400Y-70104000D01*
X156260800Y-50927000D02*
X156260800Y-68427600D01*
D22*
%TO.N,AO2*%
X162212000Y-46395000D02*
X159672000Y-46395000D01*
%TO.N,/Logical Part/GPIO5*%
X162212000Y-66715000D02*
X159672000Y-66715000D01*
D26*
%TO.N,/Logical Part/GPIO32*%
X138557000Y-95478600D02*
X153009600Y-95478600D01*
X154101800Y-96570800D02*
X154533600Y-96570800D01*
X153009600Y-95478600D02*
X154101800Y-96570800D01*
X136812000Y-59095000D02*
X134986400Y-59095000D01*
X134986400Y-59095000D02*
X134493000Y-59588400D01*
X134493000Y-91414600D02*
X138557000Y-95478600D01*
X134493000Y-59588400D02*
X134493000Y-91414600D01*
%TO.N,/Logical Part/GPIO25*%
X138425000Y-64175000D02*
X136812000Y-64175000D01*
X142250000Y-78350000D02*
X139650000Y-75750000D01*
X142250000Y-79800000D02*
X142250000Y-78350000D01*
X142850000Y-80400000D02*
X142250000Y-79800000D01*
X139650000Y-65400000D02*
X138425000Y-64175000D01*
X139650000Y-75750000D02*
X139650000Y-65400000D01*
X149700000Y-80400000D02*
X142850000Y-80400000D01*
X152654000Y-83354000D02*
X149700000Y-80400000D01*
X152654000Y-93662500D02*
X152654000Y-83354000D01*
X153835100Y-94843600D02*
X152654000Y-93662500D01*
X154711400Y-94843600D02*
X153835100Y-94843600D01*
D22*
%TO.N,Net-(U1-Pad22)*%
X162212000Y-84495000D02*
X159672000Y-84495000D01*
%TO.N,Net-(U1-Pad21)*%
X159672000Y-87035000D02*
X162212000Y-87035000D01*
%TO.N,Net-(U1-Pad20)*%
X162212000Y-89575000D02*
X159672000Y-89575000D01*
%TO.N,Net-(U1-Pad34)*%
X162212000Y-54015000D02*
X159672000Y-54015000D01*
%TO.N,Net-(U1-Pad35)*%
X162212000Y-51475000D02*
X159672000Y-51475000D01*
D26*
%TO.N,/Logical Part/GPIO35*%
X152781000Y-96012000D02*
X153974800Y-97205800D01*
X137922000Y-96012000D02*
X152781000Y-96012000D01*
X136812000Y-56555000D02*
X135215000Y-56555000D01*
X135215000Y-56555000D02*
X133934200Y-57835800D01*
X133934200Y-92024200D02*
X137922000Y-96012000D01*
X133934200Y-57835800D02*
X133934200Y-92024200D01*
D22*
%TO.N,/Logical Part/GPIO18*%
X159672000Y-64175000D02*
X162212000Y-64175000D01*
D26*
%TO.N,/Logical Part/GPIO34*%
X152882600Y-97332800D02*
X152873400Y-97332800D01*
X152120600Y-96570800D02*
X152882600Y-97332800D01*
X137185400Y-96570800D02*
X152120600Y-96570800D01*
X136812000Y-54015000D02*
X135367400Y-54015000D01*
X135367400Y-54015000D02*
X134823200Y-54559200D01*
X134823200Y-54559200D02*
X134823200Y-55956200D01*
X134823200Y-55956200D02*
X133400800Y-57378600D01*
X133400800Y-92786200D02*
X137185400Y-96570800D01*
X133400800Y-57378600D02*
X133400800Y-92786200D01*
D22*
%TO.N,/Logical Part/GPIO19*%
X162212000Y-61635000D02*
X159672000Y-61635000D01*
D26*
%TO.N,GPIO39*%
X136847000Y-97350000D02*
X151600000Y-97350000D01*
X136812000Y-51475000D02*
X135088000Y-51475000D01*
X135088000Y-51475000D02*
X134289800Y-52273200D01*
X134289800Y-52273200D02*
X134289800Y-55727600D01*
X134289800Y-55727600D02*
X132842000Y-57175400D01*
X132842000Y-57175400D02*
X132842000Y-93751400D01*
X136440600Y-97350000D02*
X136847000Y-97350000D01*
X132842000Y-93751400D02*
X136440600Y-97350000D01*
%TD*%
D27*
%TO.N,GND*%
X176162540Y-39179102D02*
X176318894Y-39226308D01*
X176463096Y-39302982D01*
X176589663Y-39406207D01*
X176693769Y-39532051D01*
X176771447Y-39675711D01*
X176819742Y-39831729D01*
X176840001Y-40024482D01*
X176840000Y-119967721D01*
X176782808Y-120551010D01*
X176622783Y-121081036D01*
X176362860Y-121569880D01*
X176012935Y-121998931D01*
X175586335Y-122351845D01*
X175099320Y-122615173D01*
X174570422Y-122778894D01*
X173989040Y-122840000D01*
X125032279Y-122840000D01*
X124448990Y-122782808D01*
X123918964Y-122622783D01*
X123430120Y-122362860D01*
X123001069Y-122012935D01*
X122648155Y-121586335D01*
X122384827Y-121099320D01*
X122221106Y-120570422D01*
X122160000Y-119989040D01*
X122160000Y-119789721D01*
X122865000Y-119789721D01*
X122865000Y-120210279D01*
X122947047Y-120622756D01*
X123107988Y-121011302D01*
X123341637Y-121360983D01*
X123639017Y-121658363D01*
X123988698Y-121892012D01*
X124377244Y-122052953D01*
X124789721Y-122135000D01*
X125210279Y-122135000D01*
X125622756Y-122052953D01*
X126011302Y-121892012D01*
X126360983Y-121658363D01*
X126658363Y-121360983D01*
X126892012Y-121011302D01*
X127052953Y-120622756D01*
X127135000Y-120210279D01*
X127135000Y-119789721D01*
X127052953Y-119377244D01*
X126892012Y-118988698D01*
X126658363Y-118639017D01*
X126360983Y-118341637D01*
X126011302Y-118107988D01*
X125622756Y-117947047D01*
X125210279Y-117865000D01*
X124789721Y-117865000D01*
X124377244Y-117947047D01*
X123988698Y-118107988D01*
X123639017Y-118341637D01*
X123341637Y-118639017D01*
X123107988Y-118988698D01*
X122947047Y-119377244D01*
X122865000Y-119789721D01*
X122160000Y-119789721D01*
X122160000Y-115611914D01*
X122311000Y-115611914D01*
X122385844Y-115792625D01*
X122540943Y-116042125D01*
X122741737Y-116256572D01*
X122980510Y-116427726D01*
X123248085Y-116549009D01*
X123476000Y-116448177D01*
X123476000Y-115384000D01*
X122414446Y-115384000D01*
X122311000Y-115611914D01*
X122160000Y-115611914D01*
X122160000Y-66006400D01*
X122228328Y-66006400D01*
X122228328Y-67733600D01*
X122240588Y-67858082D01*
X122276898Y-67977780D01*
X122335863Y-68088094D01*
X122415215Y-68184785D01*
X122511906Y-68264137D01*
X122622220Y-68323102D01*
X122680023Y-68340636D01*
X122565961Y-68454698D01*
X122401958Y-68700147D01*
X122288990Y-68972875D01*
X122231400Y-69262401D01*
X122231400Y-69557599D01*
X122288990Y-69847125D01*
X122401958Y-70119853D01*
X122565961Y-70365302D01*
X122774698Y-70574039D01*
X122933281Y-70680000D01*
X122774698Y-70785961D01*
X122565961Y-70994698D01*
X122401958Y-71240147D01*
X122288990Y-71512875D01*
X122231400Y-71802401D01*
X122231400Y-72097599D01*
X122288990Y-72387125D01*
X122401958Y-72659853D01*
X122565961Y-72905302D01*
X122774698Y-73114039D01*
X122933281Y-73220000D01*
X122774698Y-73325961D01*
X122565961Y-73534698D01*
X122401958Y-73780147D01*
X122288990Y-74052875D01*
X122231400Y-74342401D01*
X122231400Y-74637599D01*
X122288990Y-74927125D01*
X122401958Y-75199853D01*
X122565961Y-75445302D01*
X122774698Y-75654039D01*
X122937705Y-75762957D01*
X122741737Y-75903428D01*
X122540943Y-76117875D01*
X122385844Y-76367375D01*
X122311000Y-76548086D01*
X122414446Y-76776000D01*
X123476000Y-76776000D01*
X123476000Y-76756000D01*
X123984000Y-76756000D01*
X123984000Y-76776000D01*
X124004000Y-76776000D01*
X124004000Y-77284000D01*
X123984000Y-77284000D01*
X123984000Y-77304000D01*
X123476000Y-77304000D01*
X123476000Y-77284000D01*
X122414446Y-77284000D01*
X122311000Y-77511914D01*
X122385844Y-77692625D01*
X122540943Y-77942125D01*
X122741737Y-78156572D01*
X122937705Y-78297043D01*
X122774698Y-78405961D01*
X122565961Y-78614698D01*
X122401958Y-78860147D01*
X122288990Y-79132875D01*
X122231400Y-79422401D01*
X122231400Y-79717599D01*
X122288990Y-80007125D01*
X122401958Y-80279853D01*
X122565961Y-80525302D01*
X122774698Y-80734039D01*
X122933281Y-80840000D01*
X122774698Y-80945961D01*
X122565961Y-81154698D01*
X122401958Y-81400147D01*
X122288990Y-81672875D01*
X122231400Y-81962401D01*
X122231400Y-82257599D01*
X122288990Y-82547125D01*
X122401958Y-82819853D01*
X122565961Y-83065302D01*
X122774698Y-83274039D01*
X122933281Y-83380000D01*
X122774698Y-83485961D01*
X122565961Y-83694698D01*
X122401958Y-83940147D01*
X122288990Y-84212875D01*
X122231400Y-84502401D01*
X122231400Y-84797599D01*
X122288990Y-85087125D01*
X122401958Y-85359853D01*
X122565961Y-85605302D01*
X122774698Y-85814039D01*
X122933281Y-85920000D01*
X122774698Y-86025961D01*
X122565961Y-86234698D01*
X122401958Y-86480147D01*
X122288990Y-86752875D01*
X122231400Y-87042401D01*
X122231400Y-87337599D01*
X122288990Y-87627125D01*
X122401958Y-87899853D01*
X122565961Y-88145302D01*
X122774698Y-88354039D01*
X122933281Y-88460000D01*
X122774698Y-88565961D01*
X122565961Y-88774698D01*
X122401958Y-89020147D01*
X122288990Y-89292875D01*
X122231400Y-89582401D01*
X122231400Y-89877599D01*
X122288990Y-90167125D01*
X122401958Y-90439853D01*
X122565961Y-90685302D01*
X122774698Y-90894039D01*
X122933281Y-91000000D01*
X122774698Y-91105961D01*
X122565961Y-91314698D01*
X122401958Y-91560147D01*
X122288990Y-91832875D01*
X122231400Y-92122401D01*
X122231400Y-92417599D01*
X122288990Y-92707125D01*
X122401958Y-92979853D01*
X122565961Y-93225302D01*
X122774698Y-93434039D01*
X122933281Y-93540000D01*
X122774698Y-93645961D01*
X122565961Y-93854698D01*
X122401958Y-94100147D01*
X122288990Y-94372875D01*
X122231400Y-94662401D01*
X122231400Y-94957599D01*
X122288990Y-95247125D01*
X122401958Y-95519853D01*
X122565961Y-95765302D01*
X122774698Y-95974039D01*
X122937705Y-96082957D01*
X122741737Y-96223428D01*
X122540943Y-96437875D01*
X122385844Y-96687375D01*
X122311000Y-96868086D01*
X122414446Y-97096000D01*
X123476000Y-97096000D01*
X123476000Y-97076000D01*
X123984000Y-97076000D01*
X123984000Y-97096000D01*
X124004000Y-97096000D01*
X124004000Y-97604000D01*
X123984000Y-97604000D01*
X123984000Y-97624000D01*
X123476000Y-97624000D01*
X123476000Y-97604000D01*
X122414446Y-97604000D01*
X122311000Y-97831914D01*
X122385844Y-98012625D01*
X122540943Y-98262125D01*
X122741737Y-98476572D01*
X122937705Y-98617043D01*
X122774698Y-98725961D01*
X122565961Y-98934698D01*
X122401958Y-99180147D01*
X122288990Y-99452875D01*
X122231400Y-99742401D01*
X122231400Y-100037599D01*
X122288990Y-100327125D01*
X122401958Y-100599853D01*
X122565961Y-100845302D01*
X122774698Y-101054039D01*
X122933281Y-101160000D01*
X122774698Y-101265961D01*
X122565961Y-101474698D01*
X122401958Y-101720147D01*
X122288990Y-101992875D01*
X122231400Y-102282401D01*
X122231400Y-102577599D01*
X122288990Y-102867125D01*
X122401958Y-103139853D01*
X122565961Y-103385302D01*
X122774698Y-103594039D01*
X122933281Y-103700000D01*
X122774698Y-103805961D01*
X122565961Y-104014698D01*
X122401958Y-104260147D01*
X122288990Y-104532875D01*
X122231400Y-104822401D01*
X122231400Y-105117599D01*
X122288990Y-105407125D01*
X122401958Y-105679853D01*
X122565961Y-105925302D01*
X122774698Y-106134039D01*
X122933281Y-106240000D01*
X122774698Y-106345961D01*
X122565961Y-106554698D01*
X122401958Y-106800147D01*
X122288990Y-107072875D01*
X122231400Y-107362401D01*
X122231400Y-107657599D01*
X122288990Y-107947125D01*
X122401958Y-108219853D01*
X122565961Y-108465302D01*
X122774698Y-108674039D01*
X122933281Y-108780000D01*
X122774698Y-108885961D01*
X122565961Y-109094698D01*
X122401958Y-109340147D01*
X122288990Y-109612875D01*
X122231400Y-109902401D01*
X122231400Y-110197599D01*
X122288990Y-110487125D01*
X122401958Y-110759853D01*
X122565961Y-111005302D01*
X122774698Y-111214039D01*
X122933281Y-111320000D01*
X122774698Y-111425961D01*
X122565961Y-111634698D01*
X122401958Y-111880147D01*
X122288990Y-112152875D01*
X122231400Y-112442401D01*
X122231400Y-112737599D01*
X122288990Y-113027125D01*
X122401958Y-113299853D01*
X122565961Y-113545302D01*
X122774698Y-113754039D01*
X122937705Y-113862957D01*
X122741737Y-114003428D01*
X122540943Y-114217875D01*
X122385844Y-114467375D01*
X122311000Y-114648086D01*
X122414446Y-114876000D01*
X123476000Y-114876000D01*
X123476000Y-114856000D01*
X123984000Y-114856000D01*
X123984000Y-114876000D01*
X124004000Y-114876000D01*
X124004000Y-115384000D01*
X123984000Y-115384000D01*
X123984000Y-116448177D01*
X124211915Y-116549009D01*
X124479490Y-116427726D01*
X124718263Y-116256572D01*
X124919057Y-116042125D01*
X124995233Y-115919585D01*
X125105961Y-116085302D01*
X125314698Y-116294039D01*
X125560147Y-116458042D01*
X125832875Y-116571010D01*
X126122401Y-116628600D01*
X126417599Y-116628600D01*
X126707125Y-116571010D01*
X126979853Y-116458042D01*
X126984725Y-116454786D01*
X131983624Y-116454786D01*
X132077052Y-116693511D01*
X132359533Y-116801360D01*
X132657625Y-116852028D01*
X132959875Y-116843567D01*
X133254667Y-116776304D01*
X133454548Y-116693511D01*
X133547976Y-116454786D01*
X132765800Y-115672610D01*
X131983624Y-116454786D01*
X126984725Y-116454786D01*
X127225302Y-116294039D01*
X127434039Y-116085302D01*
X127598042Y-115839853D01*
X127711010Y-115567125D01*
X127768600Y-115277599D01*
X127768600Y-115205225D01*
X131227172Y-115205225D01*
X131235633Y-115507475D01*
X131302896Y-115802267D01*
X131385689Y-116002148D01*
X131624414Y-116095576D01*
X132406590Y-115313400D01*
X133125010Y-115313400D01*
X133907186Y-116095576D01*
X134145911Y-116002148D01*
X134253760Y-115719667D01*
X134304428Y-115421575D01*
X134295967Y-115119325D01*
X134228704Y-114824533D01*
X134145911Y-114624652D01*
X133907186Y-114531224D01*
X133125010Y-115313400D01*
X132406590Y-115313400D01*
X131624414Y-114531224D01*
X131385689Y-114624652D01*
X131277840Y-114907133D01*
X131227172Y-115205225D01*
X127768600Y-115205225D01*
X127768600Y-114982401D01*
X127711010Y-114692875D01*
X127598042Y-114420147D01*
X127434039Y-114174698D01*
X127431355Y-114172014D01*
X131983624Y-114172014D01*
X132765800Y-114954190D01*
X133547976Y-114172014D01*
X133454548Y-113933289D01*
X133172067Y-113825440D01*
X132873975Y-113774772D01*
X132571725Y-113783233D01*
X132276933Y-113850496D01*
X132077052Y-113933289D01*
X131983624Y-114172014D01*
X127431355Y-114172014D01*
X127225302Y-113965961D01*
X127066719Y-113860000D01*
X127225302Y-113754039D01*
X127434039Y-113545302D01*
X127598042Y-113299853D01*
X127711010Y-113027125D01*
X127768600Y-112737599D01*
X127768600Y-112442401D01*
X127711010Y-112152875D01*
X127598042Y-111880147D01*
X127434039Y-111634698D01*
X127225302Y-111425961D01*
X127066719Y-111320000D01*
X127225302Y-111214039D01*
X127434039Y-111005302D01*
X127495445Y-110913400D01*
X131227728Y-110913400D01*
X131227728Y-112713400D01*
X131239988Y-112837882D01*
X131276298Y-112957580D01*
X131335263Y-113067894D01*
X131414615Y-113164585D01*
X131511306Y-113243937D01*
X131621620Y-113302902D01*
X131741318Y-113339212D01*
X131865800Y-113351472D01*
X133665800Y-113351472D01*
X133790282Y-113339212D01*
X133909980Y-113302902D01*
X134020294Y-113243937D01*
X134116985Y-113164585D01*
X134196337Y-113067894D01*
X134255302Y-112957580D01*
X134291612Y-112837882D01*
X134303872Y-112713400D01*
X134303872Y-111270000D01*
X136996700Y-111270000D01*
X137001000Y-111313660D01*
X137001000Y-112147559D01*
X137009563Y-112190610D01*
X137013864Y-112234273D01*
X137026600Y-112276260D01*
X137035164Y-112319312D01*
X137051960Y-112359860D01*
X137064697Y-112401850D01*
X137085384Y-112440552D01*
X137102179Y-112481099D01*
X137126561Y-112517589D01*
X137147247Y-112556290D01*
X137175085Y-112590211D01*
X137199469Y-112626704D01*
X137230502Y-112657737D01*
X137258341Y-112691659D01*
X137292264Y-112719499D01*
X137323296Y-112750531D01*
X137359785Y-112774912D01*
X137393709Y-112802753D01*
X137432415Y-112823442D01*
X137468901Y-112847821D01*
X137509443Y-112864614D01*
X137548149Y-112885303D01*
X137590143Y-112898041D01*
X137630688Y-112914836D01*
X137673737Y-112923399D01*
X137715726Y-112936136D01*
X137759391Y-112940437D01*
X137802441Y-112949000D01*
X137846333Y-112949000D01*
X137890000Y-112953301D01*
X137933667Y-112949000D01*
X137977559Y-112949000D01*
X138020610Y-112940437D01*
X138064273Y-112936136D01*
X138106260Y-112923400D01*
X138149312Y-112914836D01*
X138189860Y-112898040D01*
X138231850Y-112885303D01*
X138270552Y-112864616D01*
X138311099Y-112847821D01*
X138347589Y-112823439D01*
X138386290Y-112802753D01*
X138420211Y-112774915D01*
X138456704Y-112750531D01*
X138487737Y-112719498D01*
X138521659Y-112691659D01*
X138549499Y-112657736D01*
X138580531Y-112626704D01*
X138604912Y-112590215D01*
X138632753Y-112556291D01*
X138653442Y-112517585D01*
X138677821Y-112481099D01*
X138694614Y-112440557D01*
X138715303Y-112401851D01*
X138728041Y-112359857D01*
X138744836Y-112319312D01*
X138753399Y-112276263D01*
X138766136Y-112234274D01*
X138770437Y-112190609D01*
X138779000Y-112147559D01*
X138779000Y-111638235D01*
X139331044Y-111086192D01*
X140755330Y-111086192D01*
X140728341Y-111108341D01*
X140617247Y-111243710D01*
X140534697Y-111398150D01*
X140483864Y-111565727D01*
X140471000Y-111696334D01*
X140471000Y-111696340D01*
X140466700Y-111740000D01*
X140471000Y-111783660D01*
X140471001Y-119196330D01*
X140466700Y-119240000D01*
X140483864Y-119414274D01*
X140534698Y-119581852D01*
X140617248Y-119736291D01*
X140693552Y-119829267D01*
X140728342Y-119871659D01*
X140762259Y-119899494D01*
X141492259Y-120629495D01*
X141492265Y-120629500D01*
X141523296Y-120660531D01*
X141559785Y-120684912D01*
X141593708Y-120712752D01*
X141632412Y-120733440D01*
X141668901Y-120757821D01*
X141709444Y-120774614D01*
X141748147Y-120795302D01*
X141790141Y-120808041D01*
X141830688Y-120824836D01*
X141873736Y-120833399D01*
X141915725Y-120846136D01*
X141959389Y-120850436D01*
X142002441Y-120859000D01*
X142046340Y-120859000D01*
X142090000Y-120863300D01*
X142133660Y-120859000D01*
X142177559Y-120859000D01*
X142220611Y-120850436D01*
X142264275Y-120846136D01*
X142306263Y-120833399D01*
X142349312Y-120824836D01*
X142389861Y-120808040D01*
X142431852Y-120795302D01*
X142470552Y-120774616D01*
X142511099Y-120757821D01*
X142547592Y-120733437D01*
X142586291Y-120712752D01*
X142620211Y-120684915D01*
X142656704Y-120660531D01*
X142687738Y-120629497D01*
X142721659Y-120601659D01*
X142749497Y-120567738D01*
X142780531Y-120536704D01*
X142804915Y-120500211D01*
X142832752Y-120466291D01*
X142853437Y-120427592D01*
X142877821Y-120391099D01*
X142894616Y-120350552D01*
X142915302Y-120311852D01*
X142928040Y-120269861D01*
X142944836Y-120229312D01*
X142953399Y-120186263D01*
X142966136Y-120144275D01*
X142970436Y-120100611D01*
X142979000Y-120057559D01*
X142979000Y-120013660D01*
X142983300Y-119970000D01*
X142979000Y-119926340D01*
X142979000Y-119882441D01*
X142970436Y-119839389D01*
X142966136Y-119795725D01*
X142964315Y-119789721D01*
X171865000Y-119789721D01*
X171865000Y-120210279D01*
X171947047Y-120622756D01*
X172107988Y-121011302D01*
X172341637Y-121360983D01*
X172639017Y-121658363D01*
X172988698Y-121892012D01*
X173377244Y-122052953D01*
X173789721Y-122135000D01*
X174210279Y-122135000D01*
X174622756Y-122052953D01*
X175011302Y-121892012D01*
X175360983Y-121658363D01*
X175658363Y-121360983D01*
X175892012Y-121011302D01*
X176052953Y-120622756D01*
X176135000Y-120210279D01*
X176135000Y-119789721D01*
X176052953Y-119377244D01*
X175892012Y-118988698D01*
X175658363Y-118639017D01*
X175360983Y-118341637D01*
X175011302Y-118107988D01*
X174622756Y-117947047D01*
X174210279Y-117865000D01*
X173789721Y-117865000D01*
X173377244Y-117947047D01*
X172988698Y-118107988D01*
X172639017Y-118341637D01*
X172341637Y-118639017D01*
X172107988Y-118988698D01*
X171947047Y-119377244D01*
X171865000Y-119789721D01*
X142964315Y-119789721D01*
X142953399Y-119753736D01*
X142944836Y-119710688D01*
X142928041Y-119670141D01*
X142915302Y-119628147D01*
X142894614Y-119589444D01*
X142877821Y-119548901D01*
X142853440Y-119512412D01*
X142832752Y-119473708D01*
X142804912Y-119439785D01*
X142780531Y-119403296D01*
X142749500Y-119372265D01*
X142749495Y-119372259D01*
X142249000Y-118871765D01*
X142249000Y-112108235D01*
X142611835Y-111745400D01*
X161715000Y-111745400D01*
X161715000Y-112254600D01*
X161814340Y-112754017D01*
X162009202Y-113224457D01*
X162292099Y-113647842D01*
X162652158Y-114007901D01*
X163075543Y-114290798D01*
X163545983Y-114485660D01*
X164045400Y-114585000D01*
X164554600Y-114585000D01*
X165054017Y-114485660D01*
X165524457Y-114290798D01*
X165947842Y-114007901D01*
X166307901Y-113647842D01*
X166590798Y-113224457D01*
X166785660Y-112754017D01*
X166805693Y-112653300D01*
X167798910Y-112653300D01*
X167974420Y-113128685D01*
X168239301Y-113560696D01*
X168583373Y-113932730D01*
X168993414Y-114230490D01*
X169453667Y-114442534D01*
X169646701Y-114501085D01*
X170046000Y-114412918D01*
X170046000Y-112254000D01*
X170554000Y-112254000D01*
X170554000Y-114412918D01*
X170953299Y-114501085D01*
X171146333Y-114442534D01*
X171606586Y-114230490D01*
X172016627Y-113932730D01*
X172360699Y-113560696D01*
X172625580Y-113128685D01*
X172801090Y-112653300D01*
X172713746Y-112254000D01*
X170554000Y-112254000D01*
X170046000Y-112254000D01*
X167886254Y-112254000D01*
X167798910Y-112653300D01*
X166805693Y-112653300D01*
X166885000Y-112254600D01*
X166885000Y-111745400D01*
X166805694Y-111346700D01*
X167798910Y-111346700D01*
X167886254Y-111746000D01*
X170046000Y-111746000D01*
X170046000Y-109587082D01*
X170554000Y-109587082D01*
X170554000Y-111746000D01*
X172713746Y-111746000D01*
X172801090Y-111346700D01*
X172625580Y-110871315D01*
X172360699Y-110439304D01*
X172016627Y-110067270D01*
X171606586Y-109769510D01*
X171146333Y-109557466D01*
X170953299Y-109498915D01*
X170554000Y-109587082D01*
X170046000Y-109587082D01*
X169646701Y-109498915D01*
X169453667Y-109557466D01*
X168993414Y-109769510D01*
X168583373Y-110067270D01*
X168239301Y-110439304D01*
X167974420Y-110871315D01*
X167798910Y-111346700D01*
X166805694Y-111346700D01*
X166785660Y-111245983D01*
X166590798Y-110775543D01*
X166307901Y-110352158D01*
X165947842Y-109992099D01*
X165524457Y-109709202D01*
X165054017Y-109514340D01*
X164554600Y-109415000D01*
X164045400Y-109415000D01*
X163545983Y-109514340D01*
X163075543Y-109709202D01*
X162652158Y-109992099D01*
X162292099Y-110352158D01*
X162009202Y-110775543D01*
X161814340Y-111245983D01*
X161715000Y-111745400D01*
X142611835Y-111745400D01*
X142749495Y-111607741D01*
X142749500Y-111607735D01*
X142780531Y-111576704D01*
X142804912Y-111540215D01*
X142832752Y-111506292D01*
X142853440Y-111467588D01*
X142877821Y-111431099D01*
X142894614Y-111390556D01*
X142915302Y-111351853D01*
X142928041Y-111309859D01*
X142944836Y-111269312D01*
X142953399Y-111226264D01*
X142966136Y-111184275D01*
X142970436Y-111140611D01*
X142979000Y-111097559D01*
X142979000Y-111086192D01*
X150568324Y-111086192D01*
X150582441Y-111089000D01*
X150626339Y-111089000D01*
X150669999Y-111093300D01*
X150713659Y-111089000D01*
X150757559Y-111089000D01*
X150800612Y-111080436D01*
X150844274Y-111076136D01*
X150886261Y-111063399D01*
X150929312Y-111054836D01*
X150969862Y-111038039D01*
X151011852Y-111025302D01*
X151050550Y-111004617D01*
X151091099Y-110987821D01*
X151127598Y-110963434D01*
X151166291Y-110942751D01*
X151200206Y-110914918D01*
X151236704Y-110890531D01*
X151267740Y-110859495D01*
X151301659Y-110831659D01*
X151329496Y-110797739D01*
X151360531Y-110766704D01*
X151384918Y-110730206D01*
X151412751Y-110696291D01*
X151433434Y-110657598D01*
X151457821Y-110621099D01*
X151474617Y-110580550D01*
X151495302Y-110541852D01*
X151508039Y-110499862D01*
X151524836Y-110459312D01*
X151533399Y-110416261D01*
X151546136Y-110374274D01*
X151550436Y-110330612D01*
X151559000Y-110287559D01*
X151559000Y-110243659D01*
X151563300Y-110199999D01*
X151559000Y-110156339D01*
X151559000Y-110112441D01*
X151550436Y-110069389D01*
X151546136Y-110025725D01*
X151533399Y-109983737D01*
X151524836Y-109940688D01*
X151508040Y-109900139D01*
X151495302Y-109858148D01*
X151474617Y-109819450D01*
X151457821Y-109778901D01*
X151433434Y-109742402D01*
X151412751Y-109703709D01*
X151384919Y-109669795D01*
X151360531Y-109633296D01*
X151326691Y-109599456D01*
X151298851Y-109565533D01*
X151264928Y-109537693D01*
X151236704Y-109509469D01*
X151203517Y-109487294D01*
X151163483Y-109454439D01*
X151117807Y-109430024D01*
X151091099Y-109412179D01*
X151061423Y-109399887D01*
X151009043Y-109371889D01*
X150952214Y-109354650D01*
X150929312Y-109345164D01*
X150904996Y-109340327D01*
X150841466Y-109321056D01*
X150775401Y-109314549D01*
X150757559Y-109311000D01*
X150739368Y-109311000D01*
X150710859Y-109308192D01*
X150710852Y-109308192D01*
X150667192Y-109303892D01*
X150623532Y-109308192D01*
X139006468Y-109308192D01*
X138962808Y-109303892D01*
X138919148Y-109308192D01*
X138919141Y-109308192D01*
X138805133Y-109319421D01*
X138788533Y-109321056D01*
X138737700Y-109336476D01*
X138620957Y-109371889D01*
X138466517Y-109454439D01*
X138331149Y-109565533D01*
X138303313Y-109599451D01*
X137292259Y-110610506D01*
X137258342Y-110638341D01*
X137230507Y-110672258D01*
X137230505Y-110672260D01*
X137147248Y-110773709D01*
X137064698Y-110928148D01*
X137013864Y-111095726D01*
X137012622Y-111108341D01*
X137001000Y-111226333D01*
X137001000Y-111226340D01*
X136996700Y-111270000D01*
X134303872Y-111270000D01*
X134303872Y-110913400D01*
X134291612Y-110788918D01*
X134255302Y-110669220D01*
X134196337Y-110558906D01*
X134116985Y-110462215D01*
X134020294Y-110382863D01*
X133909980Y-110323898D01*
X133790282Y-110287588D01*
X133665800Y-110275328D01*
X131865800Y-110275328D01*
X131741318Y-110287588D01*
X131621620Y-110323898D01*
X131511306Y-110382863D01*
X131414615Y-110462215D01*
X131335263Y-110558906D01*
X131276298Y-110669220D01*
X131239988Y-110788918D01*
X131227728Y-110913400D01*
X127495445Y-110913400D01*
X127598042Y-110759853D01*
X127711010Y-110487125D01*
X127768600Y-110197599D01*
X127768600Y-109902401D01*
X127711010Y-109612875D01*
X127598042Y-109340147D01*
X127434039Y-109094698D01*
X127225302Y-108885961D01*
X127062295Y-108777043D01*
X127258263Y-108636572D01*
X127459057Y-108422125D01*
X127614156Y-108172625D01*
X127689000Y-107991914D01*
X127671474Y-107953299D01*
X164798915Y-107953299D01*
X164857466Y-108146333D01*
X165069510Y-108606586D01*
X165367270Y-109016627D01*
X165739304Y-109360699D01*
X166171315Y-109625580D01*
X166646700Y-109801090D01*
X167046000Y-109713746D01*
X167046000Y-107554000D01*
X167554000Y-107554000D01*
X167554000Y-109713746D01*
X167953300Y-109801090D01*
X168428685Y-109625580D01*
X168860696Y-109360699D01*
X169232730Y-109016627D01*
X169530490Y-108606586D01*
X169742534Y-108146333D01*
X169801085Y-107953299D01*
X169712918Y-107554000D01*
X167554000Y-107554000D01*
X167046000Y-107554000D01*
X164887082Y-107554000D01*
X164798915Y-107953299D01*
X127671474Y-107953299D01*
X127585554Y-107764000D01*
X126524000Y-107764000D01*
X126524000Y-107784000D01*
X126016000Y-107784000D01*
X126016000Y-107764000D01*
X125996000Y-107764000D01*
X125996000Y-107256000D01*
X126016000Y-107256000D01*
X126016000Y-107236000D01*
X126524000Y-107236000D01*
X126524000Y-107256000D01*
X127585554Y-107256000D01*
X127689000Y-107028086D01*
X127614156Y-106847375D01*
X127489410Y-106646701D01*
X164798915Y-106646701D01*
X164887082Y-107046000D01*
X167046000Y-107046000D01*
X167046000Y-104886254D01*
X167554000Y-104886254D01*
X167554000Y-107046000D01*
X169712918Y-107046000D01*
X169801085Y-106646701D01*
X169742534Y-106453667D01*
X169530490Y-105993414D01*
X169232730Y-105583373D01*
X168860696Y-105239301D01*
X168428685Y-104974420D01*
X167953300Y-104798910D01*
X167554000Y-104886254D01*
X167046000Y-104886254D01*
X166646700Y-104798910D01*
X166171315Y-104974420D01*
X165739304Y-105239301D01*
X165367270Y-105583373D01*
X165069510Y-105993414D01*
X164857466Y-106453667D01*
X164798915Y-106646701D01*
X127489410Y-106646701D01*
X127459057Y-106597875D01*
X127258263Y-106383428D01*
X127062295Y-106242957D01*
X127225302Y-106134039D01*
X127434039Y-105925302D01*
X127598042Y-105679853D01*
X127711010Y-105407125D01*
X127768600Y-105117599D01*
X127768600Y-104822401D01*
X127711010Y-104532875D01*
X127598042Y-104260147D01*
X127434039Y-104014698D01*
X127225302Y-103805961D01*
X127062295Y-103697043D01*
X127258263Y-103556572D01*
X127459057Y-103342125D01*
X127614156Y-103092625D01*
X127689000Y-102911914D01*
X127585554Y-102684000D01*
X126524000Y-102684000D01*
X126524000Y-102704000D01*
X126016000Y-102704000D01*
X126016000Y-102684000D01*
X125996000Y-102684000D01*
X125996000Y-102176000D01*
X126016000Y-102176000D01*
X126016000Y-102156000D01*
X126524000Y-102156000D01*
X126524000Y-102176000D01*
X127585554Y-102176000D01*
X127689000Y-101948086D01*
X127614156Y-101767375D01*
X127459057Y-101517875D01*
X127258263Y-101303428D01*
X127062295Y-101162957D01*
X127225302Y-101054039D01*
X127434039Y-100845302D01*
X127598042Y-100599853D01*
X127711010Y-100327125D01*
X127768600Y-100037599D01*
X127768600Y-99742401D01*
X127738543Y-99591293D01*
X128955877Y-100808628D01*
X128980531Y-100838669D01*
X129010570Y-100863321D01*
X129100427Y-100937066D01*
X129197570Y-100988990D01*
X129237217Y-101010182D01*
X129385643Y-101055206D01*
X129501327Y-101066600D01*
X129501337Y-101066600D01*
X129540000Y-101070408D01*
X129578663Y-101066600D01*
X163969137Y-101066600D01*
X164007800Y-101070408D01*
X164046463Y-101066600D01*
X164046473Y-101066600D01*
X164162157Y-101055206D01*
X164310583Y-101010182D01*
X164447372Y-100937066D01*
X164567269Y-100838669D01*
X164591927Y-100808623D01*
X166379434Y-99021118D01*
X166409469Y-98996469D01*
X166507866Y-98876572D01*
X166580982Y-98739783D01*
X166626006Y-98591357D01*
X166637400Y-98475673D01*
X166637400Y-98475664D01*
X166641208Y-98437001D01*
X166637400Y-98398338D01*
X166637400Y-82988662D01*
X166641208Y-82949999D01*
X166637400Y-82911336D01*
X166637400Y-82911327D01*
X166626006Y-82795643D01*
X166580982Y-82647217D01*
X166507866Y-82510428D01*
X166437162Y-82424275D01*
X166434121Y-82420569D01*
X166434119Y-82420567D01*
X166409469Y-82390531D01*
X166379433Y-82365881D01*
X165439127Y-81425577D01*
X165414469Y-81395531D01*
X165294572Y-81297134D01*
X165157783Y-81224018D01*
X165009357Y-81178994D01*
X164893673Y-81167600D01*
X164893663Y-81167600D01*
X164855000Y-81163792D01*
X164816337Y-81167600D01*
X163707493Y-81167600D01*
X163546081Y-80970919D01*
X163335188Y-80797843D01*
X163124073Y-80685000D01*
X163335188Y-80572157D01*
X163546081Y-80399081D01*
X163719157Y-80188188D01*
X163847764Y-79947581D01*
X163926960Y-79686507D01*
X163953701Y-79415000D01*
X163926960Y-79143493D01*
X163847764Y-78882419D01*
X163719157Y-78641812D01*
X163546081Y-78430919D01*
X163335188Y-78257843D01*
X163124073Y-78145000D01*
X163335188Y-78032157D01*
X163546081Y-77859081D01*
X163719157Y-77648188D01*
X163847764Y-77407581D01*
X163926960Y-77146507D01*
X163953701Y-76875000D01*
X163926960Y-76603493D01*
X163847764Y-76342419D01*
X163719157Y-76101812D01*
X163546081Y-75890919D01*
X163335188Y-75717843D01*
X163124073Y-75605000D01*
X163335188Y-75492157D01*
X163546081Y-75319081D01*
X163719157Y-75108188D01*
X163847764Y-74867581D01*
X163926960Y-74606507D01*
X163953701Y-74335000D01*
X163926960Y-74063493D01*
X163847764Y-73802419D01*
X163719157Y-73561812D01*
X163546081Y-73350919D01*
X163335188Y-73177843D01*
X163124073Y-73065000D01*
X163335188Y-72952157D01*
X163546081Y-72779081D01*
X163719157Y-72568188D01*
X163847764Y-72327581D01*
X163926960Y-72066507D01*
X163953701Y-71795000D01*
X163926960Y-71523493D01*
X163847764Y-71262419D01*
X163719157Y-71021812D01*
X163546081Y-70810919D01*
X163335188Y-70637843D01*
X163124073Y-70525000D01*
X163335188Y-70412157D01*
X163546081Y-70239081D01*
X163719157Y-70028188D01*
X163847764Y-69787581D01*
X163926960Y-69526507D01*
X163953701Y-69255000D01*
X163926960Y-68983493D01*
X163847764Y-68722419D01*
X163719157Y-68481812D01*
X163546081Y-68270919D01*
X163335188Y-68097843D01*
X163124073Y-67985000D01*
X163335188Y-67872157D01*
X163546081Y-67699081D01*
X163719157Y-67488188D01*
X163847764Y-67247581D01*
X163926960Y-66986507D01*
X163953701Y-66715000D01*
X163926960Y-66443493D01*
X163847764Y-66182419D01*
X163719157Y-65941812D01*
X163546081Y-65730919D01*
X163335188Y-65557843D01*
X163124073Y-65445000D01*
X163335188Y-65332157D01*
X163546081Y-65159081D01*
X163719157Y-64948188D01*
X163847764Y-64707581D01*
X163926960Y-64446507D01*
X163953701Y-64175000D01*
X163926960Y-63903493D01*
X163847764Y-63642419D01*
X163719157Y-63401812D01*
X163546081Y-63190919D01*
X163335188Y-63017843D01*
X163124073Y-62905000D01*
X163335188Y-62792157D01*
X163546081Y-62619081D01*
X163719157Y-62408188D01*
X163847764Y-62167581D01*
X163926960Y-61906507D01*
X163953701Y-61635000D01*
X163926960Y-61363493D01*
X163847764Y-61102419D01*
X163719157Y-60861812D01*
X163546081Y-60650919D01*
X163335188Y-60477843D01*
X163126740Y-60366426D01*
X163208390Y-60333545D01*
X163437598Y-60183642D01*
X163633157Y-59991903D01*
X163787552Y-59765697D01*
X163867013Y-59558860D01*
X163761655Y-59349000D01*
X162466000Y-59349000D01*
X162466000Y-59369000D01*
X161958000Y-59369000D01*
X161958000Y-59349000D01*
X159926000Y-59349000D01*
X159926000Y-59369000D01*
X159418000Y-59369000D01*
X159418000Y-59349000D01*
X159398000Y-59349000D01*
X159398000Y-58841000D01*
X159418000Y-58841000D01*
X159418000Y-58821000D01*
X159926000Y-58821000D01*
X159926000Y-58841000D01*
X161958000Y-58841000D01*
X161958000Y-58821000D01*
X162466000Y-58821000D01*
X162466000Y-58841000D01*
X163761655Y-58841000D01*
X163867013Y-58631140D01*
X163787552Y-58424303D01*
X163633157Y-58198097D01*
X163437598Y-58006358D01*
X163208390Y-57856455D01*
X163126740Y-57823574D01*
X163335188Y-57712157D01*
X163546081Y-57539081D01*
X163719157Y-57328188D01*
X163847764Y-57087581D01*
X163923157Y-56839045D01*
X164001647Y-56985890D01*
X164112741Y-57121259D01*
X164146664Y-57149099D01*
X166497001Y-59499437D01*
X166497000Y-73641740D01*
X166492700Y-73685400D01*
X166497000Y-73729060D01*
X166497000Y-73729066D01*
X166509864Y-73859673D01*
X166560697Y-74027250D01*
X166643247Y-74181690D01*
X166754341Y-74317059D01*
X166788263Y-74344899D01*
X167463105Y-75019741D01*
X167490941Y-75053659D01*
X167524858Y-75081494D01*
X167524859Y-75081495D01*
X167528421Y-75084418D01*
X167626309Y-75164753D01*
X167780749Y-75247303D01*
X167897492Y-75282716D01*
X167948325Y-75298136D01*
X167964925Y-75299771D01*
X168078933Y-75311000D01*
X168078940Y-75311000D01*
X168122600Y-75315300D01*
X168135383Y-75314041D01*
X168210919Y-75406081D01*
X168421812Y-75579157D01*
X168632927Y-75692000D01*
X168421812Y-75804843D01*
X168210919Y-75977919D01*
X168037843Y-76188812D01*
X167909236Y-76429419D01*
X167830040Y-76690493D01*
X167803299Y-76962000D01*
X167830040Y-77233507D01*
X167909236Y-77494581D01*
X168037843Y-77735188D01*
X168210919Y-77946081D01*
X168421812Y-78119157D01*
X168632927Y-78232000D01*
X168421812Y-78344843D01*
X168210919Y-78517919D01*
X168037843Y-78728812D01*
X167909236Y-78969419D01*
X167830040Y-79230493D01*
X167803299Y-79502000D01*
X167830040Y-79773507D01*
X167909236Y-80034581D01*
X168037843Y-80275188D01*
X168210919Y-80486081D01*
X168421812Y-80659157D01*
X168632927Y-80772000D01*
X168421812Y-80884843D01*
X168210919Y-81057919D01*
X168037843Y-81268812D01*
X167909236Y-81509419D01*
X167830040Y-81770493D01*
X167803299Y-82042000D01*
X167830040Y-82313507D01*
X167909236Y-82574581D01*
X168037843Y-82815188D01*
X168210919Y-83026081D01*
X168421812Y-83199157D01*
X168632927Y-83312000D01*
X168421812Y-83424843D01*
X168210919Y-83597919D01*
X168037843Y-83808812D01*
X167909236Y-84049419D01*
X167830040Y-84310493D01*
X167803299Y-84582000D01*
X167830040Y-84853507D01*
X167909236Y-85114581D01*
X168037843Y-85355188D01*
X168210919Y-85566081D01*
X168421812Y-85739157D01*
X168662419Y-85867764D01*
X168923493Y-85946960D01*
X169126963Y-85967000D01*
X169963037Y-85967000D01*
X170166507Y-85946960D01*
X170427581Y-85867764D01*
X170554326Y-85800018D01*
X170630506Y-85862537D01*
X170740820Y-85921502D01*
X170860518Y-85957812D01*
X170985000Y-85970072D01*
X173185000Y-85970072D01*
X173309482Y-85957812D01*
X173429180Y-85921502D01*
X173539494Y-85862537D01*
X173636185Y-85783185D01*
X173715537Y-85686494D01*
X173774502Y-85576180D01*
X173810812Y-85456482D01*
X173823072Y-85332000D01*
X173823072Y-83832000D01*
X173810812Y-83707518D01*
X173774502Y-83587820D01*
X173715537Y-83477506D01*
X173636185Y-83380815D01*
X173539494Y-83301463D01*
X173429180Y-83242498D01*
X173309482Y-83206188D01*
X173211392Y-83196527D01*
X173419081Y-83026081D01*
X173592157Y-82815188D01*
X173720764Y-82574581D01*
X173799960Y-82313507D01*
X173826701Y-82042000D01*
X173799960Y-81770493D01*
X173720764Y-81509419D01*
X173592157Y-81268812D01*
X173419081Y-81057919D01*
X173208188Y-80884843D01*
X172997073Y-80772000D01*
X173208188Y-80659157D01*
X173419081Y-80486081D01*
X173592157Y-80275188D01*
X173720764Y-80034581D01*
X173799960Y-79773507D01*
X173826701Y-79502000D01*
X173799960Y-79230493D01*
X173720764Y-78969419D01*
X173592157Y-78728812D01*
X173419081Y-78517919D01*
X173208188Y-78344843D01*
X172997073Y-78232000D01*
X173208188Y-78119157D01*
X173419081Y-77946081D01*
X173592157Y-77735188D01*
X173720764Y-77494581D01*
X173799960Y-77233507D01*
X173826701Y-76962000D01*
X173799960Y-76690493D01*
X173720764Y-76429419D01*
X173592157Y-76188812D01*
X173419081Y-75977919D01*
X173208188Y-75804843D01*
X172997073Y-75692000D01*
X173208188Y-75579157D01*
X173419081Y-75406081D01*
X173592157Y-75195188D01*
X173720764Y-74954581D01*
X173799960Y-74693507D01*
X173826701Y-74422000D01*
X173799960Y-74150493D01*
X173720764Y-73889419D01*
X173592157Y-73648812D01*
X173419081Y-73437919D01*
X173208188Y-73264843D01*
X172999740Y-73153426D01*
X173081390Y-73120545D01*
X173310598Y-72970642D01*
X173506157Y-72778903D01*
X173660552Y-72552697D01*
X173740013Y-72345860D01*
X173634655Y-72136000D01*
X172339000Y-72136000D01*
X172339000Y-72156000D01*
X171831000Y-72156000D01*
X171831000Y-72136000D01*
X171811000Y-72136000D01*
X171811000Y-71628000D01*
X171831000Y-71628000D01*
X171831000Y-70646979D01*
X172339000Y-70646979D01*
X172339000Y-71628000D01*
X173634655Y-71628000D01*
X173740013Y-71418140D01*
X173660552Y-71211303D01*
X173506157Y-70985097D01*
X173310598Y-70793358D01*
X173081390Y-70643455D01*
X172827342Y-70541149D01*
X172558216Y-70490371D01*
X172339000Y-70646979D01*
X171831000Y-70646979D01*
X171611784Y-70490371D01*
X171342658Y-70541149D01*
X171088610Y-70643455D01*
X170859402Y-70793358D01*
X170810316Y-70841485D01*
X170668188Y-70724843D01*
X170427581Y-70596236D01*
X170166507Y-70517040D01*
X169963037Y-70497000D01*
X169126963Y-70497000D01*
X168923493Y-70517040D01*
X168662419Y-70596236D01*
X168421812Y-70724843D01*
X168275000Y-70845329D01*
X168275000Y-61789721D01*
X171865000Y-61789721D01*
X171865000Y-62210279D01*
X171947047Y-62622756D01*
X172107988Y-63011302D01*
X172341637Y-63360983D01*
X172639017Y-63658363D01*
X172988698Y-63892012D01*
X173377244Y-64052953D01*
X173789721Y-64135000D01*
X174210279Y-64135000D01*
X174622756Y-64052953D01*
X175011302Y-63892012D01*
X175360983Y-63658363D01*
X175658363Y-63360983D01*
X175892012Y-63011302D01*
X176052953Y-62622756D01*
X176135000Y-62210279D01*
X176135000Y-61789721D01*
X176052953Y-61377244D01*
X175892012Y-60988698D01*
X175658363Y-60639017D01*
X175360983Y-60341637D01*
X175011302Y-60107988D01*
X174622756Y-59947047D01*
X174210279Y-59865000D01*
X173789721Y-59865000D01*
X173377244Y-59947047D01*
X172988698Y-60107988D01*
X172639017Y-60341637D01*
X172341637Y-60639017D01*
X172107988Y-60988698D01*
X171947047Y-61377244D01*
X171865000Y-61789721D01*
X168275000Y-61789721D01*
X168275000Y-59174868D01*
X168279301Y-59131200D01*
X168262136Y-58956925D01*
X168231951Y-58857418D01*
X168211303Y-58789349D01*
X168128753Y-58634909D01*
X168017659Y-58499541D01*
X167983742Y-58471706D01*
X165633400Y-56121365D01*
X165633400Y-53536060D01*
X165637700Y-53492400D01*
X165633400Y-53448740D01*
X165633400Y-53448733D01*
X165620536Y-53318126D01*
X165569703Y-53150549D01*
X165487153Y-52996109D01*
X165376059Y-52860741D01*
X165342141Y-52832905D01*
X164616499Y-52107263D01*
X164588659Y-52073341D01*
X164453291Y-51962247D01*
X164298851Y-51879697D01*
X164131274Y-51828864D01*
X164000667Y-51816000D01*
X164000660Y-51816000D01*
X163957000Y-51811700D01*
X163913340Y-51816000D01*
X163905880Y-51816000D01*
X163926960Y-51746507D01*
X163953701Y-51475000D01*
X163926960Y-51203493D01*
X163847764Y-50942419D01*
X163719157Y-50701812D01*
X163546081Y-50490919D01*
X163335188Y-50317843D01*
X163124073Y-50205000D01*
X163335188Y-50092157D01*
X163546081Y-49919081D01*
X163719157Y-49708188D01*
X163847764Y-49467581D01*
X163904532Y-49280440D01*
X166784025Y-49280440D01*
X166807870Y-49522542D01*
X166878489Y-49755341D01*
X166993167Y-49969889D01*
X167147498Y-50157942D01*
X167297688Y-50281200D01*
X167147498Y-50404458D01*
X166993167Y-50592511D01*
X166878489Y-50807059D01*
X166807870Y-51039858D01*
X166784025Y-51281960D01*
X166807870Y-51524062D01*
X166878489Y-51756861D01*
X166993167Y-51971409D01*
X167120303Y-52126325D01*
X167070506Y-52152943D01*
X166973815Y-52232295D01*
X166894463Y-52328986D01*
X166835498Y-52439300D01*
X166799188Y-52558998D01*
X166786928Y-52683480D01*
X166786928Y-53883480D01*
X166799188Y-54007962D01*
X166835498Y-54127660D01*
X166894463Y-54237974D01*
X166973815Y-54334665D01*
X167070506Y-54414017D01*
X167180820Y-54472982D01*
X167300518Y-54509292D01*
X167425000Y-54521552D01*
X169125000Y-54521552D01*
X169249482Y-54509292D01*
X169369180Y-54472982D01*
X169479494Y-54414017D01*
X169576185Y-54334665D01*
X169655537Y-54237974D01*
X169714502Y-54127660D01*
X169750812Y-54007962D01*
X169763072Y-53883480D01*
X169763072Y-52683480D01*
X169750812Y-52558998D01*
X169714502Y-52439300D01*
X169655537Y-52328986D01*
X169576185Y-52232295D01*
X169479494Y-52152943D01*
X169429697Y-52126325D01*
X169556833Y-51971409D01*
X169671511Y-51756861D01*
X169742130Y-51524062D01*
X169765975Y-51281960D01*
X169742130Y-51039858D01*
X169671511Y-50807059D01*
X169556833Y-50592511D01*
X169402502Y-50404458D01*
X169252312Y-50281200D01*
X169402502Y-50157942D01*
X169556833Y-49969889D01*
X169671511Y-49755341D01*
X169742130Y-49522542D01*
X169765975Y-49280440D01*
X169742130Y-49038338D01*
X169671511Y-48805539D01*
X169556833Y-48590991D01*
X169402502Y-48402938D01*
X169247430Y-48275674D01*
X169365977Y-48185331D01*
X169526154Y-48003897D01*
X169647858Y-47794700D01*
X169678984Y-47721399D01*
X169570848Y-47535460D01*
X168529000Y-47535460D01*
X168529000Y-47555460D01*
X168021000Y-47555460D01*
X168021000Y-47535460D01*
X166979152Y-47535460D01*
X166871016Y-47721399D01*
X166902142Y-47794700D01*
X167023846Y-48003897D01*
X167184023Y-48185331D01*
X167302570Y-48275674D01*
X167147498Y-48402938D01*
X166993167Y-48590991D01*
X166878489Y-48805539D01*
X166807870Y-49038338D01*
X166784025Y-49280440D01*
X163904532Y-49280440D01*
X163926960Y-49206507D01*
X163953701Y-48935000D01*
X163926960Y-48663493D01*
X163847764Y-48402419D01*
X163719157Y-48161812D01*
X163546081Y-47950919D01*
X163335188Y-47777843D01*
X163124073Y-47665000D01*
X163335188Y-47552157D01*
X163546081Y-47379081D01*
X163719157Y-47168188D01*
X163847764Y-46927581D01*
X163926960Y-46666507D01*
X163953701Y-46395000D01*
X163926960Y-46123493D01*
X163847764Y-45862419D01*
X163719157Y-45621812D01*
X163546081Y-45410919D01*
X163335188Y-45237843D01*
X163126740Y-45126426D01*
X163208390Y-45093545D01*
X163437598Y-44943642D01*
X163633157Y-44751903D01*
X163787552Y-44525697D01*
X163867013Y-44318860D01*
X163761655Y-44109000D01*
X162466000Y-44109000D01*
X162466000Y-44129000D01*
X161958000Y-44129000D01*
X161958000Y-44109000D01*
X159926000Y-44109000D01*
X159926000Y-44129000D01*
X159418000Y-44129000D01*
X159418000Y-44109000D01*
X158122345Y-44109000D01*
X158016987Y-44318860D01*
X158096448Y-44525697D01*
X158250843Y-44751903D01*
X158446402Y-44943642D01*
X158675610Y-45093545D01*
X158757260Y-45126426D01*
X158548812Y-45237843D01*
X158337919Y-45410919D01*
X158164843Y-45621812D01*
X158036236Y-45862419D01*
X157957040Y-46123493D01*
X157930299Y-46395000D01*
X157957040Y-46666507D01*
X158036236Y-46927581D01*
X158164843Y-47168188D01*
X158337919Y-47379081D01*
X158548812Y-47552157D01*
X158759927Y-47665000D01*
X158548812Y-47777843D01*
X158337919Y-47950919D01*
X158173198Y-48151631D01*
X158098443Y-48158994D01*
X157950017Y-48204018D01*
X157813228Y-48277134D01*
X157813226Y-48277135D01*
X157813227Y-48277135D01*
X157723369Y-48350879D01*
X157723367Y-48350881D01*
X157693331Y-48375531D01*
X157668681Y-48405567D01*
X155731377Y-50342872D01*
X155701331Y-50367531D01*
X155602934Y-50487429D01*
X155529818Y-50624218D01*
X155484794Y-50772644D01*
X155473400Y-50888328D01*
X155473400Y-50888337D01*
X155469592Y-50927000D01*
X155473400Y-50965663D01*
X155473401Y-68101447D01*
X154325834Y-69249016D01*
X154325088Y-69249164D01*
X154163301Y-69316179D01*
X154017696Y-69413469D01*
X153893869Y-69537296D01*
X153796579Y-69682901D01*
X153729564Y-69844688D01*
X153695400Y-70016441D01*
X153695400Y-70191559D01*
X153729564Y-70363312D01*
X153796579Y-70525099D01*
X153893869Y-70670704D01*
X154017696Y-70794531D01*
X154128609Y-70868641D01*
X153394578Y-71602672D01*
X153364531Y-71627331D01*
X153266134Y-71747229D01*
X153193018Y-71884018D01*
X153147994Y-72032444D01*
X153136600Y-72148128D01*
X153136600Y-72148137D01*
X153132792Y-72186800D01*
X153136600Y-72225463D01*
X153136600Y-72546449D01*
X153132033Y-72551016D01*
X153131288Y-72551164D01*
X152969501Y-72618179D01*
X152823896Y-72715469D01*
X152700069Y-72839296D01*
X152602779Y-72984901D01*
X152535764Y-73146688D01*
X152501600Y-73318441D01*
X152501600Y-73493559D01*
X152535764Y-73665312D01*
X152602779Y-73827099D01*
X152700069Y-73972704D01*
X152823896Y-74096531D01*
X152969501Y-74193821D01*
X153131288Y-74260836D01*
X153303041Y-74295000D01*
X153478159Y-74295000D01*
X153649912Y-74260836D01*
X153811699Y-74193821D01*
X153957304Y-74096531D01*
X154081131Y-73972704D01*
X154178421Y-73827099D01*
X154245436Y-73665312D01*
X154245584Y-73664567D01*
X154453432Y-73456719D01*
X154483469Y-73432069D01*
X154508119Y-73402033D01*
X154508122Y-73402030D01*
X154581866Y-73312172D01*
X154612600Y-73254673D01*
X154612601Y-93960914D01*
X154453255Y-93992610D01*
X154299735Y-94056200D01*
X154161252Y-94056200D01*
X153441400Y-93336350D01*
X153441400Y-83392663D01*
X153445208Y-83354000D01*
X153441400Y-83315337D01*
X153441400Y-83315327D01*
X153430006Y-83199643D01*
X153384982Y-83051217D01*
X153334461Y-82956700D01*
X153311866Y-82914427D01*
X153261835Y-82853465D01*
X153213469Y-82794531D01*
X153183428Y-82769877D01*
X150284128Y-79870578D01*
X150259469Y-79840531D01*
X150139572Y-79742134D01*
X150002783Y-79669018D01*
X149854357Y-79623994D01*
X149738673Y-79612600D01*
X149738663Y-79612600D01*
X149700000Y-79608792D01*
X149661337Y-79612600D01*
X143176151Y-79612600D01*
X143037400Y-79473849D01*
X143037400Y-78388662D01*
X143041208Y-78349999D01*
X143037400Y-78311336D01*
X143037400Y-78311327D01*
X143026006Y-78195643D01*
X142980982Y-78047217D01*
X142907866Y-77910428D01*
X142809469Y-77790531D01*
X142779433Y-77765881D01*
X140437400Y-75423850D01*
X140437400Y-65438665D01*
X140441208Y-65400000D01*
X140437400Y-65361335D01*
X140437400Y-65361327D01*
X140426006Y-65245643D01*
X140380982Y-65097217D01*
X140307866Y-64960428D01*
X140292454Y-64941648D01*
X140234122Y-64870570D01*
X140234119Y-64870567D01*
X140209469Y-64840531D01*
X140179433Y-64815881D01*
X139009127Y-63645577D01*
X138984469Y-63615531D01*
X138864572Y-63517134D01*
X138727783Y-63444018D01*
X138579357Y-63398994D01*
X138463673Y-63387600D01*
X138463663Y-63387600D01*
X138425000Y-63383792D01*
X138386337Y-63387600D01*
X138307493Y-63387600D01*
X138146081Y-63190919D01*
X137935188Y-63017843D01*
X137724073Y-62905000D01*
X137935188Y-62792157D01*
X138146081Y-62619081D01*
X138319157Y-62408188D01*
X138447764Y-62167581D01*
X138526960Y-61906507D01*
X138553701Y-61635000D01*
X138526960Y-61363493D01*
X138447764Y-61102419D01*
X138319157Y-60861812D01*
X138146081Y-60650919D01*
X137935188Y-60477843D01*
X137724073Y-60365000D01*
X137935188Y-60252157D01*
X138146081Y-60079081D01*
X138319157Y-59868188D01*
X138447764Y-59627581D01*
X138526960Y-59366507D01*
X138553701Y-59095000D01*
X138526960Y-58823493D01*
X138447764Y-58562419D01*
X138319157Y-58321812D01*
X138146081Y-58110919D01*
X137935188Y-57937843D01*
X137724073Y-57825000D01*
X137935188Y-57712157D01*
X138146081Y-57539081D01*
X138319157Y-57328188D01*
X138447764Y-57087581D01*
X138526960Y-56826507D01*
X138553701Y-56555000D01*
X138526960Y-56283493D01*
X138447764Y-56022419D01*
X138319157Y-55781812D01*
X138146081Y-55570919D01*
X137935188Y-55397843D01*
X137724073Y-55285000D01*
X137935188Y-55172157D01*
X138146081Y-54999081D01*
X138319157Y-54788188D01*
X138447764Y-54547581D01*
X138526960Y-54286507D01*
X138553701Y-54015000D01*
X138526960Y-53743493D01*
X138447764Y-53482419D01*
X138319157Y-53241812D01*
X138146081Y-53030919D01*
X137935188Y-52857843D01*
X137724073Y-52745000D01*
X137935188Y-52632157D01*
X138146081Y-52459081D01*
X138319157Y-52248188D01*
X138447764Y-52007581D01*
X138526960Y-51746507D01*
X138553701Y-51475000D01*
X138526960Y-51203493D01*
X138447764Y-50942419D01*
X138319157Y-50701812D01*
X138146081Y-50490919D01*
X137935188Y-50317843D01*
X137724073Y-50205000D01*
X137935188Y-50092157D01*
X138146081Y-49919081D01*
X138319157Y-49708188D01*
X138447764Y-49467581D01*
X138526960Y-49206507D01*
X138553701Y-48935000D01*
X138526960Y-48663493D01*
X138447764Y-48402419D01*
X138319157Y-48161812D01*
X138146081Y-47950919D01*
X137935188Y-47777843D01*
X137724073Y-47665000D01*
X137935188Y-47552157D01*
X138146081Y-47379081D01*
X138319157Y-47168188D01*
X138447764Y-46927581D01*
X138526960Y-46666507D01*
X138553701Y-46395000D01*
X138526960Y-46123493D01*
X138447764Y-45862419D01*
X138319157Y-45621812D01*
X138146081Y-45410919D01*
X137935188Y-45237843D01*
X137724073Y-45125000D01*
X137935188Y-45012157D01*
X138146081Y-44839081D01*
X138319157Y-44628188D01*
X138447764Y-44387581D01*
X138526960Y-44126507D01*
X138553701Y-43855000D01*
X138526960Y-43583493D01*
X138447764Y-43322419D01*
X138319157Y-43081812D01*
X138146081Y-42870919D01*
X137935188Y-42697843D01*
X137694581Y-42569236D01*
X137433507Y-42490040D01*
X137230037Y-42470000D01*
X136393963Y-42470000D01*
X136190493Y-42490040D01*
X135929419Y-42569236D01*
X135688812Y-42697843D01*
X135477919Y-42870919D01*
X135304843Y-43081812D01*
X135176236Y-43322419D01*
X135097040Y-43583493D01*
X135070299Y-43855000D01*
X135097040Y-44126507D01*
X135176236Y-44387581D01*
X135304843Y-44628188D01*
X135477919Y-44839081D01*
X135688812Y-45012157D01*
X135899927Y-45125000D01*
X135688812Y-45237843D01*
X135477919Y-45410919D01*
X135304843Y-45621812D01*
X135176236Y-45862419D01*
X135097040Y-46123493D01*
X135070299Y-46395000D01*
X135097040Y-46666507D01*
X135176236Y-46927581D01*
X135304843Y-47168188D01*
X135477919Y-47379081D01*
X135688812Y-47552157D01*
X135899927Y-47665000D01*
X135688812Y-47777843D01*
X135477919Y-47950919D01*
X135304843Y-48161812D01*
X135176236Y-48402419D01*
X135097040Y-48663493D01*
X135070299Y-48935000D01*
X135097040Y-49206507D01*
X135176236Y-49467581D01*
X135304843Y-49708188D01*
X135477919Y-49919081D01*
X135688812Y-50092157D01*
X135899927Y-50205000D01*
X135688812Y-50317843D01*
X135477919Y-50490919D01*
X135316507Y-50687600D01*
X135126662Y-50687600D01*
X135087999Y-50683792D01*
X135049336Y-50687600D01*
X135049327Y-50687600D01*
X134933643Y-50698994D01*
X134785217Y-50744018D01*
X134648428Y-50817134D01*
X134622055Y-50838778D01*
X134558569Y-50890879D01*
X134558567Y-50890881D01*
X134528531Y-50915531D01*
X134503881Y-50945567D01*
X133760377Y-51689073D01*
X133730331Y-51713731D01*
X133631934Y-51833629D01*
X133558818Y-51970418D01*
X133513794Y-52118844D01*
X133502400Y-52234528D01*
X133502400Y-52234537D01*
X133498592Y-52273200D01*
X133502400Y-52311863D01*
X133502401Y-55401447D01*
X132312577Y-56591273D01*
X132282531Y-56615931D01*
X132184134Y-56735829D01*
X132111018Y-56872618D01*
X132065994Y-57021044D01*
X132054600Y-57136728D01*
X132054600Y-57136737D01*
X132050792Y-57175400D01*
X132054600Y-57214063D01*
X132054600Y-69196949D01*
X131413741Y-68556091D01*
X131373970Y-68507630D01*
X131180588Y-68348925D01*
X130959959Y-68230997D01*
X130720563Y-68158377D01*
X130533980Y-68140000D01*
X130533973Y-68140000D01*
X130471600Y-68133857D01*
X130409227Y-68140000D01*
X127413000Y-68140000D01*
X127413000Y-67846341D01*
X127434039Y-67825302D01*
X127478340Y-67759000D01*
X127548740Y-67759000D01*
X127592400Y-67763300D01*
X127636060Y-67759000D01*
X127636067Y-67759000D01*
X127766674Y-67746136D01*
X127934251Y-67695303D01*
X128088691Y-67612753D01*
X128224059Y-67501659D01*
X128251899Y-67467736D01*
X129375743Y-66343893D01*
X129409659Y-66316059D01*
X129520753Y-66180691D01*
X129603303Y-66026251D01*
X129647085Y-65881918D01*
X129654136Y-65858675D01*
X129671301Y-65684400D01*
X129667000Y-65640732D01*
X129667000Y-54254504D01*
X129768951Y-54338173D01*
X129983499Y-54452851D01*
X130216298Y-54523470D01*
X130397735Y-54541340D01*
X131019065Y-54541340D01*
X131200502Y-54523470D01*
X131433301Y-54452851D01*
X131647849Y-54338173D01*
X131835902Y-54183842D01*
X131990233Y-53995789D01*
X132104911Y-53781241D01*
X132175530Y-53548442D01*
X132199375Y-53306340D01*
X132175530Y-53064238D01*
X132104911Y-52831439D01*
X131990233Y-52616891D01*
X131835902Y-52428838D01*
X131687259Y-52306850D01*
X131835902Y-52184862D01*
X131990233Y-51996809D01*
X132104911Y-51782261D01*
X132175530Y-51549462D01*
X132199375Y-51307360D01*
X132175530Y-51065258D01*
X132104911Y-50832459D01*
X131990233Y-50617911D01*
X131835902Y-50429858D01*
X131693449Y-50312950D01*
X131835902Y-50196042D01*
X131990233Y-50007989D01*
X132104911Y-49793441D01*
X132175530Y-49560642D01*
X132199375Y-49318540D01*
X132175530Y-49076438D01*
X132104911Y-48843639D01*
X131990233Y-48629091D01*
X131835902Y-48441038D01*
X131680830Y-48313774D01*
X131799377Y-48223431D01*
X131959554Y-48041997D01*
X132081258Y-47832800D01*
X132112384Y-47759499D01*
X132004248Y-47573560D01*
X130962400Y-47573560D01*
X130962400Y-47593560D01*
X130454400Y-47593560D01*
X130454400Y-47573560D01*
X129412552Y-47573560D01*
X129304416Y-47759499D01*
X129335542Y-47832800D01*
X129457246Y-48041997D01*
X129617423Y-48223431D01*
X129735970Y-48313774D01*
X129594908Y-48429540D01*
X129337920Y-48429540D01*
X129294260Y-48425240D01*
X129250600Y-48429540D01*
X129250593Y-48429540D01*
X129136585Y-48440769D01*
X129119985Y-48442404D01*
X129047018Y-48464538D01*
X128952409Y-48493237D01*
X128797969Y-48575787D01*
X128662601Y-48686881D01*
X128634761Y-48720804D01*
X128180259Y-49175306D01*
X128146342Y-49203141D01*
X128118507Y-49237058D01*
X128118505Y-49237060D01*
X128035248Y-49338509D01*
X127952698Y-49492948D01*
X127901864Y-49660526D01*
X127884700Y-49834800D01*
X127889001Y-49878470D01*
X127889000Y-65316164D01*
X127362253Y-65842912D01*
X127225302Y-65705961D01*
X126979853Y-65541958D01*
X126707125Y-65428990D01*
X126417599Y-65371400D01*
X126122401Y-65371400D01*
X125832875Y-65428990D01*
X125560147Y-65541958D01*
X125314698Y-65705961D01*
X125200636Y-65820023D01*
X125183102Y-65762220D01*
X125124137Y-65651906D01*
X125044785Y-65555215D01*
X124948094Y-65475863D01*
X124837780Y-65416898D01*
X124718082Y-65380588D01*
X124593600Y-65368328D01*
X122866400Y-65368328D01*
X122741918Y-65380588D01*
X122622220Y-65416898D01*
X122511906Y-65475863D01*
X122415215Y-65555215D01*
X122335863Y-65651906D01*
X122276898Y-65762220D01*
X122240588Y-65881918D01*
X122228328Y-66006400D01*
X122160000Y-66006400D01*
X122160000Y-61789721D01*
X122865000Y-61789721D01*
X122865000Y-62210279D01*
X122947047Y-62622756D01*
X123107988Y-63011302D01*
X123341637Y-63360983D01*
X123639017Y-63658363D01*
X123988698Y-63892012D01*
X124377244Y-64052953D01*
X124789721Y-64135000D01*
X125210279Y-64135000D01*
X125622756Y-64052953D01*
X126011302Y-63892012D01*
X126360983Y-63658363D01*
X126658363Y-63360983D01*
X126892012Y-63011302D01*
X127052953Y-62622756D01*
X127135000Y-62210279D01*
X127135000Y-61789721D01*
X127052953Y-61377244D01*
X126892012Y-60988698D01*
X126658363Y-60639017D01*
X126360983Y-60341637D01*
X126011302Y-60107988D01*
X125622756Y-59947047D01*
X125210279Y-59865000D01*
X124789721Y-59865000D01*
X124377244Y-59947047D01*
X123988698Y-60107988D01*
X123639017Y-60341637D01*
X123341637Y-60639017D01*
X123107988Y-60988698D01*
X122947047Y-61377244D01*
X122865000Y-61789721D01*
X122160000Y-61789721D01*
X122160000Y-45318040D01*
X129217425Y-45318040D01*
X129241270Y-45560142D01*
X129311889Y-45792941D01*
X129426567Y-46007489D01*
X129580898Y-46195542D01*
X129737574Y-46324123D01*
X129617423Y-46415689D01*
X129457246Y-46597123D01*
X129335542Y-46806320D01*
X129304416Y-46879621D01*
X129412552Y-47065560D01*
X130454400Y-47065560D01*
X130454400Y-47045560D01*
X130962400Y-47045560D01*
X130962400Y-47065560D01*
X132004248Y-47065560D01*
X132112384Y-46879621D01*
X132081258Y-46806320D01*
X131959554Y-46597123D01*
X131799377Y-46415689D01*
X131679226Y-46324123D01*
X131821892Y-46207040D01*
X132514500Y-46207040D01*
X132558160Y-46211340D01*
X132601820Y-46207040D01*
X132601827Y-46207040D01*
X132732434Y-46194176D01*
X132900011Y-46143343D01*
X133054451Y-46060793D01*
X133189819Y-45949699D01*
X133217658Y-45915777D01*
X133846141Y-45287295D01*
X133880059Y-45259459D01*
X133991153Y-45124091D01*
X134073703Y-44969651D01*
X134118568Y-44821749D01*
X134124536Y-44802075D01*
X134126171Y-44785475D01*
X134137400Y-44671467D01*
X134137400Y-44671460D01*
X134141700Y-44627800D01*
X134137400Y-44584140D01*
X134137400Y-43268835D01*
X135293036Y-42113200D01*
X142328965Y-42113200D01*
X144907001Y-44691237D01*
X144907000Y-62440340D01*
X144902700Y-62484000D01*
X144907000Y-62527660D01*
X144907000Y-62527666D01*
X144919864Y-62658273D01*
X144970697Y-62825850D01*
X145053247Y-62980290D01*
X145164341Y-63115659D01*
X145198265Y-63143499D01*
X145511867Y-63457102D01*
X145635696Y-63580931D01*
X145672197Y-63605320D01*
X145706109Y-63633151D01*
X145744803Y-63653834D01*
X145781301Y-63678221D01*
X145821847Y-63695016D01*
X145860547Y-63715702D01*
X145902541Y-63728441D01*
X145943088Y-63745236D01*
X145986134Y-63753798D01*
X146028124Y-63766536D01*
X146071790Y-63770837D01*
X146114841Y-63779400D01*
X146158739Y-63779400D01*
X146202399Y-63783700D01*
X146246059Y-63779400D01*
X146289959Y-63779400D01*
X146333012Y-63770836D01*
X146376674Y-63766536D01*
X146418660Y-63753800D01*
X146461712Y-63745236D01*
X146502264Y-63728439D01*
X146544251Y-63715702D01*
X146582946Y-63695019D01*
X146623499Y-63678221D01*
X146659999Y-63653833D01*
X146698691Y-63633151D01*
X146732603Y-63605320D01*
X146769104Y-63580931D01*
X146800147Y-63549888D01*
X146834058Y-63522058D01*
X146861888Y-63488147D01*
X146892931Y-63457104D01*
X146917320Y-63420603D01*
X146945151Y-63386691D01*
X146965833Y-63347999D01*
X146990221Y-63311499D01*
X147007019Y-63270946D01*
X147027702Y-63232251D01*
X147040439Y-63190264D01*
X147057236Y-63149712D01*
X147065800Y-63106660D01*
X147078536Y-63064674D01*
X147082836Y-63021012D01*
X147091400Y-62977959D01*
X147091400Y-62934059D01*
X147095700Y-62890399D01*
X147091400Y-62846739D01*
X147091400Y-62802841D01*
X147082837Y-62759790D01*
X147078536Y-62716124D01*
X147065798Y-62674134D01*
X147057236Y-62631088D01*
X147040441Y-62590541D01*
X147027702Y-62548547D01*
X147007016Y-62509847D01*
X146990221Y-62469301D01*
X146965834Y-62432803D01*
X146945151Y-62394109D01*
X146917320Y-62360197D01*
X146892931Y-62323696D01*
X146769102Y-62199867D01*
X146685000Y-62115766D01*
X146685000Y-44366660D01*
X146689300Y-44323000D01*
X146685000Y-44279340D01*
X146685000Y-44279333D01*
X146672136Y-44148726D01*
X146671349Y-44146129D01*
X146639459Y-44041002D01*
X146621303Y-43981149D01*
X146538753Y-43826709D01*
X146427659Y-43691341D01*
X146393742Y-43663506D01*
X146121376Y-43391140D01*
X158016987Y-43391140D01*
X158122345Y-43601000D01*
X159418000Y-43601000D01*
X159418000Y-42619979D01*
X159926000Y-42619979D01*
X159926000Y-43601000D01*
X161958000Y-43601000D01*
X161958000Y-42619979D01*
X162466000Y-42619979D01*
X162466000Y-43601000D01*
X163761655Y-43601000D01*
X163867013Y-43391140D01*
X163829564Y-43293660D01*
X166784025Y-43293660D01*
X166807870Y-43535762D01*
X166878489Y-43768561D01*
X166993167Y-43983109D01*
X167147498Y-44171162D01*
X167296141Y-44293150D01*
X167147498Y-44415138D01*
X166993167Y-44603191D01*
X166878489Y-44817739D01*
X166807870Y-45050538D01*
X166784025Y-45292640D01*
X166807870Y-45534742D01*
X166878489Y-45767541D01*
X166993167Y-45982089D01*
X167147498Y-46170142D01*
X167296151Y-46292138D01*
X167184023Y-46377589D01*
X167023846Y-46559023D01*
X166902142Y-46768220D01*
X166871016Y-46841521D01*
X166979152Y-47027460D01*
X168021000Y-47027460D01*
X168021000Y-47007460D01*
X168529000Y-47007460D01*
X168529000Y-47027460D01*
X169570848Y-47027460D01*
X169678984Y-46841521D01*
X169647858Y-46768220D01*
X169526154Y-46559023D01*
X169365977Y-46377589D01*
X169253849Y-46292138D01*
X169402502Y-46170142D01*
X169556833Y-45982089D01*
X169671511Y-45767541D01*
X169742130Y-45534742D01*
X169765975Y-45292640D01*
X169742130Y-45050538D01*
X169671511Y-44817739D01*
X169556833Y-44603191D01*
X169402502Y-44415138D01*
X169253859Y-44293150D01*
X169402502Y-44171162D01*
X169556833Y-43983109D01*
X169671511Y-43768561D01*
X169742130Y-43535762D01*
X169765975Y-43293660D01*
X169742130Y-43051558D01*
X169671511Y-42818759D01*
X169556833Y-42604211D01*
X169402502Y-42416158D01*
X169214449Y-42261827D01*
X168999901Y-42147149D01*
X168767102Y-42076530D01*
X168585665Y-42058660D01*
X167964335Y-42058660D01*
X167782898Y-42076530D01*
X167550099Y-42147149D01*
X167335551Y-42261827D01*
X167147498Y-42416158D01*
X166993167Y-42604211D01*
X166878489Y-42818759D01*
X166807870Y-43051558D01*
X166784025Y-43293660D01*
X163829564Y-43293660D01*
X163787552Y-43184303D01*
X163633157Y-42958097D01*
X163437598Y-42766358D01*
X163208390Y-42616455D01*
X162954342Y-42514149D01*
X162685216Y-42463371D01*
X162466000Y-42619979D01*
X161958000Y-42619979D01*
X161738784Y-42463371D01*
X161469658Y-42514149D01*
X161215610Y-42616455D01*
X160986402Y-42766358D01*
X160942000Y-42809893D01*
X160897598Y-42766358D01*
X160668390Y-42616455D01*
X160414342Y-42514149D01*
X160145216Y-42463371D01*
X159926000Y-42619979D01*
X159418000Y-42619979D01*
X159198784Y-42463371D01*
X158929658Y-42514149D01*
X158675610Y-42616455D01*
X158446402Y-42766358D01*
X158250843Y-42958097D01*
X158096448Y-43184303D01*
X158016987Y-43391140D01*
X146121376Y-43391140D01*
X143356699Y-40626464D01*
X143328859Y-40592541D01*
X143193491Y-40481447D01*
X143039051Y-40398897D01*
X142871474Y-40348064D01*
X142740867Y-40335200D01*
X142740860Y-40335200D01*
X142697200Y-40330900D01*
X142653540Y-40335200D01*
X134968460Y-40335200D01*
X134924800Y-40330900D01*
X134881140Y-40335200D01*
X134881133Y-40335200D01*
X134767125Y-40346429D01*
X134750525Y-40348064D01*
X134699692Y-40363484D01*
X134582949Y-40398897D01*
X134428509Y-40481447D01*
X134293141Y-40592541D01*
X134265306Y-40626458D01*
X132650664Y-42241101D01*
X132616741Y-42268941D01*
X132505647Y-42404310D01*
X132423097Y-42558750D01*
X132372264Y-42726327D01*
X132359400Y-42856934D01*
X132359400Y-42856940D01*
X132355100Y-42900600D01*
X132359400Y-42944260D01*
X132359401Y-44259564D01*
X132189925Y-44429040D01*
X131934848Y-44429040D01*
X132009585Y-44367705D01*
X132088937Y-44271014D01*
X132147902Y-44160700D01*
X132184212Y-44041002D01*
X132196472Y-43916520D01*
X132196472Y-42716520D01*
X132184212Y-42592038D01*
X132147902Y-42472340D01*
X132088937Y-42362026D01*
X132009585Y-42265335D01*
X131912894Y-42185983D01*
X131802580Y-42127018D01*
X131682882Y-42090708D01*
X131558400Y-42078448D01*
X129858400Y-42078448D01*
X129733918Y-42090708D01*
X129614220Y-42127018D01*
X129503906Y-42185983D01*
X129407215Y-42265335D01*
X129327863Y-42362026D01*
X129268898Y-42472340D01*
X129232588Y-42592038D01*
X129220328Y-42716520D01*
X129220328Y-43916520D01*
X129232588Y-44041002D01*
X129268898Y-44160700D01*
X129327863Y-44271014D01*
X129407215Y-44367705D01*
X129503906Y-44447057D01*
X129553703Y-44473675D01*
X129426567Y-44628591D01*
X129311889Y-44843139D01*
X129241270Y-45075938D01*
X129217425Y-45318040D01*
X122160000Y-45318040D01*
X122160000Y-40032277D01*
X122179102Y-39837460D01*
X122226308Y-39681106D01*
X122302982Y-39536904D01*
X122406207Y-39410337D01*
X122532051Y-39306231D01*
X122675711Y-39228553D01*
X122831729Y-39180258D01*
X123024473Y-39160000D01*
X175967723Y-39160000D01*
X176162540Y-39179102D01*
%TA.AperFunction,Conductor*%
D28*
G36*
X176162540Y-39179102D02*
G01*
X176318894Y-39226308D01*
X176463096Y-39302982D01*
X176589663Y-39406207D01*
X176693769Y-39532051D01*
X176771447Y-39675711D01*
X176819742Y-39831729D01*
X176840001Y-40024482D01*
X176840000Y-119967721D01*
X176782808Y-120551010D01*
X176622783Y-121081036D01*
X176362860Y-121569880D01*
X176012935Y-121998931D01*
X175586335Y-122351845D01*
X175099320Y-122615173D01*
X174570422Y-122778894D01*
X173989040Y-122840000D01*
X125032279Y-122840000D01*
X124448990Y-122782808D01*
X123918964Y-122622783D01*
X123430120Y-122362860D01*
X123001069Y-122012935D01*
X122648155Y-121586335D01*
X122384827Y-121099320D01*
X122221106Y-120570422D01*
X122160000Y-119989040D01*
X122160000Y-119789721D01*
X122865000Y-119789721D01*
X122865000Y-120210279D01*
X122947047Y-120622756D01*
X123107988Y-121011302D01*
X123341637Y-121360983D01*
X123639017Y-121658363D01*
X123988698Y-121892012D01*
X124377244Y-122052953D01*
X124789721Y-122135000D01*
X125210279Y-122135000D01*
X125622756Y-122052953D01*
X126011302Y-121892012D01*
X126360983Y-121658363D01*
X126658363Y-121360983D01*
X126892012Y-121011302D01*
X127052953Y-120622756D01*
X127135000Y-120210279D01*
X127135000Y-119789721D01*
X127052953Y-119377244D01*
X126892012Y-118988698D01*
X126658363Y-118639017D01*
X126360983Y-118341637D01*
X126011302Y-118107988D01*
X125622756Y-117947047D01*
X125210279Y-117865000D01*
X124789721Y-117865000D01*
X124377244Y-117947047D01*
X123988698Y-118107988D01*
X123639017Y-118341637D01*
X123341637Y-118639017D01*
X123107988Y-118988698D01*
X122947047Y-119377244D01*
X122865000Y-119789721D01*
X122160000Y-119789721D01*
X122160000Y-115611914D01*
X122311000Y-115611914D01*
X122385844Y-115792625D01*
X122540943Y-116042125D01*
X122741737Y-116256572D01*
X122980510Y-116427726D01*
X123248085Y-116549009D01*
X123476000Y-116448177D01*
X123476000Y-115384000D01*
X122414446Y-115384000D01*
X122311000Y-115611914D01*
X122160000Y-115611914D01*
X122160000Y-66006400D01*
X122228328Y-66006400D01*
X122228328Y-67733600D01*
X122240588Y-67858082D01*
X122276898Y-67977780D01*
X122335863Y-68088094D01*
X122415215Y-68184785D01*
X122511906Y-68264137D01*
X122622220Y-68323102D01*
X122680023Y-68340636D01*
X122565961Y-68454698D01*
X122401958Y-68700147D01*
X122288990Y-68972875D01*
X122231400Y-69262401D01*
X122231400Y-69557599D01*
X122288990Y-69847125D01*
X122401958Y-70119853D01*
X122565961Y-70365302D01*
X122774698Y-70574039D01*
X122933281Y-70680000D01*
X122774698Y-70785961D01*
X122565961Y-70994698D01*
X122401958Y-71240147D01*
X122288990Y-71512875D01*
X122231400Y-71802401D01*
X122231400Y-72097599D01*
X122288990Y-72387125D01*
X122401958Y-72659853D01*
X122565961Y-72905302D01*
X122774698Y-73114039D01*
X122933281Y-73220000D01*
X122774698Y-73325961D01*
X122565961Y-73534698D01*
X122401958Y-73780147D01*
X122288990Y-74052875D01*
X122231400Y-74342401D01*
X122231400Y-74637599D01*
X122288990Y-74927125D01*
X122401958Y-75199853D01*
X122565961Y-75445302D01*
X122774698Y-75654039D01*
X122937705Y-75762957D01*
X122741737Y-75903428D01*
X122540943Y-76117875D01*
X122385844Y-76367375D01*
X122311000Y-76548086D01*
X122414446Y-76776000D01*
X123476000Y-76776000D01*
X123476000Y-76756000D01*
X123984000Y-76756000D01*
X123984000Y-76776000D01*
X124004000Y-76776000D01*
X124004000Y-77284000D01*
X123984000Y-77284000D01*
X123984000Y-77304000D01*
X123476000Y-77304000D01*
X123476000Y-77284000D01*
X122414446Y-77284000D01*
X122311000Y-77511914D01*
X122385844Y-77692625D01*
X122540943Y-77942125D01*
X122741737Y-78156572D01*
X122937705Y-78297043D01*
X122774698Y-78405961D01*
X122565961Y-78614698D01*
X122401958Y-78860147D01*
X122288990Y-79132875D01*
X122231400Y-79422401D01*
X122231400Y-79717599D01*
X122288990Y-80007125D01*
X122401958Y-80279853D01*
X122565961Y-80525302D01*
X122774698Y-80734039D01*
X122933281Y-80840000D01*
X122774698Y-80945961D01*
X122565961Y-81154698D01*
X122401958Y-81400147D01*
X122288990Y-81672875D01*
X122231400Y-81962401D01*
X122231400Y-82257599D01*
X122288990Y-82547125D01*
X122401958Y-82819853D01*
X122565961Y-83065302D01*
X122774698Y-83274039D01*
X122933281Y-83380000D01*
X122774698Y-83485961D01*
X122565961Y-83694698D01*
X122401958Y-83940147D01*
X122288990Y-84212875D01*
X122231400Y-84502401D01*
X122231400Y-84797599D01*
X122288990Y-85087125D01*
X122401958Y-85359853D01*
X122565961Y-85605302D01*
X122774698Y-85814039D01*
X122933281Y-85920000D01*
X122774698Y-86025961D01*
X122565961Y-86234698D01*
X122401958Y-86480147D01*
X122288990Y-86752875D01*
X122231400Y-87042401D01*
X122231400Y-87337599D01*
X122288990Y-87627125D01*
X122401958Y-87899853D01*
X122565961Y-88145302D01*
X122774698Y-88354039D01*
X122933281Y-88460000D01*
X122774698Y-88565961D01*
X122565961Y-88774698D01*
X122401958Y-89020147D01*
X122288990Y-89292875D01*
X122231400Y-89582401D01*
X122231400Y-89877599D01*
X122288990Y-90167125D01*
X122401958Y-90439853D01*
X122565961Y-90685302D01*
X122774698Y-90894039D01*
X122933281Y-91000000D01*
X122774698Y-91105961D01*
X122565961Y-91314698D01*
X122401958Y-91560147D01*
X122288990Y-91832875D01*
X122231400Y-92122401D01*
X122231400Y-92417599D01*
X122288990Y-92707125D01*
X122401958Y-92979853D01*
X122565961Y-93225302D01*
X122774698Y-93434039D01*
X122933281Y-93540000D01*
X122774698Y-93645961D01*
X122565961Y-93854698D01*
X122401958Y-94100147D01*
X122288990Y-94372875D01*
X122231400Y-94662401D01*
X122231400Y-94957599D01*
X122288990Y-95247125D01*
X122401958Y-95519853D01*
X122565961Y-95765302D01*
X122774698Y-95974039D01*
X122937705Y-96082957D01*
X122741737Y-96223428D01*
X122540943Y-96437875D01*
X122385844Y-96687375D01*
X122311000Y-96868086D01*
X122414446Y-97096000D01*
X123476000Y-97096000D01*
X123476000Y-97076000D01*
X123984000Y-97076000D01*
X123984000Y-97096000D01*
X124004000Y-97096000D01*
X124004000Y-97604000D01*
X123984000Y-97604000D01*
X123984000Y-97624000D01*
X123476000Y-97624000D01*
X123476000Y-97604000D01*
X122414446Y-97604000D01*
X122311000Y-97831914D01*
X122385844Y-98012625D01*
X122540943Y-98262125D01*
X122741737Y-98476572D01*
X122937705Y-98617043D01*
X122774698Y-98725961D01*
X122565961Y-98934698D01*
X122401958Y-99180147D01*
X122288990Y-99452875D01*
X122231400Y-99742401D01*
X122231400Y-100037599D01*
X122288990Y-100327125D01*
X122401958Y-100599853D01*
X122565961Y-100845302D01*
X122774698Y-101054039D01*
X122933281Y-101160000D01*
X122774698Y-101265961D01*
X122565961Y-101474698D01*
X122401958Y-101720147D01*
X122288990Y-101992875D01*
X122231400Y-102282401D01*
X122231400Y-102577599D01*
X122288990Y-102867125D01*
X122401958Y-103139853D01*
X122565961Y-103385302D01*
X122774698Y-103594039D01*
X122933281Y-103700000D01*
X122774698Y-103805961D01*
X122565961Y-104014698D01*
X122401958Y-104260147D01*
X122288990Y-104532875D01*
X122231400Y-104822401D01*
X122231400Y-105117599D01*
X122288990Y-105407125D01*
X122401958Y-105679853D01*
X122565961Y-105925302D01*
X122774698Y-106134039D01*
X122933281Y-106240000D01*
X122774698Y-106345961D01*
X122565961Y-106554698D01*
X122401958Y-106800147D01*
X122288990Y-107072875D01*
X122231400Y-107362401D01*
X122231400Y-107657599D01*
X122288990Y-107947125D01*
X122401958Y-108219853D01*
X122565961Y-108465302D01*
X122774698Y-108674039D01*
X122933281Y-108780000D01*
X122774698Y-108885961D01*
X122565961Y-109094698D01*
X122401958Y-109340147D01*
X122288990Y-109612875D01*
X122231400Y-109902401D01*
X122231400Y-110197599D01*
X122288990Y-110487125D01*
X122401958Y-110759853D01*
X122565961Y-111005302D01*
X122774698Y-111214039D01*
X122933281Y-111320000D01*
X122774698Y-111425961D01*
X122565961Y-111634698D01*
X122401958Y-111880147D01*
X122288990Y-112152875D01*
X122231400Y-112442401D01*
X122231400Y-112737599D01*
X122288990Y-113027125D01*
X122401958Y-113299853D01*
X122565961Y-113545302D01*
X122774698Y-113754039D01*
X122937705Y-113862957D01*
X122741737Y-114003428D01*
X122540943Y-114217875D01*
X122385844Y-114467375D01*
X122311000Y-114648086D01*
X122414446Y-114876000D01*
X123476000Y-114876000D01*
X123476000Y-114856000D01*
X123984000Y-114856000D01*
X123984000Y-114876000D01*
X124004000Y-114876000D01*
X124004000Y-115384000D01*
X123984000Y-115384000D01*
X123984000Y-116448177D01*
X124211915Y-116549009D01*
X124479490Y-116427726D01*
X124718263Y-116256572D01*
X124919057Y-116042125D01*
X124995233Y-115919585D01*
X125105961Y-116085302D01*
X125314698Y-116294039D01*
X125560147Y-116458042D01*
X125832875Y-116571010D01*
X126122401Y-116628600D01*
X126417599Y-116628600D01*
X126707125Y-116571010D01*
X126979853Y-116458042D01*
X126984725Y-116454786D01*
X131983624Y-116454786D01*
X132077052Y-116693511D01*
X132359533Y-116801360D01*
X132657625Y-116852028D01*
X132959875Y-116843567D01*
X133254667Y-116776304D01*
X133454548Y-116693511D01*
X133547976Y-116454786D01*
X132765800Y-115672610D01*
X131983624Y-116454786D01*
X126984725Y-116454786D01*
X127225302Y-116294039D01*
X127434039Y-116085302D01*
X127598042Y-115839853D01*
X127711010Y-115567125D01*
X127768600Y-115277599D01*
X127768600Y-115205225D01*
X131227172Y-115205225D01*
X131235633Y-115507475D01*
X131302896Y-115802267D01*
X131385689Y-116002148D01*
X131624414Y-116095576D01*
X132406590Y-115313400D01*
X133125010Y-115313400D01*
X133907186Y-116095576D01*
X134145911Y-116002148D01*
X134253760Y-115719667D01*
X134304428Y-115421575D01*
X134295967Y-115119325D01*
X134228704Y-114824533D01*
X134145911Y-114624652D01*
X133907186Y-114531224D01*
X133125010Y-115313400D01*
X132406590Y-115313400D01*
X131624414Y-114531224D01*
X131385689Y-114624652D01*
X131277840Y-114907133D01*
X131227172Y-115205225D01*
X127768600Y-115205225D01*
X127768600Y-114982401D01*
X127711010Y-114692875D01*
X127598042Y-114420147D01*
X127434039Y-114174698D01*
X127431355Y-114172014D01*
X131983624Y-114172014D01*
X132765800Y-114954190D01*
X133547976Y-114172014D01*
X133454548Y-113933289D01*
X133172067Y-113825440D01*
X132873975Y-113774772D01*
X132571725Y-113783233D01*
X132276933Y-113850496D01*
X132077052Y-113933289D01*
X131983624Y-114172014D01*
X127431355Y-114172014D01*
X127225302Y-113965961D01*
X127066719Y-113860000D01*
X127225302Y-113754039D01*
X127434039Y-113545302D01*
X127598042Y-113299853D01*
X127711010Y-113027125D01*
X127768600Y-112737599D01*
X127768600Y-112442401D01*
X127711010Y-112152875D01*
X127598042Y-111880147D01*
X127434039Y-111634698D01*
X127225302Y-111425961D01*
X127066719Y-111320000D01*
X127225302Y-111214039D01*
X127434039Y-111005302D01*
X127495445Y-110913400D01*
X131227728Y-110913400D01*
X131227728Y-112713400D01*
X131239988Y-112837882D01*
X131276298Y-112957580D01*
X131335263Y-113067894D01*
X131414615Y-113164585D01*
X131511306Y-113243937D01*
X131621620Y-113302902D01*
X131741318Y-113339212D01*
X131865800Y-113351472D01*
X133665800Y-113351472D01*
X133790282Y-113339212D01*
X133909980Y-113302902D01*
X134020294Y-113243937D01*
X134116985Y-113164585D01*
X134196337Y-113067894D01*
X134255302Y-112957580D01*
X134291612Y-112837882D01*
X134303872Y-112713400D01*
X134303872Y-111270000D01*
X136996700Y-111270000D01*
X137001000Y-111313660D01*
X137001000Y-112147559D01*
X137009563Y-112190610D01*
X137013864Y-112234273D01*
X137026600Y-112276260D01*
X137035164Y-112319312D01*
X137051960Y-112359860D01*
X137064697Y-112401850D01*
X137085384Y-112440552D01*
X137102179Y-112481099D01*
X137126561Y-112517589D01*
X137147247Y-112556290D01*
X137175085Y-112590211D01*
X137199469Y-112626704D01*
X137230502Y-112657737D01*
X137258341Y-112691659D01*
X137292264Y-112719499D01*
X137323296Y-112750531D01*
X137359785Y-112774912D01*
X137393709Y-112802753D01*
X137432415Y-112823442D01*
X137468901Y-112847821D01*
X137509443Y-112864614D01*
X137548149Y-112885303D01*
X137590143Y-112898041D01*
X137630688Y-112914836D01*
X137673737Y-112923399D01*
X137715726Y-112936136D01*
X137759391Y-112940437D01*
X137802441Y-112949000D01*
X137846333Y-112949000D01*
X137890000Y-112953301D01*
X137933667Y-112949000D01*
X137977559Y-112949000D01*
X138020610Y-112940437D01*
X138064273Y-112936136D01*
X138106260Y-112923400D01*
X138149312Y-112914836D01*
X138189860Y-112898040D01*
X138231850Y-112885303D01*
X138270552Y-112864616D01*
X138311099Y-112847821D01*
X138347589Y-112823439D01*
X138386290Y-112802753D01*
X138420211Y-112774915D01*
X138456704Y-112750531D01*
X138487737Y-112719498D01*
X138521659Y-112691659D01*
X138549499Y-112657736D01*
X138580531Y-112626704D01*
X138604912Y-112590215D01*
X138632753Y-112556291D01*
X138653442Y-112517585D01*
X138677821Y-112481099D01*
X138694614Y-112440557D01*
X138715303Y-112401851D01*
X138728041Y-112359857D01*
X138744836Y-112319312D01*
X138753399Y-112276263D01*
X138766136Y-112234274D01*
X138770437Y-112190609D01*
X138779000Y-112147559D01*
X138779000Y-111638235D01*
X139331044Y-111086192D01*
X140755330Y-111086192D01*
X140728341Y-111108341D01*
X140617247Y-111243710D01*
X140534697Y-111398150D01*
X140483864Y-111565727D01*
X140471000Y-111696334D01*
X140471000Y-111696340D01*
X140466700Y-111740000D01*
X140471000Y-111783660D01*
X140471001Y-119196330D01*
X140466700Y-119240000D01*
X140483864Y-119414274D01*
X140534698Y-119581852D01*
X140617248Y-119736291D01*
X140693552Y-119829267D01*
X140728342Y-119871659D01*
X140762259Y-119899494D01*
X141492259Y-120629495D01*
X141492265Y-120629500D01*
X141523296Y-120660531D01*
X141559785Y-120684912D01*
X141593708Y-120712752D01*
X141632412Y-120733440D01*
X141668901Y-120757821D01*
X141709444Y-120774614D01*
X141748147Y-120795302D01*
X141790141Y-120808041D01*
X141830688Y-120824836D01*
X141873736Y-120833399D01*
X141915725Y-120846136D01*
X141959389Y-120850436D01*
X142002441Y-120859000D01*
X142046340Y-120859000D01*
X142090000Y-120863300D01*
X142133660Y-120859000D01*
X142177559Y-120859000D01*
X142220611Y-120850436D01*
X142264275Y-120846136D01*
X142306263Y-120833399D01*
X142349312Y-120824836D01*
X142389861Y-120808040D01*
X142431852Y-120795302D01*
X142470552Y-120774616D01*
X142511099Y-120757821D01*
X142547592Y-120733437D01*
X142586291Y-120712752D01*
X142620211Y-120684915D01*
X142656704Y-120660531D01*
X142687738Y-120629497D01*
X142721659Y-120601659D01*
X142749497Y-120567738D01*
X142780531Y-120536704D01*
X142804915Y-120500211D01*
X142832752Y-120466291D01*
X142853437Y-120427592D01*
X142877821Y-120391099D01*
X142894616Y-120350552D01*
X142915302Y-120311852D01*
X142928040Y-120269861D01*
X142944836Y-120229312D01*
X142953399Y-120186263D01*
X142966136Y-120144275D01*
X142970436Y-120100611D01*
X142979000Y-120057559D01*
X142979000Y-120013660D01*
X142983300Y-119970000D01*
X142979000Y-119926340D01*
X142979000Y-119882441D01*
X142970436Y-119839389D01*
X142966136Y-119795725D01*
X142964315Y-119789721D01*
X171865000Y-119789721D01*
X171865000Y-120210279D01*
X171947047Y-120622756D01*
X172107988Y-121011302D01*
X172341637Y-121360983D01*
X172639017Y-121658363D01*
X172988698Y-121892012D01*
X173377244Y-122052953D01*
X173789721Y-122135000D01*
X174210279Y-122135000D01*
X174622756Y-122052953D01*
X175011302Y-121892012D01*
X175360983Y-121658363D01*
X175658363Y-121360983D01*
X175892012Y-121011302D01*
X176052953Y-120622756D01*
X176135000Y-120210279D01*
X176135000Y-119789721D01*
X176052953Y-119377244D01*
X175892012Y-118988698D01*
X175658363Y-118639017D01*
X175360983Y-118341637D01*
X175011302Y-118107988D01*
X174622756Y-117947047D01*
X174210279Y-117865000D01*
X173789721Y-117865000D01*
X173377244Y-117947047D01*
X172988698Y-118107988D01*
X172639017Y-118341637D01*
X172341637Y-118639017D01*
X172107988Y-118988698D01*
X171947047Y-119377244D01*
X171865000Y-119789721D01*
X142964315Y-119789721D01*
X142953399Y-119753736D01*
X142944836Y-119710688D01*
X142928041Y-119670141D01*
X142915302Y-119628147D01*
X142894614Y-119589444D01*
X142877821Y-119548901D01*
X142853440Y-119512412D01*
X142832752Y-119473708D01*
X142804912Y-119439785D01*
X142780531Y-119403296D01*
X142749500Y-119372265D01*
X142749495Y-119372259D01*
X142249000Y-118871765D01*
X142249000Y-112108235D01*
X142611835Y-111745400D01*
X161715000Y-111745400D01*
X161715000Y-112254600D01*
X161814340Y-112754017D01*
X162009202Y-113224457D01*
X162292099Y-113647842D01*
X162652158Y-114007901D01*
X163075543Y-114290798D01*
X163545983Y-114485660D01*
X164045400Y-114585000D01*
X164554600Y-114585000D01*
X165054017Y-114485660D01*
X165524457Y-114290798D01*
X165947842Y-114007901D01*
X166307901Y-113647842D01*
X166590798Y-113224457D01*
X166785660Y-112754017D01*
X166805693Y-112653300D01*
X167798910Y-112653300D01*
X167974420Y-113128685D01*
X168239301Y-113560696D01*
X168583373Y-113932730D01*
X168993414Y-114230490D01*
X169453667Y-114442534D01*
X169646701Y-114501085D01*
X170046000Y-114412918D01*
X170046000Y-112254000D01*
X170554000Y-112254000D01*
X170554000Y-114412918D01*
X170953299Y-114501085D01*
X171146333Y-114442534D01*
X171606586Y-114230490D01*
X172016627Y-113932730D01*
X172360699Y-113560696D01*
X172625580Y-113128685D01*
X172801090Y-112653300D01*
X172713746Y-112254000D01*
X170554000Y-112254000D01*
X170046000Y-112254000D01*
X167886254Y-112254000D01*
X167798910Y-112653300D01*
X166805693Y-112653300D01*
X166885000Y-112254600D01*
X166885000Y-111745400D01*
X166805694Y-111346700D01*
X167798910Y-111346700D01*
X167886254Y-111746000D01*
X170046000Y-111746000D01*
X170046000Y-109587082D01*
X170554000Y-109587082D01*
X170554000Y-111746000D01*
X172713746Y-111746000D01*
X172801090Y-111346700D01*
X172625580Y-110871315D01*
X172360699Y-110439304D01*
X172016627Y-110067270D01*
X171606586Y-109769510D01*
X171146333Y-109557466D01*
X170953299Y-109498915D01*
X170554000Y-109587082D01*
X170046000Y-109587082D01*
X169646701Y-109498915D01*
X169453667Y-109557466D01*
X168993414Y-109769510D01*
X168583373Y-110067270D01*
X168239301Y-110439304D01*
X167974420Y-110871315D01*
X167798910Y-111346700D01*
X166805694Y-111346700D01*
X166785660Y-111245983D01*
X166590798Y-110775543D01*
X166307901Y-110352158D01*
X165947842Y-109992099D01*
X165524457Y-109709202D01*
X165054017Y-109514340D01*
X164554600Y-109415000D01*
X164045400Y-109415000D01*
X163545983Y-109514340D01*
X163075543Y-109709202D01*
X162652158Y-109992099D01*
X162292099Y-110352158D01*
X162009202Y-110775543D01*
X161814340Y-111245983D01*
X161715000Y-111745400D01*
X142611835Y-111745400D01*
X142749495Y-111607741D01*
X142749500Y-111607735D01*
X142780531Y-111576704D01*
X142804912Y-111540215D01*
X142832752Y-111506292D01*
X142853440Y-111467588D01*
X142877821Y-111431099D01*
X142894614Y-111390556D01*
X142915302Y-111351853D01*
X142928041Y-111309859D01*
X142944836Y-111269312D01*
X142953399Y-111226264D01*
X142966136Y-111184275D01*
X142970436Y-111140611D01*
X142979000Y-111097559D01*
X142979000Y-111086192D01*
X150568324Y-111086192D01*
X150582441Y-111089000D01*
X150626339Y-111089000D01*
X150669999Y-111093300D01*
X150713659Y-111089000D01*
X150757559Y-111089000D01*
X150800612Y-111080436D01*
X150844274Y-111076136D01*
X150886261Y-111063399D01*
X150929312Y-111054836D01*
X150969862Y-111038039D01*
X151011852Y-111025302D01*
X151050550Y-111004617D01*
X151091099Y-110987821D01*
X151127598Y-110963434D01*
X151166291Y-110942751D01*
X151200206Y-110914918D01*
X151236704Y-110890531D01*
X151267740Y-110859495D01*
X151301659Y-110831659D01*
X151329496Y-110797739D01*
X151360531Y-110766704D01*
X151384918Y-110730206D01*
X151412751Y-110696291D01*
X151433434Y-110657598D01*
X151457821Y-110621099D01*
X151474617Y-110580550D01*
X151495302Y-110541852D01*
X151508039Y-110499862D01*
X151524836Y-110459312D01*
X151533399Y-110416261D01*
X151546136Y-110374274D01*
X151550436Y-110330612D01*
X151559000Y-110287559D01*
X151559000Y-110243659D01*
X151563300Y-110199999D01*
X151559000Y-110156339D01*
X151559000Y-110112441D01*
X151550436Y-110069389D01*
X151546136Y-110025725D01*
X151533399Y-109983737D01*
X151524836Y-109940688D01*
X151508040Y-109900139D01*
X151495302Y-109858148D01*
X151474617Y-109819450D01*
X151457821Y-109778901D01*
X151433434Y-109742402D01*
X151412751Y-109703709D01*
X151384919Y-109669795D01*
X151360531Y-109633296D01*
X151326691Y-109599456D01*
X151298851Y-109565533D01*
X151264928Y-109537693D01*
X151236704Y-109509469D01*
X151203517Y-109487294D01*
X151163483Y-109454439D01*
X151117807Y-109430024D01*
X151091099Y-109412179D01*
X151061423Y-109399887D01*
X151009043Y-109371889D01*
X150952214Y-109354650D01*
X150929312Y-109345164D01*
X150904996Y-109340327D01*
X150841466Y-109321056D01*
X150775401Y-109314549D01*
X150757559Y-109311000D01*
X150739368Y-109311000D01*
X150710859Y-109308192D01*
X150710852Y-109308192D01*
X150667192Y-109303892D01*
X150623532Y-109308192D01*
X139006468Y-109308192D01*
X138962808Y-109303892D01*
X138919148Y-109308192D01*
X138919141Y-109308192D01*
X138805133Y-109319421D01*
X138788533Y-109321056D01*
X138737700Y-109336476D01*
X138620957Y-109371889D01*
X138466517Y-109454439D01*
X138331149Y-109565533D01*
X138303313Y-109599451D01*
X137292259Y-110610506D01*
X137258342Y-110638341D01*
X137230507Y-110672258D01*
X137230505Y-110672260D01*
X137147248Y-110773709D01*
X137064698Y-110928148D01*
X137013864Y-111095726D01*
X137012622Y-111108341D01*
X137001000Y-111226333D01*
X137001000Y-111226340D01*
X136996700Y-111270000D01*
X134303872Y-111270000D01*
X134303872Y-110913400D01*
X134291612Y-110788918D01*
X134255302Y-110669220D01*
X134196337Y-110558906D01*
X134116985Y-110462215D01*
X134020294Y-110382863D01*
X133909980Y-110323898D01*
X133790282Y-110287588D01*
X133665800Y-110275328D01*
X131865800Y-110275328D01*
X131741318Y-110287588D01*
X131621620Y-110323898D01*
X131511306Y-110382863D01*
X131414615Y-110462215D01*
X131335263Y-110558906D01*
X131276298Y-110669220D01*
X131239988Y-110788918D01*
X131227728Y-110913400D01*
X127495445Y-110913400D01*
X127598042Y-110759853D01*
X127711010Y-110487125D01*
X127768600Y-110197599D01*
X127768600Y-109902401D01*
X127711010Y-109612875D01*
X127598042Y-109340147D01*
X127434039Y-109094698D01*
X127225302Y-108885961D01*
X127062295Y-108777043D01*
X127258263Y-108636572D01*
X127459057Y-108422125D01*
X127614156Y-108172625D01*
X127689000Y-107991914D01*
X127671474Y-107953299D01*
X164798915Y-107953299D01*
X164857466Y-108146333D01*
X165069510Y-108606586D01*
X165367270Y-109016627D01*
X165739304Y-109360699D01*
X166171315Y-109625580D01*
X166646700Y-109801090D01*
X167046000Y-109713746D01*
X167046000Y-107554000D01*
X167554000Y-107554000D01*
X167554000Y-109713746D01*
X167953300Y-109801090D01*
X168428685Y-109625580D01*
X168860696Y-109360699D01*
X169232730Y-109016627D01*
X169530490Y-108606586D01*
X169742534Y-108146333D01*
X169801085Y-107953299D01*
X169712918Y-107554000D01*
X167554000Y-107554000D01*
X167046000Y-107554000D01*
X164887082Y-107554000D01*
X164798915Y-107953299D01*
X127671474Y-107953299D01*
X127585554Y-107764000D01*
X126524000Y-107764000D01*
X126524000Y-107784000D01*
X126016000Y-107784000D01*
X126016000Y-107764000D01*
X125996000Y-107764000D01*
X125996000Y-107256000D01*
X126016000Y-107256000D01*
X126016000Y-107236000D01*
X126524000Y-107236000D01*
X126524000Y-107256000D01*
X127585554Y-107256000D01*
X127689000Y-107028086D01*
X127614156Y-106847375D01*
X127489410Y-106646701D01*
X164798915Y-106646701D01*
X164887082Y-107046000D01*
X167046000Y-107046000D01*
X167046000Y-104886254D01*
X167554000Y-104886254D01*
X167554000Y-107046000D01*
X169712918Y-107046000D01*
X169801085Y-106646701D01*
X169742534Y-106453667D01*
X169530490Y-105993414D01*
X169232730Y-105583373D01*
X168860696Y-105239301D01*
X168428685Y-104974420D01*
X167953300Y-104798910D01*
X167554000Y-104886254D01*
X167046000Y-104886254D01*
X166646700Y-104798910D01*
X166171315Y-104974420D01*
X165739304Y-105239301D01*
X165367270Y-105583373D01*
X165069510Y-105993414D01*
X164857466Y-106453667D01*
X164798915Y-106646701D01*
X127489410Y-106646701D01*
X127459057Y-106597875D01*
X127258263Y-106383428D01*
X127062295Y-106242957D01*
X127225302Y-106134039D01*
X127434039Y-105925302D01*
X127598042Y-105679853D01*
X127711010Y-105407125D01*
X127768600Y-105117599D01*
X127768600Y-104822401D01*
X127711010Y-104532875D01*
X127598042Y-104260147D01*
X127434039Y-104014698D01*
X127225302Y-103805961D01*
X127062295Y-103697043D01*
X127258263Y-103556572D01*
X127459057Y-103342125D01*
X127614156Y-103092625D01*
X127689000Y-102911914D01*
X127585554Y-102684000D01*
X126524000Y-102684000D01*
X126524000Y-102704000D01*
X126016000Y-102704000D01*
X126016000Y-102684000D01*
X125996000Y-102684000D01*
X125996000Y-102176000D01*
X126016000Y-102176000D01*
X126016000Y-102156000D01*
X126524000Y-102156000D01*
X126524000Y-102176000D01*
X127585554Y-102176000D01*
X127689000Y-101948086D01*
X127614156Y-101767375D01*
X127459057Y-101517875D01*
X127258263Y-101303428D01*
X127062295Y-101162957D01*
X127225302Y-101054039D01*
X127434039Y-100845302D01*
X127598042Y-100599853D01*
X127711010Y-100327125D01*
X127768600Y-100037599D01*
X127768600Y-99742401D01*
X127738543Y-99591293D01*
X128955877Y-100808628D01*
X128980531Y-100838669D01*
X129010570Y-100863321D01*
X129100427Y-100937066D01*
X129197570Y-100988990D01*
X129237217Y-101010182D01*
X129385643Y-101055206D01*
X129501327Y-101066600D01*
X129501337Y-101066600D01*
X129540000Y-101070408D01*
X129578663Y-101066600D01*
X163969137Y-101066600D01*
X164007800Y-101070408D01*
X164046463Y-101066600D01*
X164046473Y-101066600D01*
X164162157Y-101055206D01*
X164310583Y-101010182D01*
X164447372Y-100937066D01*
X164567269Y-100838669D01*
X164591927Y-100808623D01*
X166379434Y-99021118D01*
X166409469Y-98996469D01*
X166507866Y-98876572D01*
X166580982Y-98739783D01*
X166626006Y-98591357D01*
X166637400Y-98475673D01*
X166637400Y-98475664D01*
X166641208Y-98437001D01*
X166637400Y-98398338D01*
X166637400Y-82988662D01*
X166641208Y-82949999D01*
X166637400Y-82911336D01*
X166637400Y-82911327D01*
X166626006Y-82795643D01*
X166580982Y-82647217D01*
X166507866Y-82510428D01*
X166437162Y-82424275D01*
X166434121Y-82420569D01*
X166434119Y-82420567D01*
X166409469Y-82390531D01*
X166379433Y-82365881D01*
X165439127Y-81425577D01*
X165414469Y-81395531D01*
X165294572Y-81297134D01*
X165157783Y-81224018D01*
X165009357Y-81178994D01*
X164893673Y-81167600D01*
X164893663Y-81167600D01*
X164855000Y-81163792D01*
X164816337Y-81167600D01*
X163707493Y-81167600D01*
X163546081Y-80970919D01*
X163335188Y-80797843D01*
X163124073Y-80685000D01*
X163335188Y-80572157D01*
X163546081Y-80399081D01*
X163719157Y-80188188D01*
X163847764Y-79947581D01*
X163926960Y-79686507D01*
X163953701Y-79415000D01*
X163926960Y-79143493D01*
X163847764Y-78882419D01*
X163719157Y-78641812D01*
X163546081Y-78430919D01*
X163335188Y-78257843D01*
X163124073Y-78145000D01*
X163335188Y-78032157D01*
X163546081Y-77859081D01*
X163719157Y-77648188D01*
X163847764Y-77407581D01*
X163926960Y-77146507D01*
X163953701Y-76875000D01*
X163926960Y-76603493D01*
X163847764Y-76342419D01*
X163719157Y-76101812D01*
X163546081Y-75890919D01*
X163335188Y-75717843D01*
X163124073Y-75605000D01*
X163335188Y-75492157D01*
X163546081Y-75319081D01*
X163719157Y-75108188D01*
X163847764Y-74867581D01*
X163926960Y-74606507D01*
X163953701Y-74335000D01*
X163926960Y-74063493D01*
X163847764Y-73802419D01*
X163719157Y-73561812D01*
X163546081Y-73350919D01*
X163335188Y-73177843D01*
X163124073Y-73065000D01*
X163335188Y-72952157D01*
X163546081Y-72779081D01*
X163719157Y-72568188D01*
X163847764Y-72327581D01*
X163926960Y-72066507D01*
X163953701Y-71795000D01*
X163926960Y-71523493D01*
X163847764Y-71262419D01*
X163719157Y-71021812D01*
X163546081Y-70810919D01*
X163335188Y-70637843D01*
X163124073Y-70525000D01*
X163335188Y-70412157D01*
X163546081Y-70239081D01*
X163719157Y-70028188D01*
X163847764Y-69787581D01*
X163926960Y-69526507D01*
X163953701Y-69255000D01*
X163926960Y-68983493D01*
X163847764Y-68722419D01*
X163719157Y-68481812D01*
X163546081Y-68270919D01*
X163335188Y-68097843D01*
X163124073Y-67985000D01*
X163335188Y-67872157D01*
X163546081Y-67699081D01*
X163719157Y-67488188D01*
X163847764Y-67247581D01*
X163926960Y-66986507D01*
X163953701Y-66715000D01*
X163926960Y-66443493D01*
X163847764Y-66182419D01*
X163719157Y-65941812D01*
X163546081Y-65730919D01*
X163335188Y-65557843D01*
X163124073Y-65445000D01*
X163335188Y-65332157D01*
X163546081Y-65159081D01*
X163719157Y-64948188D01*
X163847764Y-64707581D01*
X163926960Y-64446507D01*
X163953701Y-64175000D01*
X163926960Y-63903493D01*
X163847764Y-63642419D01*
X163719157Y-63401812D01*
X163546081Y-63190919D01*
X163335188Y-63017843D01*
X163124073Y-62905000D01*
X163335188Y-62792157D01*
X163546081Y-62619081D01*
X163719157Y-62408188D01*
X163847764Y-62167581D01*
X163926960Y-61906507D01*
X163953701Y-61635000D01*
X163926960Y-61363493D01*
X163847764Y-61102419D01*
X163719157Y-60861812D01*
X163546081Y-60650919D01*
X163335188Y-60477843D01*
X163126740Y-60366426D01*
X163208390Y-60333545D01*
X163437598Y-60183642D01*
X163633157Y-59991903D01*
X163787552Y-59765697D01*
X163867013Y-59558860D01*
X163761655Y-59349000D01*
X162466000Y-59349000D01*
X162466000Y-59369000D01*
X161958000Y-59369000D01*
X161958000Y-59349000D01*
X159926000Y-59349000D01*
X159926000Y-59369000D01*
X159418000Y-59369000D01*
X159418000Y-59349000D01*
X159398000Y-59349000D01*
X159398000Y-58841000D01*
X159418000Y-58841000D01*
X159418000Y-58821000D01*
X159926000Y-58821000D01*
X159926000Y-58841000D01*
X161958000Y-58841000D01*
X161958000Y-58821000D01*
X162466000Y-58821000D01*
X162466000Y-58841000D01*
X163761655Y-58841000D01*
X163867013Y-58631140D01*
X163787552Y-58424303D01*
X163633157Y-58198097D01*
X163437598Y-58006358D01*
X163208390Y-57856455D01*
X163126740Y-57823574D01*
X163335188Y-57712157D01*
X163546081Y-57539081D01*
X163719157Y-57328188D01*
X163847764Y-57087581D01*
X163923157Y-56839045D01*
X164001647Y-56985890D01*
X164112741Y-57121259D01*
X164146664Y-57149099D01*
X166497001Y-59499437D01*
X166497000Y-73641740D01*
X166492700Y-73685400D01*
X166497000Y-73729060D01*
X166497000Y-73729066D01*
X166509864Y-73859673D01*
X166560697Y-74027250D01*
X166643247Y-74181690D01*
X166754341Y-74317059D01*
X166788263Y-74344899D01*
X167463105Y-75019741D01*
X167490941Y-75053659D01*
X167524858Y-75081494D01*
X167524859Y-75081495D01*
X167528421Y-75084418D01*
X167626309Y-75164753D01*
X167780749Y-75247303D01*
X167897492Y-75282716D01*
X167948325Y-75298136D01*
X167964925Y-75299771D01*
X168078933Y-75311000D01*
X168078940Y-75311000D01*
X168122600Y-75315300D01*
X168135383Y-75314041D01*
X168210919Y-75406081D01*
X168421812Y-75579157D01*
X168632927Y-75692000D01*
X168421812Y-75804843D01*
X168210919Y-75977919D01*
X168037843Y-76188812D01*
X167909236Y-76429419D01*
X167830040Y-76690493D01*
X167803299Y-76962000D01*
X167830040Y-77233507D01*
X167909236Y-77494581D01*
X168037843Y-77735188D01*
X168210919Y-77946081D01*
X168421812Y-78119157D01*
X168632927Y-78232000D01*
X168421812Y-78344843D01*
X168210919Y-78517919D01*
X168037843Y-78728812D01*
X167909236Y-78969419D01*
X167830040Y-79230493D01*
X167803299Y-79502000D01*
X167830040Y-79773507D01*
X167909236Y-80034581D01*
X168037843Y-80275188D01*
X168210919Y-80486081D01*
X168421812Y-80659157D01*
X168632927Y-80772000D01*
X168421812Y-80884843D01*
X168210919Y-81057919D01*
X168037843Y-81268812D01*
X167909236Y-81509419D01*
X167830040Y-81770493D01*
X167803299Y-82042000D01*
X167830040Y-82313507D01*
X167909236Y-82574581D01*
X168037843Y-82815188D01*
X168210919Y-83026081D01*
X168421812Y-83199157D01*
X168632927Y-83312000D01*
X168421812Y-83424843D01*
X168210919Y-83597919D01*
X168037843Y-83808812D01*
X167909236Y-84049419D01*
X167830040Y-84310493D01*
X167803299Y-84582000D01*
X167830040Y-84853507D01*
X167909236Y-85114581D01*
X168037843Y-85355188D01*
X168210919Y-85566081D01*
X168421812Y-85739157D01*
X168662419Y-85867764D01*
X168923493Y-85946960D01*
X169126963Y-85967000D01*
X169963037Y-85967000D01*
X170166507Y-85946960D01*
X170427581Y-85867764D01*
X170554326Y-85800018D01*
X170630506Y-85862537D01*
X170740820Y-85921502D01*
X170860518Y-85957812D01*
X170985000Y-85970072D01*
X173185000Y-85970072D01*
X173309482Y-85957812D01*
X173429180Y-85921502D01*
X173539494Y-85862537D01*
X173636185Y-85783185D01*
X173715537Y-85686494D01*
X173774502Y-85576180D01*
X173810812Y-85456482D01*
X173823072Y-85332000D01*
X173823072Y-83832000D01*
X173810812Y-83707518D01*
X173774502Y-83587820D01*
X173715537Y-83477506D01*
X173636185Y-83380815D01*
X173539494Y-83301463D01*
X173429180Y-83242498D01*
X173309482Y-83206188D01*
X173211392Y-83196527D01*
X173419081Y-83026081D01*
X173592157Y-82815188D01*
X173720764Y-82574581D01*
X173799960Y-82313507D01*
X173826701Y-82042000D01*
X173799960Y-81770493D01*
X173720764Y-81509419D01*
X173592157Y-81268812D01*
X173419081Y-81057919D01*
X173208188Y-80884843D01*
X172997073Y-80772000D01*
X173208188Y-80659157D01*
X173419081Y-80486081D01*
X173592157Y-80275188D01*
X173720764Y-80034581D01*
X173799960Y-79773507D01*
X173826701Y-79502000D01*
X173799960Y-79230493D01*
X173720764Y-78969419D01*
X173592157Y-78728812D01*
X173419081Y-78517919D01*
X173208188Y-78344843D01*
X172997073Y-78232000D01*
X173208188Y-78119157D01*
X173419081Y-77946081D01*
X173592157Y-77735188D01*
X173720764Y-77494581D01*
X173799960Y-77233507D01*
X173826701Y-76962000D01*
X173799960Y-76690493D01*
X173720764Y-76429419D01*
X173592157Y-76188812D01*
X173419081Y-75977919D01*
X173208188Y-75804843D01*
X172997073Y-75692000D01*
X173208188Y-75579157D01*
X173419081Y-75406081D01*
X173592157Y-75195188D01*
X173720764Y-74954581D01*
X173799960Y-74693507D01*
X173826701Y-74422000D01*
X173799960Y-74150493D01*
X173720764Y-73889419D01*
X173592157Y-73648812D01*
X173419081Y-73437919D01*
X173208188Y-73264843D01*
X172999740Y-73153426D01*
X173081390Y-73120545D01*
X173310598Y-72970642D01*
X173506157Y-72778903D01*
X173660552Y-72552697D01*
X173740013Y-72345860D01*
X173634655Y-72136000D01*
X172339000Y-72136000D01*
X172339000Y-72156000D01*
X171831000Y-72156000D01*
X171831000Y-72136000D01*
X171811000Y-72136000D01*
X171811000Y-71628000D01*
X171831000Y-71628000D01*
X171831000Y-70646979D01*
X172339000Y-70646979D01*
X172339000Y-71628000D01*
X173634655Y-71628000D01*
X173740013Y-71418140D01*
X173660552Y-71211303D01*
X173506157Y-70985097D01*
X173310598Y-70793358D01*
X173081390Y-70643455D01*
X172827342Y-70541149D01*
X172558216Y-70490371D01*
X172339000Y-70646979D01*
X171831000Y-70646979D01*
X171611784Y-70490371D01*
X171342658Y-70541149D01*
X171088610Y-70643455D01*
X170859402Y-70793358D01*
X170810316Y-70841485D01*
X170668188Y-70724843D01*
X170427581Y-70596236D01*
X170166507Y-70517040D01*
X169963037Y-70497000D01*
X169126963Y-70497000D01*
X168923493Y-70517040D01*
X168662419Y-70596236D01*
X168421812Y-70724843D01*
X168275000Y-70845329D01*
X168275000Y-61789721D01*
X171865000Y-61789721D01*
X171865000Y-62210279D01*
X171947047Y-62622756D01*
X172107988Y-63011302D01*
X172341637Y-63360983D01*
X172639017Y-63658363D01*
X172988698Y-63892012D01*
X173377244Y-64052953D01*
X173789721Y-64135000D01*
X174210279Y-64135000D01*
X174622756Y-64052953D01*
X175011302Y-63892012D01*
X175360983Y-63658363D01*
X175658363Y-63360983D01*
X175892012Y-63011302D01*
X176052953Y-62622756D01*
X176135000Y-62210279D01*
X176135000Y-61789721D01*
X176052953Y-61377244D01*
X175892012Y-60988698D01*
X175658363Y-60639017D01*
X175360983Y-60341637D01*
X175011302Y-60107988D01*
X174622756Y-59947047D01*
X174210279Y-59865000D01*
X173789721Y-59865000D01*
X173377244Y-59947047D01*
X172988698Y-60107988D01*
X172639017Y-60341637D01*
X172341637Y-60639017D01*
X172107988Y-60988698D01*
X171947047Y-61377244D01*
X171865000Y-61789721D01*
X168275000Y-61789721D01*
X168275000Y-59174868D01*
X168279301Y-59131200D01*
X168262136Y-58956925D01*
X168231951Y-58857418D01*
X168211303Y-58789349D01*
X168128753Y-58634909D01*
X168017659Y-58499541D01*
X167983742Y-58471706D01*
X165633400Y-56121365D01*
X165633400Y-53536060D01*
X165637700Y-53492400D01*
X165633400Y-53448740D01*
X165633400Y-53448733D01*
X165620536Y-53318126D01*
X165569703Y-53150549D01*
X165487153Y-52996109D01*
X165376059Y-52860741D01*
X165342141Y-52832905D01*
X164616499Y-52107263D01*
X164588659Y-52073341D01*
X164453291Y-51962247D01*
X164298851Y-51879697D01*
X164131274Y-51828864D01*
X164000667Y-51816000D01*
X164000660Y-51816000D01*
X163957000Y-51811700D01*
X163913340Y-51816000D01*
X163905880Y-51816000D01*
X163926960Y-51746507D01*
X163953701Y-51475000D01*
X163926960Y-51203493D01*
X163847764Y-50942419D01*
X163719157Y-50701812D01*
X163546081Y-50490919D01*
X163335188Y-50317843D01*
X163124073Y-50205000D01*
X163335188Y-50092157D01*
X163546081Y-49919081D01*
X163719157Y-49708188D01*
X163847764Y-49467581D01*
X163904532Y-49280440D01*
X166784025Y-49280440D01*
X166807870Y-49522542D01*
X166878489Y-49755341D01*
X166993167Y-49969889D01*
X167147498Y-50157942D01*
X167297688Y-50281200D01*
X167147498Y-50404458D01*
X166993167Y-50592511D01*
X166878489Y-50807059D01*
X166807870Y-51039858D01*
X166784025Y-51281960D01*
X166807870Y-51524062D01*
X166878489Y-51756861D01*
X166993167Y-51971409D01*
X167120303Y-52126325D01*
X167070506Y-52152943D01*
X166973815Y-52232295D01*
X166894463Y-52328986D01*
X166835498Y-52439300D01*
X166799188Y-52558998D01*
X166786928Y-52683480D01*
X166786928Y-53883480D01*
X166799188Y-54007962D01*
X166835498Y-54127660D01*
X166894463Y-54237974D01*
X166973815Y-54334665D01*
X167070506Y-54414017D01*
X167180820Y-54472982D01*
X167300518Y-54509292D01*
X167425000Y-54521552D01*
X169125000Y-54521552D01*
X169249482Y-54509292D01*
X169369180Y-54472982D01*
X169479494Y-54414017D01*
X169576185Y-54334665D01*
X169655537Y-54237974D01*
X169714502Y-54127660D01*
X169750812Y-54007962D01*
X169763072Y-53883480D01*
X169763072Y-52683480D01*
X169750812Y-52558998D01*
X169714502Y-52439300D01*
X169655537Y-52328986D01*
X169576185Y-52232295D01*
X169479494Y-52152943D01*
X169429697Y-52126325D01*
X169556833Y-51971409D01*
X169671511Y-51756861D01*
X169742130Y-51524062D01*
X169765975Y-51281960D01*
X169742130Y-51039858D01*
X169671511Y-50807059D01*
X169556833Y-50592511D01*
X169402502Y-50404458D01*
X169252312Y-50281200D01*
X169402502Y-50157942D01*
X169556833Y-49969889D01*
X169671511Y-49755341D01*
X169742130Y-49522542D01*
X169765975Y-49280440D01*
X169742130Y-49038338D01*
X169671511Y-48805539D01*
X169556833Y-48590991D01*
X169402502Y-48402938D01*
X169247430Y-48275674D01*
X169365977Y-48185331D01*
X169526154Y-48003897D01*
X169647858Y-47794700D01*
X169678984Y-47721399D01*
X169570848Y-47535460D01*
X168529000Y-47535460D01*
X168529000Y-47555460D01*
X168021000Y-47555460D01*
X168021000Y-47535460D01*
X166979152Y-47535460D01*
X166871016Y-47721399D01*
X166902142Y-47794700D01*
X167023846Y-48003897D01*
X167184023Y-48185331D01*
X167302570Y-48275674D01*
X167147498Y-48402938D01*
X166993167Y-48590991D01*
X166878489Y-48805539D01*
X166807870Y-49038338D01*
X166784025Y-49280440D01*
X163904532Y-49280440D01*
X163926960Y-49206507D01*
X163953701Y-48935000D01*
X163926960Y-48663493D01*
X163847764Y-48402419D01*
X163719157Y-48161812D01*
X163546081Y-47950919D01*
X163335188Y-47777843D01*
X163124073Y-47665000D01*
X163335188Y-47552157D01*
X163546081Y-47379081D01*
X163719157Y-47168188D01*
X163847764Y-46927581D01*
X163926960Y-46666507D01*
X163953701Y-46395000D01*
X163926960Y-46123493D01*
X163847764Y-45862419D01*
X163719157Y-45621812D01*
X163546081Y-45410919D01*
X163335188Y-45237843D01*
X163126740Y-45126426D01*
X163208390Y-45093545D01*
X163437598Y-44943642D01*
X163633157Y-44751903D01*
X163787552Y-44525697D01*
X163867013Y-44318860D01*
X163761655Y-44109000D01*
X162466000Y-44109000D01*
X162466000Y-44129000D01*
X161958000Y-44129000D01*
X161958000Y-44109000D01*
X159926000Y-44109000D01*
X159926000Y-44129000D01*
X159418000Y-44129000D01*
X159418000Y-44109000D01*
X158122345Y-44109000D01*
X158016987Y-44318860D01*
X158096448Y-44525697D01*
X158250843Y-44751903D01*
X158446402Y-44943642D01*
X158675610Y-45093545D01*
X158757260Y-45126426D01*
X158548812Y-45237843D01*
X158337919Y-45410919D01*
X158164843Y-45621812D01*
X158036236Y-45862419D01*
X157957040Y-46123493D01*
X157930299Y-46395000D01*
X157957040Y-46666507D01*
X158036236Y-46927581D01*
X158164843Y-47168188D01*
X158337919Y-47379081D01*
X158548812Y-47552157D01*
X158759927Y-47665000D01*
X158548812Y-47777843D01*
X158337919Y-47950919D01*
X158173198Y-48151631D01*
X158098443Y-48158994D01*
X157950017Y-48204018D01*
X157813228Y-48277134D01*
X157813226Y-48277135D01*
X157813227Y-48277135D01*
X157723369Y-48350879D01*
X157723367Y-48350881D01*
X157693331Y-48375531D01*
X157668681Y-48405567D01*
X155731377Y-50342872D01*
X155701331Y-50367531D01*
X155602934Y-50487429D01*
X155529818Y-50624218D01*
X155484794Y-50772644D01*
X155473400Y-50888328D01*
X155473400Y-50888337D01*
X155469592Y-50927000D01*
X155473400Y-50965663D01*
X155473401Y-68101447D01*
X154325834Y-69249016D01*
X154325088Y-69249164D01*
X154163301Y-69316179D01*
X154017696Y-69413469D01*
X153893869Y-69537296D01*
X153796579Y-69682901D01*
X153729564Y-69844688D01*
X153695400Y-70016441D01*
X153695400Y-70191559D01*
X153729564Y-70363312D01*
X153796579Y-70525099D01*
X153893869Y-70670704D01*
X154017696Y-70794531D01*
X154128609Y-70868641D01*
X153394578Y-71602672D01*
X153364531Y-71627331D01*
X153266134Y-71747229D01*
X153193018Y-71884018D01*
X153147994Y-72032444D01*
X153136600Y-72148128D01*
X153136600Y-72148137D01*
X153132792Y-72186800D01*
X153136600Y-72225463D01*
X153136600Y-72546449D01*
X153132033Y-72551016D01*
X153131288Y-72551164D01*
X152969501Y-72618179D01*
X152823896Y-72715469D01*
X152700069Y-72839296D01*
X152602779Y-72984901D01*
X152535764Y-73146688D01*
X152501600Y-73318441D01*
X152501600Y-73493559D01*
X152535764Y-73665312D01*
X152602779Y-73827099D01*
X152700069Y-73972704D01*
X152823896Y-74096531D01*
X152969501Y-74193821D01*
X153131288Y-74260836D01*
X153303041Y-74295000D01*
X153478159Y-74295000D01*
X153649912Y-74260836D01*
X153811699Y-74193821D01*
X153957304Y-74096531D01*
X154081131Y-73972704D01*
X154178421Y-73827099D01*
X154245436Y-73665312D01*
X154245584Y-73664567D01*
X154453432Y-73456719D01*
X154483469Y-73432069D01*
X154508119Y-73402033D01*
X154508122Y-73402030D01*
X154581866Y-73312172D01*
X154612600Y-73254673D01*
X154612601Y-93960914D01*
X154453255Y-93992610D01*
X154299735Y-94056200D01*
X154161252Y-94056200D01*
X153441400Y-93336350D01*
X153441400Y-83392663D01*
X153445208Y-83354000D01*
X153441400Y-83315337D01*
X153441400Y-83315327D01*
X153430006Y-83199643D01*
X153384982Y-83051217D01*
X153334461Y-82956700D01*
X153311866Y-82914427D01*
X153261835Y-82853465D01*
X153213469Y-82794531D01*
X153183428Y-82769877D01*
X150284128Y-79870578D01*
X150259469Y-79840531D01*
X150139572Y-79742134D01*
X150002783Y-79669018D01*
X149854357Y-79623994D01*
X149738673Y-79612600D01*
X149738663Y-79612600D01*
X149700000Y-79608792D01*
X149661337Y-79612600D01*
X143176151Y-79612600D01*
X143037400Y-79473849D01*
X143037400Y-78388662D01*
X143041208Y-78349999D01*
X143037400Y-78311336D01*
X143037400Y-78311327D01*
X143026006Y-78195643D01*
X142980982Y-78047217D01*
X142907866Y-77910428D01*
X142809469Y-77790531D01*
X142779433Y-77765881D01*
X140437400Y-75423850D01*
X140437400Y-65438665D01*
X140441208Y-65400000D01*
X140437400Y-65361335D01*
X140437400Y-65361327D01*
X140426006Y-65245643D01*
X140380982Y-65097217D01*
X140307866Y-64960428D01*
X140292454Y-64941648D01*
X140234122Y-64870570D01*
X140234119Y-64870567D01*
X140209469Y-64840531D01*
X140179433Y-64815881D01*
X139009127Y-63645577D01*
X138984469Y-63615531D01*
X138864572Y-63517134D01*
X138727783Y-63444018D01*
X138579357Y-63398994D01*
X138463673Y-63387600D01*
X138463663Y-63387600D01*
X138425000Y-63383792D01*
X138386337Y-63387600D01*
X138307493Y-63387600D01*
X138146081Y-63190919D01*
X137935188Y-63017843D01*
X137724073Y-62905000D01*
X137935188Y-62792157D01*
X138146081Y-62619081D01*
X138319157Y-62408188D01*
X138447764Y-62167581D01*
X138526960Y-61906507D01*
X138553701Y-61635000D01*
X138526960Y-61363493D01*
X138447764Y-61102419D01*
X138319157Y-60861812D01*
X138146081Y-60650919D01*
X137935188Y-60477843D01*
X137724073Y-60365000D01*
X137935188Y-60252157D01*
X138146081Y-60079081D01*
X138319157Y-59868188D01*
X138447764Y-59627581D01*
X138526960Y-59366507D01*
X138553701Y-59095000D01*
X138526960Y-58823493D01*
X138447764Y-58562419D01*
X138319157Y-58321812D01*
X138146081Y-58110919D01*
X137935188Y-57937843D01*
X137724073Y-57825000D01*
X137935188Y-57712157D01*
X138146081Y-57539081D01*
X138319157Y-57328188D01*
X138447764Y-57087581D01*
X138526960Y-56826507D01*
X138553701Y-56555000D01*
X138526960Y-56283493D01*
X138447764Y-56022419D01*
X138319157Y-55781812D01*
X138146081Y-55570919D01*
X137935188Y-55397843D01*
X137724073Y-55285000D01*
X137935188Y-55172157D01*
X138146081Y-54999081D01*
X138319157Y-54788188D01*
X138447764Y-54547581D01*
X138526960Y-54286507D01*
X138553701Y-54015000D01*
X138526960Y-53743493D01*
X138447764Y-53482419D01*
X138319157Y-53241812D01*
X138146081Y-53030919D01*
X137935188Y-52857843D01*
X137724073Y-52745000D01*
X137935188Y-52632157D01*
X138146081Y-52459081D01*
X138319157Y-52248188D01*
X138447764Y-52007581D01*
X138526960Y-51746507D01*
X138553701Y-51475000D01*
X138526960Y-51203493D01*
X138447764Y-50942419D01*
X138319157Y-50701812D01*
X138146081Y-50490919D01*
X137935188Y-50317843D01*
X137724073Y-50205000D01*
X137935188Y-50092157D01*
X138146081Y-49919081D01*
X138319157Y-49708188D01*
X138447764Y-49467581D01*
X138526960Y-49206507D01*
X138553701Y-48935000D01*
X138526960Y-48663493D01*
X138447764Y-48402419D01*
X138319157Y-48161812D01*
X138146081Y-47950919D01*
X137935188Y-47777843D01*
X137724073Y-47665000D01*
X137935188Y-47552157D01*
X138146081Y-47379081D01*
X138319157Y-47168188D01*
X138447764Y-46927581D01*
X138526960Y-46666507D01*
X138553701Y-46395000D01*
X138526960Y-46123493D01*
X138447764Y-45862419D01*
X138319157Y-45621812D01*
X138146081Y-45410919D01*
X137935188Y-45237843D01*
X137724073Y-45125000D01*
X137935188Y-45012157D01*
X138146081Y-44839081D01*
X138319157Y-44628188D01*
X138447764Y-44387581D01*
X138526960Y-44126507D01*
X138553701Y-43855000D01*
X138526960Y-43583493D01*
X138447764Y-43322419D01*
X138319157Y-43081812D01*
X138146081Y-42870919D01*
X137935188Y-42697843D01*
X137694581Y-42569236D01*
X137433507Y-42490040D01*
X137230037Y-42470000D01*
X136393963Y-42470000D01*
X136190493Y-42490040D01*
X135929419Y-42569236D01*
X135688812Y-42697843D01*
X135477919Y-42870919D01*
X135304843Y-43081812D01*
X135176236Y-43322419D01*
X135097040Y-43583493D01*
X135070299Y-43855000D01*
X135097040Y-44126507D01*
X135176236Y-44387581D01*
X135304843Y-44628188D01*
X135477919Y-44839081D01*
X135688812Y-45012157D01*
X135899927Y-45125000D01*
X135688812Y-45237843D01*
X135477919Y-45410919D01*
X135304843Y-45621812D01*
X135176236Y-45862419D01*
X135097040Y-46123493D01*
X135070299Y-46395000D01*
X135097040Y-46666507D01*
X135176236Y-46927581D01*
X135304843Y-47168188D01*
X135477919Y-47379081D01*
X135688812Y-47552157D01*
X135899927Y-47665000D01*
X135688812Y-47777843D01*
X135477919Y-47950919D01*
X135304843Y-48161812D01*
X135176236Y-48402419D01*
X135097040Y-48663493D01*
X135070299Y-48935000D01*
X135097040Y-49206507D01*
X135176236Y-49467581D01*
X135304843Y-49708188D01*
X135477919Y-49919081D01*
X135688812Y-50092157D01*
X135899927Y-50205000D01*
X135688812Y-50317843D01*
X135477919Y-50490919D01*
X135316507Y-50687600D01*
X135126662Y-50687600D01*
X135087999Y-50683792D01*
X135049336Y-50687600D01*
X135049327Y-50687600D01*
X134933643Y-50698994D01*
X134785217Y-50744018D01*
X134648428Y-50817134D01*
X134622055Y-50838778D01*
X134558569Y-50890879D01*
X134558567Y-50890881D01*
X134528531Y-50915531D01*
X134503881Y-50945567D01*
X133760377Y-51689073D01*
X133730331Y-51713731D01*
X133631934Y-51833629D01*
X133558818Y-51970418D01*
X133513794Y-52118844D01*
X133502400Y-52234528D01*
X133502400Y-52234537D01*
X133498592Y-52273200D01*
X133502400Y-52311863D01*
X133502401Y-55401447D01*
X132312577Y-56591273D01*
X132282531Y-56615931D01*
X132184134Y-56735829D01*
X132111018Y-56872618D01*
X132065994Y-57021044D01*
X132054600Y-57136728D01*
X132054600Y-57136737D01*
X132050792Y-57175400D01*
X132054600Y-57214063D01*
X132054600Y-69196949D01*
X131413741Y-68556091D01*
X131373970Y-68507630D01*
X131180588Y-68348925D01*
X130959959Y-68230997D01*
X130720563Y-68158377D01*
X130533980Y-68140000D01*
X130533973Y-68140000D01*
X130471600Y-68133857D01*
X130409227Y-68140000D01*
X127413000Y-68140000D01*
X127413000Y-67846341D01*
X127434039Y-67825302D01*
X127478340Y-67759000D01*
X127548740Y-67759000D01*
X127592400Y-67763300D01*
X127636060Y-67759000D01*
X127636067Y-67759000D01*
X127766674Y-67746136D01*
X127934251Y-67695303D01*
X128088691Y-67612753D01*
X128224059Y-67501659D01*
X128251899Y-67467736D01*
X129375743Y-66343893D01*
X129409659Y-66316059D01*
X129520753Y-66180691D01*
X129603303Y-66026251D01*
X129647085Y-65881918D01*
X129654136Y-65858675D01*
X129671301Y-65684400D01*
X129667000Y-65640732D01*
X129667000Y-54254504D01*
X129768951Y-54338173D01*
X129983499Y-54452851D01*
X130216298Y-54523470D01*
X130397735Y-54541340D01*
X131019065Y-54541340D01*
X131200502Y-54523470D01*
X131433301Y-54452851D01*
X131647849Y-54338173D01*
X131835902Y-54183842D01*
X131990233Y-53995789D01*
X132104911Y-53781241D01*
X132175530Y-53548442D01*
X132199375Y-53306340D01*
X132175530Y-53064238D01*
X132104911Y-52831439D01*
X131990233Y-52616891D01*
X131835902Y-52428838D01*
X131687259Y-52306850D01*
X131835902Y-52184862D01*
X131990233Y-51996809D01*
X132104911Y-51782261D01*
X132175530Y-51549462D01*
X132199375Y-51307360D01*
X132175530Y-51065258D01*
X132104911Y-50832459D01*
X131990233Y-50617911D01*
X131835902Y-50429858D01*
X131693449Y-50312950D01*
X131835902Y-50196042D01*
X131990233Y-50007989D01*
X132104911Y-49793441D01*
X132175530Y-49560642D01*
X132199375Y-49318540D01*
X132175530Y-49076438D01*
X132104911Y-48843639D01*
X131990233Y-48629091D01*
X131835902Y-48441038D01*
X131680830Y-48313774D01*
X131799377Y-48223431D01*
X131959554Y-48041997D01*
X132081258Y-47832800D01*
X132112384Y-47759499D01*
X132004248Y-47573560D01*
X130962400Y-47573560D01*
X130962400Y-47593560D01*
X130454400Y-47593560D01*
X130454400Y-47573560D01*
X129412552Y-47573560D01*
X129304416Y-47759499D01*
X129335542Y-47832800D01*
X129457246Y-48041997D01*
X129617423Y-48223431D01*
X129735970Y-48313774D01*
X129594908Y-48429540D01*
X129337920Y-48429540D01*
X129294260Y-48425240D01*
X129250600Y-48429540D01*
X129250593Y-48429540D01*
X129136585Y-48440769D01*
X129119985Y-48442404D01*
X129047018Y-48464538D01*
X128952409Y-48493237D01*
X128797969Y-48575787D01*
X128662601Y-48686881D01*
X128634761Y-48720804D01*
X128180259Y-49175306D01*
X128146342Y-49203141D01*
X128118507Y-49237058D01*
X128118505Y-49237060D01*
X128035248Y-49338509D01*
X127952698Y-49492948D01*
X127901864Y-49660526D01*
X127884700Y-49834800D01*
X127889001Y-49878470D01*
X127889000Y-65316164D01*
X127362253Y-65842912D01*
X127225302Y-65705961D01*
X126979853Y-65541958D01*
X126707125Y-65428990D01*
X126417599Y-65371400D01*
X126122401Y-65371400D01*
X125832875Y-65428990D01*
X125560147Y-65541958D01*
X125314698Y-65705961D01*
X125200636Y-65820023D01*
X125183102Y-65762220D01*
X125124137Y-65651906D01*
X125044785Y-65555215D01*
X124948094Y-65475863D01*
X124837780Y-65416898D01*
X124718082Y-65380588D01*
X124593600Y-65368328D01*
X122866400Y-65368328D01*
X122741918Y-65380588D01*
X122622220Y-65416898D01*
X122511906Y-65475863D01*
X122415215Y-65555215D01*
X122335863Y-65651906D01*
X122276898Y-65762220D01*
X122240588Y-65881918D01*
X122228328Y-66006400D01*
X122160000Y-66006400D01*
X122160000Y-61789721D01*
X122865000Y-61789721D01*
X122865000Y-62210279D01*
X122947047Y-62622756D01*
X123107988Y-63011302D01*
X123341637Y-63360983D01*
X123639017Y-63658363D01*
X123988698Y-63892012D01*
X124377244Y-64052953D01*
X124789721Y-64135000D01*
X125210279Y-64135000D01*
X125622756Y-64052953D01*
X126011302Y-63892012D01*
X126360983Y-63658363D01*
X126658363Y-63360983D01*
X126892012Y-63011302D01*
X127052953Y-62622756D01*
X127135000Y-62210279D01*
X127135000Y-61789721D01*
X127052953Y-61377244D01*
X126892012Y-60988698D01*
X126658363Y-60639017D01*
X126360983Y-60341637D01*
X126011302Y-60107988D01*
X125622756Y-59947047D01*
X125210279Y-59865000D01*
X124789721Y-59865000D01*
X124377244Y-59947047D01*
X123988698Y-60107988D01*
X123639017Y-60341637D01*
X123341637Y-60639017D01*
X123107988Y-60988698D01*
X122947047Y-61377244D01*
X122865000Y-61789721D01*
X122160000Y-61789721D01*
X122160000Y-45318040D01*
X129217425Y-45318040D01*
X129241270Y-45560142D01*
X129311889Y-45792941D01*
X129426567Y-46007489D01*
X129580898Y-46195542D01*
X129737574Y-46324123D01*
X129617423Y-46415689D01*
X129457246Y-46597123D01*
X129335542Y-46806320D01*
X129304416Y-46879621D01*
X129412552Y-47065560D01*
X130454400Y-47065560D01*
X130454400Y-47045560D01*
X130962400Y-47045560D01*
X130962400Y-47065560D01*
X132004248Y-47065560D01*
X132112384Y-46879621D01*
X132081258Y-46806320D01*
X131959554Y-46597123D01*
X131799377Y-46415689D01*
X131679226Y-46324123D01*
X131821892Y-46207040D01*
X132514500Y-46207040D01*
X132558160Y-46211340D01*
X132601820Y-46207040D01*
X132601827Y-46207040D01*
X132732434Y-46194176D01*
X132900011Y-46143343D01*
X133054451Y-46060793D01*
X133189819Y-45949699D01*
X133217658Y-45915777D01*
X133846141Y-45287295D01*
X133880059Y-45259459D01*
X133991153Y-45124091D01*
X134073703Y-44969651D01*
X134118568Y-44821749D01*
X134124536Y-44802075D01*
X134126171Y-44785475D01*
X134137400Y-44671467D01*
X134137400Y-44671460D01*
X134141700Y-44627800D01*
X134137400Y-44584140D01*
X134137400Y-43268835D01*
X135293036Y-42113200D01*
X142328965Y-42113200D01*
X144907001Y-44691237D01*
X144907000Y-62440340D01*
X144902700Y-62484000D01*
X144907000Y-62527660D01*
X144907000Y-62527666D01*
X144919864Y-62658273D01*
X144970697Y-62825850D01*
X145053247Y-62980290D01*
X145164341Y-63115659D01*
X145198265Y-63143499D01*
X145511867Y-63457102D01*
X145635696Y-63580931D01*
X145672197Y-63605320D01*
X145706109Y-63633151D01*
X145744803Y-63653834D01*
X145781301Y-63678221D01*
X145821847Y-63695016D01*
X145860547Y-63715702D01*
X145902541Y-63728441D01*
X145943088Y-63745236D01*
X145986134Y-63753798D01*
X146028124Y-63766536D01*
X146071790Y-63770837D01*
X146114841Y-63779400D01*
X146158739Y-63779400D01*
X146202399Y-63783700D01*
X146246059Y-63779400D01*
X146289959Y-63779400D01*
X146333012Y-63770836D01*
X146376674Y-63766536D01*
X146418660Y-63753800D01*
X146461712Y-63745236D01*
X146502264Y-63728439D01*
X146544251Y-63715702D01*
X146582946Y-63695019D01*
X146623499Y-63678221D01*
X146659999Y-63653833D01*
X146698691Y-63633151D01*
X146732603Y-63605320D01*
X146769104Y-63580931D01*
X146800147Y-63549888D01*
X146834058Y-63522058D01*
X146861888Y-63488147D01*
X146892931Y-63457104D01*
X146917320Y-63420603D01*
X146945151Y-63386691D01*
X146965833Y-63347999D01*
X146990221Y-63311499D01*
X147007019Y-63270946D01*
X147027702Y-63232251D01*
X147040439Y-63190264D01*
X147057236Y-63149712D01*
X147065800Y-63106660D01*
X147078536Y-63064674D01*
X147082836Y-63021012D01*
X147091400Y-62977959D01*
X147091400Y-62934059D01*
X147095700Y-62890399D01*
X147091400Y-62846739D01*
X147091400Y-62802841D01*
X147082837Y-62759790D01*
X147078536Y-62716124D01*
X147065798Y-62674134D01*
X147057236Y-62631088D01*
X147040441Y-62590541D01*
X147027702Y-62548547D01*
X147007016Y-62509847D01*
X146990221Y-62469301D01*
X146965834Y-62432803D01*
X146945151Y-62394109D01*
X146917320Y-62360197D01*
X146892931Y-62323696D01*
X146769102Y-62199867D01*
X146685000Y-62115766D01*
X146685000Y-44366660D01*
X146689300Y-44323000D01*
X146685000Y-44279340D01*
X146685000Y-44279333D01*
X146672136Y-44148726D01*
X146671349Y-44146129D01*
X146639459Y-44041002D01*
X146621303Y-43981149D01*
X146538753Y-43826709D01*
X146427659Y-43691341D01*
X146393742Y-43663506D01*
X146121376Y-43391140D01*
X158016987Y-43391140D01*
X158122345Y-43601000D01*
X159418000Y-43601000D01*
X159418000Y-42619979D01*
X159926000Y-42619979D01*
X159926000Y-43601000D01*
X161958000Y-43601000D01*
X161958000Y-42619979D01*
X162466000Y-42619979D01*
X162466000Y-43601000D01*
X163761655Y-43601000D01*
X163867013Y-43391140D01*
X163829564Y-43293660D01*
X166784025Y-43293660D01*
X166807870Y-43535762D01*
X166878489Y-43768561D01*
X166993167Y-43983109D01*
X167147498Y-44171162D01*
X167296141Y-44293150D01*
X167147498Y-44415138D01*
X166993167Y-44603191D01*
X166878489Y-44817739D01*
X166807870Y-45050538D01*
X166784025Y-45292640D01*
X166807870Y-45534742D01*
X166878489Y-45767541D01*
X166993167Y-45982089D01*
X167147498Y-46170142D01*
X167296151Y-46292138D01*
X167184023Y-46377589D01*
X167023846Y-46559023D01*
X166902142Y-46768220D01*
X166871016Y-46841521D01*
X166979152Y-47027460D01*
X168021000Y-47027460D01*
X168021000Y-47007460D01*
X168529000Y-47007460D01*
X168529000Y-47027460D01*
X169570848Y-47027460D01*
X169678984Y-46841521D01*
X169647858Y-46768220D01*
X169526154Y-46559023D01*
X169365977Y-46377589D01*
X169253849Y-46292138D01*
X169402502Y-46170142D01*
X169556833Y-45982089D01*
X169671511Y-45767541D01*
X169742130Y-45534742D01*
X169765975Y-45292640D01*
X169742130Y-45050538D01*
X169671511Y-44817739D01*
X169556833Y-44603191D01*
X169402502Y-44415138D01*
X169253859Y-44293150D01*
X169402502Y-44171162D01*
X169556833Y-43983109D01*
X169671511Y-43768561D01*
X169742130Y-43535762D01*
X169765975Y-43293660D01*
X169742130Y-43051558D01*
X169671511Y-42818759D01*
X169556833Y-42604211D01*
X169402502Y-42416158D01*
X169214449Y-42261827D01*
X168999901Y-42147149D01*
X168767102Y-42076530D01*
X168585665Y-42058660D01*
X167964335Y-42058660D01*
X167782898Y-42076530D01*
X167550099Y-42147149D01*
X167335551Y-42261827D01*
X167147498Y-42416158D01*
X166993167Y-42604211D01*
X166878489Y-42818759D01*
X166807870Y-43051558D01*
X166784025Y-43293660D01*
X163829564Y-43293660D01*
X163787552Y-43184303D01*
X163633157Y-42958097D01*
X163437598Y-42766358D01*
X163208390Y-42616455D01*
X162954342Y-42514149D01*
X162685216Y-42463371D01*
X162466000Y-42619979D01*
X161958000Y-42619979D01*
X161738784Y-42463371D01*
X161469658Y-42514149D01*
X161215610Y-42616455D01*
X160986402Y-42766358D01*
X160942000Y-42809893D01*
X160897598Y-42766358D01*
X160668390Y-42616455D01*
X160414342Y-42514149D01*
X160145216Y-42463371D01*
X159926000Y-42619979D01*
X159418000Y-42619979D01*
X159198784Y-42463371D01*
X158929658Y-42514149D01*
X158675610Y-42616455D01*
X158446402Y-42766358D01*
X158250843Y-42958097D01*
X158096448Y-43184303D01*
X158016987Y-43391140D01*
X146121376Y-43391140D01*
X143356699Y-40626464D01*
X143328859Y-40592541D01*
X143193491Y-40481447D01*
X143039051Y-40398897D01*
X142871474Y-40348064D01*
X142740867Y-40335200D01*
X142740860Y-40335200D01*
X142697200Y-40330900D01*
X142653540Y-40335200D01*
X134968460Y-40335200D01*
X134924800Y-40330900D01*
X134881140Y-40335200D01*
X134881133Y-40335200D01*
X134767125Y-40346429D01*
X134750525Y-40348064D01*
X134699692Y-40363484D01*
X134582949Y-40398897D01*
X134428509Y-40481447D01*
X134293141Y-40592541D01*
X134265306Y-40626458D01*
X132650664Y-42241101D01*
X132616741Y-42268941D01*
X132505647Y-42404310D01*
X132423097Y-42558750D01*
X132372264Y-42726327D01*
X132359400Y-42856934D01*
X132359400Y-42856940D01*
X132355100Y-42900600D01*
X132359400Y-42944260D01*
X132359401Y-44259564D01*
X132189925Y-44429040D01*
X131934848Y-44429040D01*
X132009585Y-44367705D01*
X132088937Y-44271014D01*
X132147902Y-44160700D01*
X132184212Y-44041002D01*
X132196472Y-43916520D01*
X132196472Y-42716520D01*
X132184212Y-42592038D01*
X132147902Y-42472340D01*
X132088937Y-42362026D01*
X132009585Y-42265335D01*
X131912894Y-42185983D01*
X131802580Y-42127018D01*
X131682882Y-42090708D01*
X131558400Y-42078448D01*
X129858400Y-42078448D01*
X129733918Y-42090708D01*
X129614220Y-42127018D01*
X129503906Y-42185983D01*
X129407215Y-42265335D01*
X129327863Y-42362026D01*
X129268898Y-42472340D01*
X129232588Y-42592038D01*
X129220328Y-42716520D01*
X129220328Y-43916520D01*
X129232588Y-44041002D01*
X129268898Y-44160700D01*
X129327863Y-44271014D01*
X129407215Y-44367705D01*
X129503906Y-44447057D01*
X129553703Y-44473675D01*
X129426567Y-44628591D01*
X129311889Y-44843139D01*
X129241270Y-45075938D01*
X129217425Y-45318040D01*
X122160000Y-45318040D01*
X122160000Y-40032277D01*
X122179102Y-39837460D01*
X122226308Y-39681106D01*
X122302982Y-39536904D01*
X122406207Y-39410337D01*
X122532051Y-39306231D01*
X122675711Y-39228553D01*
X122831729Y-39180258D01*
X123024473Y-39160000D01*
X175967723Y-39160000D01*
X176162540Y-39179102D01*
G37*
%TD.AperFunction*%
D27*
X137066000Y-76621000D02*
X138358961Y-76621000D01*
X138390531Y-76659469D01*
X138420578Y-76684128D01*
X140862601Y-79126153D01*
X140862600Y-80165691D01*
X140858792Y-80204354D01*
X140862600Y-80243017D01*
X140862600Y-80243026D01*
X140873994Y-80358710D01*
X140919018Y-80507136D01*
X140992134Y-80643925D01*
X141090531Y-80763823D01*
X141120577Y-80788481D01*
X141693094Y-81361000D01*
X140893660Y-81361000D01*
X140850000Y-81356700D01*
X140806340Y-81361000D01*
X140806333Y-81361000D01*
X140692325Y-81372229D01*
X140675725Y-81373864D01*
X140604298Y-81395531D01*
X140508149Y-81424697D01*
X140353709Y-81507247D01*
X140218341Y-81618341D01*
X140190501Y-81652264D01*
X139659469Y-82183296D01*
X139635084Y-82219790D01*
X139607248Y-82253709D01*
X139586563Y-82292408D01*
X139562179Y-82328901D01*
X139545384Y-82369448D01*
X139524698Y-82408148D01*
X139511961Y-82450138D01*
X139495164Y-82490688D01*
X139486601Y-82533739D01*
X139473864Y-82575726D01*
X139469564Y-82619388D01*
X139461000Y-82662441D01*
X139461000Y-82706340D01*
X139456700Y-82750000D01*
X139461000Y-82793660D01*
X139461000Y-82837559D01*
X139469564Y-82880612D01*
X139473864Y-82924274D01*
X139486601Y-82966261D01*
X139495164Y-83009312D01*
X139511961Y-83049862D01*
X139524698Y-83091852D01*
X139545384Y-83130552D01*
X139562179Y-83171099D01*
X139586563Y-83207592D01*
X139607248Y-83246291D01*
X139635085Y-83280211D01*
X139659469Y-83316704D01*
X139690503Y-83347738D01*
X139718341Y-83381659D01*
X139752262Y-83409497D01*
X139783296Y-83440531D01*
X139819789Y-83464915D01*
X139853709Y-83492752D01*
X139892408Y-83513437D01*
X139928901Y-83537821D01*
X139969448Y-83554616D01*
X140008148Y-83575302D01*
X140050138Y-83588039D01*
X140090688Y-83604836D01*
X140133739Y-83613399D01*
X140175726Y-83626136D01*
X140219388Y-83630436D01*
X140262441Y-83639000D01*
X140306340Y-83639000D01*
X140350000Y-83643300D01*
X140393660Y-83639000D01*
X140437559Y-83639000D01*
X140480612Y-83630436D01*
X140524274Y-83626136D01*
X140566261Y-83613399D01*
X140609312Y-83604836D01*
X140649862Y-83588039D01*
X140691852Y-83575302D01*
X140730552Y-83554616D01*
X140771099Y-83537821D01*
X140807592Y-83513437D01*
X140846291Y-83492752D01*
X140880210Y-83464916D01*
X140916704Y-83440531D01*
X141218235Y-83139000D01*
X141981765Y-83139000D01*
X143290504Y-84447740D01*
X143318341Y-84481659D01*
X143453709Y-84592753D01*
X143608149Y-84675303D01*
X143724892Y-84710716D01*
X143775725Y-84726136D01*
X143792325Y-84727771D01*
X143906333Y-84739000D01*
X143906340Y-84739000D01*
X143950000Y-84743300D01*
X143993660Y-84739000D01*
X146681765Y-84739000D01*
X147752259Y-85809495D01*
X147752265Y-85809500D01*
X147783296Y-85840531D01*
X147819785Y-85864912D01*
X147853708Y-85892752D01*
X147892411Y-85913439D01*
X147928901Y-85937821D01*
X147969447Y-85954616D01*
X148008148Y-85975302D01*
X148050139Y-85988040D01*
X148090688Y-86004836D01*
X148133737Y-86013399D01*
X148175725Y-86026136D01*
X148219389Y-86030436D01*
X148262441Y-86039000D01*
X148306340Y-86039000D01*
X148350000Y-86043300D01*
X148393660Y-86039000D01*
X148437559Y-86039000D01*
X148480611Y-86030436D01*
X148524275Y-86026136D01*
X148566263Y-86013399D01*
X148609312Y-86004836D01*
X148649861Y-85988040D01*
X148691852Y-85975302D01*
X148730552Y-85954616D01*
X148771099Y-85937821D01*
X148807592Y-85913437D01*
X148846291Y-85892752D01*
X148880211Y-85864915D01*
X148916704Y-85840531D01*
X148947738Y-85809497D01*
X148981659Y-85781659D01*
X149009497Y-85747738D01*
X149040531Y-85716704D01*
X149064915Y-85680211D01*
X149092752Y-85646291D01*
X149113437Y-85607592D01*
X149137821Y-85571099D01*
X149154616Y-85530552D01*
X149175302Y-85491852D01*
X149188040Y-85449861D01*
X149204836Y-85409312D01*
X149213399Y-85366263D01*
X149226136Y-85324275D01*
X149230436Y-85280611D01*
X149239000Y-85237559D01*
X149239000Y-85193660D01*
X149243300Y-85150000D01*
X149239000Y-85106340D01*
X149239000Y-85062441D01*
X149230436Y-85019389D01*
X149226136Y-84975725D01*
X149213399Y-84933737D01*
X149204836Y-84890688D01*
X149188040Y-84850139D01*
X149175302Y-84808148D01*
X149154616Y-84769447D01*
X149137821Y-84728901D01*
X149113439Y-84692411D01*
X149092752Y-84653708D01*
X149064912Y-84619785D01*
X149040531Y-84583296D01*
X149009500Y-84552265D01*
X149009495Y-84552259D01*
X147709499Y-83252264D01*
X147681659Y-83218341D01*
X147546291Y-83107247D01*
X147391851Y-83024697D01*
X147224274Y-82973864D01*
X147093667Y-82961000D01*
X147093660Y-82961000D01*
X147050000Y-82956700D01*
X147006340Y-82961000D01*
X145396235Y-82961000D01*
X145618236Y-82739000D01*
X148281765Y-82739000D01*
X149861001Y-84318237D01*
X149861000Y-93874510D01*
X149681025Y-94049554D01*
X149675843Y-94053016D01*
X149618278Y-94110581D01*
X149591419Y-94136704D01*
X149587431Y-94141428D01*
X149552016Y-94176843D01*
X149531069Y-94208193D01*
X149506761Y-94236987D01*
X149482551Y-94280806D01*
X149454726Y-94322448D01*
X149440300Y-94357274D01*
X149422073Y-94390264D01*
X149406875Y-94437970D01*
X149387711Y-94484235D01*
X149380357Y-94521208D01*
X149368916Y-94557119D01*
X149363318Y-94606868D01*
X149353547Y-94655988D01*
X149353547Y-94691200D01*
X138883151Y-94691200D01*
X135280400Y-91088450D01*
X135280400Y-90302458D01*
X135304843Y-90348188D01*
X135477919Y-90559081D01*
X135688812Y-90732157D01*
X135929419Y-90860764D01*
X136190493Y-90939960D01*
X136393963Y-90960000D01*
X137230037Y-90960000D01*
X137433507Y-90939960D01*
X137694581Y-90860764D01*
X137935188Y-90732157D01*
X138146081Y-90559081D01*
X138319157Y-90348188D01*
X138447764Y-90107581D01*
X138526960Y-89846507D01*
X138553701Y-89575000D01*
X138526960Y-89303493D01*
X138447764Y-89042419D01*
X138319157Y-88801812D01*
X138146081Y-88590919D01*
X137935188Y-88417843D01*
X137724073Y-88305000D01*
X137935188Y-88192157D01*
X138146081Y-88019081D01*
X138319157Y-87808188D01*
X138447764Y-87567581D01*
X138526960Y-87306507D01*
X138553701Y-87035000D01*
X138526960Y-86763493D01*
X138447764Y-86502419D01*
X138319157Y-86261812D01*
X138146081Y-86050919D01*
X137935188Y-85877843D01*
X137724073Y-85765000D01*
X137935188Y-85652157D01*
X138146081Y-85479081D01*
X138319157Y-85268188D01*
X138447764Y-85027581D01*
X138526960Y-84766507D01*
X138553701Y-84495000D01*
X138526960Y-84223493D01*
X138447764Y-83962419D01*
X138319157Y-83721812D01*
X138146081Y-83510919D01*
X137935188Y-83337843D01*
X137724073Y-83225000D01*
X137935188Y-83112157D01*
X138146081Y-82939081D01*
X138319157Y-82728188D01*
X138447764Y-82487581D01*
X138526960Y-82226507D01*
X138553701Y-81955000D01*
X138526960Y-81683493D01*
X138447764Y-81422419D01*
X138319157Y-81181812D01*
X138146081Y-80970919D01*
X137935188Y-80797843D01*
X137724073Y-80685000D01*
X137935188Y-80572157D01*
X138146081Y-80399081D01*
X138319157Y-80188188D01*
X138447764Y-79947581D01*
X138526960Y-79686507D01*
X138553701Y-79415000D01*
X138526960Y-79143493D01*
X138447764Y-78882419D01*
X138319157Y-78641812D01*
X138146081Y-78430919D01*
X137935188Y-78257843D01*
X137726740Y-78146426D01*
X137808390Y-78113545D01*
X138037598Y-77963642D01*
X138233157Y-77771903D01*
X138387552Y-77545697D01*
X138467013Y-77338860D01*
X138361655Y-77129000D01*
X137066000Y-77129000D01*
X137066000Y-77149000D01*
X136558000Y-77149000D01*
X136558000Y-77129000D01*
X136538000Y-77129000D01*
X136538000Y-76621000D01*
X136558000Y-76621000D01*
X136558000Y-76601000D01*
X137066000Y-76601000D01*
X137066000Y-76621000D01*
%TA.AperFunction,Conductor*%
D28*
G36*
X137066000Y-76621000D02*
G01*
X138358961Y-76621000D01*
X138390531Y-76659469D01*
X138420578Y-76684128D01*
X140862601Y-79126153D01*
X140862600Y-80165691D01*
X140858792Y-80204354D01*
X140862600Y-80243017D01*
X140862600Y-80243026D01*
X140873994Y-80358710D01*
X140919018Y-80507136D01*
X140992134Y-80643925D01*
X141090531Y-80763823D01*
X141120577Y-80788481D01*
X141693094Y-81361000D01*
X140893660Y-81361000D01*
X140850000Y-81356700D01*
X140806340Y-81361000D01*
X140806333Y-81361000D01*
X140692325Y-81372229D01*
X140675725Y-81373864D01*
X140604298Y-81395531D01*
X140508149Y-81424697D01*
X140353709Y-81507247D01*
X140218341Y-81618341D01*
X140190501Y-81652264D01*
X139659469Y-82183296D01*
X139635084Y-82219790D01*
X139607248Y-82253709D01*
X139586563Y-82292408D01*
X139562179Y-82328901D01*
X139545384Y-82369448D01*
X139524698Y-82408148D01*
X139511961Y-82450138D01*
X139495164Y-82490688D01*
X139486601Y-82533739D01*
X139473864Y-82575726D01*
X139469564Y-82619388D01*
X139461000Y-82662441D01*
X139461000Y-82706340D01*
X139456700Y-82750000D01*
X139461000Y-82793660D01*
X139461000Y-82837559D01*
X139469564Y-82880612D01*
X139473864Y-82924274D01*
X139486601Y-82966261D01*
X139495164Y-83009312D01*
X139511961Y-83049862D01*
X139524698Y-83091852D01*
X139545384Y-83130552D01*
X139562179Y-83171099D01*
X139586563Y-83207592D01*
X139607248Y-83246291D01*
X139635085Y-83280211D01*
X139659469Y-83316704D01*
X139690503Y-83347738D01*
X139718341Y-83381659D01*
X139752262Y-83409497D01*
X139783296Y-83440531D01*
X139819789Y-83464915D01*
X139853709Y-83492752D01*
X139892408Y-83513437D01*
X139928901Y-83537821D01*
X139969448Y-83554616D01*
X140008148Y-83575302D01*
X140050138Y-83588039D01*
X140090688Y-83604836D01*
X140133739Y-83613399D01*
X140175726Y-83626136D01*
X140219388Y-83630436D01*
X140262441Y-83639000D01*
X140306340Y-83639000D01*
X140350000Y-83643300D01*
X140393660Y-83639000D01*
X140437559Y-83639000D01*
X140480612Y-83630436D01*
X140524274Y-83626136D01*
X140566261Y-83613399D01*
X140609312Y-83604836D01*
X140649862Y-83588039D01*
X140691852Y-83575302D01*
X140730552Y-83554616D01*
X140771099Y-83537821D01*
X140807592Y-83513437D01*
X140846291Y-83492752D01*
X140880210Y-83464916D01*
X140916704Y-83440531D01*
X141218235Y-83139000D01*
X141981765Y-83139000D01*
X143290504Y-84447740D01*
X143318341Y-84481659D01*
X143453709Y-84592753D01*
X143608149Y-84675303D01*
X143724892Y-84710716D01*
X143775725Y-84726136D01*
X143792325Y-84727771D01*
X143906333Y-84739000D01*
X143906340Y-84739000D01*
X143950000Y-84743300D01*
X143993660Y-84739000D01*
X146681765Y-84739000D01*
X147752259Y-85809495D01*
X147752265Y-85809500D01*
X147783296Y-85840531D01*
X147819785Y-85864912D01*
X147853708Y-85892752D01*
X147892411Y-85913439D01*
X147928901Y-85937821D01*
X147969447Y-85954616D01*
X148008148Y-85975302D01*
X148050139Y-85988040D01*
X148090688Y-86004836D01*
X148133737Y-86013399D01*
X148175725Y-86026136D01*
X148219389Y-86030436D01*
X148262441Y-86039000D01*
X148306340Y-86039000D01*
X148350000Y-86043300D01*
X148393660Y-86039000D01*
X148437559Y-86039000D01*
X148480611Y-86030436D01*
X148524275Y-86026136D01*
X148566263Y-86013399D01*
X148609312Y-86004836D01*
X148649861Y-85988040D01*
X148691852Y-85975302D01*
X148730552Y-85954616D01*
X148771099Y-85937821D01*
X148807592Y-85913437D01*
X148846291Y-85892752D01*
X148880211Y-85864915D01*
X148916704Y-85840531D01*
X148947738Y-85809497D01*
X148981659Y-85781659D01*
X149009497Y-85747738D01*
X149040531Y-85716704D01*
X149064915Y-85680211D01*
X149092752Y-85646291D01*
X149113437Y-85607592D01*
X149137821Y-85571099D01*
X149154616Y-85530552D01*
X149175302Y-85491852D01*
X149188040Y-85449861D01*
X149204836Y-85409312D01*
X149213399Y-85366263D01*
X149226136Y-85324275D01*
X149230436Y-85280611D01*
X149239000Y-85237559D01*
X149239000Y-85193660D01*
X149243300Y-85150000D01*
X149239000Y-85106340D01*
X149239000Y-85062441D01*
X149230436Y-85019389D01*
X149226136Y-84975725D01*
X149213399Y-84933737D01*
X149204836Y-84890688D01*
X149188040Y-84850139D01*
X149175302Y-84808148D01*
X149154616Y-84769447D01*
X149137821Y-84728901D01*
X149113439Y-84692411D01*
X149092752Y-84653708D01*
X149064912Y-84619785D01*
X149040531Y-84583296D01*
X149009500Y-84552265D01*
X149009495Y-84552259D01*
X147709499Y-83252264D01*
X147681659Y-83218341D01*
X147546291Y-83107247D01*
X147391851Y-83024697D01*
X147224274Y-82973864D01*
X147093667Y-82961000D01*
X147093660Y-82961000D01*
X147050000Y-82956700D01*
X147006340Y-82961000D01*
X145396235Y-82961000D01*
X145618236Y-82739000D01*
X148281765Y-82739000D01*
X149861001Y-84318237D01*
X149861000Y-93874510D01*
X149681025Y-94049554D01*
X149675843Y-94053016D01*
X149618278Y-94110581D01*
X149591419Y-94136704D01*
X149587431Y-94141428D01*
X149552016Y-94176843D01*
X149531069Y-94208193D01*
X149506761Y-94236987D01*
X149482551Y-94280806D01*
X149454726Y-94322448D01*
X149440300Y-94357274D01*
X149422073Y-94390264D01*
X149406875Y-94437970D01*
X149387711Y-94484235D01*
X149380357Y-94521208D01*
X149368916Y-94557119D01*
X149363318Y-94606868D01*
X149353547Y-94655988D01*
X149353547Y-94691200D01*
X138883151Y-94691200D01*
X135280400Y-91088450D01*
X135280400Y-90302458D01*
X135304843Y-90348188D01*
X135477919Y-90559081D01*
X135688812Y-90732157D01*
X135929419Y-90860764D01*
X136190493Y-90939960D01*
X136393963Y-90960000D01*
X137230037Y-90960000D01*
X137433507Y-90939960D01*
X137694581Y-90860764D01*
X137935188Y-90732157D01*
X138146081Y-90559081D01*
X138319157Y-90348188D01*
X138447764Y-90107581D01*
X138526960Y-89846507D01*
X138553701Y-89575000D01*
X138526960Y-89303493D01*
X138447764Y-89042419D01*
X138319157Y-88801812D01*
X138146081Y-88590919D01*
X137935188Y-88417843D01*
X137724073Y-88305000D01*
X137935188Y-88192157D01*
X138146081Y-88019081D01*
X138319157Y-87808188D01*
X138447764Y-87567581D01*
X138526960Y-87306507D01*
X138553701Y-87035000D01*
X138526960Y-86763493D01*
X138447764Y-86502419D01*
X138319157Y-86261812D01*
X138146081Y-86050919D01*
X137935188Y-85877843D01*
X137724073Y-85765000D01*
X137935188Y-85652157D01*
X138146081Y-85479081D01*
X138319157Y-85268188D01*
X138447764Y-85027581D01*
X138526960Y-84766507D01*
X138553701Y-84495000D01*
X138526960Y-84223493D01*
X138447764Y-83962419D01*
X138319157Y-83721812D01*
X138146081Y-83510919D01*
X137935188Y-83337843D01*
X137724073Y-83225000D01*
X137935188Y-83112157D01*
X138146081Y-82939081D01*
X138319157Y-82728188D01*
X138447764Y-82487581D01*
X138526960Y-82226507D01*
X138553701Y-81955000D01*
X138526960Y-81683493D01*
X138447764Y-81422419D01*
X138319157Y-81181812D01*
X138146081Y-80970919D01*
X137935188Y-80797843D01*
X137724073Y-80685000D01*
X137935188Y-80572157D01*
X138146081Y-80399081D01*
X138319157Y-80188188D01*
X138447764Y-79947581D01*
X138526960Y-79686507D01*
X138553701Y-79415000D01*
X138526960Y-79143493D01*
X138447764Y-78882419D01*
X138319157Y-78641812D01*
X138146081Y-78430919D01*
X137935188Y-78257843D01*
X137726740Y-78146426D01*
X137808390Y-78113545D01*
X138037598Y-77963642D01*
X138233157Y-77771903D01*
X138387552Y-77545697D01*
X138467013Y-77338860D01*
X138361655Y-77129000D01*
X137066000Y-77129000D01*
X137066000Y-77149000D01*
X136558000Y-77149000D01*
X136558000Y-77129000D01*
X136538000Y-77129000D01*
X136538000Y-76621000D01*
X136558000Y-76621000D01*
X136558000Y-76601000D01*
X137066000Y-76601000D01*
X137066000Y-76621000D01*
G37*
%TD.AperFunction*%
D27*
X128212600Y-78119751D02*
X128212601Y-94649050D01*
X127844127Y-94280577D01*
X127819469Y-94250531D01*
X127699572Y-94152134D01*
X127595670Y-94096596D01*
X127434039Y-93854698D01*
X127225302Y-93645961D01*
X127066719Y-93540000D01*
X127225302Y-93434039D01*
X127434039Y-93225302D01*
X127598042Y-92979853D01*
X127711010Y-92707125D01*
X127768600Y-92417599D01*
X127768600Y-92122401D01*
X127711010Y-91832875D01*
X127598042Y-91560147D01*
X127434039Y-91314698D01*
X127225302Y-91105961D01*
X127062295Y-90997043D01*
X127258263Y-90856572D01*
X127459057Y-90642125D01*
X127614156Y-90392625D01*
X127689000Y-90211914D01*
X127585554Y-89984000D01*
X126524000Y-89984000D01*
X126524000Y-90004000D01*
X126016000Y-90004000D01*
X126016000Y-89984000D01*
X125996000Y-89984000D01*
X125996000Y-89476000D01*
X126016000Y-89476000D01*
X126016000Y-89456000D01*
X126524000Y-89456000D01*
X126524000Y-89476000D01*
X127585554Y-89476000D01*
X127689000Y-89248086D01*
X127614156Y-89067375D01*
X127459057Y-88817875D01*
X127258263Y-88603428D01*
X127062295Y-88462957D01*
X127225302Y-88354039D01*
X127434039Y-88145302D01*
X127598042Y-87899853D01*
X127711010Y-87627125D01*
X127768600Y-87337599D01*
X127768600Y-87042401D01*
X127711010Y-86752875D01*
X127598042Y-86480147D01*
X127434039Y-86234698D01*
X127225302Y-86025961D01*
X127066719Y-85920000D01*
X127225302Y-85814039D01*
X127434039Y-85605302D01*
X127598042Y-85359853D01*
X127711010Y-85087125D01*
X127768600Y-84797599D01*
X127768600Y-84502401D01*
X127711010Y-84212875D01*
X127598042Y-83940147D01*
X127434039Y-83694698D01*
X127225302Y-83485961D01*
X127062295Y-83377043D01*
X127258263Y-83236572D01*
X127459057Y-83022125D01*
X127614156Y-82772625D01*
X127689000Y-82591914D01*
X127585554Y-82364000D01*
X126524000Y-82364000D01*
X126524000Y-82384000D01*
X126016000Y-82384000D01*
X126016000Y-82364000D01*
X125996000Y-82364000D01*
X125996000Y-81856000D01*
X126016000Y-81856000D01*
X126016000Y-81836000D01*
X126524000Y-81836000D01*
X126524000Y-81856000D01*
X127585554Y-81856000D01*
X127689000Y-81628086D01*
X127614156Y-81447375D01*
X127459057Y-81197875D01*
X127258263Y-80983428D01*
X127062295Y-80842957D01*
X127225302Y-80734039D01*
X127434039Y-80525302D01*
X127598042Y-80279853D01*
X127711010Y-80007125D01*
X127768600Y-79717599D01*
X127768600Y-79422401D01*
X127711010Y-79132875D01*
X127598042Y-78860147D01*
X127434039Y-78614698D01*
X127225302Y-78405961D01*
X127066719Y-78300000D01*
X127225302Y-78194039D01*
X127434039Y-77985302D01*
X127546227Y-77817400D01*
X127910249Y-77817400D01*
X128212600Y-78119751D01*
%TA.AperFunction,Conductor*%
D28*
G36*
X128212600Y-78119751D02*
G01*
X128212601Y-94649050D01*
X127844127Y-94280577D01*
X127819469Y-94250531D01*
X127699572Y-94152134D01*
X127595670Y-94096596D01*
X127434039Y-93854698D01*
X127225302Y-93645961D01*
X127066719Y-93540000D01*
X127225302Y-93434039D01*
X127434039Y-93225302D01*
X127598042Y-92979853D01*
X127711010Y-92707125D01*
X127768600Y-92417599D01*
X127768600Y-92122401D01*
X127711010Y-91832875D01*
X127598042Y-91560147D01*
X127434039Y-91314698D01*
X127225302Y-91105961D01*
X127062295Y-90997043D01*
X127258263Y-90856572D01*
X127459057Y-90642125D01*
X127614156Y-90392625D01*
X127689000Y-90211914D01*
X127585554Y-89984000D01*
X126524000Y-89984000D01*
X126524000Y-90004000D01*
X126016000Y-90004000D01*
X126016000Y-89984000D01*
X125996000Y-89984000D01*
X125996000Y-89476000D01*
X126016000Y-89476000D01*
X126016000Y-89456000D01*
X126524000Y-89456000D01*
X126524000Y-89476000D01*
X127585554Y-89476000D01*
X127689000Y-89248086D01*
X127614156Y-89067375D01*
X127459057Y-88817875D01*
X127258263Y-88603428D01*
X127062295Y-88462957D01*
X127225302Y-88354039D01*
X127434039Y-88145302D01*
X127598042Y-87899853D01*
X127711010Y-87627125D01*
X127768600Y-87337599D01*
X127768600Y-87042401D01*
X127711010Y-86752875D01*
X127598042Y-86480147D01*
X127434039Y-86234698D01*
X127225302Y-86025961D01*
X127066719Y-85920000D01*
X127225302Y-85814039D01*
X127434039Y-85605302D01*
X127598042Y-85359853D01*
X127711010Y-85087125D01*
X127768600Y-84797599D01*
X127768600Y-84502401D01*
X127711010Y-84212875D01*
X127598042Y-83940147D01*
X127434039Y-83694698D01*
X127225302Y-83485961D01*
X127062295Y-83377043D01*
X127258263Y-83236572D01*
X127459057Y-83022125D01*
X127614156Y-82772625D01*
X127689000Y-82591914D01*
X127585554Y-82364000D01*
X126524000Y-82364000D01*
X126524000Y-82384000D01*
X126016000Y-82384000D01*
X126016000Y-82364000D01*
X125996000Y-82364000D01*
X125996000Y-81856000D01*
X126016000Y-81856000D01*
X126016000Y-81836000D01*
X126524000Y-81836000D01*
X126524000Y-81856000D01*
X127585554Y-81856000D01*
X127689000Y-81628086D01*
X127614156Y-81447375D01*
X127459057Y-81197875D01*
X127258263Y-80983428D01*
X127062295Y-80842957D01*
X127225302Y-80734039D01*
X127434039Y-80525302D01*
X127598042Y-80279853D01*
X127711010Y-80007125D01*
X127768600Y-79717599D01*
X127768600Y-79422401D01*
X127711010Y-79132875D01*
X127598042Y-78860147D01*
X127434039Y-78614698D01*
X127225302Y-78405961D01*
X127066719Y-78300000D01*
X127225302Y-78194039D01*
X127434039Y-77985302D01*
X127546227Y-77817400D01*
X127910249Y-77817400D01*
X128212600Y-78119751D01*
G37*
%TD.AperFunction*%
D27*
X129841001Y-71554552D02*
X129841001Y-72898251D01*
X129616128Y-72673377D01*
X129591469Y-72643331D01*
X129471572Y-72544934D01*
X129334783Y-72471818D01*
X129186357Y-72426794D01*
X129070673Y-72415400D01*
X129070663Y-72415400D01*
X129032000Y-72411592D01*
X128993337Y-72415400D01*
X127681505Y-72415400D01*
X127585554Y-72204000D01*
X126524000Y-72204000D01*
X126524000Y-72224000D01*
X126016000Y-72224000D01*
X126016000Y-72204000D01*
X125996000Y-72204000D01*
X125996000Y-71696000D01*
X126016000Y-71696000D01*
X126016000Y-71676000D01*
X126524000Y-71676000D01*
X126524000Y-71696000D01*
X127585554Y-71696000D01*
X127680234Y-71487400D01*
X129773850Y-71487400D01*
X129841001Y-71554552D01*
%TA.AperFunction,Conductor*%
D28*
G36*
X129841001Y-71554552D02*
G01*
X129841001Y-72898251D01*
X129616128Y-72673377D01*
X129591469Y-72643331D01*
X129471572Y-72544934D01*
X129334783Y-72471818D01*
X129186357Y-72426794D01*
X129070673Y-72415400D01*
X129070663Y-72415400D01*
X129032000Y-72411592D01*
X128993337Y-72415400D01*
X127681505Y-72415400D01*
X127585554Y-72204000D01*
X126524000Y-72204000D01*
X126524000Y-72224000D01*
X126016000Y-72224000D01*
X126016000Y-72204000D01*
X125996000Y-72204000D01*
X125996000Y-71696000D01*
X126016000Y-71696000D01*
X126016000Y-71676000D01*
X126524000Y-71676000D01*
X126524000Y-71696000D01*
X127585554Y-71696000D01*
X127680234Y-71487400D01*
X129773850Y-71487400D01*
X129841001Y-71554552D01*
G37*
%TD.AperFunction*%
%TD*%
M02*
