%TF.GenerationSoftware,KiCad,Pcbnew,5.1.10-88a1d61d58~90~ubuntu20.04.1*%
%TF.CreationDate,2021-09-14T14:42:45-03:00*%
%TF.ProjectId,IAuto,49417574-6f2e-46b6-9963-61645f706362,rev?*%
%TF.SameCoordinates,Original*%
%TF.FileFunction,Soldermask,Top*%
%TF.FilePolarity,Negative*%
%FSLAX46Y46*%
G04 Gerber Fmt 4.6, Leading zero omitted, Abs format (unit mm)*
G04 Created by KiCad (PCBNEW 5.1.10-88a1d61d58~90~ubuntu20.04.1) date 2021-09-14 14:42:45*
%MOMM*%
%LPD*%
G01*
G04 APERTURE LIST*
%ADD10O,2.199640X1.524000*%
%ADD11R,1.650000X1.650000*%
%ADD12C,1.650000*%
%ADD13R,2.199640X1.524000*%
%ADD14R,0.599440X1.000760*%
%ADD15R,0.889000X1.397000*%
%ADD16O,3.900000X3.900000*%
%ADD17R,1.600200X1.803400*%
%ADD18R,1.803400X1.600200*%
%ADD19R,0.450000X1.475000*%
%ADD20R,1.850000X3.400000*%
%ADD21R,3.400000X1.850000*%
%ADD22R,0.700000X1.525000*%
%ADD23R,3.450000X2.560000*%
%ADD24R,1.525000X0.700000*%
%ADD25R,2.560000X3.450000*%
%ADD26R,1.727200X1.727200*%
%ADD27O,1.727200X1.727200*%
%ADD28R,1.397000X0.889000*%
%ADD29R,2.000000X0.711200*%
%ADD30R,4.440000X1.900000*%
%ADD31R,2.500000X1.620000*%
%ADD32R,1.498600X1.300480*%
%ADD33R,1.300480X1.498600*%
G04 APERTURE END LIST*
D10*
%TO.C,U1*%
X162212000Y-64175000D03*
X162212000Y-51475000D03*
X162212000Y-54015000D03*
X162212000Y-46395000D03*
X162212000Y-59095000D03*
X162212000Y-61635000D03*
X162212000Y-48935000D03*
X162212000Y-56555000D03*
X162212000Y-79415000D03*
X162212000Y-66715000D03*
X162212000Y-69255000D03*
X162212000Y-71795000D03*
X162212000Y-74335000D03*
X162212000Y-76875000D03*
X162212000Y-43855000D03*
X162212000Y-89575000D03*
X162212000Y-87035000D03*
X162212000Y-84495000D03*
X162212000Y-81955000D03*
X136812000Y-81955000D03*
X136812000Y-84495000D03*
X136812000Y-87035000D03*
X136812000Y-89575000D03*
X136812000Y-79415000D03*
X136812000Y-61635000D03*
X136812000Y-59095000D03*
X136812000Y-56555000D03*
X136812000Y-48935000D03*
X136812000Y-46395000D03*
X136812000Y-54015000D03*
X136812000Y-51475000D03*
X136812000Y-43855000D03*
X136812000Y-76875000D03*
X136812000Y-74335000D03*
X136812000Y-71795000D03*
X136812000Y-69255000D03*
X136812000Y-66715000D03*
X136812000Y-64175000D03*
X159672000Y-69255000D03*
X159672000Y-81955000D03*
X159672000Y-84495000D03*
X159672000Y-76875000D03*
X159672000Y-71795000D03*
X159672000Y-66715000D03*
X159672000Y-87035000D03*
X159672000Y-89575000D03*
X159672000Y-56555000D03*
X159672000Y-79415000D03*
X159672000Y-51475000D03*
X159672000Y-64175000D03*
X159672000Y-54015000D03*
X159672000Y-46395000D03*
X159672000Y-59095000D03*
X159672000Y-43855000D03*
X159672000Y-74335000D03*
X159672000Y-61635000D03*
X159672000Y-48935000D03*
%TD*%
D11*
%TO.C,J4*%
X131700000Y-54550000D03*
D12*
X131700000Y-52050000D03*
X131700000Y-49550000D03*
X131700000Y-47050000D03*
X131700000Y-44550000D03*
X131700000Y-42050000D03*
%TD*%
D10*
%TO.C,P2*%
X169545000Y-79502000D03*
X169545000Y-74422000D03*
X172085000Y-74422000D03*
X172085000Y-71882000D03*
X169545000Y-82042000D03*
X169545000Y-76962000D03*
D13*
X172085000Y-84582000D03*
D10*
X172085000Y-82042000D03*
X169545000Y-71882000D03*
X169545000Y-84582000D03*
X172085000Y-76962000D03*
X172085000Y-79502000D03*
%TD*%
D14*
%TO.C,Q3*%
X141209900Y-54665360D03*
X142162400Y-56778640D03*
X143114900Y-54665360D03*
%TD*%
D15*
%TO.C,R17*%
X141209900Y-52801000D03*
X143114900Y-52801000D03*
%TD*%
%TO.C,R19*%
X141209900Y-58643000D03*
X143114900Y-58643000D03*
%TD*%
D16*
%TO.C,J1*%
X164300000Y-112000000D03*
X167300000Y-107300000D03*
X170300000Y-112000000D03*
%TD*%
D15*
%TO.C,R29*%
X154825700Y-74777600D03*
X152920700Y-74777600D03*
%TD*%
%TO.C,R28*%
X142422500Y-70800000D03*
X144327500Y-70800000D03*
%TD*%
%TO.C,R27*%
X154827500Y-71700000D03*
X152922500Y-71700000D03*
%TD*%
%TO.C,R26*%
X142422500Y-72750000D03*
X144327500Y-72750000D03*
%TD*%
D17*
%TO.C,C8*%
X154651000Y-79363000D03*
X151857000Y-79363000D03*
%TD*%
D18*
%TO.C,C7*%
X133781800Y-104165400D03*
X133781800Y-106959400D03*
%TD*%
D17*
%TO.C,C2*%
X147031000Y-97397000D03*
X149825000Y-97397000D03*
%TD*%
%TO.C,C1*%
X152097000Y-112285000D03*
X154891000Y-112285000D03*
%TD*%
D11*
%TO.C,J5*%
X167300000Y-42050000D03*
D12*
X167300000Y-44550000D03*
X167300000Y-47050000D03*
X167300000Y-49550000D03*
X167300000Y-52050000D03*
X167300000Y-54550000D03*
%TD*%
D19*
%TO.C,U4*%
X150475000Y-64318000D03*
X145925000Y-64318000D03*
X149825000Y-70194000D03*
X146575000Y-70194000D03*
X146575000Y-64318000D03*
X149825000Y-64318000D03*
X148525000Y-70194000D03*
X150475000Y-70194000D03*
X145925000Y-70194000D03*
X147225000Y-64318000D03*
X147875000Y-64318000D03*
X148525000Y-64318000D03*
X149175000Y-70194000D03*
X147225000Y-70194000D03*
X147875000Y-70194000D03*
X149175000Y-64318000D03*
%TD*%
D20*
%TO.C,J3*%
X155775000Y-85459000D03*
X150225000Y-85459000D03*
%TD*%
D21*
%TO.C,J2*%
X139625600Y-102398000D03*
X139625600Y-107948000D03*
%TD*%
D22*
%TO.C,U3*%
X144770400Y-93759000D03*
X146040400Y-93759000D03*
X143500400Y-93759000D03*
X143500400Y-88335000D03*
D23*
X145405400Y-91047000D03*
D22*
X147310400Y-88335000D03*
X144770400Y-88335000D03*
X146040400Y-88335000D03*
X147310400Y-93759000D03*
%TD*%
D24*
%TO.C,U2*%
X149221000Y-113555000D03*
X149221000Y-112285000D03*
X149221000Y-114825000D03*
X143797000Y-114825000D03*
D25*
X146509000Y-112920000D03*
D24*
X143797000Y-111015000D03*
X143797000Y-113555000D03*
X143797000Y-112285000D03*
X149221000Y-111015000D03*
%TD*%
D26*
%TO.C,P1*%
X123730000Y-66870000D03*
D27*
X126270000Y-66870000D03*
X123730000Y-69410000D03*
X126270000Y-69410000D03*
X123730000Y-71950000D03*
X126270000Y-71950000D03*
X123730000Y-74490000D03*
X126270000Y-74490000D03*
X123730000Y-77030000D03*
X126270000Y-77030000D03*
X123730000Y-79570000D03*
X126270000Y-79570000D03*
X123730000Y-82110000D03*
X126270000Y-82110000D03*
X123730000Y-84650000D03*
X126270000Y-84650000D03*
X123730000Y-87190000D03*
X126270000Y-87190000D03*
X123730000Y-89730000D03*
X126270000Y-89730000D03*
X123730000Y-92270000D03*
X126270000Y-92270000D03*
X123730000Y-94810000D03*
X126270000Y-94810000D03*
X123730000Y-97350000D03*
X126270000Y-97350000D03*
X123730000Y-99890000D03*
X126270000Y-99890000D03*
X123730000Y-102430000D03*
X126270000Y-102430000D03*
X123730000Y-104970000D03*
X126270000Y-104970000D03*
X123730000Y-107510000D03*
X126270000Y-107510000D03*
X123730000Y-110050000D03*
X126270000Y-110050000D03*
X123730000Y-112590000D03*
X126270000Y-112590000D03*
X123730000Y-115130000D03*
X126270000Y-115130000D03*
%TD*%
D28*
%TO.C,R25*%
X142104000Y-68335500D03*
X142104000Y-66430500D03*
%TD*%
%TO.C,R24*%
X144136000Y-68335500D03*
X144136000Y-66430500D03*
%TD*%
D15*
%TO.C,R23*%
X155114500Y-44092000D03*
X153209500Y-44092000D03*
%TD*%
%TO.C,R21*%
X155178000Y-49934000D03*
X153273000Y-49934000D03*
%TD*%
%TO.C,R15*%
X158552500Y-108000000D03*
X156647500Y-108000000D03*
%TD*%
%TO.C,R14*%
X144302500Y-80350000D03*
X142397500Y-80350000D03*
%TD*%
%TO.C,R13*%
X141111500Y-118762000D03*
X139206500Y-118762000D03*
%TD*%
D28*
%TO.C,R12*%
X140046000Y-85903500D03*
X140046000Y-83998500D03*
%TD*%
%TO.C,R11*%
X145747000Y-116793500D03*
X145747000Y-118698500D03*
%TD*%
%TO.C,R10*%
X140046000Y-89459500D03*
X140046000Y-87554500D03*
%TD*%
%TO.C,R9*%
X143715000Y-118698500D03*
X143715000Y-116793500D03*
%TD*%
D15*
%TO.C,R8*%
X142849600Y-96367600D03*
X144754600Y-96367600D03*
%TD*%
%TO.C,R7*%
X154446500Y-114952000D03*
X152541500Y-114952000D03*
%TD*%
D28*
%TO.C,R6*%
X146650000Y-83598500D03*
X146650000Y-85503500D03*
%TD*%
%TO.C,R5*%
X144618000Y-85503500D03*
X144618000Y-83598500D03*
%TD*%
D15*
%TO.C,R4*%
X139206500Y-114444000D03*
X141111500Y-114444000D03*
%TD*%
%TO.C,R3*%
X141111500Y-112412000D03*
X139206500Y-112412000D03*
%TD*%
%TO.C,R2*%
X164388500Y-100029000D03*
X166293500Y-100029000D03*
%TD*%
%TO.C,R1*%
X166293500Y-102315000D03*
X164388500Y-102315000D03*
%TD*%
D14*
%TO.C,Q5*%
X155114500Y-48069640D03*
X154162000Y-45956360D03*
X153209500Y-48069640D03*
%TD*%
D29*
%TO.C,Q1*%
X161100000Y-102305000D03*
X161100000Y-103575000D03*
X161100000Y-104845000D03*
X161100000Y-106115000D03*
X155100000Y-106115000D03*
X155100000Y-104845000D03*
X155100000Y-103575000D03*
X155100000Y-102305000D03*
%TD*%
D30*
%TO.C,F4*%
X154686000Y-62348400D03*
X154686000Y-58098400D03*
%TD*%
%TO.C,F3*%
X147193000Y-52061400D03*
X147193000Y-47811400D03*
%TD*%
D18*
%TO.C,F2*%
X170350000Y-68294000D03*
X170350000Y-65500000D03*
%TD*%
D17*
%TO.C,F1*%
X152323800Y-52705000D03*
X155117800Y-52705000D03*
%TD*%
D31*
%TO.C,D2*%
X152016000Y-91047000D03*
X156016000Y-91047000D03*
%TD*%
%TO.C,D1*%
X146287000Y-105554000D03*
X150287000Y-105554000D03*
%TD*%
D32*
%TO.C,C11*%
X149724000Y-73542500D03*
X149724000Y-75447500D03*
%TD*%
%TO.C,C10*%
X147311000Y-73542500D03*
X147311000Y-75447500D03*
%TD*%
D18*
%TO.C,C9*%
X152899000Y-68653000D03*
X152899000Y-65859000D03*
%TD*%
D33*
%TO.C,C6*%
X153698500Y-93587000D03*
X151793500Y-93587000D03*
%TD*%
%TO.C,C5*%
X146128000Y-108602000D03*
X148033000Y-108602000D03*
%TD*%
D32*
%TO.C,C4*%
X142332000Y-85903500D03*
X142332000Y-83998500D03*
%TD*%
D33*
%TO.C,C3*%
X141111500Y-116730000D03*
X139206500Y-116730000D03*
%TD*%
M02*
