%TF.GenerationSoftware,KiCad,Pcbnew,5.1.10-88a1d61d58~90~ubuntu20.04.1*%
%TF.CreationDate,2021-10-22T14:45:26-03:00*%
%TF.ProjectId,IAuto,49417574-6f2e-46b6-9963-61645f706362,rev?*%
%TF.SameCoordinates,Original*%
%TF.FileFunction,Legend,Top*%
%TF.FilePolarity,Positive*%
%FSLAX46Y46*%
G04 Gerber Fmt 4.6, Leading zero omitted, Abs format (unit mm)*
G04 Created by KiCad (PCBNEW 5.1.10-88a1d61d58~90~ubuntu20.04.1) date 2021-10-22 14:45:26*
%MOMM*%
%LPD*%
G01*
G04 APERTURE LIST*
%ADD10C,0.300000*%
%ADD11C,0.304800*%
%ADD12C,0.381000*%
%ADD13C,0.120000*%
%ADD14C,0.200000*%
%ADD15C,0.099060*%
%ADD16C,0.127000*%
%ADD17C,0.150000*%
%ADD18C,0.100000*%
%ADD19C,0.254000*%
G04 APERTURE END LIST*
D10*
%TO.C,C12*%
X131465800Y-115763400D02*
X130265800Y-115763400D01*
D11*
X133565800Y-117663400D02*
X131865800Y-117663400D01*
X134165800Y-117463400D02*
X131365800Y-117463400D01*
X134565800Y-117263400D02*
X130965800Y-117263400D01*
X137065800Y-113563400D02*
G75*
G03*
X137065800Y-113563400I-4300000J0D01*
G01*
X135165800Y-117063400D02*
X130365800Y-117063400D01*
D12*
%TO.C,U1*%
X163482000Y-94147000D02*
X163482000Y-39283000D01*
X163482000Y-39283000D02*
X135542000Y-39283000D01*
X135542000Y-39283000D02*
X135542000Y-94147000D01*
X138590000Y-92369000D02*
G75*
G03*
X138590000Y-92369000I-1270000J0D01*
G01*
X162974000Y-92369000D02*
G75*
G03*
X162974000Y-92369000I-1270000J0D01*
G01*
X162974000Y-41061000D02*
G75*
G03*
X162974000Y-41061000I-1270000J0D01*
G01*
X138590000Y-41061000D02*
G75*
G03*
X138590000Y-41061000I-1270000J0D01*
G01*
X135542000Y-90845000D02*
X138082000Y-90845000D01*
X138082000Y-90845000D02*
X138082000Y-42585000D01*
D13*
X138082000Y-42839000D02*
X138082000Y-42585000D01*
D12*
X138082000Y-42585000D02*
X135542000Y-42585000D01*
X163482000Y-42585000D02*
X158402000Y-42585000D01*
X158402000Y-42585000D02*
X158402000Y-90845000D01*
X158402000Y-90845000D02*
X163482000Y-90845000D01*
D14*
%TO.C,F4*%
X152213600Y-56132400D02*
X152213600Y-59996400D01*
%TO.C,U4*%
X151050000Y-63581000D02*
X151050000Y-65056000D01*
D15*
%TO.C,R16*%
X150761700Y-60794900D02*
X151841200Y-60794900D01*
X150761700Y-62445900D02*
X150761700Y-60794900D01*
X151841200Y-62445900D02*
X150761700Y-62445900D01*
X153873200Y-62445900D02*
X152857200Y-62445900D01*
X153873200Y-60794900D02*
X153873200Y-62445900D01*
X152857200Y-60794900D02*
X153873200Y-60794900D01*
D12*
%TO.C,J5*%
X166575740Y-55282460D02*
X166575740Y-41292140D01*
X166575740Y-55282460D02*
X171074080Y-55282460D01*
X166575740Y-41292140D02*
X171074080Y-41292140D01*
%TO.C,J4*%
X132407660Y-41317540D02*
X132407660Y-55307860D01*
X132407660Y-41317540D02*
X127909320Y-41317540D01*
X132407660Y-55307860D02*
X127909320Y-55307860D01*
D11*
%TO.C,P2*%
X168275000Y-85852000D02*
X168275000Y-70612000D01*
X170815000Y-83312000D02*
X173355000Y-83312000D01*
X170815000Y-85852000D02*
X170815000Y-70612000D01*
X170815000Y-70612000D02*
X173355000Y-70612000D01*
X168275000Y-70612000D02*
X170815000Y-70612000D01*
X170815000Y-70612000D02*
X170815000Y-85852000D01*
X170815000Y-85852000D02*
X168275000Y-85852000D01*
X173355000Y-85852000D02*
X170815000Y-85852000D01*
X173355000Y-70612000D02*
X173355000Y-85852000D01*
D16*
%TO.C,Q3*%
X143659600Y-56122000D02*
X140662400Y-56122000D01*
X140662400Y-56122000D02*
X140662400Y-55322000D01*
X140662400Y-55322000D02*
X143659600Y-55322000D01*
X143662400Y-55322000D02*
X143662400Y-56122000D01*
D15*
%TO.C,R17*%
X142670400Y-51975500D02*
X143686400Y-51975500D01*
X143686400Y-51975500D02*
X143686400Y-53626500D01*
X143686400Y-53626500D02*
X142670400Y-53626500D01*
X141654400Y-53626500D02*
X140574900Y-53626500D01*
X140574900Y-53626500D02*
X140574900Y-51975500D01*
X140574900Y-51975500D02*
X141654400Y-51975500D01*
%TO.C,R19*%
X142670400Y-57817500D02*
X143686400Y-57817500D01*
X143686400Y-57817500D02*
X143686400Y-59468500D01*
X143686400Y-59468500D02*
X142670400Y-59468500D01*
X141654400Y-59468500D02*
X140574900Y-59468500D01*
X140574900Y-59468500D02*
X140574900Y-57817500D01*
X140574900Y-57817500D02*
X141654400Y-57817500D01*
D13*
%TO.C,J1*%
X178200000Y-107200000D02*
X164300000Y-107200000D01*
X164300000Y-107200000D02*
X164300000Y-116200000D01*
X164300000Y-116200000D02*
X178200000Y-116200000D01*
D15*
%TO.C,R29*%
X155460700Y-75603100D02*
X154381200Y-75603100D01*
X155460700Y-73952100D02*
X155460700Y-75603100D01*
X154381200Y-73952100D02*
X155460700Y-73952100D01*
X152349200Y-73952100D02*
X153365200Y-73952100D01*
X152349200Y-75603100D02*
X152349200Y-73952100D01*
X153365200Y-75603100D02*
X152349200Y-75603100D01*
%TO.C,R28*%
X141787500Y-69974500D02*
X142867000Y-69974500D01*
X141787500Y-71625500D02*
X141787500Y-69974500D01*
X142867000Y-71625500D02*
X141787500Y-71625500D01*
X144899000Y-71625500D02*
X143883000Y-71625500D01*
X144899000Y-69974500D02*
X144899000Y-71625500D01*
X143883000Y-69974500D02*
X144899000Y-69974500D01*
%TO.C,R27*%
X155462500Y-72525500D02*
X154383000Y-72525500D01*
X155462500Y-70874500D02*
X155462500Y-72525500D01*
X154383000Y-70874500D02*
X155462500Y-70874500D01*
X152351000Y-70874500D02*
X153367000Y-70874500D01*
X152351000Y-72525500D02*
X152351000Y-70874500D01*
X153367000Y-72525500D02*
X152351000Y-72525500D01*
%TO.C,R26*%
X141787500Y-71924500D02*
X142867000Y-71924500D01*
X141787500Y-73575500D02*
X141787500Y-71924500D01*
X142867000Y-73575500D02*
X141787500Y-73575500D01*
X144899000Y-73575500D02*
X143883000Y-73575500D01*
X144899000Y-71924500D02*
X144899000Y-73575500D01*
X143883000Y-71924500D02*
X144899000Y-71924500D01*
D17*
%TO.C,C8*%
X154754000Y-80613000D02*
X155754000Y-80613000D01*
X154754000Y-78113000D02*
X155754000Y-78113000D01*
X151754000Y-78113000D02*
X150754000Y-78113000D01*
X151754000Y-80613000D02*
X150754000Y-80613000D01*
D16*
X150754000Y-78113000D02*
X150754000Y-80613000D01*
X155754000Y-80613000D02*
X155754000Y-78113000D01*
D17*
%TO.C,C7*%
X132519100Y-105259000D02*
X132519100Y-106259000D01*
X135019100Y-105259000D02*
X135019100Y-106259000D01*
X135019100Y-102259000D02*
X135019100Y-101259000D01*
X132519100Y-102259000D02*
X132519100Y-101259000D01*
D16*
X135019100Y-101259000D02*
X132519100Y-101259000D01*
X132519100Y-106259000D02*
X135019100Y-106259000D01*
D17*
%TO.C,C2*%
X149928000Y-98647000D02*
X150928000Y-98647000D01*
X149928000Y-96147000D02*
X150928000Y-96147000D01*
X146928000Y-96147000D02*
X145928000Y-96147000D01*
X146928000Y-98647000D02*
X145928000Y-98647000D01*
D16*
X145928000Y-96147000D02*
X145928000Y-98647000D01*
X150928000Y-98647000D02*
X150928000Y-96147000D01*
D17*
%TO.C,C1*%
X154994000Y-113535000D02*
X155994000Y-113535000D01*
X154994000Y-111035000D02*
X155994000Y-111035000D01*
X151994000Y-111035000D02*
X150994000Y-111035000D01*
X151994000Y-113535000D02*
X150994000Y-113535000D01*
D16*
X150994000Y-111035000D02*
X150994000Y-113535000D01*
X155994000Y-113535000D02*
X155994000Y-111035000D01*
D18*
%TO.C,J3*%
X156600000Y-82209000D02*
X149400000Y-82209000D01*
X156600000Y-88709000D02*
X149500000Y-88709000D01*
%TO.C,J2*%
X136375600Y-101573000D02*
X136375600Y-108773000D01*
X142875600Y-101573000D02*
X142875600Y-108673000D01*
D14*
%TO.C,U3*%
X148010400Y-87572000D02*
X148010400Y-89097000D01*
%TO.C,U2*%
X143034000Y-110315000D02*
X144559000Y-110315000D01*
D17*
%TO.C,P1*%
X122180000Y-65320000D02*
X122180000Y-66870000D01*
X125000000Y-68140000D02*
X122460000Y-68140000D01*
X125000000Y-65600000D02*
X125000000Y-68140000D01*
X123730000Y-65320000D02*
X122180000Y-65320000D01*
X127540000Y-65600000D02*
X125000000Y-65600000D01*
X127540000Y-116400000D02*
X122460000Y-116400000D01*
X122460000Y-68140000D02*
X122460000Y-116400000D01*
X127540000Y-116400000D02*
X127540000Y-65600000D01*
D19*
%TO.C,J9*%
X177000000Y-120000000D02*
G75*
G03*
X177000000Y-120000000I-3000000J0D01*
G01*
X171000000Y-120000000D02*
X177000000Y-120000000D01*
X174000000Y-117000000D02*
X174000000Y-123000000D01*
%TO.C,J8*%
X128000000Y-120000000D02*
G75*
G03*
X128000000Y-120000000I-3000000J0D01*
G01*
X122000000Y-120000000D02*
X128000000Y-120000000D01*
X125000000Y-117000000D02*
X125000000Y-123000000D01*
%TO.C,J7*%
X128000000Y-62000000D02*
G75*
G03*
X128000000Y-62000000I-3000000J0D01*
G01*
X122000000Y-62000000D02*
X128000000Y-62000000D01*
X125000000Y-59000000D02*
X125000000Y-65000000D01*
%TO.C,J6*%
X177000000Y-62000000D02*
G75*
G03*
X177000000Y-62000000I-3000000J0D01*
G01*
X171000000Y-62000000D02*
X177000000Y-62000000D01*
X174000000Y-59000000D02*
X174000000Y-65000000D01*
D15*
%TO.C,R25*%
X141278500Y-66875000D02*
X141278500Y-65859000D01*
X141278500Y-65859000D02*
X142929500Y-65859000D01*
X142929500Y-65859000D02*
X142929500Y-66875000D01*
X142929500Y-67891000D02*
X142929500Y-68970500D01*
X142929500Y-68970500D02*
X141278500Y-68970500D01*
X141278500Y-68970500D02*
X141278500Y-67891000D01*
%TO.C,R24*%
X143310500Y-66875000D02*
X143310500Y-65859000D01*
X143310500Y-65859000D02*
X144961500Y-65859000D01*
X144961500Y-65859000D02*
X144961500Y-66875000D01*
X144961500Y-67891000D02*
X144961500Y-68970500D01*
X144961500Y-68970500D02*
X143310500Y-68970500D01*
X143310500Y-68970500D02*
X143310500Y-67891000D01*
%TO.C,R23*%
X153654000Y-44917500D02*
X152638000Y-44917500D01*
X152638000Y-44917500D02*
X152638000Y-43266500D01*
X152638000Y-43266500D02*
X153654000Y-43266500D01*
X154670000Y-43266500D02*
X155749500Y-43266500D01*
X155749500Y-43266500D02*
X155749500Y-44917500D01*
X155749500Y-44917500D02*
X154670000Y-44917500D01*
%TO.C,R21*%
X153717500Y-50759500D02*
X152701500Y-50759500D01*
X152701500Y-50759500D02*
X152701500Y-49108500D01*
X152701500Y-49108500D02*
X153717500Y-49108500D01*
X154733500Y-49108500D02*
X155813000Y-49108500D01*
X155813000Y-49108500D02*
X155813000Y-50759500D01*
X155813000Y-50759500D02*
X154733500Y-50759500D01*
%TO.C,R15*%
X157092000Y-108825500D02*
X156076000Y-108825500D01*
X156076000Y-108825500D02*
X156076000Y-107174500D01*
X156076000Y-107174500D02*
X157092000Y-107174500D01*
X158108000Y-107174500D02*
X159187500Y-107174500D01*
X159187500Y-107174500D02*
X159187500Y-108825500D01*
X159187500Y-108825500D02*
X158108000Y-108825500D01*
%TO.C,R14*%
X143167100Y-80467200D02*
X143167100Y-81483200D01*
X143167100Y-81483200D02*
X141516100Y-81483200D01*
X141516100Y-81483200D02*
X141516100Y-80467200D01*
X141516100Y-79451200D02*
X141516100Y-78371700D01*
X141516100Y-78371700D02*
X143167100Y-78371700D01*
X143167100Y-78371700D02*
X143167100Y-79451200D01*
%TO.C,R13*%
X139651000Y-119587500D02*
X138635000Y-119587500D01*
X138635000Y-119587500D02*
X138635000Y-117936500D01*
X138635000Y-117936500D02*
X139651000Y-117936500D01*
X140667000Y-117936500D02*
X141746500Y-117936500D01*
X141746500Y-117936500D02*
X141746500Y-119587500D01*
X141746500Y-119587500D02*
X140667000Y-119587500D01*
%TO.C,R12*%
X139220500Y-84443000D02*
X139220500Y-83427000D01*
X139220500Y-83427000D02*
X140871500Y-83427000D01*
X140871500Y-83427000D02*
X140871500Y-84443000D01*
X140871500Y-85459000D02*
X140871500Y-86538500D01*
X140871500Y-86538500D02*
X139220500Y-86538500D01*
X139220500Y-86538500D02*
X139220500Y-85459000D01*
%TO.C,R11*%
X146572500Y-118254000D02*
X146572500Y-119270000D01*
X146572500Y-119270000D02*
X144921500Y-119270000D01*
X144921500Y-119270000D02*
X144921500Y-118254000D01*
X144921500Y-117238000D02*
X144921500Y-116158500D01*
X144921500Y-116158500D02*
X146572500Y-116158500D01*
X146572500Y-116158500D02*
X146572500Y-117238000D01*
%TO.C,R10*%
X139220500Y-87999000D02*
X139220500Y-86983000D01*
X139220500Y-86983000D02*
X140871500Y-86983000D01*
X140871500Y-86983000D02*
X140871500Y-87999000D01*
X140871500Y-89015000D02*
X140871500Y-90094500D01*
X140871500Y-90094500D02*
X139220500Y-90094500D01*
X139220500Y-90094500D02*
X139220500Y-89015000D01*
%TO.C,R9*%
X142889500Y-117238000D02*
X142889500Y-116222000D01*
X142889500Y-116222000D02*
X144540500Y-116222000D01*
X144540500Y-116222000D02*
X144540500Y-117238000D01*
X144540500Y-118254000D02*
X144540500Y-119333500D01*
X144540500Y-119333500D02*
X142889500Y-119333500D01*
X142889500Y-119333500D02*
X142889500Y-118254000D01*
%TO.C,R8*%
X144310100Y-95542100D02*
X145326100Y-95542100D01*
X145326100Y-95542100D02*
X145326100Y-97193100D01*
X145326100Y-97193100D02*
X144310100Y-97193100D01*
X143294100Y-97193100D02*
X142214600Y-97193100D01*
X142214600Y-97193100D02*
X142214600Y-95542100D01*
X142214600Y-95542100D02*
X143294100Y-95542100D01*
%TO.C,R7*%
X152986000Y-115777500D02*
X151970000Y-115777500D01*
X151970000Y-115777500D02*
X151970000Y-114126500D01*
X151970000Y-114126500D02*
X152986000Y-114126500D01*
X154002000Y-114126500D02*
X155081500Y-114126500D01*
X155081500Y-114126500D02*
X155081500Y-115777500D01*
X155081500Y-115777500D02*
X154002000Y-115777500D01*
%TO.C,R6*%
X147475500Y-85059000D02*
X147475500Y-86075000D01*
X147475500Y-86075000D02*
X145824500Y-86075000D01*
X145824500Y-86075000D02*
X145824500Y-85059000D01*
X145824500Y-84043000D02*
X145824500Y-82963500D01*
X145824500Y-82963500D02*
X147475500Y-82963500D01*
X147475500Y-82963500D02*
X147475500Y-84043000D01*
%TO.C,R5*%
X143792500Y-84043000D02*
X143792500Y-83027000D01*
X143792500Y-83027000D02*
X145443500Y-83027000D01*
X145443500Y-83027000D02*
X145443500Y-84043000D01*
X145443500Y-85059000D02*
X145443500Y-86138500D01*
X145443500Y-86138500D02*
X143792500Y-86138500D01*
X143792500Y-86138500D02*
X143792500Y-85059000D01*
%TO.C,R4*%
X140667000Y-113618500D02*
X141683000Y-113618500D01*
X141683000Y-113618500D02*
X141683000Y-115269500D01*
X141683000Y-115269500D02*
X140667000Y-115269500D01*
X139651000Y-115269500D02*
X138571500Y-115269500D01*
X138571500Y-115269500D02*
X138571500Y-113618500D01*
X138571500Y-113618500D02*
X139651000Y-113618500D01*
%TO.C,R3*%
X139651000Y-113237500D02*
X138635000Y-113237500D01*
X138635000Y-113237500D02*
X138635000Y-111586500D01*
X138635000Y-111586500D02*
X139651000Y-111586500D01*
X140667000Y-111586500D02*
X141746500Y-111586500D01*
X141746500Y-111586500D02*
X141746500Y-113237500D01*
X141746500Y-113237500D02*
X140667000Y-113237500D01*
%TO.C,R2*%
X165849000Y-99203500D02*
X166865000Y-99203500D01*
X166865000Y-99203500D02*
X166865000Y-100854500D01*
X166865000Y-100854500D02*
X165849000Y-100854500D01*
X164833000Y-100854500D02*
X163753500Y-100854500D01*
X163753500Y-100854500D02*
X163753500Y-99203500D01*
X163753500Y-99203500D02*
X164833000Y-99203500D01*
%TO.C,R1*%
X164833000Y-103140500D02*
X163817000Y-103140500D01*
X163817000Y-103140500D02*
X163817000Y-101489500D01*
X163817000Y-101489500D02*
X164833000Y-101489500D01*
X165849000Y-101489500D02*
X166928500Y-101489500D01*
X166928500Y-101489500D02*
X166928500Y-103140500D01*
X166928500Y-103140500D02*
X165849000Y-103140500D01*
D16*
%TO.C,Q5*%
X152664800Y-46613000D02*
X155662000Y-46613000D01*
X155662000Y-46613000D02*
X155662000Y-47413000D01*
X155662000Y-47413000D02*
X152664800Y-47413000D01*
X152662000Y-47413000D02*
X152662000Y-46613000D01*
D17*
%TO.C,Q1*%
X156300000Y-101010000D02*
G75*
G03*
X156300000Y-101010000I-200000J0D01*
G01*
X160100000Y-106710000D02*
X160100000Y-101710000D01*
X156100000Y-101710000D02*
X156100000Y-106710000D01*
X160100000Y-106710000D02*
X156100000Y-106710000D01*
X160100000Y-101710000D02*
X156100000Y-101710000D01*
D14*
%TO.C,F3*%
X145261000Y-49936400D02*
X149125000Y-49936400D01*
D17*
%TO.C,F2*%
X169100000Y-65397000D02*
X169100000Y-64397000D01*
X171600000Y-65397000D02*
X171600000Y-64397000D01*
X171600000Y-64397000D02*
X169100000Y-64397000D01*
X169100000Y-69397000D02*
X171600000Y-69397000D01*
X171600000Y-69397000D02*
X171600000Y-68397000D01*
X169100000Y-68397000D02*
X169100000Y-69397000D01*
%TO.C,F1*%
X155220800Y-51455000D02*
X156220800Y-51455000D01*
X155220800Y-53955000D02*
X156220800Y-53955000D01*
X156220800Y-53955000D02*
X156220800Y-51455000D01*
X151220800Y-51455000D02*
X151220800Y-53955000D01*
X151220800Y-53955000D02*
X152220800Y-53955000D01*
X152220800Y-51455000D02*
X151220800Y-51455000D01*
D13*
%TO.C,D2*%
X157716000Y-92347000D02*
X152716000Y-92347000D01*
X152716000Y-89747000D02*
X157716000Y-89747000D01*
X157716000Y-89747000D02*
X157716000Y-92347000D01*
%TO.C,D1*%
X151987000Y-106854000D02*
X146987000Y-106854000D01*
X146987000Y-104254000D02*
X151987000Y-104254000D01*
X151987000Y-104254000D02*
X151987000Y-106854000D01*
D17*
%TO.C,C11*%
X152492200Y-65081400D02*
X152492200Y-66081400D01*
X154492200Y-65081400D02*
X152492200Y-65081400D01*
X154492200Y-66081400D02*
X154492200Y-65081400D01*
D16*
X154492200Y-68081400D02*
X154492200Y-69081400D01*
X154492200Y-69081400D02*
X152492200Y-69081400D01*
X152492200Y-69081400D02*
X152492200Y-68081400D01*
D17*
%TO.C,C10*%
X146310600Y-74431400D02*
X147310600Y-74431400D01*
X146310600Y-72431400D02*
X146310600Y-74431400D01*
X147310600Y-72431400D02*
X146310600Y-72431400D01*
D16*
X149310600Y-72431400D02*
X150310600Y-72431400D01*
X150310600Y-72431400D02*
X150310600Y-74431400D01*
X150310600Y-74431400D02*
X149310600Y-74431400D01*
D17*
%TO.C,C9*%
X149582000Y-77246800D02*
X150582000Y-77246800D01*
X149582000Y-74746800D02*
X150582000Y-74746800D01*
X146582000Y-74746800D02*
X145582000Y-74746800D01*
X146582000Y-77246800D02*
X145582000Y-77246800D01*
D16*
X145582000Y-74746800D02*
X145582000Y-77246800D01*
X150582000Y-77246800D02*
X150582000Y-74746800D01*
D17*
%TO.C,C6*%
X154746000Y-92587000D02*
X153746000Y-92587000D01*
X154746000Y-94587000D02*
X154746000Y-92587000D01*
X153746000Y-94587000D02*
X154746000Y-94587000D01*
D16*
X151746000Y-94587000D02*
X150746000Y-94587000D01*
X150746000Y-94587000D02*
X150746000Y-92587000D01*
X150746000Y-92587000D02*
X151746000Y-92587000D01*
D17*
%TO.C,C5*%
X145080500Y-109602000D02*
X146080500Y-109602000D01*
X145080500Y-107602000D02*
X145080500Y-109602000D01*
X146080500Y-107602000D02*
X145080500Y-107602000D01*
D16*
X148080500Y-107602000D02*
X149080500Y-107602000D01*
X149080500Y-107602000D02*
X149080500Y-109602000D01*
X149080500Y-109602000D02*
X148080500Y-109602000D01*
D17*
%TO.C,C4*%
X143332000Y-86951000D02*
X143332000Y-85951000D01*
X141332000Y-86951000D02*
X143332000Y-86951000D01*
X141332000Y-85951000D02*
X141332000Y-86951000D01*
D16*
X141332000Y-83951000D02*
X141332000Y-82951000D01*
X141332000Y-82951000D02*
X143332000Y-82951000D01*
X143332000Y-82951000D02*
X143332000Y-83951000D01*
D17*
%TO.C,C3*%
X142159000Y-115730000D02*
X141159000Y-115730000D01*
X142159000Y-117730000D02*
X142159000Y-115730000D01*
X141159000Y-117730000D02*
X142159000Y-117730000D01*
D16*
X139159000Y-117730000D02*
X138159000Y-117730000D01*
X138159000Y-117730000D02*
X138159000Y-115730000D01*
X138159000Y-115730000D02*
X139159000Y-115730000D01*
%TO.C,C12*%
D17*
X135116842Y-114193557D02*
X135164461Y-114241176D01*
X135212080Y-114384033D01*
X135212080Y-114479271D01*
X135164461Y-114622128D01*
X135069223Y-114717366D01*
X134973985Y-114764985D01*
X134783509Y-114812604D01*
X134640652Y-114812604D01*
X134450176Y-114764985D01*
X134354938Y-114717366D01*
X134259700Y-114622128D01*
X134212080Y-114479271D01*
X134212080Y-114384033D01*
X134259700Y-114241176D01*
X134307319Y-114193557D01*
X135212080Y-113241176D02*
X135212080Y-113812604D01*
X135212080Y-113526890D02*
X134212080Y-113526890D01*
X134354938Y-113622128D01*
X134450176Y-113717366D01*
X134497795Y-113812604D01*
X134307319Y-112860223D02*
X134259700Y-112812604D01*
X134212080Y-112717366D01*
X134212080Y-112479271D01*
X134259700Y-112384033D01*
X134307319Y-112336414D01*
X134402557Y-112288795D01*
X134497795Y-112288795D01*
X134640652Y-112336414D01*
X135212080Y-112907842D01*
X135212080Y-112288795D01*
%TO.C,F4*%
X147413671Y-58397733D02*
X147413671Y-58731066D01*
X147937480Y-58731066D02*
X146937480Y-58731066D01*
X146937480Y-58254876D01*
X147270814Y-57445352D02*
X147937480Y-57445352D01*
X146889861Y-57683447D02*
X147604147Y-57921542D01*
X147604147Y-57302495D01*
%TO.C,U4*%
X150252180Y-68008404D02*
X151061704Y-68008404D01*
X151156942Y-67960785D01*
X151204561Y-67913166D01*
X151252180Y-67817928D01*
X151252180Y-67627452D01*
X151204561Y-67532214D01*
X151156942Y-67484595D01*
X151061704Y-67436976D01*
X150252180Y-67436976D01*
X150585514Y-66532214D02*
X151252180Y-66532214D01*
X150204561Y-66770309D02*
X150918847Y-67008404D01*
X150918847Y-66389357D01*
%TO.C,R16*%
X155328880Y-63126857D02*
X154852690Y-63460190D01*
X155328880Y-63698285D02*
X154328880Y-63698285D01*
X154328880Y-63317333D01*
X154376500Y-63222095D01*
X154424119Y-63174476D01*
X154519357Y-63126857D01*
X154662214Y-63126857D01*
X154757452Y-63174476D01*
X154805071Y-63222095D01*
X154852690Y-63317333D01*
X154852690Y-63698285D01*
X155328880Y-62174476D02*
X155328880Y-62745904D01*
X155328880Y-62460190D02*
X154328880Y-62460190D01*
X154471738Y-62555428D01*
X154566976Y-62650666D01*
X154614595Y-62745904D01*
X154328880Y-61317333D02*
X154328880Y-61507809D01*
X154376500Y-61603047D01*
X154424119Y-61650666D01*
X154566976Y-61745904D01*
X154757452Y-61793523D01*
X155138404Y-61793523D01*
X155233642Y-61745904D01*
X155281261Y-61698285D01*
X155328880Y-61603047D01*
X155328880Y-61412571D01*
X155281261Y-61317333D01*
X155233642Y-61269714D01*
X155138404Y-61222095D01*
X154900309Y-61222095D01*
X154805071Y-61269714D01*
X154757452Y-61317333D01*
X154709833Y-61412571D01*
X154709833Y-61603047D01*
X154757452Y-61698285D01*
X154805071Y-61745904D01*
X154900309Y-61793523D01*
%TO.C,J5*%
X164727380Y-48633333D02*
X165441666Y-48633333D01*
X165584523Y-48680952D01*
X165679761Y-48776190D01*
X165727380Y-48919047D01*
X165727380Y-49014285D01*
X164727380Y-47680952D02*
X164727380Y-48157142D01*
X165203571Y-48204761D01*
X165155952Y-48157142D01*
X165108333Y-48061904D01*
X165108333Y-47823809D01*
X165155952Y-47728571D01*
X165203571Y-47680952D01*
X165298809Y-47633333D01*
X165536904Y-47633333D01*
X165632142Y-47680952D01*
X165679761Y-47728571D01*
X165727380Y-47823809D01*
X165727380Y-48061904D01*
X165679761Y-48157142D01*
X165632142Y-48204761D01*
%TO.C,J4*%
X133160780Y-48633333D02*
X133875066Y-48633333D01*
X134017923Y-48680952D01*
X134113161Y-48776190D01*
X134160780Y-48919047D01*
X134160780Y-49014285D01*
X133494114Y-47728571D02*
X134160780Y-47728571D01*
X133113161Y-47966666D02*
X133827447Y-48204761D01*
X133827447Y-47585714D01*
%TO.C,Q3*%
X139968219Y-55822838D02*
X139920600Y-55918076D01*
X139825361Y-56013314D01*
X139682504Y-56156171D01*
X139634885Y-56251409D01*
X139634885Y-56346647D01*
X139872980Y-56299028D02*
X139825361Y-56394266D01*
X139730123Y-56489504D01*
X139539647Y-56537123D01*
X139206314Y-56537123D01*
X139015838Y-56489504D01*
X138920600Y-56394266D01*
X138872980Y-56299028D01*
X138872980Y-56108552D01*
X138920600Y-56013314D01*
X139015838Y-55918076D01*
X139206314Y-55870457D01*
X139539647Y-55870457D01*
X139730123Y-55918076D01*
X139825361Y-56013314D01*
X139872980Y-56108552D01*
X139872980Y-56299028D01*
X138872980Y-55537123D02*
X138872980Y-54918076D01*
X139253933Y-55251409D01*
X139253933Y-55108552D01*
X139301552Y-55013314D01*
X139349171Y-54965695D01*
X139444409Y-54918076D01*
X139682504Y-54918076D01*
X139777742Y-54965695D01*
X139825361Y-55013314D01*
X139872980Y-55108552D01*
X139872980Y-55394266D01*
X139825361Y-55489504D01*
X139777742Y-55537123D01*
%TO.C,R17*%
X139872980Y-53424057D02*
X139396790Y-53757390D01*
X139872980Y-53995485D02*
X138872980Y-53995485D01*
X138872980Y-53614533D01*
X138920600Y-53519295D01*
X138968219Y-53471676D01*
X139063457Y-53424057D01*
X139206314Y-53424057D01*
X139301552Y-53471676D01*
X139349171Y-53519295D01*
X139396790Y-53614533D01*
X139396790Y-53995485D01*
X139872980Y-52471676D02*
X139872980Y-53043104D01*
X139872980Y-52757390D02*
X138872980Y-52757390D01*
X139015838Y-52852628D01*
X139111076Y-52947866D01*
X139158695Y-53043104D01*
X138872980Y-52138342D02*
X138872980Y-51471676D01*
X139872980Y-51900247D01*
%TO.C,R19*%
X139898380Y-59291457D02*
X139422190Y-59624790D01*
X139898380Y-59862885D02*
X138898380Y-59862885D01*
X138898380Y-59481933D01*
X138946000Y-59386695D01*
X138993619Y-59339076D01*
X139088857Y-59291457D01*
X139231714Y-59291457D01*
X139326952Y-59339076D01*
X139374571Y-59386695D01*
X139422190Y-59481933D01*
X139422190Y-59862885D01*
X139898380Y-58339076D02*
X139898380Y-58910504D01*
X139898380Y-58624790D02*
X138898380Y-58624790D01*
X139041238Y-58720028D01*
X139136476Y-58815266D01*
X139184095Y-58910504D01*
X139898380Y-57862885D02*
X139898380Y-57672409D01*
X139850761Y-57577171D01*
X139803142Y-57529552D01*
X139660285Y-57434314D01*
X139469809Y-57386695D01*
X139088857Y-57386695D01*
X138993619Y-57434314D01*
X138946000Y-57481933D01*
X138898380Y-57577171D01*
X138898380Y-57767647D01*
X138946000Y-57862885D01*
X138993619Y-57910504D01*
X139088857Y-57958123D01*
X139326952Y-57958123D01*
X139422190Y-57910504D01*
X139469809Y-57862885D01*
X139517428Y-57767647D01*
X139517428Y-57577171D01*
X139469809Y-57481933D01*
X139422190Y-57434314D01*
X139326952Y-57386695D01*
%TO.C,J1*%
X173102380Y-112333333D02*
X173816666Y-112333333D01*
X173959523Y-112380952D01*
X174054761Y-112476190D01*
X174102380Y-112619047D01*
X174102380Y-112714285D01*
X174102380Y-111333333D02*
X174102380Y-111904761D01*
X174102380Y-111619047D02*
X173102380Y-111619047D01*
X173245238Y-111714285D01*
X173340476Y-111809523D01*
X173388095Y-111904761D01*
%TO.C,R29*%
X157221180Y-75395057D02*
X156744990Y-75728390D01*
X157221180Y-75966485D02*
X156221180Y-75966485D01*
X156221180Y-75585533D01*
X156268800Y-75490295D01*
X156316419Y-75442676D01*
X156411657Y-75395057D01*
X156554514Y-75395057D01*
X156649752Y-75442676D01*
X156697371Y-75490295D01*
X156744990Y-75585533D01*
X156744990Y-75966485D01*
X156316419Y-75014104D02*
X156268800Y-74966485D01*
X156221180Y-74871247D01*
X156221180Y-74633152D01*
X156268800Y-74537914D01*
X156316419Y-74490295D01*
X156411657Y-74442676D01*
X156506895Y-74442676D01*
X156649752Y-74490295D01*
X157221180Y-75061723D01*
X157221180Y-74442676D01*
X157221180Y-73966485D02*
X157221180Y-73776009D01*
X157173561Y-73680771D01*
X157125942Y-73633152D01*
X156983085Y-73537914D01*
X156792609Y-73490295D01*
X156411657Y-73490295D01*
X156316419Y-73537914D01*
X156268800Y-73585533D01*
X156221180Y-73680771D01*
X156221180Y-73871247D01*
X156268800Y-73966485D01*
X156316419Y-74014104D01*
X156411657Y-74061723D01*
X156649752Y-74061723D01*
X156744990Y-74014104D01*
X156792609Y-73966485D01*
X156840228Y-73871247D01*
X156840228Y-73680771D01*
X156792609Y-73585533D01*
X156744990Y-73537914D01*
X156649752Y-73490295D01*
%TO.C,R28*%
X140914380Y-71432657D02*
X140438190Y-71765990D01*
X140914380Y-72004085D02*
X139914380Y-72004085D01*
X139914380Y-71623133D01*
X139962000Y-71527895D01*
X140009619Y-71480276D01*
X140104857Y-71432657D01*
X140247714Y-71432657D01*
X140342952Y-71480276D01*
X140390571Y-71527895D01*
X140438190Y-71623133D01*
X140438190Y-72004085D01*
X140009619Y-71051704D02*
X139962000Y-71004085D01*
X139914380Y-70908847D01*
X139914380Y-70670752D01*
X139962000Y-70575514D01*
X140009619Y-70527895D01*
X140104857Y-70480276D01*
X140200095Y-70480276D01*
X140342952Y-70527895D01*
X140914380Y-71099323D01*
X140914380Y-70480276D01*
X140342952Y-69908847D02*
X140295333Y-70004085D01*
X140247714Y-70051704D01*
X140152476Y-70099323D01*
X140104857Y-70099323D01*
X140009619Y-70051704D01*
X139962000Y-70004085D01*
X139914380Y-69908847D01*
X139914380Y-69718371D01*
X139962000Y-69623133D01*
X140009619Y-69575514D01*
X140104857Y-69527895D01*
X140152476Y-69527895D01*
X140247714Y-69575514D01*
X140295333Y-69623133D01*
X140342952Y-69718371D01*
X140342952Y-69908847D01*
X140390571Y-70004085D01*
X140438190Y-70051704D01*
X140533428Y-70099323D01*
X140723904Y-70099323D01*
X140819142Y-70051704D01*
X140866761Y-70004085D01*
X140914380Y-69908847D01*
X140914380Y-69718371D01*
X140866761Y-69623133D01*
X140819142Y-69575514D01*
X140723904Y-69527895D01*
X140533428Y-69527895D01*
X140438190Y-69575514D01*
X140390571Y-69623133D01*
X140342952Y-69718371D01*
%TO.C,R27*%
X157195780Y-72347057D02*
X156719590Y-72680390D01*
X157195780Y-72918485D02*
X156195780Y-72918485D01*
X156195780Y-72537533D01*
X156243400Y-72442295D01*
X156291019Y-72394676D01*
X156386257Y-72347057D01*
X156529114Y-72347057D01*
X156624352Y-72394676D01*
X156671971Y-72442295D01*
X156719590Y-72537533D01*
X156719590Y-72918485D01*
X156291019Y-71966104D02*
X156243400Y-71918485D01*
X156195780Y-71823247D01*
X156195780Y-71585152D01*
X156243400Y-71489914D01*
X156291019Y-71442295D01*
X156386257Y-71394676D01*
X156481495Y-71394676D01*
X156624352Y-71442295D01*
X157195780Y-72013723D01*
X157195780Y-71394676D01*
X156195780Y-71061342D02*
X156195780Y-70394676D01*
X157195780Y-70823247D01*
%TO.C,R26*%
X142895580Y-75737957D02*
X142419390Y-76071290D01*
X142895580Y-76309385D02*
X141895580Y-76309385D01*
X141895580Y-75928433D01*
X141943200Y-75833195D01*
X141990819Y-75785576D01*
X142086057Y-75737957D01*
X142228914Y-75737957D01*
X142324152Y-75785576D01*
X142371771Y-75833195D01*
X142419390Y-75928433D01*
X142419390Y-76309385D01*
X141990819Y-75357004D02*
X141943200Y-75309385D01*
X141895580Y-75214147D01*
X141895580Y-74976052D01*
X141943200Y-74880814D01*
X141990819Y-74833195D01*
X142086057Y-74785576D01*
X142181295Y-74785576D01*
X142324152Y-74833195D01*
X142895580Y-75404623D01*
X142895580Y-74785576D01*
X141895580Y-73928433D02*
X141895580Y-74118909D01*
X141943200Y-74214147D01*
X141990819Y-74261766D01*
X142133676Y-74357004D01*
X142324152Y-74404623D01*
X142705104Y-74404623D01*
X142800342Y-74357004D01*
X142847961Y-74309385D01*
X142895580Y-74214147D01*
X142895580Y-74023671D01*
X142847961Y-73928433D01*
X142800342Y-73880814D01*
X142705104Y-73833195D01*
X142467009Y-73833195D01*
X142371771Y-73880814D01*
X142324152Y-73928433D01*
X142276533Y-74023671D01*
X142276533Y-74214147D01*
X142324152Y-74309385D01*
X142371771Y-74357004D01*
X142467009Y-74404623D01*
%TO.C,C8*%
X149943942Y-79517666D02*
X149991561Y-79565285D01*
X150039180Y-79708142D01*
X150039180Y-79803380D01*
X149991561Y-79946238D01*
X149896323Y-80041476D01*
X149801085Y-80089095D01*
X149610609Y-80136714D01*
X149467752Y-80136714D01*
X149277276Y-80089095D01*
X149182038Y-80041476D01*
X149086800Y-79946238D01*
X149039180Y-79803380D01*
X149039180Y-79708142D01*
X149086800Y-79565285D01*
X149134419Y-79517666D01*
X149467752Y-78946238D02*
X149420133Y-79041476D01*
X149372514Y-79089095D01*
X149277276Y-79136714D01*
X149229657Y-79136714D01*
X149134419Y-79089095D01*
X149086800Y-79041476D01*
X149039180Y-78946238D01*
X149039180Y-78755761D01*
X149086800Y-78660523D01*
X149134419Y-78612904D01*
X149229657Y-78565285D01*
X149277276Y-78565285D01*
X149372514Y-78612904D01*
X149420133Y-78660523D01*
X149467752Y-78755761D01*
X149467752Y-78946238D01*
X149515371Y-79041476D01*
X149562990Y-79089095D01*
X149658228Y-79136714D01*
X149848704Y-79136714D01*
X149943942Y-79089095D01*
X149991561Y-79041476D01*
X150039180Y-78946238D01*
X150039180Y-78755761D01*
X149991561Y-78660523D01*
X149943942Y-78612904D01*
X149848704Y-78565285D01*
X149658228Y-78565285D01*
X149562990Y-78612904D01*
X149515371Y-78660523D01*
X149467752Y-78755761D01*
%TO.C,C7*%
X132059242Y-103913666D02*
X132106861Y-103961285D01*
X132154480Y-104104142D01*
X132154480Y-104199380D01*
X132106861Y-104342238D01*
X132011623Y-104437476D01*
X131916385Y-104485095D01*
X131725909Y-104532714D01*
X131583052Y-104532714D01*
X131392576Y-104485095D01*
X131297338Y-104437476D01*
X131202100Y-104342238D01*
X131154480Y-104199380D01*
X131154480Y-104104142D01*
X131202100Y-103961285D01*
X131249719Y-103913666D01*
X131154480Y-103580333D02*
X131154480Y-102913666D01*
X132154480Y-103342238D01*
%TO.C,C2*%
X152426942Y-97524866D02*
X152474561Y-97572485D01*
X152522180Y-97715342D01*
X152522180Y-97810580D01*
X152474561Y-97953438D01*
X152379323Y-98048676D01*
X152284085Y-98096295D01*
X152093609Y-98143914D01*
X151950752Y-98143914D01*
X151760276Y-98096295D01*
X151665038Y-98048676D01*
X151569800Y-97953438D01*
X151522180Y-97810580D01*
X151522180Y-97715342D01*
X151569800Y-97572485D01*
X151617419Y-97524866D01*
X151617419Y-97143914D02*
X151569800Y-97096295D01*
X151522180Y-97001057D01*
X151522180Y-96762961D01*
X151569800Y-96667723D01*
X151617419Y-96620104D01*
X151712657Y-96572485D01*
X151807895Y-96572485D01*
X151950752Y-96620104D01*
X152522180Y-97191533D01*
X152522180Y-96572485D01*
%TO.C,C1*%
X157657142Y-112466666D02*
X157704761Y-112514285D01*
X157752380Y-112657142D01*
X157752380Y-112752380D01*
X157704761Y-112895238D01*
X157609523Y-112990476D01*
X157514285Y-113038095D01*
X157323809Y-113085714D01*
X157180952Y-113085714D01*
X156990476Y-113038095D01*
X156895238Y-112990476D01*
X156800000Y-112895238D01*
X156752380Y-112752380D01*
X156752380Y-112657142D01*
X156800000Y-112514285D01*
X156847619Y-112466666D01*
X157752380Y-111514285D02*
X157752380Y-112085714D01*
X157752380Y-111800000D02*
X156752380Y-111800000D01*
X156895238Y-111895238D01*
X156990476Y-111990476D01*
X157038095Y-112085714D01*
%TO.C,J3*%
X152452380Y-85792333D02*
X153166666Y-85792333D01*
X153309523Y-85839952D01*
X153404761Y-85935190D01*
X153452380Y-86078047D01*
X153452380Y-86173285D01*
X152452380Y-85411380D02*
X152452380Y-84792333D01*
X152833333Y-85125666D01*
X152833333Y-84982809D01*
X152880952Y-84887571D01*
X152928571Y-84839952D01*
X153023809Y-84792333D01*
X153261904Y-84792333D01*
X153357142Y-84839952D01*
X153404761Y-84887571D01*
X153452380Y-84982809D01*
X153452380Y-85268523D01*
X153404761Y-85363761D01*
X153357142Y-85411380D01*
%TO.C,J2*%
X139077980Y-105506333D02*
X139792266Y-105506333D01*
X139935123Y-105553952D01*
X140030361Y-105649190D01*
X140077980Y-105792047D01*
X140077980Y-105887285D01*
X139173219Y-105077761D02*
X139125600Y-105030142D01*
X139077980Y-104934904D01*
X139077980Y-104696809D01*
X139125600Y-104601571D01*
X139173219Y-104553952D01*
X139268457Y-104506333D01*
X139363695Y-104506333D01*
X139506552Y-104553952D01*
X140077980Y-105125380D01*
X140077980Y-104506333D01*
%TO.C,U3*%
X144867380Y-91795504D02*
X145676904Y-91795504D01*
X145772142Y-91747885D01*
X145819761Y-91700266D01*
X145867380Y-91605028D01*
X145867380Y-91414552D01*
X145819761Y-91319314D01*
X145772142Y-91271695D01*
X145676904Y-91224076D01*
X144867380Y-91224076D01*
X144867380Y-90843123D02*
X144867380Y-90224076D01*
X145248333Y-90557409D01*
X145248333Y-90414552D01*
X145295952Y-90319314D01*
X145343571Y-90271695D01*
X145438809Y-90224076D01*
X145676904Y-90224076D01*
X145772142Y-90271695D01*
X145819761Y-90319314D01*
X145867380Y-90414552D01*
X145867380Y-90700266D01*
X145819761Y-90795504D01*
X145772142Y-90843123D01*
%TO.C,U2*%
X145961380Y-113681904D02*
X146770904Y-113681904D01*
X146866142Y-113634285D01*
X146913761Y-113586666D01*
X146961380Y-113491428D01*
X146961380Y-113300952D01*
X146913761Y-113205714D01*
X146866142Y-113158095D01*
X146770904Y-113110476D01*
X145961380Y-113110476D01*
X146056619Y-112681904D02*
X146009000Y-112634285D01*
X145961380Y-112539047D01*
X145961380Y-112300952D01*
X146009000Y-112205714D01*
X146056619Y-112158095D01*
X146151857Y-112110476D01*
X146247095Y-112110476D01*
X146389952Y-112158095D01*
X146961380Y-112729523D01*
X146961380Y-112110476D01*
%TO.C,R25*%
X140902380Y-68069857D02*
X140426190Y-68403190D01*
X140902380Y-68641285D02*
X139902380Y-68641285D01*
X139902380Y-68260333D01*
X139950000Y-68165095D01*
X139997619Y-68117476D01*
X140092857Y-68069857D01*
X140235714Y-68069857D01*
X140330952Y-68117476D01*
X140378571Y-68165095D01*
X140426190Y-68260333D01*
X140426190Y-68641285D01*
X139997619Y-67688904D02*
X139950000Y-67641285D01*
X139902380Y-67546047D01*
X139902380Y-67307952D01*
X139950000Y-67212714D01*
X139997619Y-67165095D01*
X140092857Y-67117476D01*
X140188095Y-67117476D01*
X140330952Y-67165095D01*
X140902380Y-67736523D01*
X140902380Y-67117476D01*
X139902380Y-66212714D02*
X139902380Y-66688904D01*
X140378571Y-66736523D01*
X140330952Y-66688904D01*
X140283333Y-66593666D01*
X140283333Y-66355571D01*
X140330952Y-66260333D01*
X140378571Y-66212714D01*
X140473809Y-66165095D01*
X140711904Y-66165095D01*
X140807142Y-66212714D01*
X140854761Y-66260333D01*
X140902380Y-66355571D01*
X140902380Y-66593666D01*
X140854761Y-66688904D01*
X140807142Y-66736523D01*
%TO.C,R24*%
X144552380Y-64869857D02*
X144076190Y-65203190D01*
X144552380Y-65441285D02*
X143552380Y-65441285D01*
X143552380Y-65060333D01*
X143600000Y-64965095D01*
X143647619Y-64917476D01*
X143742857Y-64869857D01*
X143885714Y-64869857D01*
X143980952Y-64917476D01*
X144028571Y-64965095D01*
X144076190Y-65060333D01*
X144076190Y-65441285D01*
X143647619Y-64488904D02*
X143600000Y-64441285D01*
X143552380Y-64346047D01*
X143552380Y-64107952D01*
X143600000Y-64012714D01*
X143647619Y-63965095D01*
X143742857Y-63917476D01*
X143838095Y-63917476D01*
X143980952Y-63965095D01*
X144552380Y-64536523D01*
X144552380Y-63917476D01*
X143885714Y-63060333D02*
X144552380Y-63060333D01*
X143504761Y-63298428D02*
X144219047Y-63536523D01*
X144219047Y-62917476D01*
%TO.C,R23*%
X151912580Y-44737257D02*
X151436390Y-45070590D01*
X151912580Y-45308685D02*
X150912580Y-45308685D01*
X150912580Y-44927733D01*
X150960200Y-44832495D01*
X151007819Y-44784876D01*
X151103057Y-44737257D01*
X151245914Y-44737257D01*
X151341152Y-44784876D01*
X151388771Y-44832495D01*
X151436390Y-44927733D01*
X151436390Y-45308685D01*
X151007819Y-44356304D02*
X150960200Y-44308685D01*
X150912580Y-44213447D01*
X150912580Y-43975352D01*
X150960200Y-43880114D01*
X151007819Y-43832495D01*
X151103057Y-43784876D01*
X151198295Y-43784876D01*
X151341152Y-43832495D01*
X151912580Y-44403923D01*
X151912580Y-43784876D01*
X150912580Y-43451542D02*
X150912580Y-42832495D01*
X151293533Y-43165828D01*
X151293533Y-43022971D01*
X151341152Y-42927733D01*
X151388771Y-42880114D01*
X151484009Y-42832495D01*
X151722104Y-42832495D01*
X151817342Y-42880114D01*
X151864961Y-42927733D01*
X151912580Y-43022971D01*
X151912580Y-43308685D01*
X151864961Y-43403923D01*
X151817342Y-43451542D01*
%TO.C,R21*%
X151912580Y-50579257D02*
X151436390Y-50912590D01*
X151912580Y-51150685D02*
X150912580Y-51150685D01*
X150912580Y-50769733D01*
X150960200Y-50674495D01*
X151007819Y-50626876D01*
X151103057Y-50579257D01*
X151245914Y-50579257D01*
X151341152Y-50626876D01*
X151388771Y-50674495D01*
X151436390Y-50769733D01*
X151436390Y-51150685D01*
X151007819Y-50198304D02*
X150960200Y-50150685D01*
X150912580Y-50055447D01*
X150912580Y-49817352D01*
X150960200Y-49722114D01*
X151007819Y-49674495D01*
X151103057Y-49626876D01*
X151198295Y-49626876D01*
X151341152Y-49674495D01*
X151912580Y-50245923D01*
X151912580Y-49626876D01*
X151912580Y-48674495D02*
X151912580Y-49245923D01*
X151912580Y-48960209D02*
X150912580Y-48960209D01*
X151055438Y-49055447D01*
X151150676Y-49150685D01*
X151198295Y-49245923D01*
%TO.C,R15*%
X155341580Y-108642857D02*
X154865390Y-108976190D01*
X155341580Y-109214285D02*
X154341580Y-109214285D01*
X154341580Y-108833333D01*
X154389200Y-108738095D01*
X154436819Y-108690476D01*
X154532057Y-108642857D01*
X154674914Y-108642857D01*
X154770152Y-108690476D01*
X154817771Y-108738095D01*
X154865390Y-108833333D01*
X154865390Y-109214285D01*
X155341580Y-107690476D02*
X155341580Y-108261904D01*
X155341580Y-107976190D02*
X154341580Y-107976190D01*
X154484438Y-108071428D01*
X154579676Y-108166666D01*
X154627295Y-108261904D01*
X154341580Y-106785714D02*
X154341580Y-107261904D01*
X154817771Y-107309523D01*
X154770152Y-107261904D01*
X154722533Y-107166666D01*
X154722533Y-106928571D01*
X154770152Y-106833333D01*
X154817771Y-106785714D01*
X154913009Y-106738095D01*
X155151104Y-106738095D01*
X155246342Y-106785714D01*
X155293961Y-106833333D01*
X155341580Y-106928571D01*
X155341580Y-107166666D01*
X155293961Y-107261904D01*
X155246342Y-107309523D01*
%TO.C,R14*%
X144737080Y-79687657D02*
X144260890Y-80020990D01*
X144737080Y-80259085D02*
X143737080Y-80259085D01*
X143737080Y-79878133D01*
X143784700Y-79782895D01*
X143832319Y-79735276D01*
X143927557Y-79687657D01*
X144070414Y-79687657D01*
X144165652Y-79735276D01*
X144213271Y-79782895D01*
X144260890Y-79878133D01*
X144260890Y-80259085D01*
X144737080Y-78735276D02*
X144737080Y-79306704D01*
X144737080Y-79020990D02*
X143737080Y-79020990D01*
X143879938Y-79116228D01*
X143975176Y-79211466D01*
X144022795Y-79306704D01*
X144070414Y-77878133D02*
X144737080Y-77878133D01*
X143689461Y-78116228D02*
X144403747Y-78354323D01*
X144403747Y-77735276D01*
%TO.C,R13*%
X140609580Y-122054857D02*
X140133390Y-122388190D01*
X140609580Y-122626285D02*
X139609580Y-122626285D01*
X139609580Y-122245333D01*
X139657200Y-122150095D01*
X139704819Y-122102476D01*
X139800057Y-122054857D01*
X139942914Y-122054857D01*
X140038152Y-122102476D01*
X140085771Y-122150095D01*
X140133390Y-122245333D01*
X140133390Y-122626285D01*
X140609580Y-121102476D02*
X140609580Y-121673904D01*
X140609580Y-121388190D02*
X139609580Y-121388190D01*
X139752438Y-121483428D01*
X139847676Y-121578666D01*
X139895295Y-121673904D01*
X139609580Y-120769142D02*
X139609580Y-120150095D01*
X139990533Y-120483428D01*
X139990533Y-120340571D01*
X140038152Y-120245333D01*
X140085771Y-120197714D01*
X140181009Y-120150095D01*
X140419104Y-120150095D01*
X140514342Y-120197714D01*
X140561961Y-120245333D01*
X140609580Y-120340571D01*
X140609580Y-120626285D01*
X140561961Y-120721523D01*
X140514342Y-120769142D01*
%TO.C,R12*%
X140507980Y-82354657D02*
X140031790Y-82687990D01*
X140507980Y-82926085D02*
X139507980Y-82926085D01*
X139507980Y-82545133D01*
X139555600Y-82449895D01*
X139603219Y-82402276D01*
X139698457Y-82354657D01*
X139841314Y-82354657D01*
X139936552Y-82402276D01*
X139984171Y-82449895D01*
X140031790Y-82545133D01*
X140031790Y-82926085D01*
X140507980Y-81402276D02*
X140507980Y-81973704D01*
X140507980Y-81687990D02*
X139507980Y-81687990D01*
X139650838Y-81783228D01*
X139746076Y-81878466D01*
X139793695Y-81973704D01*
X139603219Y-81021323D02*
X139555600Y-80973704D01*
X139507980Y-80878466D01*
X139507980Y-80640371D01*
X139555600Y-80545133D01*
X139603219Y-80497514D01*
X139698457Y-80449895D01*
X139793695Y-80449895D01*
X139936552Y-80497514D01*
X140507980Y-81068942D01*
X140507980Y-80449895D01*
%TO.C,R11*%
X144202380Y-121642857D02*
X143726190Y-121976190D01*
X144202380Y-122214285D02*
X143202380Y-122214285D01*
X143202380Y-121833333D01*
X143250000Y-121738095D01*
X143297619Y-121690476D01*
X143392857Y-121642857D01*
X143535714Y-121642857D01*
X143630952Y-121690476D01*
X143678571Y-121738095D01*
X143726190Y-121833333D01*
X143726190Y-122214285D01*
X144202380Y-120690476D02*
X144202380Y-121261904D01*
X144202380Y-120976190D02*
X143202380Y-120976190D01*
X143345238Y-121071428D01*
X143440476Y-121166666D01*
X143488095Y-121261904D01*
X144202380Y-119738095D02*
X144202380Y-120309523D01*
X144202380Y-120023809D02*
X143202380Y-120023809D01*
X143345238Y-120119047D01*
X143440476Y-120214285D01*
X143488095Y-120309523D01*
%TO.C,R10*%
X140507980Y-92565457D02*
X140031790Y-92898790D01*
X140507980Y-93136885D02*
X139507980Y-93136885D01*
X139507980Y-92755933D01*
X139555600Y-92660695D01*
X139603219Y-92613076D01*
X139698457Y-92565457D01*
X139841314Y-92565457D01*
X139936552Y-92613076D01*
X139984171Y-92660695D01*
X140031790Y-92755933D01*
X140031790Y-93136885D01*
X140507980Y-91613076D02*
X140507980Y-92184504D01*
X140507980Y-91898790D02*
X139507980Y-91898790D01*
X139650838Y-91994028D01*
X139746076Y-92089266D01*
X139793695Y-92184504D01*
X139507980Y-90994028D02*
X139507980Y-90898790D01*
X139555600Y-90803552D01*
X139603219Y-90755933D01*
X139698457Y-90708314D01*
X139888933Y-90660695D01*
X140127028Y-90660695D01*
X140317504Y-90708314D01*
X140412742Y-90755933D01*
X140460361Y-90803552D01*
X140507980Y-90898790D01*
X140507980Y-90994028D01*
X140460361Y-91089266D01*
X140412742Y-91136885D01*
X140317504Y-91184504D01*
X140127028Y-91232123D01*
X139888933Y-91232123D01*
X139698457Y-91184504D01*
X139603219Y-91136885D01*
X139555600Y-91089266D01*
X139507980Y-90994028D01*
%TO.C,R9*%
X146202380Y-121616666D02*
X145726190Y-121950000D01*
X146202380Y-122188095D02*
X145202380Y-122188095D01*
X145202380Y-121807142D01*
X145250000Y-121711904D01*
X145297619Y-121664285D01*
X145392857Y-121616666D01*
X145535714Y-121616666D01*
X145630952Y-121664285D01*
X145678571Y-121711904D01*
X145726190Y-121807142D01*
X145726190Y-122188095D01*
X146202380Y-121140476D02*
X146202380Y-120950000D01*
X146154761Y-120854761D01*
X146107142Y-120807142D01*
X145964285Y-120711904D01*
X145773809Y-120664285D01*
X145392857Y-120664285D01*
X145297619Y-120711904D01*
X145250000Y-120759523D01*
X145202380Y-120854761D01*
X145202380Y-121045238D01*
X145250000Y-121140476D01*
X145297619Y-121188095D01*
X145392857Y-121235714D01*
X145630952Y-121235714D01*
X145726190Y-121188095D01*
X145773809Y-121140476D01*
X145821428Y-121045238D01*
X145821428Y-120854761D01*
X145773809Y-120759523D01*
X145726190Y-120711904D01*
X145630952Y-120664285D01*
%TO.C,R8*%
X141447780Y-96534266D02*
X140971590Y-96867600D01*
X141447780Y-97105695D02*
X140447780Y-97105695D01*
X140447780Y-96724742D01*
X140495400Y-96629504D01*
X140543019Y-96581885D01*
X140638257Y-96534266D01*
X140781114Y-96534266D01*
X140876352Y-96581885D01*
X140923971Y-96629504D01*
X140971590Y-96724742D01*
X140971590Y-97105695D01*
X140876352Y-95962838D02*
X140828733Y-96058076D01*
X140781114Y-96105695D01*
X140685876Y-96153314D01*
X140638257Y-96153314D01*
X140543019Y-96105695D01*
X140495400Y-96058076D01*
X140447780Y-95962838D01*
X140447780Y-95772361D01*
X140495400Y-95677123D01*
X140543019Y-95629504D01*
X140638257Y-95581885D01*
X140685876Y-95581885D01*
X140781114Y-95629504D01*
X140828733Y-95677123D01*
X140876352Y-95772361D01*
X140876352Y-95962838D01*
X140923971Y-96058076D01*
X140971590Y-96105695D01*
X141066828Y-96153314D01*
X141257304Y-96153314D01*
X141352542Y-96105695D01*
X141400161Y-96058076D01*
X141447780Y-95962838D01*
X141447780Y-95772361D01*
X141400161Y-95677123D01*
X141352542Y-95629504D01*
X141257304Y-95581885D01*
X141066828Y-95581885D01*
X140971590Y-95629504D01*
X140923971Y-95677123D01*
X140876352Y-95772361D01*
%TO.C,R7*%
X156967180Y-115116666D02*
X156490990Y-115450000D01*
X156967180Y-115688095D02*
X155967180Y-115688095D01*
X155967180Y-115307142D01*
X156014800Y-115211904D01*
X156062419Y-115164285D01*
X156157657Y-115116666D01*
X156300514Y-115116666D01*
X156395752Y-115164285D01*
X156443371Y-115211904D01*
X156490990Y-115307142D01*
X156490990Y-115688095D01*
X155967180Y-114783333D02*
X155967180Y-114116666D01*
X156967180Y-114545238D01*
%TO.C,R6*%
X148889980Y-84710566D02*
X148413790Y-85043900D01*
X148889980Y-85281995D02*
X147889980Y-85281995D01*
X147889980Y-84901042D01*
X147937600Y-84805804D01*
X147985219Y-84758185D01*
X148080457Y-84710566D01*
X148223314Y-84710566D01*
X148318552Y-84758185D01*
X148366171Y-84805804D01*
X148413790Y-84901042D01*
X148413790Y-85281995D01*
X147889980Y-83853423D02*
X147889980Y-84043900D01*
X147937600Y-84139138D01*
X147985219Y-84186757D01*
X148128076Y-84281995D01*
X148318552Y-84329614D01*
X148699504Y-84329614D01*
X148794742Y-84281995D01*
X148842361Y-84234376D01*
X148889980Y-84139138D01*
X148889980Y-83948661D01*
X148842361Y-83853423D01*
X148794742Y-83805804D01*
X148699504Y-83758185D01*
X148461409Y-83758185D01*
X148366171Y-83805804D01*
X148318552Y-83853423D01*
X148270933Y-83948661D01*
X148270933Y-84139138D01*
X148318552Y-84234376D01*
X148366171Y-84281995D01*
X148461409Y-84329614D01*
%TO.C,R5*%
X145067280Y-81865766D02*
X144591090Y-82199100D01*
X145067280Y-82437195D02*
X144067280Y-82437195D01*
X144067280Y-82056242D01*
X144114900Y-81961004D01*
X144162519Y-81913385D01*
X144257757Y-81865766D01*
X144400614Y-81865766D01*
X144495852Y-81913385D01*
X144543471Y-81961004D01*
X144591090Y-82056242D01*
X144591090Y-82437195D01*
X144067280Y-80961004D02*
X144067280Y-81437195D01*
X144543471Y-81484814D01*
X144495852Y-81437195D01*
X144448233Y-81341957D01*
X144448233Y-81103861D01*
X144495852Y-81008623D01*
X144543471Y-80961004D01*
X144638709Y-80913385D01*
X144876804Y-80913385D01*
X144972042Y-80961004D01*
X145019661Y-81008623D01*
X145067280Y-81103861D01*
X145067280Y-81341957D01*
X145019661Y-81437195D01*
X144972042Y-81484814D01*
%TO.C,R4*%
X138336280Y-114606366D02*
X137860090Y-114939700D01*
X138336280Y-115177795D02*
X137336280Y-115177795D01*
X137336280Y-114796842D01*
X137383900Y-114701604D01*
X137431519Y-114653985D01*
X137526757Y-114606366D01*
X137669614Y-114606366D01*
X137764852Y-114653985D01*
X137812471Y-114701604D01*
X137860090Y-114796842D01*
X137860090Y-115177795D01*
X137669614Y-113749223D02*
X138336280Y-113749223D01*
X137288661Y-113987319D02*
X138002947Y-114225414D01*
X138002947Y-113606366D01*
%TO.C,R3*%
X140609580Y-110567766D02*
X140133390Y-110901100D01*
X140609580Y-111139195D02*
X139609580Y-111139195D01*
X139609580Y-110758242D01*
X139657200Y-110663004D01*
X139704819Y-110615385D01*
X139800057Y-110567766D01*
X139942914Y-110567766D01*
X140038152Y-110615385D01*
X140085771Y-110663004D01*
X140133390Y-110758242D01*
X140133390Y-111139195D01*
X139609580Y-110234433D02*
X139609580Y-109615385D01*
X139990533Y-109948719D01*
X139990533Y-109805861D01*
X140038152Y-109710623D01*
X140085771Y-109663004D01*
X140181009Y-109615385D01*
X140419104Y-109615385D01*
X140514342Y-109663004D01*
X140561961Y-109710623D01*
X140609580Y-109805861D01*
X140609580Y-110091576D01*
X140561961Y-110186814D01*
X140514342Y-110234433D01*
%TO.C,R2*%
X168752380Y-100166666D02*
X168276190Y-100500000D01*
X168752380Y-100738095D02*
X167752380Y-100738095D01*
X167752380Y-100357142D01*
X167800000Y-100261904D01*
X167847619Y-100214285D01*
X167942857Y-100166666D01*
X168085714Y-100166666D01*
X168180952Y-100214285D01*
X168228571Y-100261904D01*
X168276190Y-100357142D01*
X168276190Y-100738095D01*
X167847619Y-99785714D02*
X167800000Y-99738095D01*
X167752380Y-99642857D01*
X167752380Y-99404761D01*
X167800000Y-99309523D01*
X167847619Y-99261904D01*
X167942857Y-99214285D01*
X168038095Y-99214285D01*
X168180952Y-99261904D01*
X168752380Y-99833333D01*
X168752380Y-99214285D01*
%TO.C,R1*%
X168752380Y-102466666D02*
X168276190Y-102800000D01*
X168752380Y-103038095D02*
X167752380Y-103038095D01*
X167752380Y-102657142D01*
X167800000Y-102561904D01*
X167847619Y-102514285D01*
X167942857Y-102466666D01*
X168085714Y-102466666D01*
X168180952Y-102514285D01*
X168228571Y-102561904D01*
X168276190Y-102657142D01*
X168276190Y-103038095D01*
X168752380Y-101514285D02*
X168752380Y-102085714D01*
X168752380Y-101800000D02*
X167752380Y-101800000D01*
X167895238Y-101895238D01*
X167990476Y-101990476D01*
X168038095Y-102085714D01*
%TO.C,Q5*%
X152007819Y-47110638D02*
X151960200Y-47205876D01*
X151864961Y-47301114D01*
X151722104Y-47443971D01*
X151674485Y-47539209D01*
X151674485Y-47634447D01*
X151912580Y-47586828D02*
X151864961Y-47682066D01*
X151769723Y-47777304D01*
X151579247Y-47824923D01*
X151245914Y-47824923D01*
X151055438Y-47777304D01*
X150960200Y-47682066D01*
X150912580Y-47586828D01*
X150912580Y-47396352D01*
X150960200Y-47301114D01*
X151055438Y-47205876D01*
X151245914Y-47158257D01*
X151579247Y-47158257D01*
X151769723Y-47205876D01*
X151864961Y-47301114D01*
X151912580Y-47396352D01*
X151912580Y-47586828D01*
X150912580Y-46253495D02*
X150912580Y-46729685D01*
X151388771Y-46777304D01*
X151341152Y-46729685D01*
X151293533Y-46634447D01*
X151293533Y-46396352D01*
X151341152Y-46301114D01*
X151388771Y-46253495D01*
X151484009Y-46205876D01*
X151722104Y-46205876D01*
X151817342Y-46253495D01*
X151864961Y-46301114D01*
X151912580Y-46396352D01*
X151912580Y-46634447D01*
X151864961Y-46729685D01*
X151817342Y-46777304D01*
%TO.C,Q1*%
X158647619Y-104305238D02*
X158600000Y-104400476D01*
X158504761Y-104495714D01*
X158361904Y-104638571D01*
X158314285Y-104733809D01*
X158314285Y-104829047D01*
X158552380Y-104781428D02*
X158504761Y-104876666D01*
X158409523Y-104971904D01*
X158219047Y-105019523D01*
X157885714Y-105019523D01*
X157695238Y-104971904D01*
X157600000Y-104876666D01*
X157552380Y-104781428D01*
X157552380Y-104590952D01*
X157600000Y-104495714D01*
X157695238Y-104400476D01*
X157885714Y-104352857D01*
X158219047Y-104352857D01*
X158409523Y-104400476D01*
X158504761Y-104495714D01*
X158552380Y-104590952D01*
X158552380Y-104781428D01*
X158552380Y-103400476D02*
X158552380Y-103971904D01*
X158552380Y-103686190D02*
X157552380Y-103686190D01*
X157695238Y-103781428D01*
X157790476Y-103876666D01*
X157838095Y-103971904D01*
%TO.C,F3*%
X143870371Y-50294733D02*
X143870371Y-50628066D01*
X144394180Y-50628066D02*
X143394180Y-50628066D01*
X143394180Y-50151876D01*
X143394180Y-49866161D02*
X143394180Y-49247114D01*
X143775133Y-49580447D01*
X143775133Y-49437590D01*
X143822752Y-49342352D01*
X143870371Y-49294733D01*
X143965609Y-49247114D01*
X144203704Y-49247114D01*
X144298942Y-49294733D01*
X144346561Y-49342352D01*
X144394180Y-49437590D01*
X144394180Y-49723304D01*
X144346561Y-49818542D01*
X144298942Y-49866161D01*
%TO.C,F2*%
X167949571Y-67211533D02*
X167949571Y-67544866D01*
X168473380Y-67544866D02*
X167473380Y-67544866D01*
X167473380Y-67068676D01*
X167568619Y-66735342D02*
X167521000Y-66687723D01*
X167473380Y-66592485D01*
X167473380Y-66354390D01*
X167521000Y-66259152D01*
X167568619Y-66211533D01*
X167663857Y-66163914D01*
X167759095Y-66163914D01*
X167901952Y-66211533D01*
X168473380Y-66782961D01*
X168473380Y-66163914D01*
%TO.C,F1*%
X153662071Y-54892533D02*
X153662071Y-55225866D01*
X154185880Y-55225866D02*
X153185880Y-55225866D01*
X153185880Y-54749676D01*
X154185880Y-53844914D02*
X154185880Y-54416342D01*
X154185880Y-54130628D02*
X153185880Y-54130628D01*
X153328738Y-54225866D01*
X153423976Y-54321104D01*
X153471595Y-54416342D01*
%TO.C,D2*%
X149982180Y-91771695D02*
X148982180Y-91771695D01*
X148982180Y-91533600D01*
X149029800Y-91390742D01*
X149125038Y-91295504D01*
X149220276Y-91247885D01*
X149410752Y-91200266D01*
X149553609Y-91200266D01*
X149744085Y-91247885D01*
X149839323Y-91295504D01*
X149934561Y-91390742D01*
X149982180Y-91533600D01*
X149982180Y-91771695D01*
X149077419Y-90819314D02*
X149029800Y-90771695D01*
X148982180Y-90676457D01*
X148982180Y-90438361D01*
X149029800Y-90343123D01*
X149077419Y-90295504D01*
X149172657Y-90247885D01*
X149267895Y-90247885D01*
X149410752Y-90295504D01*
X149982180Y-90866933D01*
X149982180Y-90247885D01*
%TO.C,D1*%
X153461980Y-106300495D02*
X152461980Y-106300495D01*
X152461980Y-106062400D01*
X152509600Y-105919542D01*
X152604838Y-105824304D01*
X152700076Y-105776685D01*
X152890552Y-105729066D01*
X153033409Y-105729066D01*
X153223885Y-105776685D01*
X153319123Y-105824304D01*
X153414361Y-105919542D01*
X153461980Y-106062400D01*
X153461980Y-106300495D01*
X153461980Y-104776685D02*
X153461980Y-105348114D01*
X153461980Y-105062400D02*
X152461980Y-105062400D01*
X152604838Y-105157638D01*
X152700076Y-105252876D01*
X152747695Y-105348114D01*
%TO.C,C11*%
X155906742Y-67724257D02*
X155954361Y-67771876D01*
X156001980Y-67914733D01*
X156001980Y-68009971D01*
X155954361Y-68152828D01*
X155859123Y-68248066D01*
X155763885Y-68295685D01*
X155573409Y-68343304D01*
X155430552Y-68343304D01*
X155240076Y-68295685D01*
X155144838Y-68248066D01*
X155049600Y-68152828D01*
X155001980Y-68009971D01*
X155001980Y-67914733D01*
X155049600Y-67771876D01*
X155097219Y-67724257D01*
X156001980Y-66771876D02*
X156001980Y-67343304D01*
X156001980Y-67057590D02*
X155001980Y-67057590D01*
X155144838Y-67152828D01*
X155240076Y-67248066D01*
X155287695Y-67343304D01*
X156001980Y-65819495D02*
X156001980Y-66390923D01*
X156001980Y-66105209D02*
X155001980Y-66105209D01*
X155144838Y-66200447D01*
X155240076Y-66295685D01*
X155287695Y-66390923D01*
%TO.C,C10*%
X151766542Y-74074257D02*
X151814161Y-74121876D01*
X151861780Y-74264733D01*
X151861780Y-74359971D01*
X151814161Y-74502828D01*
X151718923Y-74598066D01*
X151623685Y-74645685D01*
X151433209Y-74693304D01*
X151290352Y-74693304D01*
X151099876Y-74645685D01*
X151004638Y-74598066D01*
X150909400Y-74502828D01*
X150861780Y-74359971D01*
X150861780Y-74264733D01*
X150909400Y-74121876D01*
X150957019Y-74074257D01*
X151861780Y-73121876D02*
X151861780Y-73693304D01*
X151861780Y-73407590D02*
X150861780Y-73407590D01*
X151004638Y-73502828D01*
X151099876Y-73598066D01*
X151147495Y-73693304D01*
X150861780Y-72502828D02*
X150861780Y-72407590D01*
X150909400Y-72312352D01*
X150957019Y-72264733D01*
X151052257Y-72217114D01*
X151242733Y-72169495D01*
X151480828Y-72169495D01*
X151671304Y-72217114D01*
X151766542Y-72264733D01*
X151814161Y-72312352D01*
X151861780Y-72407590D01*
X151861780Y-72502828D01*
X151814161Y-72598066D01*
X151766542Y-72645685D01*
X151671304Y-72693304D01*
X151480828Y-72740923D01*
X151242733Y-72740923D01*
X151052257Y-72693304D01*
X150957019Y-72645685D01*
X150909400Y-72598066D01*
X150861780Y-72502828D01*
%TO.C,C9*%
X145111742Y-76163466D02*
X145159361Y-76211085D01*
X145206980Y-76353942D01*
X145206980Y-76449180D01*
X145159361Y-76592038D01*
X145064123Y-76687276D01*
X144968885Y-76734895D01*
X144778409Y-76782514D01*
X144635552Y-76782514D01*
X144445076Y-76734895D01*
X144349838Y-76687276D01*
X144254600Y-76592038D01*
X144206980Y-76449180D01*
X144206980Y-76353942D01*
X144254600Y-76211085D01*
X144302219Y-76163466D01*
X145206980Y-75687276D02*
X145206980Y-75496800D01*
X145159361Y-75401561D01*
X145111742Y-75353942D01*
X144968885Y-75258704D01*
X144778409Y-75211085D01*
X144397457Y-75211085D01*
X144302219Y-75258704D01*
X144254600Y-75306323D01*
X144206980Y-75401561D01*
X144206980Y-75592038D01*
X144254600Y-75687276D01*
X144302219Y-75734895D01*
X144397457Y-75782514D01*
X144635552Y-75782514D01*
X144730790Y-75734895D01*
X144778409Y-75687276D01*
X144826028Y-75592038D01*
X144826028Y-75401561D01*
X144778409Y-75306323D01*
X144730790Y-75258704D01*
X144635552Y-75211085D01*
%TO.C,C6*%
X149912342Y-93714866D02*
X149959961Y-93762485D01*
X150007580Y-93905342D01*
X150007580Y-94000580D01*
X149959961Y-94143438D01*
X149864723Y-94238676D01*
X149769485Y-94286295D01*
X149579009Y-94333914D01*
X149436152Y-94333914D01*
X149245676Y-94286295D01*
X149150438Y-94238676D01*
X149055200Y-94143438D01*
X149007580Y-94000580D01*
X149007580Y-93905342D01*
X149055200Y-93762485D01*
X149102819Y-93714866D01*
X149007580Y-92857723D02*
X149007580Y-93048200D01*
X149055200Y-93143438D01*
X149102819Y-93191057D01*
X149245676Y-93286295D01*
X149436152Y-93333914D01*
X149817104Y-93333914D01*
X149912342Y-93286295D01*
X149959961Y-93238676D01*
X150007580Y-93143438D01*
X150007580Y-92952961D01*
X149959961Y-92857723D01*
X149912342Y-92810104D01*
X149817104Y-92762485D01*
X149579009Y-92762485D01*
X149483771Y-92810104D01*
X149436152Y-92857723D01*
X149388533Y-92952961D01*
X149388533Y-93143438D01*
X149436152Y-93238676D01*
X149483771Y-93286295D01*
X149579009Y-93333914D01*
%TO.C,C5*%
X150657142Y-108766666D02*
X150704761Y-108814285D01*
X150752380Y-108957142D01*
X150752380Y-109052380D01*
X150704761Y-109195238D01*
X150609523Y-109290476D01*
X150514285Y-109338095D01*
X150323809Y-109385714D01*
X150180952Y-109385714D01*
X149990476Y-109338095D01*
X149895238Y-109290476D01*
X149800000Y-109195238D01*
X149752380Y-109052380D01*
X149752380Y-108957142D01*
X149800000Y-108814285D01*
X149847619Y-108766666D01*
X149752380Y-107861904D02*
X149752380Y-108338095D01*
X150228571Y-108385714D01*
X150180952Y-108338095D01*
X150133333Y-108242857D01*
X150133333Y-108004761D01*
X150180952Y-107909523D01*
X150228571Y-107861904D01*
X150323809Y-107814285D01*
X150561904Y-107814285D01*
X150657142Y-107861904D01*
X150704761Y-107909523D01*
X150752380Y-108004761D01*
X150752380Y-108242857D01*
X150704761Y-108338095D01*
X150657142Y-108385714D01*
%TO.C,C4*%
X142698742Y-88457066D02*
X142746361Y-88504685D01*
X142793980Y-88647542D01*
X142793980Y-88742780D01*
X142746361Y-88885638D01*
X142651123Y-88980876D01*
X142555885Y-89028495D01*
X142365409Y-89076114D01*
X142222552Y-89076114D01*
X142032076Y-89028495D01*
X141936838Y-88980876D01*
X141841600Y-88885638D01*
X141793980Y-88742780D01*
X141793980Y-88647542D01*
X141841600Y-88504685D01*
X141889219Y-88457066D01*
X142127314Y-87599923D02*
X142793980Y-87599923D01*
X141746361Y-87838019D02*
X142460647Y-88076114D01*
X142460647Y-87457066D01*
%TO.C,C3*%
X137618742Y-116879666D02*
X137666361Y-116927285D01*
X137713980Y-117070142D01*
X137713980Y-117165380D01*
X137666361Y-117308238D01*
X137571123Y-117403476D01*
X137475885Y-117451095D01*
X137285409Y-117498714D01*
X137142552Y-117498714D01*
X136952076Y-117451095D01*
X136856838Y-117403476D01*
X136761600Y-117308238D01*
X136713980Y-117165380D01*
X136713980Y-117070142D01*
X136761600Y-116927285D01*
X136809219Y-116879666D01*
X136713980Y-116546333D02*
X136713980Y-115927285D01*
X137094933Y-116260619D01*
X137094933Y-116117761D01*
X137142552Y-116022523D01*
X137190171Y-115974904D01*
X137285409Y-115927285D01*
X137523504Y-115927285D01*
X137618742Y-115974904D01*
X137666361Y-116022523D01*
X137713980Y-116117761D01*
X137713980Y-116403476D01*
X137666361Y-116498714D01*
X137618742Y-116546333D01*
%TD*%
M02*
