%TF.GenerationSoftware,KiCad,Pcbnew,5.1.10-88a1d61d58~90~ubuntu20.04.1*%
%TF.CreationDate,2021-10-22T14:45:26-03:00*%
%TF.ProjectId,IAuto,49417574-6f2e-46b6-9963-61645f706362,rev?*%
%TF.SameCoordinates,Original*%
%TF.FileFunction,Legend,Bot*%
%TF.FilePolarity,Positive*%
%FSLAX46Y46*%
G04 Gerber Fmt 4.6, Leading zero omitted, Abs format (unit mm)*
G04 Created by KiCad (PCBNEW 5.1.10-88a1d61d58~90~ubuntu20.04.1) date 2021-10-22 14:45:26*
%MOMM*%
%LPD*%
G01*
G04 APERTURE LIST*
%ADD10C,0.010000*%
%ADD11C,0.002540*%
%ADD12C,0.150000*%
%ADD13C,0.254000*%
G04 APERTURE END LIST*
D10*
%TO.C,G\u002A\u002A\u002A*%
G36*
X146757449Y-76848595D02*
G01*
X146627423Y-76895668D01*
X146600334Y-76962000D01*
X146664593Y-77055931D01*
X146869678Y-77088770D01*
X146896667Y-77089000D01*
X147115840Y-77116539D01*
X147192465Y-77204433D01*
X147193000Y-77216000D01*
X147117272Y-77316826D01*
X146939000Y-77343000D01*
X146737348Y-77380864D01*
X146685000Y-77470000D01*
X146760729Y-77570826D01*
X146939000Y-77597000D01*
X147120527Y-77619781D01*
X147186935Y-77716621D01*
X147193000Y-77808666D01*
X147170860Y-77951808D01*
X147071229Y-78010407D01*
X146896667Y-78020333D01*
X146677494Y-78047873D01*
X146600870Y-78135766D01*
X146600334Y-78147333D01*
X146645653Y-78227198D01*
X146802561Y-78266206D01*
X147023667Y-78274333D01*
X147447000Y-78274333D01*
X147447000Y-76835000D01*
X147023667Y-76835000D01*
X146757449Y-76848595D01*
G37*
X146757449Y-76848595D02*
X146627423Y-76895668D01*
X146600334Y-76962000D01*
X146664593Y-77055931D01*
X146869678Y-77088770D01*
X146896667Y-77089000D01*
X147115840Y-77116539D01*
X147192465Y-77204433D01*
X147193000Y-77216000D01*
X147117272Y-77316826D01*
X146939000Y-77343000D01*
X146737348Y-77380864D01*
X146685000Y-77470000D01*
X146760729Y-77570826D01*
X146939000Y-77597000D01*
X147120527Y-77619781D01*
X147186935Y-77716621D01*
X147193000Y-77808666D01*
X147170860Y-77951808D01*
X147071229Y-78010407D01*
X146896667Y-78020333D01*
X146677494Y-78047873D01*
X146600870Y-78135766D01*
X146600334Y-78147333D01*
X146645653Y-78227198D01*
X146802561Y-78266206D01*
X147023667Y-78274333D01*
X147447000Y-78274333D01*
X147447000Y-76835000D01*
X147023667Y-76835000D01*
X146757449Y-76848595D01*
G36*
X149720782Y-76848595D02*
G01*
X149590756Y-76895668D01*
X149563667Y-76962000D01*
X149627927Y-77055931D01*
X149833012Y-77088770D01*
X149860000Y-77089000D01*
X150079174Y-77116539D01*
X150155798Y-77204433D01*
X150156334Y-77216000D01*
X150080606Y-77316826D01*
X149902334Y-77343000D01*
X149700682Y-77380864D01*
X149648334Y-77470000D01*
X149724062Y-77570826D01*
X149902334Y-77597000D01*
X150083861Y-77619781D01*
X150150268Y-77716621D01*
X150156334Y-77808666D01*
X150134194Y-77951808D01*
X150034562Y-78010407D01*
X149860000Y-78020333D01*
X149640827Y-78047873D01*
X149564203Y-78135766D01*
X149563667Y-78147333D01*
X149608987Y-78227198D01*
X149765894Y-78266206D01*
X149987000Y-78274333D01*
X150410334Y-78274333D01*
X150410334Y-76835000D01*
X149987000Y-76835000D01*
X149720782Y-76848595D01*
G37*
X149720782Y-76848595D02*
X149590756Y-76895668D01*
X149563667Y-76962000D01*
X149627927Y-77055931D01*
X149833012Y-77088770D01*
X149860000Y-77089000D01*
X150079174Y-77116539D01*
X150155798Y-77204433D01*
X150156334Y-77216000D01*
X150080606Y-77316826D01*
X149902334Y-77343000D01*
X149700682Y-77380864D01*
X149648334Y-77470000D01*
X149724062Y-77570826D01*
X149902334Y-77597000D01*
X150083861Y-77619781D01*
X150150268Y-77716621D01*
X150156334Y-77808666D01*
X150134194Y-77951808D01*
X150034562Y-78010407D01*
X149860000Y-78020333D01*
X149640827Y-78047873D01*
X149564203Y-78135766D01*
X149563667Y-78147333D01*
X149608987Y-78227198D01*
X149765894Y-78266206D01*
X149987000Y-78274333D01*
X150410334Y-78274333D01*
X150410334Y-76835000D01*
X149987000Y-76835000D01*
X149720782Y-76848595D01*
G36*
X149687388Y-80115294D02*
G01*
X149582465Y-80228382D01*
X149580177Y-80238378D01*
X149587883Y-80329010D01*
X149686210Y-80352928D01*
X149866013Y-80331289D01*
X150070814Y-80310767D01*
X150145254Y-80345636D01*
X150139844Y-80399244D01*
X150037738Y-80530035D01*
X149925844Y-80605972D01*
X149625550Y-80803287D01*
X149489956Y-81007700D01*
X149520780Y-81214831D01*
X149633834Y-81351544D01*
X149812479Y-81444026D01*
X150047162Y-81489778D01*
X150260042Y-81479754D01*
X150353889Y-81435222D01*
X150418813Y-81304869D01*
X150333185Y-81216172D01*
X150113850Y-81185230D01*
X150092834Y-81185676D01*
X149859200Y-81162962D01*
X149781004Y-81085509D01*
X149859119Y-80967728D01*
X150071667Y-80835205D01*
X150307803Y-80658441D01*
X150395306Y-80452220D01*
X150326156Y-80241897D01*
X150277220Y-80185314D01*
X150099681Y-80088819D01*
X149881432Y-80067126D01*
X149687388Y-80115294D01*
G37*
X149687388Y-80115294D02*
X149582465Y-80228382D01*
X149580177Y-80238378D01*
X149587883Y-80329010D01*
X149686210Y-80352928D01*
X149866013Y-80331289D01*
X150070814Y-80310767D01*
X150145254Y-80345636D01*
X150139844Y-80399244D01*
X150037738Y-80530035D01*
X149925844Y-80605972D01*
X149625550Y-80803287D01*
X149489956Y-81007700D01*
X149520780Y-81214831D01*
X149633834Y-81351544D01*
X149812479Y-81444026D01*
X150047162Y-81489778D01*
X150260042Y-81479754D01*
X150353889Y-81435222D01*
X150418813Y-81304869D01*
X150333185Y-81216172D01*
X150113850Y-81185230D01*
X150092834Y-81185676D01*
X149859200Y-81162962D01*
X149781004Y-81085509D01*
X149859119Y-80967728D01*
X150071667Y-80835205D01*
X150307803Y-80658441D01*
X150395306Y-80452220D01*
X150326156Y-80241897D01*
X150277220Y-80185314D01*
X150099681Y-80088819D01*
X149881432Y-80067126D01*
X149687388Y-80115294D01*
G36*
X146672644Y-80145478D02*
G01*
X146501072Y-80175774D01*
X146435030Y-80235177D01*
X146431000Y-80264000D01*
X146504601Y-80366143D01*
X146642667Y-80391000D01*
X146753251Y-80399715D01*
X146816541Y-80450459D01*
X146845714Y-80580132D01*
X146853948Y-80825631D01*
X146854334Y-80983666D01*
X146861803Y-81305672D01*
X146888658Y-81489966D01*
X146941574Y-81567692D01*
X146981334Y-81576333D01*
X147050335Y-81541478D01*
X147089827Y-81416153D01*
X147106482Y-81169212D01*
X147108334Y-80983666D01*
X147111446Y-80674030D01*
X147129570Y-80496819D01*
X147175881Y-80415135D01*
X147263559Y-80392078D01*
X147320000Y-80391000D01*
X147490239Y-80346839D01*
X147531667Y-80264000D01*
X147494927Y-80192763D01*
X147363645Y-80153170D01*
X147106232Y-80137929D01*
X146981334Y-80137000D01*
X146672644Y-80145478D01*
G37*
X146672644Y-80145478D02*
X146501072Y-80175774D01*
X146435030Y-80235177D01*
X146431000Y-80264000D01*
X146504601Y-80366143D01*
X146642667Y-80391000D01*
X146753251Y-80399715D01*
X146816541Y-80450459D01*
X146845714Y-80580132D01*
X146853948Y-80825631D01*
X146854334Y-80983666D01*
X146861803Y-81305672D01*
X146888658Y-81489966D01*
X146941574Y-81567692D01*
X146981334Y-81576333D01*
X147050335Y-81541478D01*
X147089827Y-81416153D01*
X147106482Y-81169212D01*
X147108334Y-80983666D01*
X147111446Y-80674030D01*
X147129570Y-80496819D01*
X147175881Y-80415135D01*
X147263559Y-80392078D01*
X147320000Y-80391000D01*
X147490239Y-80346839D01*
X147531667Y-80264000D01*
X147494927Y-80192763D01*
X147363645Y-80153170D01*
X147106232Y-80137929D01*
X146981334Y-80137000D01*
X146672644Y-80145478D01*
G36*
X147923639Y-74969143D02*
G01*
X147849067Y-75302223D01*
X147787211Y-75505779D01*
X147716578Y-75616132D01*
X147615676Y-75669600D01*
X147492977Y-75696902D01*
X147317701Y-75714745D01*
X147178841Y-75671227D01*
X147023692Y-75539562D01*
X146882591Y-75386683D01*
X146603605Y-75077565D01*
X146413617Y-74877459D01*
X146291991Y-74766328D01*
X146218094Y-74724130D01*
X146198167Y-74722005D01*
X146087882Y-74763878D01*
X145901938Y-74860916D01*
X145698380Y-74979466D01*
X145535251Y-75085872D01*
X145470895Y-75143692D01*
X145493941Y-75237720D01*
X145567218Y-75447196D01*
X145676172Y-75731117D01*
X145705165Y-75803676D01*
X145952996Y-76419300D01*
X145767284Y-76605012D01*
X145581572Y-76790725D01*
X144926786Y-76554410D01*
X144272000Y-76318096D01*
X143998093Y-76640048D01*
X143840119Y-76834364D01*
X143740528Y-76973445D01*
X143722927Y-77010464D01*
X143781493Y-77084705D01*
X143938766Y-77240809D01*
X144165253Y-77450008D01*
X144261062Y-77535435D01*
X144531785Y-77784424D01*
X144690342Y-77961272D01*
X144759102Y-78096671D01*
X144760537Y-78220764D01*
X144721273Y-78340781D01*
X144635895Y-78423791D01*
X144470865Y-78484025D01*
X144192645Y-78535709D01*
X143933334Y-78571707D01*
X143586082Y-78620500D01*
X143373578Y-78672015D01*
X143262733Y-78751445D01*
X143220459Y-78883986D01*
X143213669Y-79094831D01*
X143213667Y-79119689D01*
X143213667Y-79530301D01*
X143641168Y-79621984D01*
X143931647Y-79675948D01*
X144183906Y-79708898D01*
X144270120Y-79713666D01*
X144470603Y-79765554D01*
X144648561Y-79888657D01*
X144736392Y-80034137D01*
X144737667Y-80051456D01*
X144765327Y-80189866D01*
X144782179Y-80239146D01*
X144738823Y-80351398D01*
X144562046Y-80532134D01*
X144274179Y-80760824D01*
X144018025Y-80953685D01*
X143824943Y-81108161D01*
X143727430Y-81197940D01*
X143721667Y-81208176D01*
X143760906Y-81299074D01*
X143861068Y-81485055D01*
X143936355Y-81616183D01*
X144151043Y-81982520D01*
X144821424Y-81762747D01*
X145151152Y-81657019D01*
X145361076Y-81602175D01*
X145491910Y-81595177D01*
X145584367Y-81632984D01*
X145665070Y-81699776D01*
X145778503Y-81819445D01*
X145824197Y-81941406D01*
X145800212Y-82108252D01*
X145704604Y-82362572D01*
X145626667Y-82541879D01*
X145515096Y-82804896D01*
X145438404Y-83006222D01*
X145415000Y-83091496D01*
X145479764Y-83175415D01*
X145644835Y-83310294D01*
X145764267Y-83393631D01*
X146113533Y-83624764D01*
X146636005Y-83106935D01*
X146891844Y-82858250D01*
X147064953Y-82711519D01*
X147190524Y-82647170D01*
X147303748Y-82645630D01*
X147409628Y-82676658D01*
X147538045Y-82734874D01*
X147627995Y-82827389D01*
X147699675Y-82992463D01*
X147773280Y-83268351D01*
X147812732Y-83440271D01*
X147964686Y-84116333D01*
X148874328Y-84116333D01*
X148970360Y-83629500D01*
X149054258Y-83229407D01*
X149127258Y-82964771D01*
X149204455Y-82803721D01*
X149300942Y-82714386D01*
X149426523Y-82666299D01*
X149571962Y-82658071D01*
X149727686Y-82723976D01*
X149915317Y-82881547D01*
X150156481Y-83148318D01*
X150414466Y-83467356D01*
X150581691Y-83679948D01*
X150982846Y-83460498D01*
X151208917Y-83336493D01*
X151363447Y-83251100D01*
X151404364Y-83227938D01*
X151388799Y-83147779D01*
X151329548Y-82945897D01*
X151238095Y-82660660D01*
X151203404Y-82556559D01*
X151096263Y-82231289D01*
X151040935Y-82025831D01*
X151034464Y-81899763D01*
X151073892Y-81812668D01*
X151143440Y-81736931D01*
X151228973Y-81660397D01*
X151318413Y-81626628D01*
X151451705Y-81638687D01*
X151668794Y-81699640D01*
X151974289Y-81800668D01*
X152643780Y-82025765D01*
X152881724Y-81740747D01*
X153027830Y-81547284D01*
X153112125Y-81399965D01*
X153120262Y-81367864D01*
X153061523Y-81273957D01*
X152904822Y-81101728D01*
X152680331Y-80883566D01*
X152604640Y-80814333D01*
X152347320Y-80574275D01*
X152198721Y-80407469D01*
X152136316Y-80280174D01*
X152137582Y-80158644D01*
X152145045Y-80125845D01*
X152184971Y-80016506D01*
X152261529Y-79941057D01*
X152409993Y-79884383D01*
X152665638Y-79831367D01*
X152935833Y-79786981D01*
X153670000Y-79670938D01*
X153677403Y-79544333D01*
X151768227Y-79544333D01*
X151713200Y-79777166D01*
X151476172Y-80444016D01*
X151107907Y-81039903D01*
X150630421Y-81540522D01*
X150065732Y-81921566D01*
X149595503Y-82115096D01*
X149278160Y-82211169D01*
X149059032Y-82256588D01*
X148919965Y-82230318D01*
X148842808Y-82111329D01*
X148809406Y-81878586D01*
X148801606Y-81511057D01*
X148801660Y-81228666D01*
X148039667Y-81228666D01*
X148039667Y-82320333D01*
X147695127Y-82242920D01*
X147431246Y-82161452D01*
X147101068Y-82029805D01*
X146845955Y-81910770D01*
X146518748Y-81724669D01*
X146199880Y-81509654D01*
X146017786Y-81363736D01*
X145755984Y-81068420D01*
X145495885Y-80678063D01*
X145275984Y-80258956D01*
X145134776Y-79877388D01*
X145121042Y-79819500D01*
X145062879Y-79544333D01*
X147214810Y-79544333D01*
X147542816Y-79840666D01*
X147744106Y-80008939D01*
X147901427Y-80116307D01*
X147955244Y-80137000D01*
X147991300Y-80218552D01*
X148018307Y-80451094D01*
X148034861Y-80816457D01*
X148039667Y-81228666D01*
X148801660Y-81228666D01*
X148801667Y-81195333D01*
X148805196Y-80741223D01*
X148817565Y-80432408D01*
X148841446Y-80244962D01*
X148879512Y-80154957D01*
X148919896Y-80137000D01*
X149042897Y-80077565D01*
X149217009Y-79927350D01*
X149298310Y-79840666D01*
X149443075Y-79675787D01*
X148886334Y-79675787D01*
X148816129Y-79805246D01*
X148640325Y-79868288D01*
X148411138Y-79859881D01*
X148180786Y-79774993D01*
X148138415Y-79747866D01*
X147994723Y-79586976D01*
X147970492Y-79355594D01*
X147971409Y-79345699D01*
X148022788Y-79145699D01*
X148162172Y-79035924D01*
X148272500Y-78997657D01*
X148478317Y-78902109D01*
X148542307Y-78799254D01*
X148462218Y-78721036D01*
X148293667Y-78697666D01*
X148092015Y-78659802D01*
X148039667Y-78570666D01*
X148089529Y-78486959D01*
X148259070Y-78448830D01*
X148420667Y-78443666D01*
X148801667Y-78443666D01*
X148801667Y-78819302D01*
X148793542Y-79052440D01*
X148746470Y-79166072D01*
X148626409Y-79209954D01*
X148526500Y-79221468D01*
X148327203Y-79267940D01*
X148254472Y-79373149D01*
X148251334Y-79417333D01*
X148279966Y-79529533D01*
X148396116Y-79574168D01*
X148568834Y-79577009D01*
X148802492Y-79596785D01*
X148886249Y-79672435D01*
X148886334Y-79675787D01*
X149443075Y-79675787D01*
X149558494Y-79544333D01*
X151768227Y-79544333D01*
X153677403Y-79544333D01*
X153695027Y-79242935D01*
X153720053Y-78814933D01*
X153144693Y-78705364D01*
X152739338Y-78627053D01*
X152470454Y-78568236D01*
X152308146Y-78516828D01*
X152256785Y-78483185D01*
X151680334Y-78483185D01*
X151680334Y-78782333D01*
X149591843Y-78782333D01*
X149239088Y-78456672D01*
X148886334Y-78131011D01*
X148886334Y-77118722D01*
X148039667Y-77118722D01*
X148039667Y-78175855D01*
X147743334Y-78359000D01*
X147557800Y-78491450D01*
X147454576Y-78599677D01*
X147447000Y-78622362D01*
X147366214Y-78653165D01*
X147138880Y-78673655D01*
X146787534Y-78682698D01*
X146334713Y-78679156D01*
X146325167Y-78678957D01*
X145203334Y-78655333D01*
X145229779Y-78409267D01*
X145350252Y-77982126D01*
X145603143Y-77540188D01*
X145957714Y-77113976D01*
X146383225Y-76734013D01*
X146848938Y-76430819D01*
X147324115Y-76234918D01*
X147450367Y-76204315D01*
X147694378Y-76151654D01*
X147884730Y-76105191D01*
X147891500Y-76103306D01*
X147953114Y-76099226D01*
X147994889Y-76145317D01*
X148020620Y-76267590D01*
X148034101Y-76492051D01*
X148039129Y-76844711D01*
X148039667Y-77118722D01*
X148886334Y-77118722D01*
X148886334Y-76157666D01*
X149094824Y-76157666D01*
X149425471Y-76212654D01*
X149829107Y-76362435D01*
X150256853Y-76584234D01*
X150659832Y-76855276D01*
X150754533Y-76931015D01*
X151161486Y-77333794D01*
X151463483Y-77766372D01*
X151640849Y-78195758D01*
X151680334Y-78483185D01*
X152256785Y-78483185D01*
X152222524Y-78460744D01*
X152183693Y-78387902D01*
X152166308Y-78309846D01*
X152169848Y-78179039D01*
X152249238Y-78039668D01*
X152428688Y-77858368D01*
X152602283Y-77709048D01*
X152844611Y-77506753D01*
X153038097Y-77345063D01*
X153143862Y-77256467D01*
X153147694Y-77253236D01*
X153154098Y-77150023D01*
X153090829Y-76955010D01*
X153035893Y-76836749D01*
X152915042Y-76620824D01*
X152807728Y-76522696D01*
X152657602Y-76505922D01*
X152542200Y-76517460D01*
X152269817Y-76573126D01*
X151949590Y-76668973D01*
X151828098Y-76713529D01*
X151425528Y-76871823D01*
X151049454Y-76495749D01*
X151248005Y-75912542D01*
X151341316Y-75613784D01*
X151401197Y-75372903D01*
X151415785Y-75238321D01*
X151414494Y-75233146D01*
X151327556Y-75135683D01*
X151143796Y-74998455D01*
X151034491Y-74929470D01*
X150686552Y-74721985D01*
X150239316Y-75236183D01*
X150009227Y-75492914D01*
X149849242Y-75641523D01*
X149723197Y-75705722D01*
X149594928Y-75709226D01*
X149533915Y-75698749D01*
X149371518Y-75657216D01*
X149262582Y-75587559D01*
X149186458Y-75454584D01*
X149122498Y-75223095D01*
X149054529Y-74881636D01*
X148943839Y-74295000D01*
X148068505Y-74295000D01*
X147923639Y-74969143D01*
G37*
X147923639Y-74969143D02*
X147849067Y-75302223D01*
X147787211Y-75505779D01*
X147716578Y-75616132D01*
X147615676Y-75669600D01*
X147492977Y-75696902D01*
X147317701Y-75714745D01*
X147178841Y-75671227D01*
X147023692Y-75539562D01*
X146882591Y-75386683D01*
X146603605Y-75077565D01*
X146413617Y-74877459D01*
X146291991Y-74766328D01*
X146218094Y-74724130D01*
X146198167Y-74722005D01*
X146087882Y-74763878D01*
X145901938Y-74860916D01*
X145698380Y-74979466D01*
X145535251Y-75085872D01*
X145470895Y-75143692D01*
X145493941Y-75237720D01*
X145567218Y-75447196D01*
X145676172Y-75731117D01*
X145705165Y-75803676D01*
X145952996Y-76419300D01*
X145767284Y-76605012D01*
X145581572Y-76790725D01*
X144926786Y-76554410D01*
X144272000Y-76318096D01*
X143998093Y-76640048D01*
X143840119Y-76834364D01*
X143740528Y-76973445D01*
X143722927Y-77010464D01*
X143781493Y-77084705D01*
X143938766Y-77240809D01*
X144165253Y-77450008D01*
X144261062Y-77535435D01*
X144531785Y-77784424D01*
X144690342Y-77961272D01*
X144759102Y-78096671D01*
X144760537Y-78220764D01*
X144721273Y-78340781D01*
X144635895Y-78423791D01*
X144470865Y-78484025D01*
X144192645Y-78535709D01*
X143933334Y-78571707D01*
X143586082Y-78620500D01*
X143373578Y-78672015D01*
X143262733Y-78751445D01*
X143220459Y-78883986D01*
X143213669Y-79094831D01*
X143213667Y-79119689D01*
X143213667Y-79530301D01*
X143641168Y-79621984D01*
X143931647Y-79675948D01*
X144183906Y-79708898D01*
X144270120Y-79713666D01*
X144470603Y-79765554D01*
X144648561Y-79888657D01*
X144736392Y-80034137D01*
X144737667Y-80051456D01*
X144765327Y-80189866D01*
X144782179Y-80239146D01*
X144738823Y-80351398D01*
X144562046Y-80532134D01*
X144274179Y-80760824D01*
X144018025Y-80953685D01*
X143824943Y-81108161D01*
X143727430Y-81197940D01*
X143721667Y-81208176D01*
X143760906Y-81299074D01*
X143861068Y-81485055D01*
X143936355Y-81616183D01*
X144151043Y-81982520D01*
X144821424Y-81762747D01*
X145151152Y-81657019D01*
X145361076Y-81602175D01*
X145491910Y-81595177D01*
X145584367Y-81632984D01*
X145665070Y-81699776D01*
X145778503Y-81819445D01*
X145824197Y-81941406D01*
X145800212Y-82108252D01*
X145704604Y-82362572D01*
X145626667Y-82541879D01*
X145515096Y-82804896D01*
X145438404Y-83006222D01*
X145415000Y-83091496D01*
X145479764Y-83175415D01*
X145644835Y-83310294D01*
X145764267Y-83393631D01*
X146113533Y-83624764D01*
X146636005Y-83106935D01*
X146891844Y-82858250D01*
X147064953Y-82711519D01*
X147190524Y-82647170D01*
X147303748Y-82645630D01*
X147409628Y-82676658D01*
X147538045Y-82734874D01*
X147627995Y-82827389D01*
X147699675Y-82992463D01*
X147773280Y-83268351D01*
X147812732Y-83440271D01*
X147964686Y-84116333D01*
X148874328Y-84116333D01*
X148970360Y-83629500D01*
X149054258Y-83229407D01*
X149127258Y-82964771D01*
X149204455Y-82803721D01*
X149300942Y-82714386D01*
X149426523Y-82666299D01*
X149571962Y-82658071D01*
X149727686Y-82723976D01*
X149915317Y-82881547D01*
X150156481Y-83148318D01*
X150414466Y-83467356D01*
X150581691Y-83679948D01*
X150982846Y-83460498D01*
X151208917Y-83336493D01*
X151363447Y-83251100D01*
X151404364Y-83227938D01*
X151388799Y-83147779D01*
X151329548Y-82945897D01*
X151238095Y-82660660D01*
X151203404Y-82556559D01*
X151096263Y-82231289D01*
X151040935Y-82025831D01*
X151034464Y-81899763D01*
X151073892Y-81812668D01*
X151143440Y-81736931D01*
X151228973Y-81660397D01*
X151318413Y-81626628D01*
X151451705Y-81638687D01*
X151668794Y-81699640D01*
X151974289Y-81800668D01*
X152643780Y-82025765D01*
X152881724Y-81740747D01*
X153027830Y-81547284D01*
X153112125Y-81399965D01*
X153120262Y-81367864D01*
X153061523Y-81273957D01*
X152904822Y-81101728D01*
X152680331Y-80883566D01*
X152604640Y-80814333D01*
X152347320Y-80574275D01*
X152198721Y-80407469D01*
X152136316Y-80280174D01*
X152137582Y-80158644D01*
X152145045Y-80125845D01*
X152184971Y-80016506D01*
X152261529Y-79941057D01*
X152409993Y-79884383D01*
X152665638Y-79831367D01*
X152935833Y-79786981D01*
X153670000Y-79670938D01*
X153677403Y-79544333D01*
X151768227Y-79544333D01*
X151713200Y-79777166D01*
X151476172Y-80444016D01*
X151107907Y-81039903D01*
X150630421Y-81540522D01*
X150065732Y-81921566D01*
X149595503Y-82115096D01*
X149278160Y-82211169D01*
X149059032Y-82256588D01*
X148919965Y-82230318D01*
X148842808Y-82111329D01*
X148809406Y-81878586D01*
X148801606Y-81511057D01*
X148801660Y-81228666D01*
X148039667Y-81228666D01*
X148039667Y-82320333D01*
X147695127Y-82242920D01*
X147431246Y-82161452D01*
X147101068Y-82029805D01*
X146845955Y-81910770D01*
X146518748Y-81724669D01*
X146199880Y-81509654D01*
X146017786Y-81363736D01*
X145755984Y-81068420D01*
X145495885Y-80678063D01*
X145275984Y-80258956D01*
X145134776Y-79877388D01*
X145121042Y-79819500D01*
X145062879Y-79544333D01*
X147214810Y-79544333D01*
X147542816Y-79840666D01*
X147744106Y-80008939D01*
X147901427Y-80116307D01*
X147955244Y-80137000D01*
X147991300Y-80218552D01*
X148018307Y-80451094D01*
X148034861Y-80816457D01*
X148039667Y-81228666D01*
X148801660Y-81228666D01*
X148801667Y-81195333D01*
X148805196Y-80741223D01*
X148817565Y-80432408D01*
X148841446Y-80244962D01*
X148879512Y-80154957D01*
X148919896Y-80137000D01*
X149042897Y-80077565D01*
X149217009Y-79927350D01*
X149298310Y-79840666D01*
X149443075Y-79675787D01*
X148886334Y-79675787D01*
X148816129Y-79805246D01*
X148640325Y-79868288D01*
X148411138Y-79859881D01*
X148180786Y-79774993D01*
X148138415Y-79747866D01*
X147994723Y-79586976D01*
X147970492Y-79355594D01*
X147971409Y-79345699D01*
X148022788Y-79145699D01*
X148162172Y-79035924D01*
X148272500Y-78997657D01*
X148478317Y-78902109D01*
X148542307Y-78799254D01*
X148462218Y-78721036D01*
X148293667Y-78697666D01*
X148092015Y-78659802D01*
X148039667Y-78570666D01*
X148089529Y-78486959D01*
X148259070Y-78448830D01*
X148420667Y-78443666D01*
X148801667Y-78443666D01*
X148801667Y-78819302D01*
X148793542Y-79052440D01*
X148746470Y-79166072D01*
X148626409Y-79209954D01*
X148526500Y-79221468D01*
X148327203Y-79267940D01*
X148254472Y-79373149D01*
X148251334Y-79417333D01*
X148279966Y-79529533D01*
X148396116Y-79574168D01*
X148568834Y-79577009D01*
X148802492Y-79596785D01*
X148886249Y-79672435D01*
X148886334Y-79675787D01*
X149443075Y-79675787D01*
X149558494Y-79544333D01*
X151768227Y-79544333D01*
X153677403Y-79544333D01*
X153695027Y-79242935D01*
X153720053Y-78814933D01*
X153144693Y-78705364D01*
X152739338Y-78627053D01*
X152470454Y-78568236D01*
X152308146Y-78516828D01*
X152256785Y-78483185D01*
X151680334Y-78483185D01*
X151680334Y-78782333D01*
X149591843Y-78782333D01*
X149239088Y-78456672D01*
X148886334Y-78131011D01*
X148886334Y-77118722D01*
X148039667Y-77118722D01*
X148039667Y-78175855D01*
X147743334Y-78359000D01*
X147557800Y-78491450D01*
X147454576Y-78599677D01*
X147447000Y-78622362D01*
X147366214Y-78653165D01*
X147138880Y-78673655D01*
X146787534Y-78682698D01*
X146334713Y-78679156D01*
X146325167Y-78678957D01*
X145203334Y-78655333D01*
X145229779Y-78409267D01*
X145350252Y-77982126D01*
X145603143Y-77540188D01*
X145957714Y-77113976D01*
X146383225Y-76734013D01*
X146848938Y-76430819D01*
X147324115Y-76234918D01*
X147450367Y-76204315D01*
X147694378Y-76151654D01*
X147884730Y-76105191D01*
X147891500Y-76103306D01*
X147953114Y-76099226D01*
X147994889Y-76145317D01*
X148020620Y-76267590D01*
X148034101Y-76492051D01*
X148039129Y-76844711D01*
X148039667Y-77118722D01*
X148886334Y-77118722D01*
X148886334Y-76157666D01*
X149094824Y-76157666D01*
X149425471Y-76212654D01*
X149829107Y-76362435D01*
X150256853Y-76584234D01*
X150659832Y-76855276D01*
X150754533Y-76931015D01*
X151161486Y-77333794D01*
X151463483Y-77766372D01*
X151640849Y-78195758D01*
X151680334Y-78483185D01*
X152256785Y-78483185D01*
X152222524Y-78460744D01*
X152183693Y-78387902D01*
X152166308Y-78309846D01*
X152169848Y-78179039D01*
X152249238Y-78039668D01*
X152428688Y-77858368D01*
X152602283Y-77709048D01*
X152844611Y-77506753D01*
X153038097Y-77345063D01*
X153143862Y-77256467D01*
X153147694Y-77253236D01*
X153154098Y-77150023D01*
X153090829Y-76955010D01*
X153035893Y-76836749D01*
X152915042Y-76620824D01*
X152807728Y-76522696D01*
X152657602Y-76505922D01*
X152542200Y-76517460D01*
X152269817Y-76573126D01*
X151949590Y-76668973D01*
X151828098Y-76713529D01*
X151425528Y-76871823D01*
X151049454Y-76495749D01*
X151248005Y-75912542D01*
X151341316Y-75613784D01*
X151401197Y-75372903D01*
X151415785Y-75238321D01*
X151414494Y-75233146D01*
X151327556Y-75135683D01*
X151143796Y-74998455D01*
X151034491Y-74929470D01*
X150686552Y-74721985D01*
X150239316Y-75236183D01*
X150009227Y-75492914D01*
X149849242Y-75641523D01*
X149723197Y-75705722D01*
X149594928Y-75709226D01*
X149533915Y-75698749D01*
X149371518Y-75657216D01*
X149262582Y-75587559D01*
X149186458Y-75454584D01*
X149122498Y-75223095D01*
X149054529Y-74881636D01*
X148943839Y-74295000D01*
X148068505Y-74295000D01*
X147923639Y-74969143D01*
D11*
G36*
X152100280Y-59618880D02*
G01*
X152036780Y-59585860D01*
X151897080Y-59496960D01*
X151696420Y-59367420D01*
X151460200Y-59207400D01*
X151221440Y-59047380D01*
X151025860Y-58915300D01*
X150888700Y-58828940D01*
X150832820Y-58795920D01*
X150802340Y-58806080D01*
X150688040Y-58861960D01*
X150525480Y-58948320D01*
X150428960Y-58996580D01*
X150279100Y-59062620D01*
X150205440Y-59075320D01*
X150192740Y-59055000D01*
X150136860Y-58938160D01*
X150050500Y-58742580D01*
X149936200Y-58480960D01*
X149806660Y-58178700D01*
X149669500Y-57848500D01*
X149529800Y-57513220D01*
X149397720Y-57195720D01*
X149278340Y-56908700D01*
X149184360Y-56675020D01*
X149123400Y-56512460D01*
X149100540Y-56441340D01*
X149108160Y-56426100D01*
X149181820Y-56354980D01*
X149313900Y-56255920D01*
X149598380Y-56024780D01*
X149877780Y-55674260D01*
X150047960Y-55278020D01*
X150106380Y-54836060D01*
X150058120Y-54427120D01*
X149895560Y-54033420D01*
X149621240Y-53680360D01*
X149288500Y-53416200D01*
X148899880Y-53251100D01*
X148463000Y-53195220D01*
X148043900Y-53243480D01*
X147642580Y-53400960D01*
X147289520Y-53670200D01*
X147139660Y-53842920D01*
X146933920Y-54201060D01*
X146817080Y-54587140D01*
X146804380Y-54683660D01*
X146822160Y-55105300D01*
X146946620Y-55509160D01*
X147167600Y-55869840D01*
X147477480Y-56167020D01*
X147515580Y-56194960D01*
X147660360Y-56301640D01*
X147754340Y-56375300D01*
X147830540Y-56436260D01*
X147294600Y-57729120D01*
X147208240Y-57934860D01*
X147060920Y-58285380D01*
X146931380Y-58590180D01*
X146827240Y-58834020D01*
X146756120Y-58994040D01*
X146725640Y-59060080D01*
X146720560Y-59062620D01*
X146674840Y-59070240D01*
X146575780Y-59034680D01*
X146395440Y-58948320D01*
X146276060Y-58887360D01*
X146138900Y-58821320D01*
X146077940Y-58795920D01*
X146024600Y-58823860D01*
X145892520Y-58910220D01*
X145702020Y-59039760D01*
X145470880Y-59194700D01*
X145249900Y-59344560D01*
X145046700Y-59479180D01*
X144899380Y-59573160D01*
X144828260Y-59611260D01*
X144818100Y-59611260D01*
X144754600Y-59575700D01*
X144637760Y-59479180D01*
X144462500Y-59311540D01*
X144213580Y-59067700D01*
X144175480Y-59029600D01*
X143969740Y-58821320D01*
X143804640Y-58646060D01*
X143692880Y-58521600D01*
X143652240Y-58465720D01*
X143690340Y-58394600D01*
X143781780Y-58247280D01*
X143916400Y-58044080D01*
X144078960Y-57802780D01*
X144508220Y-57183020D01*
X144272000Y-56596280D01*
X144200880Y-56415940D01*
X144109440Y-56197500D01*
X144040860Y-56042560D01*
X144005300Y-55973980D01*
X143941800Y-55951120D01*
X143781780Y-55913020D01*
X143548100Y-55864760D01*
X143271240Y-55813960D01*
X143007080Y-55765700D01*
X142768320Y-55719980D01*
X142595600Y-55686960D01*
X142516860Y-55671720D01*
X142499080Y-55659020D01*
X142483840Y-55620920D01*
X142473680Y-55539640D01*
X142468600Y-55394860D01*
X142463520Y-55166260D01*
X142463520Y-54836060D01*
X142463520Y-54800500D01*
X142468600Y-54485540D01*
X142473680Y-54234080D01*
X142481300Y-54068980D01*
X142494000Y-54002940D01*
X142567660Y-53985160D01*
X142737840Y-53949600D01*
X142976600Y-53901340D01*
X143261080Y-53848000D01*
X143278860Y-53845460D01*
X143563340Y-53789580D01*
X143799560Y-53741320D01*
X143967200Y-53703220D01*
X144035780Y-53680360D01*
X144051020Y-53660040D01*
X144109440Y-53548280D01*
X144190720Y-53373020D01*
X144284700Y-53159660D01*
X144376140Y-52936140D01*
X144457420Y-52735480D01*
X144510760Y-52585620D01*
X144526000Y-52517040D01*
X144482820Y-52448460D01*
X144386300Y-52301140D01*
X144246600Y-52097940D01*
X144081500Y-51856640D01*
X144068800Y-51836320D01*
X143906240Y-51597560D01*
X143774160Y-51394360D01*
X143685260Y-51249580D01*
X143652240Y-51186080D01*
X143652240Y-51181000D01*
X143708120Y-51109880D01*
X143830040Y-50972720D01*
X144005300Y-50789840D01*
X144213580Y-50579020D01*
X144282160Y-50512980D01*
X144513300Y-50284380D01*
X144675860Y-50137060D01*
X144777460Y-50055780D01*
X144825720Y-50038000D01*
X144828260Y-50040540D01*
X144899380Y-50083720D01*
X145051780Y-50182780D01*
X145257520Y-50322480D01*
X145501360Y-50487580D01*
X145516600Y-50497740D01*
X145757900Y-50660300D01*
X145956020Y-50797460D01*
X146098260Y-50891440D01*
X146161760Y-50927000D01*
X146171920Y-50927000D01*
X146268440Y-50899060D01*
X146438620Y-50840640D01*
X146649440Y-50759360D01*
X146870420Y-50670460D01*
X147073620Y-50584100D01*
X147223480Y-50515520D01*
X147294600Y-50474880D01*
X147297140Y-50472340D01*
X147322540Y-50385980D01*
X147363180Y-50205640D01*
X147416520Y-49959260D01*
X147469860Y-49664620D01*
X147480020Y-49618900D01*
X147533360Y-49331880D01*
X147579080Y-49095660D01*
X147614640Y-48933100D01*
X147629880Y-48864520D01*
X147670520Y-48856900D01*
X147810220Y-48846740D01*
X148023580Y-48839120D01*
X148282660Y-48836580D01*
X148554440Y-48839120D01*
X148818600Y-48844200D01*
X149044660Y-48851820D01*
X149207220Y-48864520D01*
X149275800Y-48877220D01*
X149278340Y-48882300D01*
X149301200Y-48971200D01*
X149341840Y-49149000D01*
X149392640Y-49397920D01*
X149448520Y-49692560D01*
X149458680Y-49745900D01*
X149512020Y-50030380D01*
X149560280Y-50264060D01*
X149595840Y-50424080D01*
X149613620Y-50487580D01*
X149639020Y-50500280D01*
X149755860Y-50553620D01*
X149946360Y-50632360D01*
X150185120Y-50728880D01*
X150733760Y-50949860D01*
X151406860Y-50487580D01*
X151467820Y-50446940D01*
X151711660Y-50281840D01*
X151909780Y-50149760D01*
X152049480Y-50060860D01*
X152105360Y-50027840D01*
X152110440Y-50030380D01*
X152179020Y-50088800D01*
X152311100Y-50213260D01*
X152493980Y-50391060D01*
X152704800Y-50601880D01*
X152862280Y-50759360D01*
X153047700Y-50947320D01*
X153164540Y-51074320D01*
X153230580Y-51155600D01*
X153253440Y-51206400D01*
X153245820Y-51239420D01*
X153202640Y-51308000D01*
X153103580Y-51455320D01*
X152966420Y-51661060D01*
X152801320Y-51897280D01*
X152666700Y-52097940D01*
X152519380Y-52324000D01*
X152425400Y-52484020D01*
X152392380Y-52562760D01*
X152400000Y-52595780D01*
X152448260Y-52727860D01*
X152527000Y-52928520D01*
X152628600Y-53164740D01*
X152862280Y-53698140D01*
X153212800Y-53764180D01*
X153423620Y-53804820D01*
X153720800Y-53863240D01*
X154005280Y-53916580D01*
X154447240Y-54002940D01*
X154462480Y-55628540D01*
X154393900Y-55659020D01*
X154327860Y-55676800D01*
X154165300Y-55712360D01*
X153931620Y-55758080D01*
X153654760Y-55811420D01*
X153418540Y-55854600D01*
X153182320Y-55900320D01*
X153012140Y-55933340D01*
X152935940Y-55948580D01*
X152918160Y-55973980D01*
X152857200Y-56090820D01*
X152773380Y-56271160D01*
X152679400Y-56492140D01*
X152585420Y-56718200D01*
X152501600Y-56929020D01*
X152443180Y-57089040D01*
X152420320Y-57172860D01*
X152453340Y-57233820D01*
X152542240Y-57373520D01*
X152674320Y-57571640D01*
X152834340Y-57807860D01*
X152996900Y-58044080D01*
X153131520Y-58244740D01*
X153228040Y-58389520D01*
X153266140Y-58455560D01*
X153245820Y-58501280D01*
X153151840Y-58615580D01*
X152974040Y-58798460D01*
X152709880Y-59060080D01*
X152666700Y-59103260D01*
X152455880Y-59303920D01*
X152278080Y-59469020D01*
X152156160Y-59578240D01*
X152100280Y-59618880D01*
G37*
X152100280Y-59618880D02*
X152036780Y-59585860D01*
X151897080Y-59496960D01*
X151696420Y-59367420D01*
X151460200Y-59207400D01*
X151221440Y-59047380D01*
X151025860Y-58915300D01*
X150888700Y-58828940D01*
X150832820Y-58795920D01*
X150802340Y-58806080D01*
X150688040Y-58861960D01*
X150525480Y-58948320D01*
X150428960Y-58996580D01*
X150279100Y-59062620D01*
X150205440Y-59075320D01*
X150192740Y-59055000D01*
X150136860Y-58938160D01*
X150050500Y-58742580D01*
X149936200Y-58480960D01*
X149806660Y-58178700D01*
X149669500Y-57848500D01*
X149529800Y-57513220D01*
X149397720Y-57195720D01*
X149278340Y-56908700D01*
X149184360Y-56675020D01*
X149123400Y-56512460D01*
X149100540Y-56441340D01*
X149108160Y-56426100D01*
X149181820Y-56354980D01*
X149313900Y-56255920D01*
X149598380Y-56024780D01*
X149877780Y-55674260D01*
X150047960Y-55278020D01*
X150106380Y-54836060D01*
X150058120Y-54427120D01*
X149895560Y-54033420D01*
X149621240Y-53680360D01*
X149288500Y-53416200D01*
X148899880Y-53251100D01*
X148463000Y-53195220D01*
X148043900Y-53243480D01*
X147642580Y-53400960D01*
X147289520Y-53670200D01*
X147139660Y-53842920D01*
X146933920Y-54201060D01*
X146817080Y-54587140D01*
X146804380Y-54683660D01*
X146822160Y-55105300D01*
X146946620Y-55509160D01*
X147167600Y-55869840D01*
X147477480Y-56167020D01*
X147515580Y-56194960D01*
X147660360Y-56301640D01*
X147754340Y-56375300D01*
X147830540Y-56436260D01*
X147294600Y-57729120D01*
X147208240Y-57934860D01*
X147060920Y-58285380D01*
X146931380Y-58590180D01*
X146827240Y-58834020D01*
X146756120Y-58994040D01*
X146725640Y-59060080D01*
X146720560Y-59062620D01*
X146674840Y-59070240D01*
X146575780Y-59034680D01*
X146395440Y-58948320D01*
X146276060Y-58887360D01*
X146138900Y-58821320D01*
X146077940Y-58795920D01*
X146024600Y-58823860D01*
X145892520Y-58910220D01*
X145702020Y-59039760D01*
X145470880Y-59194700D01*
X145249900Y-59344560D01*
X145046700Y-59479180D01*
X144899380Y-59573160D01*
X144828260Y-59611260D01*
X144818100Y-59611260D01*
X144754600Y-59575700D01*
X144637760Y-59479180D01*
X144462500Y-59311540D01*
X144213580Y-59067700D01*
X144175480Y-59029600D01*
X143969740Y-58821320D01*
X143804640Y-58646060D01*
X143692880Y-58521600D01*
X143652240Y-58465720D01*
X143690340Y-58394600D01*
X143781780Y-58247280D01*
X143916400Y-58044080D01*
X144078960Y-57802780D01*
X144508220Y-57183020D01*
X144272000Y-56596280D01*
X144200880Y-56415940D01*
X144109440Y-56197500D01*
X144040860Y-56042560D01*
X144005300Y-55973980D01*
X143941800Y-55951120D01*
X143781780Y-55913020D01*
X143548100Y-55864760D01*
X143271240Y-55813960D01*
X143007080Y-55765700D01*
X142768320Y-55719980D01*
X142595600Y-55686960D01*
X142516860Y-55671720D01*
X142499080Y-55659020D01*
X142483840Y-55620920D01*
X142473680Y-55539640D01*
X142468600Y-55394860D01*
X142463520Y-55166260D01*
X142463520Y-54836060D01*
X142463520Y-54800500D01*
X142468600Y-54485540D01*
X142473680Y-54234080D01*
X142481300Y-54068980D01*
X142494000Y-54002940D01*
X142567660Y-53985160D01*
X142737840Y-53949600D01*
X142976600Y-53901340D01*
X143261080Y-53848000D01*
X143278860Y-53845460D01*
X143563340Y-53789580D01*
X143799560Y-53741320D01*
X143967200Y-53703220D01*
X144035780Y-53680360D01*
X144051020Y-53660040D01*
X144109440Y-53548280D01*
X144190720Y-53373020D01*
X144284700Y-53159660D01*
X144376140Y-52936140D01*
X144457420Y-52735480D01*
X144510760Y-52585620D01*
X144526000Y-52517040D01*
X144482820Y-52448460D01*
X144386300Y-52301140D01*
X144246600Y-52097940D01*
X144081500Y-51856640D01*
X144068800Y-51836320D01*
X143906240Y-51597560D01*
X143774160Y-51394360D01*
X143685260Y-51249580D01*
X143652240Y-51186080D01*
X143652240Y-51181000D01*
X143708120Y-51109880D01*
X143830040Y-50972720D01*
X144005300Y-50789840D01*
X144213580Y-50579020D01*
X144282160Y-50512980D01*
X144513300Y-50284380D01*
X144675860Y-50137060D01*
X144777460Y-50055780D01*
X144825720Y-50038000D01*
X144828260Y-50040540D01*
X144899380Y-50083720D01*
X145051780Y-50182780D01*
X145257520Y-50322480D01*
X145501360Y-50487580D01*
X145516600Y-50497740D01*
X145757900Y-50660300D01*
X145956020Y-50797460D01*
X146098260Y-50891440D01*
X146161760Y-50927000D01*
X146171920Y-50927000D01*
X146268440Y-50899060D01*
X146438620Y-50840640D01*
X146649440Y-50759360D01*
X146870420Y-50670460D01*
X147073620Y-50584100D01*
X147223480Y-50515520D01*
X147294600Y-50474880D01*
X147297140Y-50472340D01*
X147322540Y-50385980D01*
X147363180Y-50205640D01*
X147416520Y-49959260D01*
X147469860Y-49664620D01*
X147480020Y-49618900D01*
X147533360Y-49331880D01*
X147579080Y-49095660D01*
X147614640Y-48933100D01*
X147629880Y-48864520D01*
X147670520Y-48856900D01*
X147810220Y-48846740D01*
X148023580Y-48839120D01*
X148282660Y-48836580D01*
X148554440Y-48839120D01*
X148818600Y-48844200D01*
X149044660Y-48851820D01*
X149207220Y-48864520D01*
X149275800Y-48877220D01*
X149278340Y-48882300D01*
X149301200Y-48971200D01*
X149341840Y-49149000D01*
X149392640Y-49397920D01*
X149448520Y-49692560D01*
X149458680Y-49745900D01*
X149512020Y-50030380D01*
X149560280Y-50264060D01*
X149595840Y-50424080D01*
X149613620Y-50487580D01*
X149639020Y-50500280D01*
X149755860Y-50553620D01*
X149946360Y-50632360D01*
X150185120Y-50728880D01*
X150733760Y-50949860D01*
X151406860Y-50487580D01*
X151467820Y-50446940D01*
X151711660Y-50281840D01*
X151909780Y-50149760D01*
X152049480Y-50060860D01*
X152105360Y-50027840D01*
X152110440Y-50030380D01*
X152179020Y-50088800D01*
X152311100Y-50213260D01*
X152493980Y-50391060D01*
X152704800Y-50601880D01*
X152862280Y-50759360D01*
X153047700Y-50947320D01*
X153164540Y-51074320D01*
X153230580Y-51155600D01*
X153253440Y-51206400D01*
X153245820Y-51239420D01*
X153202640Y-51308000D01*
X153103580Y-51455320D01*
X152966420Y-51661060D01*
X152801320Y-51897280D01*
X152666700Y-52097940D01*
X152519380Y-52324000D01*
X152425400Y-52484020D01*
X152392380Y-52562760D01*
X152400000Y-52595780D01*
X152448260Y-52727860D01*
X152527000Y-52928520D01*
X152628600Y-53164740D01*
X152862280Y-53698140D01*
X153212800Y-53764180D01*
X153423620Y-53804820D01*
X153720800Y-53863240D01*
X154005280Y-53916580D01*
X154447240Y-54002940D01*
X154462480Y-55628540D01*
X154393900Y-55659020D01*
X154327860Y-55676800D01*
X154165300Y-55712360D01*
X153931620Y-55758080D01*
X153654760Y-55811420D01*
X153418540Y-55854600D01*
X153182320Y-55900320D01*
X153012140Y-55933340D01*
X152935940Y-55948580D01*
X152918160Y-55973980D01*
X152857200Y-56090820D01*
X152773380Y-56271160D01*
X152679400Y-56492140D01*
X152585420Y-56718200D01*
X152501600Y-56929020D01*
X152443180Y-57089040D01*
X152420320Y-57172860D01*
X152453340Y-57233820D01*
X152542240Y-57373520D01*
X152674320Y-57571640D01*
X152834340Y-57807860D01*
X152996900Y-58044080D01*
X153131520Y-58244740D01*
X153228040Y-58389520D01*
X153266140Y-58455560D01*
X153245820Y-58501280D01*
X153151840Y-58615580D01*
X152974040Y-58798460D01*
X152709880Y-59060080D01*
X152666700Y-59103260D01*
X152455880Y-59303920D01*
X152278080Y-59469020D01*
X152156160Y-59578240D01*
X152100280Y-59618880D01*
D12*
X153773000Y-60479000D02*
X153823000Y-60629000D01*
X153713000Y-60399000D02*
X153773000Y-60479000D01*
X153633000Y-60339000D02*
X153713000Y-60399000D01*
X153483000Y-60339000D02*
X153633000Y-60339000D01*
X153393000Y-60409000D02*
X153483000Y-60339000D01*
X153343000Y-60479000D02*
X153393000Y-60409000D01*
X153293000Y-60639000D02*
X153343000Y-60479000D01*
X153293000Y-61049000D02*
X153293000Y-60639000D01*
X153343000Y-61189000D02*
X153293000Y-61049000D01*
X153383000Y-61259000D02*
X153343000Y-61189000D01*
X153483000Y-61339000D02*
X153383000Y-61259000D01*
X153623000Y-61339000D02*
X153483000Y-61339000D01*
X153723000Y-61269000D02*
X153623000Y-61339000D01*
X153773000Y-61179000D02*
X153723000Y-61269000D01*
X153823000Y-61039000D02*
X153773000Y-61179000D01*
X153823000Y-60629000D02*
X153823000Y-61039000D01*
X152863000Y-61259000D02*
X152763000Y-61329000D01*
X152583000Y-61329000D02*
X152483000Y-61249000D01*
X152483000Y-61249000D02*
X152443000Y-61179000D01*
X152443000Y-61179000D02*
X152393000Y-61039000D01*
X152393000Y-61039000D02*
X152393000Y-60629000D01*
X152393000Y-60629000D02*
X152443000Y-60469000D01*
X152443000Y-60469000D02*
X152493000Y-60399000D01*
X152493000Y-60399000D02*
X152583000Y-60329000D01*
X152763000Y-60329000D02*
X152843000Y-60389000D01*
X152763000Y-61329000D02*
X152573000Y-61329000D01*
X152763000Y-60329000D02*
X152583000Y-60329000D01*
X152873000Y-60329000D02*
X152873000Y-61839000D01*
X151683000Y-61339000D02*
X151583000Y-61269000D01*
X151863000Y-61339000D02*
X151683000Y-61339000D01*
X151963000Y-61269000D02*
X151863000Y-61339000D01*
X152013000Y-61129000D02*
X151963000Y-61269000D01*
X152013000Y-60549000D02*
X152013000Y-61129000D01*
X151953000Y-60399000D02*
X152013000Y-60549000D01*
X151853000Y-60329000D02*
X151953000Y-60399000D01*
X151683000Y-60329000D02*
X151853000Y-60329000D01*
X151583000Y-60419000D02*
X151683000Y-60329000D01*
X151533000Y-60549000D02*
X151583000Y-60419000D01*
X151533000Y-60819000D02*
X151533000Y-60549000D01*
X152013000Y-60819000D02*
X151533000Y-60819000D01*
X151103000Y-60339000D02*
X151103000Y-61339000D01*
X151043000Y-60399000D02*
X151103000Y-60469000D01*
X150963000Y-60339000D02*
X151043000Y-60399000D01*
X150823000Y-60339000D02*
X150963000Y-60339000D01*
X150723000Y-60409000D02*
X150823000Y-60339000D01*
X150673000Y-60559000D02*
X150723000Y-60409000D01*
X150673000Y-61339000D02*
X150673000Y-60559000D01*
X149013000Y-61339000D02*
X149013000Y-60559000D01*
X149013000Y-60559000D02*
X149063000Y-60409000D01*
X149063000Y-60409000D02*
X149163000Y-60339000D01*
X149163000Y-60339000D02*
X149303000Y-60339000D01*
X149303000Y-60339000D02*
X149383000Y-60399000D01*
X149383000Y-60399000D02*
X149443000Y-60469000D01*
X149443000Y-61339000D02*
X149443000Y-59839000D01*
X148103000Y-60549000D02*
X148103000Y-61339000D01*
X148163000Y-60399000D02*
X148103000Y-60549000D01*
X148253000Y-60329000D02*
X148163000Y-60399000D01*
X148433000Y-60329000D02*
X148253000Y-60329000D01*
X148543000Y-60409000D02*
X148433000Y-60329000D01*
X148583000Y-61109000D02*
X148543000Y-61249000D01*
X148583000Y-60979000D02*
X148583000Y-61109000D01*
X148533000Y-60839000D02*
X148583000Y-60979000D01*
X148433000Y-60759000D02*
X148533000Y-60839000D01*
X148193000Y-60759000D02*
X148433000Y-60759000D01*
X148103000Y-60689000D02*
X148193000Y-60759000D01*
X148203000Y-61339000D02*
X148103000Y-61259000D01*
X148433000Y-61339000D02*
X148203000Y-61339000D01*
X148543000Y-61249000D02*
X148433000Y-61339000D01*
X145063000Y-61249000D02*
X144953000Y-61339000D01*
X144953000Y-61339000D02*
X144723000Y-61339000D01*
X144723000Y-61339000D02*
X144623000Y-61259000D01*
X144623000Y-60689000D02*
X144713000Y-60759000D01*
X144713000Y-60759000D02*
X144953000Y-60759000D01*
X144953000Y-60759000D02*
X145053000Y-60839000D01*
X145053000Y-60839000D02*
X145103000Y-60979000D01*
X145103000Y-60979000D02*
X145103000Y-61109000D01*
X145103000Y-61109000D02*
X145063000Y-61249000D01*
X145063000Y-60409000D02*
X144953000Y-60329000D01*
X144953000Y-60329000D02*
X144773000Y-60329000D01*
X144773000Y-60329000D02*
X144683000Y-60399000D01*
X144683000Y-60399000D02*
X144623000Y-60549000D01*
X144623000Y-60549000D02*
X144623000Y-61339000D01*
X147633000Y-60339000D02*
X147633000Y-61339000D01*
X147583000Y-60479000D02*
X147633000Y-60649000D01*
X147543000Y-60419000D02*
X147583000Y-60479000D01*
X147443000Y-60339000D02*
X147543000Y-60419000D01*
X147333000Y-60339000D02*
X147443000Y-60339000D01*
X146583000Y-59839000D02*
X146583000Y-61339000D01*
X146683000Y-60339000D02*
X146583000Y-60419000D01*
X146863000Y-60339000D02*
X146683000Y-60339000D01*
X146943000Y-60389000D02*
X146863000Y-60339000D01*
X147013000Y-60479000D02*
X146943000Y-60389000D01*
X147063000Y-60629000D02*
X147013000Y-60479000D01*
X147063000Y-61049000D02*
X147063000Y-60629000D01*
X147003000Y-61209000D02*
X147063000Y-61049000D01*
X146933000Y-61289000D02*
X147003000Y-61209000D01*
X146863000Y-61339000D02*
X146933000Y-61289000D01*
X146673000Y-61339000D02*
X146863000Y-61339000D01*
X146583000Y-61259000D02*
X146673000Y-61339000D01*
X145633000Y-61339000D02*
X145433000Y-60329000D01*
X145823000Y-60619000D02*
X145633000Y-61339000D01*
X146013000Y-61339000D02*
X145823000Y-60619000D01*
X146203000Y-60329000D02*
X146013000Y-61339000D01*
X143853000Y-60339000D02*
X143963000Y-60339000D01*
X143963000Y-60339000D02*
X144063000Y-60419000D01*
X144063000Y-60419000D02*
X144103000Y-60479000D01*
X144103000Y-60479000D02*
X144153000Y-60649000D01*
X144153000Y-60339000D02*
X144153000Y-61339000D01*
X143583000Y-60819000D02*
X143103000Y-60819000D01*
X143103000Y-60819000D02*
X143103000Y-60549000D01*
X143103000Y-60549000D02*
X143153000Y-60419000D01*
X143153000Y-60419000D02*
X143253000Y-60329000D01*
X143253000Y-60329000D02*
X143423000Y-60329000D01*
X143423000Y-60329000D02*
X143523000Y-60399000D01*
X143523000Y-60399000D02*
X143583000Y-60549000D01*
X143583000Y-60549000D02*
X143583000Y-61129000D01*
X143583000Y-61129000D02*
X143533000Y-61269000D01*
X143533000Y-61269000D02*
X143433000Y-61339000D01*
X143433000Y-61339000D02*
X143253000Y-61339000D01*
X143253000Y-61339000D02*
X143153000Y-61269000D01*
D13*
%TO.C,J9*%
X174000000Y-117000000D02*
X174000000Y-123000000D01*
X171000000Y-120000000D02*
X177000000Y-120000000D01*
X177000000Y-120000000D02*
G75*
G03*
X177000000Y-120000000I-3000000J0D01*
G01*
%TO.C,J8*%
X125000000Y-117000000D02*
X125000000Y-123000000D01*
X122000000Y-120000000D02*
X128000000Y-120000000D01*
X128000000Y-120000000D02*
G75*
G03*
X128000000Y-120000000I-3000000J0D01*
G01*
%TO.C,J7*%
X125000000Y-59000000D02*
X125000000Y-65000000D01*
X122000000Y-62000000D02*
X128000000Y-62000000D01*
X128000000Y-62000000D02*
G75*
G03*
X128000000Y-62000000I-3000000J0D01*
G01*
%TO.C,J6*%
X174000000Y-59000000D02*
X174000000Y-65000000D01*
X171000000Y-62000000D02*
X177000000Y-62000000D01*
X177000000Y-62000000D02*
G75*
G03*
X177000000Y-62000000I-3000000J0D01*
G01*
%TD*%
M02*
