%TF.GenerationSoftware,KiCad,Pcbnew,5.1.10-88a1d61d58~90~ubuntu20.04.1*%
%TF.CreationDate,2021-09-14T14:42:45-03:00*%
%TF.ProjectId,IAuto,49417574-6f2e-46b6-9963-61645f706362,rev?*%
%TF.SameCoordinates,Original*%
%TF.FileFunction,Legend,Top*%
%TF.FilePolarity,Positive*%
%FSLAX46Y46*%
G04 Gerber Fmt 4.6, Leading zero omitted, Abs format (unit mm)*
G04 Created by KiCad (PCBNEW 5.1.10-88a1d61d58~90~ubuntu20.04.1) date 2021-09-14 14:42:45*
%MOMM*%
%LPD*%
G01*
G04 APERTURE LIST*
%ADD10C,0.381000*%
%ADD11C,0.120000*%
%ADD12C,0.200000*%
%ADD13C,0.304800*%
%ADD14C,0.127000*%
%ADD15C,0.099060*%
%ADD16C,0.150000*%
%ADD17C,0.100000*%
%ADD18C,0.254000*%
%ADD19C,0.149860*%
%ADD20C,0.060960*%
G04 APERTURE END LIST*
D10*
%TO.C,U1*%
X145702000Y-89067000D02*
X153322000Y-89067000D01*
X145702000Y-91607000D02*
X153322000Y-91607000D01*
X145702000Y-94147000D02*
X145702000Y-89067000D01*
X153322000Y-89067000D02*
X153322000Y-94147000D01*
X148242000Y-89067000D02*
X148242000Y-94147000D01*
X150782000Y-89067000D02*
X150782000Y-94147000D01*
X135542000Y-94147000D02*
X163482000Y-94147000D01*
X163482000Y-94147000D02*
X163482000Y-39283000D01*
X163482000Y-39283000D02*
X135542000Y-39283000D01*
X135542000Y-39283000D02*
X135542000Y-94147000D01*
X138590000Y-92369000D02*
G75*
G03*
X138590000Y-92369000I-1270000J0D01*
G01*
X162974000Y-92369000D02*
G75*
G03*
X162974000Y-92369000I-1270000J0D01*
G01*
X162974000Y-41061000D02*
G75*
G03*
X162974000Y-41061000I-1270000J0D01*
G01*
X138590000Y-41061000D02*
G75*
G03*
X138590000Y-41061000I-1270000J0D01*
G01*
X135542000Y-90845000D02*
X138082000Y-90845000D01*
X138082000Y-90845000D02*
X138082000Y-42585000D01*
D11*
X138082000Y-42839000D02*
X138082000Y-42585000D01*
D10*
X138082000Y-42585000D02*
X135542000Y-42585000D01*
X163482000Y-42585000D02*
X158402000Y-42585000D01*
X158402000Y-42585000D02*
X158402000Y-90845000D01*
X158402000Y-90845000D02*
X163482000Y-90845000D01*
D12*
%TO.C,J4*%
X131700000Y-57000000D02*
X122500000Y-57000000D01*
X122500000Y-57000000D02*
X122500000Y-39600000D01*
X122500000Y-39600000D02*
X134000000Y-39600000D01*
D13*
%TO.C,P2*%
X168275000Y-85852000D02*
X168275000Y-70612000D01*
X170815000Y-83312000D02*
X173355000Y-83312000D01*
X170815000Y-85852000D02*
X170815000Y-70612000D01*
X170815000Y-70612000D02*
X173355000Y-70612000D01*
X168275000Y-70612000D02*
X170815000Y-70612000D01*
X170815000Y-70612000D02*
X170815000Y-85852000D01*
X170815000Y-85852000D02*
X168275000Y-85852000D01*
X173355000Y-85852000D02*
X170815000Y-85852000D01*
X173355000Y-70612000D02*
X173355000Y-85852000D01*
D14*
%TO.C,Q3*%
X143659600Y-56122000D02*
X140662400Y-56122000D01*
X140662400Y-56122000D02*
X140662400Y-55322000D01*
X140662400Y-55322000D02*
X143659600Y-55322000D01*
X143662400Y-55322000D02*
X143662400Y-56122000D01*
D15*
%TO.C,R17*%
X142670400Y-51975500D02*
X143686400Y-51975500D01*
X143686400Y-51975500D02*
X143686400Y-53626500D01*
X143686400Y-53626500D02*
X142670400Y-53626500D01*
X141654400Y-53626500D02*
X140574900Y-53626500D01*
X140574900Y-53626500D02*
X140574900Y-51975500D01*
X140574900Y-51975500D02*
X141654400Y-51975500D01*
%TO.C,R19*%
X142670400Y-57817500D02*
X143686400Y-57817500D01*
X143686400Y-57817500D02*
X143686400Y-59468500D01*
X143686400Y-59468500D02*
X142670400Y-59468500D01*
X141654400Y-59468500D02*
X140574900Y-59468500D01*
X140574900Y-59468500D02*
X140574900Y-57817500D01*
X140574900Y-57817500D02*
X141654400Y-57817500D01*
D11*
%TO.C,J1*%
X178200000Y-107200000D02*
X164300000Y-107200000D01*
X164300000Y-107200000D02*
X164300000Y-116200000D01*
X164300000Y-116200000D02*
X178200000Y-116200000D01*
D15*
%TO.C,R29*%
X155460700Y-75603100D02*
X154381200Y-75603100D01*
X155460700Y-73952100D02*
X155460700Y-75603100D01*
X154381200Y-73952100D02*
X155460700Y-73952100D01*
X152349200Y-73952100D02*
X153365200Y-73952100D01*
X152349200Y-75603100D02*
X152349200Y-73952100D01*
X153365200Y-75603100D02*
X152349200Y-75603100D01*
%TO.C,R28*%
X141787500Y-69974500D02*
X142867000Y-69974500D01*
X141787500Y-71625500D02*
X141787500Y-69974500D01*
X142867000Y-71625500D02*
X141787500Y-71625500D01*
X144899000Y-71625500D02*
X143883000Y-71625500D01*
X144899000Y-69974500D02*
X144899000Y-71625500D01*
X143883000Y-69974500D02*
X144899000Y-69974500D01*
%TO.C,R27*%
X155462500Y-72525500D02*
X154383000Y-72525500D01*
X155462500Y-70874500D02*
X155462500Y-72525500D01*
X154383000Y-70874500D02*
X155462500Y-70874500D01*
X152351000Y-70874500D02*
X153367000Y-70874500D01*
X152351000Y-72525500D02*
X152351000Y-70874500D01*
X153367000Y-72525500D02*
X152351000Y-72525500D01*
%TO.C,R26*%
X141787500Y-71924500D02*
X142867000Y-71924500D01*
X141787500Y-73575500D02*
X141787500Y-71924500D01*
X142867000Y-73575500D02*
X141787500Y-73575500D01*
X144899000Y-73575500D02*
X143883000Y-73575500D01*
X144899000Y-71924500D02*
X144899000Y-73575500D01*
X143883000Y-71924500D02*
X144899000Y-71924500D01*
D16*
%TO.C,C8*%
X151754000Y-78113000D02*
X150754000Y-78113000D01*
X151754000Y-80613000D02*
X150754000Y-80613000D01*
X154754000Y-80613000D02*
X155754000Y-80613000D01*
X154754000Y-78113000D02*
X155754000Y-78113000D01*
D14*
X155754000Y-80613000D02*
X155754000Y-78113000D01*
X150754000Y-78113000D02*
X150754000Y-80613000D01*
D16*
%TO.C,C7*%
X132531800Y-107062400D02*
X132531800Y-108062400D01*
X135031800Y-107062400D02*
X135031800Y-108062400D01*
X135031800Y-104062400D02*
X135031800Y-103062400D01*
X132531800Y-104062400D02*
X132531800Y-103062400D01*
D14*
X135031800Y-103062400D02*
X132531800Y-103062400D01*
X132531800Y-108062400D02*
X135031800Y-108062400D01*
D16*
%TO.C,C2*%
X149928000Y-98647000D02*
X150928000Y-98647000D01*
X149928000Y-96147000D02*
X150928000Y-96147000D01*
X146928000Y-96147000D02*
X145928000Y-96147000D01*
X146928000Y-98647000D02*
X145928000Y-98647000D01*
D14*
X145928000Y-96147000D02*
X145928000Y-98647000D01*
X150928000Y-98647000D02*
X150928000Y-96147000D01*
D16*
%TO.C,C1*%
X154994000Y-113535000D02*
X155994000Y-113535000D01*
X154994000Y-111035000D02*
X155994000Y-111035000D01*
X151994000Y-111035000D02*
X150994000Y-111035000D01*
X151994000Y-113535000D02*
X150994000Y-113535000D01*
D14*
X150994000Y-111035000D02*
X150994000Y-113535000D01*
X155994000Y-113535000D02*
X155994000Y-111035000D01*
D12*
%TO.C,J5*%
X167300000Y-39600000D02*
X176500000Y-39600000D01*
X176500000Y-39600000D02*
X176500000Y-57000000D01*
X176500000Y-57000000D02*
X165000000Y-57000000D01*
%TO.C,U4*%
X145700000Y-65406000D02*
X150700000Y-65406000D01*
X150700000Y-65406000D02*
X150700000Y-69106000D01*
X145700000Y-69106000D02*
X145700000Y-65406000D01*
X151050000Y-63581000D02*
X151050000Y-65056000D01*
X150700000Y-69106000D02*
X145700000Y-69106000D01*
D17*
%TO.C,J3*%
X156600000Y-82209000D02*
X149400000Y-82209000D01*
X156600000Y-88709000D02*
X149500000Y-88709000D01*
%TO.C,J2*%
X136375600Y-101573000D02*
X136375600Y-108773000D01*
X142875600Y-101573000D02*
X142875600Y-108673000D01*
D12*
%TO.C,U3*%
X148010400Y-87572000D02*
X148010400Y-89097000D01*
%TO.C,U2*%
X143034000Y-110315000D02*
X144559000Y-110315000D01*
D16*
%TO.C,P1*%
X122180000Y-65320000D02*
X122180000Y-66870000D01*
X125000000Y-68140000D02*
X122460000Y-68140000D01*
X125000000Y-65600000D02*
X125000000Y-68140000D01*
X123730000Y-65320000D02*
X122180000Y-65320000D01*
X127540000Y-65600000D02*
X125000000Y-65600000D01*
X127540000Y-116400000D02*
X122460000Y-116400000D01*
X122460000Y-68140000D02*
X122460000Y-116400000D01*
X127540000Y-116400000D02*
X127540000Y-65600000D01*
D18*
%TO.C,J9*%
X177000000Y-120000000D02*
G75*
G03*
X177000000Y-120000000I-3000000J0D01*
G01*
X171000000Y-120000000D02*
X177000000Y-120000000D01*
X174000000Y-117000000D02*
X174000000Y-123000000D01*
%TO.C,J8*%
X128000000Y-120000000D02*
G75*
G03*
X128000000Y-120000000I-3000000J0D01*
G01*
X122000000Y-120000000D02*
X128000000Y-120000000D01*
X125000000Y-117000000D02*
X125000000Y-123000000D01*
%TO.C,J7*%
X128000000Y-62000000D02*
G75*
G03*
X128000000Y-62000000I-3000000J0D01*
G01*
X122000000Y-62000000D02*
X128000000Y-62000000D01*
X125000000Y-59000000D02*
X125000000Y-65000000D01*
%TO.C,J6*%
X177000000Y-62000000D02*
G75*
G03*
X177000000Y-62000000I-3000000J0D01*
G01*
X171000000Y-62000000D02*
X177000000Y-62000000D01*
X174000000Y-59000000D02*
X174000000Y-65000000D01*
D15*
%TO.C,R25*%
X141278500Y-66875000D02*
X141278500Y-65859000D01*
X141278500Y-65859000D02*
X142929500Y-65859000D01*
X142929500Y-65859000D02*
X142929500Y-66875000D01*
X142929500Y-67891000D02*
X142929500Y-68970500D01*
X142929500Y-68970500D02*
X141278500Y-68970500D01*
X141278500Y-68970500D02*
X141278500Y-67891000D01*
%TO.C,R24*%
X143310500Y-66875000D02*
X143310500Y-65859000D01*
X143310500Y-65859000D02*
X144961500Y-65859000D01*
X144961500Y-65859000D02*
X144961500Y-66875000D01*
X144961500Y-67891000D02*
X144961500Y-68970500D01*
X144961500Y-68970500D02*
X143310500Y-68970500D01*
X143310500Y-68970500D02*
X143310500Y-67891000D01*
%TO.C,R23*%
X153654000Y-44917500D02*
X152638000Y-44917500D01*
X152638000Y-44917500D02*
X152638000Y-43266500D01*
X152638000Y-43266500D02*
X153654000Y-43266500D01*
X154670000Y-43266500D02*
X155749500Y-43266500D01*
X155749500Y-43266500D02*
X155749500Y-44917500D01*
X155749500Y-44917500D02*
X154670000Y-44917500D01*
%TO.C,R21*%
X153717500Y-50759500D02*
X152701500Y-50759500D01*
X152701500Y-50759500D02*
X152701500Y-49108500D01*
X152701500Y-49108500D02*
X153717500Y-49108500D01*
X154733500Y-49108500D02*
X155813000Y-49108500D01*
X155813000Y-49108500D02*
X155813000Y-50759500D01*
X155813000Y-50759500D02*
X154733500Y-50759500D01*
%TO.C,R15*%
X157092000Y-108825500D02*
X156076000Y-108825500D01*
X156076000Y-108825500D02*
X156076000Y-107174500D01*
X156076000Y-107174500D02*
X157092000Y-107174500D01*
X158108000Y-107174500D02*
X159187500Y-107174500D01*
X159187500Y-107174500D02*
X159187500Y-108825500D01*
X159187500Y-108825500D02*
X158108000Y-108825500D01*
%TO.C,R14*%
X142842000Y-81175500D02*
X141826000Y-81175500D01*
X141826000Y-81175500D02*
X141826000Y-79524500D01*
X141826000Y-79524500D02*
X142842000Y-79524500D01*
X143858000Y-79524500D02*
X144937500Y-79524500D01*
X144937500Y-79524500D02*
X144937500Y-81175500D01*
X144937500Y-81175500D02*
X143858000Y-81175500D01*
%TO.C,R13*%
X139651000Y-119587500D02*
X138635000Y-119587500D01*
X138635000Y-119587500D02*
X138635000Y-117936500D01*
X138635000Y-117936500D02*
X139651000Y-117936500D01*
X140667000Y-117936500D02*
X141746500Y-117936500D01*
X141746500Y-117936500D02*
X141746500Y-119587500D01*
X141746500Y-119587500D02*
X140667000Y-119587500D01*
%TO.C,R12*%
X139220500Y-84443000D02*
X139220500Y-83427000D01*
X139220500Y-83427000D02*
X140871500Y-83427000D01*
X140871500Y-83427000D02*
X140871500Y-84443000D01*
X140871500Y-85459000D02*
X140871500Y-86538500D01*
X140871500Y-86538500D02*
X139220500Y-86538500D01*
X139220500Y-86538500D02*
X139220500Y-85459000D01*
%TO.C,R11*%
X146572500Y-118254000D02*
X146572500Y-119270000D01*
X146572500Y-119270000D02*
X144921500Y-119270000D01*
X144921500Y-119270000D02*
X144921500Y-118254000D01*
X144921500Y-117238000D02*
X144921500Y-116158500D01*
X144921500Y-116158500D02*
X146572500Y-116158500D01*
X146572500Y-116158500D02*
X146572500Y-117238000D01*
%TO.C,R10*%
X139220500Y-87999000D02*
X139220500Y-86983000D01*
X139220500Y-86983000D02*
X140871500Y-86983000D01*
X140871500Y-86983000D02*
X140871500Y-87999000D01*
X140871500Y-89015000D02*
X140871500Y-90094500D01*
X140871500Y-90094500D02*
X139220500Y-90094500D01*
X139220500Y-90094500D02*
X139220500Y-89015000D01*
%TO.C,R9*%
X142889500Y-117238000D02*
X142889500Y-116222000D01*
X142889500Y-116222000D02*
X144540500Y-116222000D01*
X144540500Y-116222000D02*
X144540500Y-117238000D01*
X144540500Y-118254000D02*
X144540500Y-119333500D01*
X144540500Y-119333500D02*
X142889500Y-119333500D01*
X142889500Y-119333500D02*
X142889500Y-118254000D01*
%TO.C,R8*%
X144310100Y-95542100D02*
X145326100Y-95542100D01*
X145326100Y-95542100D02*
X145326100Y-97193100D01*
X145326100Y-97193100D02*
X144310100Y-97193100D01*
X143294100Y-97193100D02*
X142214600Y-97193100D01*
X142214600Y-97193100D02*
X142214600Y-95542100D01*
X142214600Y-95542100D02*
X143294100Y-95542100D01*
%TO.C,R7*%
X152986000Y-115777500D02*
X151970000Y-115777500D01*
X151970000Y-115777500D02*
X151970000Y-114126500D01*
X151970000Y-114126500D02*
X152986000Y-114126500D01*
X154002000Y-114126500D02*
X155081500Y-114126500D01*
X155081500Y-114126500D02*
X155081500Y-115777500D01*
X155081500Y-115777500D02*
X154002000Y-115777500D01*
%TO.C,R6*%
X147475500Y-85059000D02*
X147475500Y-86075000D01*
X147475500Y-86075000D02*
X145824500Y-86075000D01*
X145824500Y-86075000D02*
X145824500Y-85059000D01*
X145824500Y-84043000D02*
X145824500Y-82963500D01*
X145824500Y-82963500D02*
X147475500Y-82963500D01*
X147475500Y-82963500D02*
X147475500Y-84043000D01*
%TO.C,R5*%
X143792500Y-84043000D02*
X143792500Y-83027000D01*
X143792500Y-83027000D02*
X145443500Y-83027000D01*
X145443500Y-83027000D02*
X145443500Y-84043000D01*
X145443500Y-85059000D02*
X145443500Y-86138500D01*
X145443500Y-86138500D02*
X143792500Y-86138500D01*
X143792500Y-86138500D02*
X143792500Y-85059000D01*
%TO.C,R4*%
X140667000Y-113618500D02*
X141683000Y-113618500D01*
X141683000Y-113618500D02*
X141683000Y-115269500D01*
X141683000Y-115269500D02*
X140667000Y-115269500D01*
X139651000Y-115269500D02*
X138571500Y-115269500D01*
X138571500Y-115269500D02*
X138571500Y-113618500D01*
X138571500Y-113618500D02*
X139651000Y-113618500D01*
%TO.C,R3*%
X139651000Y-113237500D02*
X138635000Y-113237500D01*
X138635000Y-113237500D02*
X138635000Y-111586500D01*
X138635000Y-111586500D02*
X139651000Y-111586500D01*
X140667000Y-111586500D02*
X141746500Y-111586500D01*
X141746500Y-111586500D02*
X141746500Y-113237500D01*
X141746500Y-113237500D02*
X140667000Y-113237500D01*
%TO.C,R2*%
X165849000Y-99203500D02*
X166865000Y-99203500D01*
X166865000Y-99203500D02*
X166865000Y-100854500D01*
X166865000Y-100854500D02*
X165849000Y-100854500D01*
X164833000Y-100854500D02*
X163753500Y-100854500D01*
X163753500Y-100854500D02*
X163753500Y-99203500D01*
X163753500Y-99203500D02*
X164833000Y-99203500D01*
%TO.C,R1*%
X164833000Y-103140500D02*
X163817000Y-103140500D01*
X163817000Y-103140500D02*
X163817000Y-101489500D01*
X163817000Y-101489500D02*
X164833000Y-101489500D01*
X165849000Y-101489500D02*
X166928500Y-101489500D01*
X166928500Y-101489500D02*
X166928500Y-103140500D01*
X166928500Y-103140500D02*
X165849000Y-103140500D01*
D14*
%TO.C,Q5*%
X152664800Y-46613000D02*
X155662000Y-46613000D01*
X155662000Y-46613000D02*
X155662000Y-47413000D01*
X155662000Y-47413000D02*
X152664800Y-47413000D01*
X152662000Y-47413000D02*
X152662000Y-46613000D01*
D16*
%TO.C,Q1*%
X156300000Y-101010000D02*
G75*
G03*
X156300000Y-101010000I-200000J0D01*
G01*
X160100000Y-106710000D02*
X160100000Y-101710000D01*
X156100000Y-101710000D02*
X156100000Y-106710000D01*
X160100000Y-106710000D02*
X156100000Y-106710000D01*
X160100000Y-101710000D02*
X156100000Y-101710000D01*
D12*
%TO.C,F4*%
X152754000Y-60223400D02*
X156618000Y-60223400D01*
%TO.C,F3*%
X145261000Y-49936400D02*
X149125000Y-49936400D01*
D16*
%TO.C,F2*%
X169100000Y-65397000D02*
X169100000Y-64397000D01*
X171600000Y-65397000D02*
X171600000Y-64397000D01*
X171600000Y-64397000D02*
X169100000Y-64397000D01*
X169100000Y-69397000D02*
X171600000Y-69397000D01*
X171600000Y-69397000D02*
X171600000Y-68397000D01*
X169100000Y-68397000D02*
X169100000Y-69397000D01*
%TO.C,F1*%
X155220800Y-51455000D02*
X156220800Y-51455000D01*
X155220800Y-53955000D02*
X156220800Y-53955000D01*
X156220800Y-53955000D02*
X156220800Y-51455000D01*
X151220800Y-51455000D02*
X151220800Y-53955000D01*
X151220800Y-53955000D02*
X152220800Y-53955000D01*
X152220800Y-51455000D02*
X151220800Y-51455000D01*
D11*
%TO.C,D2*%
X157716000Y-92347000D02*
X152716000Y-92347000D01*
X152716000Y-89747000D02*
X157716000Y-89747000D01*
X157716000Y-89747000D02*
X157716000Y-92347000D01*
%TO.C,D1*%
X151987000Y-106854000D02*
X146987000Y-106854000D01*
X146987000Y-104254000D02*
X151987000Y-104254000D01*
X151987000Y-104254000D02*
X151987000Y-106854000D01*
D16*
%TO.C,C11*%
X148724000Y-72495000D02*
X148724000Y-73495000D01*
X150724000Y-72495000D02*
X148724000Y-72495000D01*
X150724000Y-73495000D02*
X150724000Y-72495000D01*
D14*
X150724000Y-75495000D02*
X150724000Y-76495000D01*
X150724000Y-76495000D02*
X148724000Y-76495000D01*
X148724000Y-76495000D02*
X148724000Y-75495000D01*
D16*
%TO.C,C10*%
X146311000Y-72495000D02*
X146311000Y-73495000D01*
X148311000Y-72495000D02*
X146311000Y-72495000D01*
X148311000Y-73495000D02*
X148311000Y-72495000D01*
D14*
X148311000Y-75495000D02*
X148311000Y-76495000D01*
X148311000Y-76495000D02*
X146311000Y-76495000D01*
X146311000Y-76495000D02*
X146311000Y-75495000D01*
D16*
%TO.C,C9*%
X154149000Y-65756000D02*
X154149000Y-64756000D01*
X151649000Y-65756000D02*
X151649000Y-64756000D01*
X151649000Y-68756000D02*
X151649000Y-69756000D01*
X154149000Y-68756000D02*
X154149000Y-69756000D01*
D14*
X151649000Y-69756000D02*
X154149000Y-69756000D01*
X154149000Y-64756000D02*
X151649000Y-64756000D01*
D16*
%TO.C,C6*%
X154746000Y-92587000D02*
X153746000Y-92587000D01*
X154746000Y-94587000D02*
X154746000Y-92587000D01*
X153746000Y-94587000D02*
X154746000Y-94587000D01*
D14*
X151746000Y-94587000D02*
X150746000Y-94587000D01*
X150746000Y-94587000D02*
X150746000Y-92587000D01*
X150746000Y-92587000D02*
X151746000Y-92587000D01*
D16*
%TO.C,C5*%
X145080500Y-109602000D02*
X146080500Y-109602000D01*
X145080500Y-107602000D02*
X145080500Y-109602000D01*
X146080500Y-107602000D02*
X145080500Y-107602000D01*
D14*
X148080500Y-107602000D02*
X149080500Y-107602000D01*
X149080500Y-107602000D02*
X149080500Y-109602000D01*
X149080500Y-109602000D02*
X148080500Y-109602000D01*
D16*
%TO.C,C4*%
X143332000Y-86951000D02*
X143332000Y-85951000D01*
X141332000Y-86951000D02*
X143332000Y-86951000D01*
X141332000Y-85951000D02*
X141332000Y-86951000D01*
D14*
X141332000Y-83951000D02*
X141332000Y-82951000D01*
X141332000Y-82951000D02*
X143332000Y-82951000D01*
X143332000Y-82951000D02*
X143332000Y-83951000D01*
D16*
%TO.C,C3*%
X142159000Y-115730000D02*
X141159000Y-115730000D01*
X142159000Y-117730000D02*
X142159000Y-115730000D01*
X141159000Y-117730000D02*
X142159000Y-117730000D01*
D14*
X139159000Y-117730000D02*
X138159000Y-117730000D01*
X138159000Y-117730000D02*
X138159000Y-115730000D01*
X138159000Y-115730000D02*
X139159000Y-115730000D01*
%TO.C,J4*%
D16*
X128652380Y-48683333D02*
X129366666Y-48683333D01*
X129509523Y-48730952D01*
X129604761Y-48826190D01*
X129652380Y-48969047D01*
X129652380Y-49064285D01*
X128985714Y-47778571D02*
X129652380Y-47778571D01*
X128604761Y-48016666D02*
X129319047Y-48254761D01*
X129319047Y-47635714D01*
%TO.C,P2*%
X165417380Y-78970095D02*
X164417380Y-78970095D01*
X164417380Y-78589142D01*
X164465000Y-78493904D01*
X164512619Y-78446285D01*
X164607857Y-78398666D01*
X164750714Y-78398666D01*
X164845952Y-78446285D01*
X164893571Y-78493904D01*
X164941190Y-78589142D01*
X164941190Y-78970095D01*
X164512619Y-78017714D02*
X164465000Y-77970095D01*
X164417380Y-77874857D01*
X164417380Y-77636761D01*
X164465000Y-77541523D01*
X164512619Y-77493904D01*
X164607857Y-77446285D01*
X164703095Y-77446285D01*
X164845952Y-77493904D01*
X165417380Y-78065333D01*
X165417380Y-77446285D01*
%TO.C,Q3*%
X140612161Y-57433619D02*
X140516923Y-57386000D01*
X140421685Y-57290761D01*
X140278828Y-57147904D01*
X140183590Y-57100285D01*
X140088352Y-57100285D01*
X140135971Y-57338380D02*
X140040733Y-57290761D01*
X139945495Y-57195523D01*
X139897876Y-57005047D01*
X139897876Y-56671714D01*
X139945495Y-56481238D01*
X140040733Y-56386000D01*
X140135971Y-56338380D01*
X140326447Y-56338380D01*
X140421685Y-56386000D01*
X140516923Y-56481238D01*
X140564542Y-56671714D01*
X140564542Y-57005047D01*
X140516923Y-57195523D01*
X140421685Y-57290761D01*
X140326447Y-57338380D01*
X140135971Y-57338380D01*
X140897876Y-56338380D02*
X141516923Y-56338380D01*
X141183590Y-56719333D01*
X141326447Y-56719333D01*
X141421685Y-56766952D01*
X141469304Y-56814571D01*
X141516923Y-56909809D01*
X141516923Y-57147904D01*
X141469304Y-57243142D01*
X141421685Y-57290761D01*
X141326447Y-57338380D01*
X141040733Y-57338380D01*
X140945495Y-57290761D01*
X140897876Y-57243142D01*
%TO.C,R17*%
X141514542Y-51538380D02*
X141181209Y-51062190D01*
X140943114Y-51538380D02*
X140943114Y-50538380D01*
X141324066Y-50538380D01*
X141419304Y-50586000D01*
X141466923Y-50633619D01*
X141514542Y-50728857D01*
X141514542Y-50871714D01*
X141466923Y-50966952D01*
X141419304Y-51014571D01*
X141324066Y-51062190D01*
X140943114Y-51062190D01*
X142466923Y-51538380D02*
X141895495Y-51538380D01*
X142181209Y-51538380D02*
X142181209Y-50538380D01*
X142085971Y-50681238D01*
X141990733Y-50776476D01*
X141895495Y-50824095D01*
X142800257Y-50538380D02*
X143466923Y-50538380D01*
X143038352Y-51538380D01*
%TO.C,R19*%
X141519542Y-60638380D02*
X141186209Y-60162190D01*
X140948114Y-60638380D02*
X140948114Y-59638380D01*
X141329066Y-59638380D01*
X141424304Y-59686000D01*
X141471923Y-59733619D01*
X141519542Y-59828857D01*
X141519542Y-59971714D01*
X141471923Y-60066952D01*
X141424304Y-60114571D01*
X141329066Y-60162190D01*
X140948114Y-60162190D01*
X142471923Y-60638380D02*
X141900495Y-60638380D01*
X142186209Y-60638380D02*
X142186209Y-59638380D01*
X142090971Y-59781238D01*
X141995733Y-59876476D01*
X141900495Y-59924095D01*
X142948114Y-60638380D02*
X143138590Y-60638380D01*
X143233828Y-60590761D01*
X143281447Y-60543142D01*
X143376685Y-60400285D01*
X143424304Y-60209809D01*
X143424304Y-59828857D01*
X143376685Y-59733619D01*
X143329066Y-59686000D01*
X143233828Y-59638380D01*
X143043352Y-59638380D01*
X142948114Y-59686000D01*
X142900495Y-59733619D01*
X142852876Y-59828857D01*
X142852876Y-60066952D01*
X142900495Y-60162190D01*
X142948114Y-60209809D01*
X143043352Y-60257428D01*
X143233828Y-60257428D01*
X143329066Y-60209809D01*
X143376685Y-60162190D01*
X143424304Y-60066952D01*
%TO.C,J1*%
X173102380Y-112333333D02*
X173816666Y-112333333D01*
X173959523Y-112380952D01*
X174054761Y-112476190D01*
X174102380Y-112619047D01*
X174102380Y-112714285D01*
X174102380Y-111333333D02*
X174102380Y-111904761D01*
X174102380Y-111619047D02*
X173102380Y-111619047D01*
X173245238Y-111714285D01*
X173340476Y-111809523D01*
X173388095Y-111904761D01*
%TO.C,R29*%
X155255342Y-77029980D02*
X154922009Y-76553790D01*
X154683914Y-77029980D02*
X154683914Y-76029980D01*
X155064866Y-76029980D01*
X155160104Y-76077600D01*
X155207723Y-76125219D01*
X155255342Y-76220457D01*
X155255342Y-76363314D01*
X155207723Y-76458552D01*
X155160104Y-76506171D01*
X155064866Y-76553790D01*
X154683914Y-76553790D01*
X155636295Y-76125219D02*
X155683914Y-76077600D01*
X155779152Y-76029980D01*
X156017247Y-76029980D01*
X156112485Y-76077600D01*
X156160104Y-76125219D01*
X156207723Y-76220457D01*
X156207723Y-76315695D01*
X156160104Y-76458552D01*
X155588676Y-77029980D01*
X156207723Y-77029980D01*
X156683914Y-77029980D02*
X156874390Y-77029980D01*
X156969628Y-76982361D01*
X157017247Y-76934742D01*
X157112485Y-76791885D01*
X157160104Y-76601409D01*
X157160104Y-76220457D01*
X157112485Y-76125219D01*
X157064866Y-76077600D01*
X156969628Y-76029980D01*
X156779152Y-76029980D01*
X156683914Y-76077600D01*
X156636295Y-76125219D01*
X156588676Y-76220457D01*
X156588676Y-76458552D01*
X156636295Y-76553790D01*
X156683914Y-76601409D01*
X156779152Y-76649028D01*
X156969628Y-76649028D01*
X157064866Y-76601409D01*
X157112485Y-76553790D01*
X157160104Y-76458552D01*
%TO.C,R28*%
X139557142Y-70252380D02*
X139223809Y-69776190D01*
X138985714Y-70252380D02*
X138985714Y-69252380D01*
X139366666Y-69252380D01*
X139461904Y-69300000D01*
X139509523Y-69347619D01*
X139557142Y-69442857D01*
X139557142Y-69585714D01*
X139509523Y-69680952D01*
X139461904Y-69728571D01*
X139366666Y-69776190D01*
X138985714Y-69776190D01*
X139938095Y-69347619D02*
X139985714Y-69300000D01*
X140080952Y-69252380D01*
X140319047Y-69252380D01*
X140414285Y-69300000D01*
X140461904Y-69347619D01*
X140509523Y-69442857D01*
X140509523Y-69538095D01*
X140461904Y-69680952D01*
X139890476Y-70252380D01*
X140509523Y-70252380D01*
X141080952Y-69680952D02*
X140985714Y-69633333D01*
X140938095Y-69585714D01*
X140890476Y-69490476D01*
X140890476Y-69442857D01*
X140938095Y-69347619D01*
X140985714Y-69300000D01*
X141080952Y-69252380D01*
X141271428Y-69252380D01*
X141366666Y-69300000D01*
X141414285Y-69347619D01*
X141461904Y-69442857D01*
X141461904Y-69490476D01*
X141414285Y-69585714D01*
X141366666Y-69633333D01*
X141271428Y-69680952D01*
X141080952Y-69680952D01*
X140985714Y-69728571D01*
X140938095Y-69776190D01*
X140890476Y-69871428D01*
X140890476Y-70061904D01*
X140938095Y-70157142D01*
X140985714Y-70204761D01*
X141080952Y-70252380D01*
X141271428Y-70252380D01*
X141366666Y-70204761D01*
X141414285Y-70157142D01*
X141461904Y-70061904D01*
X141461904Y-69871428D01*
X141414285Y-69776190D01*
X141366666Y-69728571D01*
X141271428Y-69680952D01*
%TO.C,R27*%
X155207142Y-70502380D02*
X154873809Y-70026190D01*
X154635714Y-70502380D02*
X154635714Y-69502380D01*
X155016666Y-69502380D01*
X155111904Y-69550000D01*
X155159523Y-69597619D01*
X155207142Y-69692857D01*
X155207142Y-69835714D01*
X155159523Y-69930952D01*
X155111904Y-69978571D01*
X155016666Y-70026190D01*
X154635714Y-70026190D01*
X155588095Y-69597619D02*
X155635714Y-69550000D01*
X155730952Y-69502380D01*
X155969047Y-69502380D01*
X156064285Y-69550000D01*
X156111904Y-69597619D01*
X156159523Y-69692857D01*
X156159523Y-69788095D01*
X156111904Y-69930952D01*
X155540476Y-70502380D01*
X156159523Y-70502380D01*
X156492857Y-69502380D02*
X157159523Y-69502380D01*
X156730952Y-70502380D01*
%TO.C,R26*%
X142707142Y-74852380D02*
X142373809Y-74376190D01*
X142135714Y-74852380D02*
X142135714Y-73852380D01*
X142516666Y-73852380D01*
X142611904Y-73900000D01*
X142659523Y-73947619D01*
X142707142Y-74042857D01*
X142707142Y-74185714D01*
X142659523Y-74280952D01*
X142611904Y-74328571D01*
X142516666Y-74376190D01*
X142135714Y-74376190D01*
X143088095Y-73947619D02*
X143135714Y-73900000D01*
X143230952Y-73852380D01*
X143469047Y-73852380D01*
X143564285Y-73900000D01*
X143611904Y-73947619D01*
X143659523Y-74042857D01*
X143659523Y-74138095D01*
X143611904Y-74280952D01*
X143040476Y-74852380D01*
X143659523Y-74852380D01*
X144516666Y-73852380D02*
X144326190Y-73852380D01*
X144230952Y-73900000D01*
X144183333Y-73947619D01*
X144088095Y-74090476D01*
X144040476Y-74280952D01*
X144040476Y-74661904D01*
X144088095Y-74757142D01*
X144135714Y-74804761D01*
X144230952Y-74852380D01*
X144421428Y-74852380D01*
X144516666Y-74804761D01*
X144564285Y-74757142D01*
X144611904Y-74661904D01*
X144611904Y-74423809D01*
X144564285Y-74328571D01*
X144516666Y-74280952D01*
X144421428Y-74233333D01*
X144230952Y-74233333D01*
X144135714Y-74280952D01*
X144088095Y-74328571D01*
X144040476Y-74423809D01*
%TO.C,C8*%
X153083333Y-77607142D02*
X153035714Y-77654761D01*
X152892857Y-77702380D01*
X152797619Y-77702380D01*
X152654761Y-77654761D01*
X152559523Y-77559523D01*
X152511904Y-77464285D01*
X152464285Y-77273809D01*
X152464285Y-77130952D01*
X152511904Y-76940476D01*
X152559523Y-76845238D01*
X152654761Y-76750000D01*
X152797619Y-76702380D01*
X152892857Y-76702380D01*
X153035714Y-76750000D01*
X153083333Y-76797619D01*
X153654761Y-77130952D02*
X153559523Y-77083333D01*
X153511904Y-77035714D01*
X153464285Y-76940476D01*
X153464285Y-76892857D01*
X153511904Y-76797619D01*
X153559523Y-76750000D01*
X153654761Y-76702380D01*
X153845238Y-76702380D01*
X153940476Y-76750000D01*
X153988095Y-76797619D01*
X154035714Y-76892857D01*
X154035714Y-76940476D01*
X153988095Y-77035714D01*
X153940476Y-77083333D01*
X153845238Y-77130952D01*
X153654761Y-77130952D01*
X153559523Y-77178571D01*
X153511904Y-77226190D01*
X153464285Y-77321428D01*
X153464285Y-77511904D01*
X153511904Y-77607142D01*
X153559523Y-77654761D01*
X153654761Y-77702380D01*
X153845238Y-77702380D01*
X153940476Y-77654761D01*
X153988095Y-77607142D01*
X154035714Y-77511904D01*
X154035714Y-77321428D01*
X153988095Y-77226190D01*
X153940476Y-77178571D01*
X153845238Y-77130952D01*
%TO.C,C7*%
X132071942Y-105717066D02*
X132119561Y-105764685D01*
X132167180Y-105907542D01*
X132167180Y-106002780D01*
X132119561Y-106145638D01*
X132024323Y-106240876D01*
X131929085Y-106288495D01*
X131738609Y-106336114D01*
X131595752Y-106336114D01*
X131405276Y-106288495D01*
X131310038Y-106240876D01*
X131214800Y-106145638D01*
X131167180Y-106002780D01*
X131167180Y-105907542D01*
X131214800Y-105764685D01*
X131262419Y-105717066D01*
X131167180Y-105383733D02*
X131167180Y-104717066D01*
X132167180Y-105145638D01*
%TO.C,C2*%
X148283333Y-95857142D02*
X148235714Y-95904761D01*
X148092857Y-95952380D01*
X147997619Y-95952380D01*
X147854761Y-95904761D01*
X147759523Y-95809523D01*
X147711904Y-95714285D01*
X147664285Y-95523809D01*
X147664285Y-95380952D01*
X147711904Y-95190476D01*
X147759523Y-95095238D01*
X147854761Y-95000000D01*
X147997619Y-94952380D01*
X148092857Y-94952380D01*
X148235714Y-95000000D01*
X148283333Y-95047619D01*
X148664285Y-95047619D02*
X148711904Y-95000000D01*
X148807142Y-94952380D01*
X149045238Y-94952380D01*
X149140476Y-95000000D01*
X149188095Y-95047619D01*
X149235714Y-95142857D01*
X149235714Y-95238095D01*
X149188095Y-95380952D01*
X148616666Y-95952380D01*
X149235714Y-95952380D01*
%TO.C,C1*%
X157133333Y-112657142D02*
X157085714Y-112704761D01*
X156942857Y-112752380D01*
X156847619Y-112752380D01*
X156704761Y-112704761D01*
X156609523Y-112609523D01*
X156561904Y-112514285D01*
X156514285Y-112323809D01*
X156514285Y-112180952D01*
X156561904Y-111990476D01*
X156609523Y-111895238D01*
X156704761Y-111800000D01*
X156847619Y-111752380D01*
X156942857Y-111752380D01*
X157085714Y-111800000D01*
X157133333Y-111847619D01*
X158085714Y-112752380D02*
X157514285Y-112752380D01*
X157800000Y-112752380D02*
X157800000Y-111752380D01*
X157704761Y-111895238D01*
X157609523Y-111990476D01*
X157514285Y-112038095D01*
%TO.C,J5*%
X169352380Y-48633333D02*
X170066666Y-48633333D01*
X170209523Y-48680952D01*
X170304761Y-48776190D01*
X170352380Y-48919047D01*
X170352380Y-49014285D01*
X169352380Y-47680952D02*
X169352380Y-48157142D01*
X169828571Y-48204761D01*
X169780952Y-48157142D01*
X169733333Y-48061904D01*
X169733333Y-47823809D01*
X169780952Y-47728571D01*
X169828571Y-47680952D01*
X169923809Y-47633333D01*
X170161904Y-47633333D01*
X170257142Y-47680952D01*
X170304761Y-47728571D01*
X170352380Y-47823809D01*
X170352380Y-48061904D01*
X170304761Y-48157142D01*
X170257142Y-48204761D01*
%TO.C,U4*%
X147652380Y-68011904D02*
X148461904Y-68011904D01*
X148557142Y-67964285D01*
X148604761Y-67916666D01*
X148652380Y-67821428D01*
X148652380Y-67630952D01*
X148604761Y-67535714D01*
X148557142Y-67488095D01*
X148461904Y-67440476D01*
X147652380Y-67440476D01*
X147985714Y-66535714D02*
X148652380Y-66535714D01*
X147604761Y-66773809D02*
X148319047Y-67011904D01*
X148319047Y-66392857D01*
%TO.C,J3*%
X152666666Y-84911380D02*
X152666666Y-85625666D01*
X152619047Y-85768523D01*
X152523809Y-85863761D01*
X152380952Y-85911380D01*
X152285714Y-85911380D01*
X153047619Y-84911380D02*
X153666666Y-84911380D01*
X153333333Y-85292333D01*
X153476190Y-85292333D01*
X153571428Y-85339952D01*
X153619047Y-85387571D01*
X153666666Y-85482809D01*
X153666666Y-85720904D01*
X153619047Y-85816142D01*
X153571428Y-85863761D01*
X153476190Y-85911380D01*
X153190476Y-85911380D01*
X153095238Y-85863761D01*
X153047619Y-85816142D01*
%TO.C,J2*%
X139292266Y-104625380D02*
X139292266Y-105339666D01*
X139244647Y-105482523D01*
X139149409Y-105577761D01*
X139006552Y-105625380D01*
X138911314Y-105625380D01*
X139720838Y-104720619D02*
X139768457Y-104673000D01*
X139863695Y-104625380D01*
X140101790Y-104625380D01*
X140197028Y-104673000D01*
X140244647Y-104720619D01*
X140292266Y-104815857D01*
X140292266Y-104911095D01*
X140244647Y-105053952D01*
X139673219Y-105625380D01*
X140292266Y-105625380D01*
%TO.C,U3*%
X144857780Y-91808904D02*
X145667304Y-91808904D01*
X145762542Y-91761285D01*
X145810161Y-91713666D01*
X145857780Y-91618428D01*
X145857780Y-91427952D01*
X145810161Y-91332714D01*
X145762542Y-91285095D01*
X145667304Y-91237476D01*
X144857780Y-91237476D01*
X144857780Y-90856523D02*
X144857780Y-90237476D01*
X145238733Y-90570809D01*
X145238733Y-90427952D01*
X145286352Y-90332714D01*
X145333971Y-90285095D01*
X145429209Y-90237476D01*
X145667304Y-90237476D01*
X145762542Y-90285095D01*
X145810161Y-90332714D01*
X145857780Y-90427952D01*
X145857780Y-90713666D01*
X145810161Y-90808904D01*
X145762542Y-90856523D01*
%TO.C,U2*%
X145961380Y-113681904D02*
X146770904Y-113681904D01*
X146866142Y-113634285D01*
X146913761Y-113586666D01*
X146961380Y-113491428D01*
X146961380Y-113300952D01*
X146913761Y-113205714D01*
X146866142Y-113158095D01*
X146770904Y-113110476D01*
X145961380Y-113110476D01*
X146056619Y-112681904D02*
X146009000Y-112634285D01*
X145961380Y-112539047D01*
X145961380Y-112300952D01*
X146009000Y-112205714D01*
X146056619Y-112158095D01*
X146151857Y-112110476D01*
X146247095Y-112110476D01*
X146389952Y-112158095D01*
X146961380Y-112729523D01*
X146961380Y-112110476D01*
%TO.C,P1*%
X124515904Y-65290380D02*
X124515904Y-64290380D01*
X124896857Y-64290380D01*
X124992095Y-64338000D01*
X125039714Y-64385619D01*
X125087333Y-64480857D01*
X125087333Y-64623714D01*
X125039714Y-64718952D01*
X124992095Y-64766571D01*
X124896857Y-64814190D01*
X124515904Y-64814190D01*
X126039714Y-65290380D02*
X125468285Y-65290380D01*
X125754000Y-65290380D02*
X125754000Y-64290380D01*
X125658761Y-64433238D01*
X125563523Y-64528476D01*
X125468285Y-64576095D01*
%TO.C,R25*%
X140902380Y-68069857D02*
X140426190Y-68403190D01*
X140902380Y-68641285D02*
X139902380Y-68641285D01*
X139902380Y-68260333D01*
X139950000Y-68165095D01*
X139997619Y-68117476D01*
X140092857Y-68069857D01*
X140235714Y-68069857D01*
X140330952Y-68117476D01*
X140378571Y-68165095D01*
X140426190Y-68260333D01*
X140426190Y-68641285D01*
X139997619Y-67688904D02*
X139950000Y-67641285D01*
X139902380Y-67546047D01*
X139902380Y-67307952D01*
X139950000Y-67212714D01*
X139997619Y-67165095D01*
X140092857Y-67117476D01*
X140188095Y-67117476D01*
X140330952Y-67165095D01*
X140902380Y-67736523D01*
X140902380Y-67117476D01*
X139902380Y-66212714D02*
X139902380Y-66688904D01*
X140378571Y-66736523D01*
X140330952Y-66688904D01*
X140283333Y-66593666D01*
X140283333Y-66355571D01*
X140330952Y-66260333D01*
X140378571Y-66212714D01*
X140473809Y-66165095D01*
X140711904Y-66165095D01*
X140807142Y-66212714D01*
X140854761Y-66260333D01*
X140902380Y-66355571D01*
X140902380Y-66593666D01*
X140854761Y-66688904D01*
X140807142Y-66736523D01*
%TO.C,R24*%
X144552380Y-64869857D02*
X144076190Y-65203190D01*
X144552380Y-65441285D02*
X143552380Y-65441285D01*
X143552380Y-65060333D01*
X143600000Y-64965095D01*
X143647619Y-64917476D01*
X143742857Y-64869857D01*
X143885714Y-64869857D01*
X143980952Y-64917476D01*
X144028571Y-64965095D01*
X144076190Y-65060333D01*
X144076190Y-65441285D01*
X143647619Y-64488904D02*
X143600000Y-64441285D01*
X143552380Y-64346047D01*
X143552380Y-64107952D01*
X143600000Y-64012714D01*
X143647619Y-63965095D01*
X143742857Y-63917476D01*
X143838095Y-63917476D01*
X143980952Y-63965095D01*
X144552380Y-64536523D01*
X144552380Y-63917476D01*
X143885714Y-63060333D02*
X144552380Y-63060333D01*
X143504761Y-63298428D02*
X144219047Y-63536523D01*
X144219047Y-62917476D01*
%TO.C,R23*%
X153517142Y-43059380D02*
X153183809Y-42583190D01*
X152945714Y-43059380D02*
X152945714Y-42059380D01*
X153326666Y-42059380D01*
X153421904Y-42107000D01*
X153469523Y-42154619D01*
X153517142Y-42249857D01*
X153517142Y-42392714D01*
X153469523Y-42487952D01*
X153421904Y-42535571D01*
X153326666Y-42583190D01*
X152945714Y-42583190D01*
X153898095Y-42154619D02*
X153945714Y-42107000D01*
X154040952Y-42059380D01*
X154279047Y-42059380D01*
X154374285Y-42107000D01*
X154421904Y-42154619D01*
X154469523Y-42249857D01*
X154469523Y-42345095D01*
X154421904Y-42487952D01*
X153850476Y-43059380D01*
X154469523Y-43059380D01*
X154802857Y-42059380D02*
X155421904Y-42059380D01*
X155088571Y-42440333D01*
X155231428Y-42440333D01*
X155326666Y-42487952D01*
X155374285Y-42535571D01*
X155421904Y-42630809D01*
X155421904Y-42868904D01*
X155374285Y-42964142D01*
X155326666Y-43011761D01*
X155231428Y-43059380D01*
X154945714Y-43059380D01*
X154850476Y-43011761D01*
X154802857Y-42964142D01*
%TO.C,R21*%
X153582642Y-52109380D02*
X153249309Y-51633190D01*
X153011214Y-52109380D02*
X153011214Y-51109380D01*
X153392166Y-51109380D01*
X153487404Y-51157000D01*
X153535023Y-51204619D01*
X153582642Y-51299857D01*
X153582642Y-51442714D01*
X153535023Y-51537952D01*
X153487404Y-51585571D01*
X153392166Y-51633190D01*
X153011214Y-51633190D01*
X153963595Y-51204619D02*
X154011214Y-51157000D01*
X154106452Y-51109380D01*
X154344547Y-51109380D01*
X154439785Y-51157000D01*
X154487404Y-51204619D01*
X154535023Y-51299857D01*
X154535023Y-51395095D01*
X154487404Y-51537952D01*
X153915976Y-52109380D01*
X154535023Y-52109380D01*
X155487404Y-52109380D02*
X154915976Y-52109380D01*
X155201690Y-52109380D02*
X155201690Y-51109380D01*
X155106452Y-51252238D01*
X155011214Y-51347476D01*
X154915976Y-51395095D01*
%TO.C,R15*%
X153707142Y-108452380D02*
X153373809Y-107976190D01*
X153135714Y-108452380D02*
X153135714Y-107452380D01*
X153516666Y-107452380D01*
X153611904Y-107500000D01*
X153659523Y-107547619D01*
X153707142Y-107642857D01*
X153707142Y-107785714D01*
X153659523Y-107880952D01*
X153611904Y-107928571D01*
X153516666Y-107976190D01*
X153135714Y-107976190D01*
X154659523Y-108452380D02*
X154088095Y-108452380D01*
X154373809Y-108452380D02*
X154373809Y-107452380D01*
X154278571Y-107595238D01*
X154183333Y-107690476D01*
X154088095Y-107738095D01*
X155564285Y-107452380D02*
X155088095Y-107452380D01*
X155040476Y-107928571D01*
X155088095Y-107880952D01*
X155183333Y-107833333D01*
X155421428Y-107833333D01*
X155516666Y-107880952D01*
X155564285Y-107928571D01*
X155611904Y-108023809D01*
X155611904Y-108261904D01*
X155564285Y-108357142D01*
X155516666Y-108404761D01*
X155421428Y-108452380D01*
X155183333Y-108452380D01*
X155088095Y-108404761D01*
X155040476Y-108357142D01*
%TO.C,R14*%
X142707142Y-79252380D02*
X142373809Y-78776190D01*
X142135714Y-79252380D02*
X142135714Y-78252380D01*
X142516666Y-78252380D01*
X142611904Y-78300000D01*
X142659523Y-78347619D01*
X142707142Y-78442857D01*
X142707142Y-78585714D01*
X142659523Y-78680952D01*
X142611904Y-78728571D01*
X142516666Y-78776190D01*
X142135714Y-78776190D01*
X143659523Y-79252380D02*
X143088095Y-79252380D01*
X143373809Y-79252380D02*
X143373809Y-78252380D01*
X143278571Y-78395238D01*
X143183333Y-78490476D01*
X143088095Y-78538095D01*
X144516666Y-78585714D02*
X144516666Y-79252380D01*
X144278571Y-78204761D02*
X144040476Y-78919047D01*
X144659523Y-78919047D01*
%TO.C,R13*%
X136307142Y-119202380D02*
X135973809Y-118726190D01*
X135735714Y-119202380D02*
X135735714Y-118202380D01*
X136116666Y-118202380D01*
X136211904Y-118250000D01*
X136259523Y-118297619D01*
X136307142Y-118392857D01*
X136307142Y-118535714D01*
X136259523Y-118630952D01*
X136211904Y-118678571D01*
X136116666Y-118726190D01*
X135735714Y-118726190D01*
X137259523Y-119202380D02*
X136688095Y-119202380D01*
X136973809Y-119202380D02*
X136973809Y-118202380D01*
X136878571Y-118345238D01*
X136783333Y-118440476D01*
X136688095Y-118488095D01*
X137592857Y-118202380D02*
X138211904Y-118202380D01*
X137878571Y-118583333D01*
X138021428Y-118583333D01*
X138116666Y-118630952D01*
X138164285Y-118678571D01*
X138211904Y-118773809D01*
X138211904Y-119011904D01*
X138164285Y-119107142D01*
X138116666Y-119154761D01*
X138021428Y-119202380D01*
X137735714Y-119202380D01*
X137640476Y-119154761D01*
X137592857Y-119107142D01*
%TO.C,R12*%
X140552380Y-81642857D02*
X140076190Y-81976190D01*
X140552380Y-82214285D02*
X139552380Y-82214285D01*
X139552380Y-81833333D01*
X139600000Y-81738095D01*
X139647619Y-81690476D01*
X139742857Y-81642857D01*
X139885714Y-81642857D01*
X139980952Y-81690476D01*
X140028571Y-81738095D01*
X140076190Y-81833333D01*
X140076190Y-82214285D01*
X140552380Y-80690476D02*
X140552380Y-81261904D01*
X140552380Y-80976190D02*
X139552380Y-80976190D01*
X139695238Y-81071428D01*
X139790476Y-81166666D01*
X139838095Y-81261904D01*
X139647619Y-80309523D02*
X139600000Y-80261904D01*
X139552380Y-80166666D01*
X139552380Y-79928571D01*
X139600000Y-79833333D01*
X139647619Y-79785714D01*
X139742857Y-79738095D01*
X139838095Y-79738095D01*
X139980952Y-79785714D01*
X140552380Y-80357142D01*
X140552380Y-79738095D01*
%TO.C,R11*%
X144202380Y-121642857D02*
X143726190Y-121976190D01*
X144202380Y-122214285D02*
X143202380Y-122214285D01*
X143202380Y-121833333D01*
X143250000Y-121738095D01*
X143297619Y-121690476D01*
X143392857Y-121642857D01*
X143535714Y-121642857D01*
X143630952Y-121690476D01*
X143678571Y-121738095D01*
X143726190Y-121833333D01*
X143726190Y-122214285D01*
X144202380Y-120690476D02*
X144202380Y-121261904D01*
X144202380Y-120976190D02*
X143202380Y-120976190D01*
X143345238Y-121071428D01*
X143440476Y-121166666D01*
X143488095Y-121261904D01*
X144202380Y-119738095D02*
X144202380Y-120309523D01*
X144202380Y-120023809D02*
X143202380Y-120023809D01*
X143345238Y-120119047D01*
X143440476Y-120214285D01*
X143488095Y-120309523D01*
%TO.C,R10*%
X140502380Y-92492857D02*
X140026190Y-92826190D01*
X140502380Y-93064285D02*
X139502380Y-93064285D01*
X139502380Y-92683333D01*
X139550000Y-92588095D01*
X139597619Y-92540476D01*
X139692857Y-92492857D01*
X139835714Y-92492857D01*
X139930952Y-92540476D01*
X139978571Y-92588095D01*
X140026190Y-92683333D01*
X140026190Y-93064285D01*
X140502380Y-91540476D02*
X140502380Y-92111904D01*
X140502380Y-91826190D02*
X139502380Y-91826190D01*
X139645238Y-91921428D01*
X139740476Y-92016666D01*
X139788095Y-92111904D01*
X139502380Y-90921428D02*
X139502380Y-90826190D01*
X139550000Y-90730952D01*
X139597619Y-90683333D01*
X139692857Y-90635714D01*
X139883333Y-90588095D01*
X140121428Y-90588095D01*
X140311904Y-90635714D01*
X140407142Y-90683333D01*
X140454761Y-90730952D01*
X140502380Y-90826190D01*
X140502380Y-90921428D01*
X140454761Y-91016666D01*
X140407142Y-91064285D01*
X140311904Y-91111904D01*
X140121428Y-91159523D01*
X139883333Y-91159523D01*
X139692857Y-91111904D01*
X139597619Y-91064285D01*
X139550000Y-91016666D01*
X139502380Y-90921428D01*
%TO.C,R9*%
X146202380Y-121616666D02*
X145726190Y-121950000D01*
X146202380Y-122188095D02*
X145202380Y-122188095D01*
X145202380Y-121807142D01*
X145250000Y-121711904D01*
X145297619Y-121664285D01*
X145392857Y-121616666D01*
X145535714Y-121616666D01*
X145630952Y-121664285D01*
X145678571Y-121711904D01*
X145726190Y-121807142D01*
X145726190Y-122188095D01*
X146202380Y-121140476D02*
X146202380Y-120950000D01*
X146154761Y-120854761D01*
X146107142Y-120807142D01*
X145964285Y-120711904D01*
X145773809Y-120664285D01*
X145392857Y-120664285D01*
X145297619Y-120711904D01*
X145250000Y-120759523D01*
X145202380Y-120854761D01*
X145202380Y-121045238D01*
X145250000Y-121140476D01*
X145297619Y-121188095D01*
X145392857Y-121235714D01*
X145630952Y-121235714D01*
X145726190Y-121188095D01*
X145773809Y-121140476D01*
X145821428Y-121045238D01*
X145821428Y-120854761D01*
X145773809Y-120759523D01*
X145726190Y-120711904D01*
X145630952Y-120664285D01*
%TO.C,R8*%
X140625433Y-96838980D02*
X140292100Y-96362790D01*
X140054004Y-96838980D02*
X140054004Y-95838980D01*
X140434957Y-95838980D01*
X140530195Y-95886600D01*
X140577814Y-95934219D01*
X140625433Y-96029457D01*
X140625433Y-96172314D01*
X140577814Y-96267552D01*
X140530195Y-96315171D01*
X140434957Y-96362790D01*
X140054004Y-96362790D01*
X141196861Y-96267552D02*
X141101623Y-96219933D01*
X141054004Y-96172314D01*
X141006385Y-96077076D01*
X141006385Y-96029457D01*
X141054004Y-95934219D01*
X141101623Y-95886600D01*
X141196861Y-95838980D01*
X141387338Y-95838980D01*
X141482576Y-95886600D01*
X141530195Y-95934219D01*
X141577814Y-96029457D01*
X141577814Y-96077076D01*
X141530195Y-96172314D01*
X141482576Y-96219933D01*
X141387338Y-96267552D01*
X141196861Y-96267552D01*
X141101623Y-96315171D01*
X141054004Y-96362790D01*
X141006385Y-96458028D01*
X141006385Y-96648504D01*
X141054004Y-96743742D01*
X141101623Y-96791361D01*
X141196861Y-96838980D01*
X141387338Y-96838980D01*
X141482576Y-96791361D01*
X141530195Y-96743742D01*
X141577814Y-96648504D01*
X141577814Y-96458028D01*
X141530195Y-96362790D01*
X141482576Y-96315171D01*
X141387338Y-96267552D01*
%TO.C,R7*%
X156933333Y-115402380D02*
X156600000Y-114926190D01*
X156361904Y-115402380D02*
X156361904Y-114402380D01*
X156742857Y-114402380D01*
X156838095Y-114450000D01*
X156885714Y-114497619D01*
X156933333Y-114592857D01*
X156933333Y-114735714D01*
X156885714Y-114830952D01*
X156838095Y-114878571D01*
X156742857Y-114926190D01*
X156361904Y-114926190D01*
X157266666Y-114402380D02*
X157933333Y-114402380D01*
X157504761Y-115402380D01*
%TO.C,R6*%
X144483333Y-87302380D02*
X144150000Y-86826190D01*
X143911904Y-87302380D02*
X143911904Y-86302380D01*
X144292857Y-86302380D01*
X144388095Y-86350000D01*
X144435714Y-86397619D01*
X144483333Y-86492857D01*
X144483333Y-86635714D01*
X144435714Y-86730952D01*
X144388095Y-86778571D01*
X144292857Y-86826190D01*
X143911904Y-86826190D01*
X145340476Y-86302380D02*
X145150000Y-86302380D01*
X145054761Y-86350000D01*
X145007142Y-86397619D01*
X144911904Y-86540476D01*
X144864285Y-86730952D01*
X144864285Y-87111904D01*
X144911904Y-87207142D01*
X144959523Y-87254761D01*
X145054761Y-87302380D01*
X145245238Y-87302380D01*
X145340476Y-87254761D01*
X145388095Y-87207142D01*
X145435714Y-87111904D01*
X145435714Y-86873809D01*
X145388095Y-86778571D01*
X145340476Y-86730952D01*
X145245238Y-86683333D01*
X145054761Y-86683333D01*
X144959523Y-86730952D01*
X144911904Y-86778571D01*
X144864285Y-86873809D01*
%TO.C,R5*%
X147052380Y-81966666D02*
X146576190Y-82300000D01*
X147052380Y-82538095D02*
X146052380Y-82538095D01*
X146052380Y-82157142D01*
X146100000Y-82061904D01*
X146147619Y-82014285D01*
X146242857Y-81966666D01*
X146385714Y-81966666D01*
X146480952Y-82014285D01*
X146528571Y-82061904D01*
X146576190Y-82157142D01*
X146576190Y-82538095D01*
X146052380Y-81061904D02*
X146052380Y-81538095D01*
X146528571Y-81585714D01*
X146480952Y-81538095D01*
X146433333Y-81442857D01*
X146433333Y-81204761D01*
X146480952Y-81109523D01*
X146528571Y-81061904D01*
X146623809Y-81014285D01*
X146861904Y-81014285D01*
X146957142Y-81061904D01*
X147004761Y-81109523D01*
X147052380Y-81204761D01*
X147052380Y-81442857D01*
X147004761Y-81538095D01*
X146957142Y-81585714D01*
%TO.C,R4*%
X136333333Y-114902380D02*
X136000000Y-114426190D01*
X135761904Y-114902380D02*
X135761904Y-113902380D01*
X136142857Y-113902380D01*
X136238095Y-113950000D01*
X136285714Y-113997619D01*
X136333333Y-114092857D01*
X136333333Y-114235714D01*
X136285714Y-114330952D01*
X136238095Y-114378571D01*
X136142857Y-114426190D01*
X135761904Y-114426190D01*
X137190476Y-114235714D02*
X137190476Y-114902380D01*
X136952380Y-113854761D02*
X136714285Y-114569047D01*
X137333333Y-114569047D01*
%TO.C,R3*%
X136333333Y-112852380D02*
X136000000Y-112376190D01*
X135761904Y-112852380D02*
X135761904Y-111852380D01*
X136142857Y-111852380D01*
X136238095Y-111900000D01*
X136285714Y-111947619D01*
X136333333Y-112042857D01*
X136333333Y-112185714D01*
X136285714Y-112280952D01*
X136238095Y-112328571D01*
X136142857Y-112376190D01*
X135761904Y-112376190D01*
X136666666Y-111852380D02*
X137285714Y-111852380D01*
X136952380Y-112233333D01*
X137095238Y-112233333D01*
X137190476Y-112280952D01*
X137238095Y-112328571D01*
X137285714Y-112423809D01*
X137285714Y-112661904D01*
X137238095Y-112757142D01*
X137190476Y-112804761D01*
X137095238Y-112852380D01*
X136809523Y-112852380D01*
X136714285Y-112804761D01*
X136666666Y-112757142D01*
%TO.C,R2*%
X168133333Y-100452380D02*
X167800000Y-99976190D01*
X167561904Y-100452380D02*
X167561904Y-99452380D01*
X167942857Y-99452380D01*
X168038095Y-99500000D01*
X168085714Y-99547619D01*
X168133333Y-99642857D01*
X168133333Y-99785714D01*
X168085714Y-99880952D01*
X168038095Y-99928571D01*
X167942857Y-99976190D01*
X167561904Y-99976190D01*
X168514285Y-99547619D02*
X168561904Y-99500000D01*
X168657142Y-99452380D01*
X168895238Y-99452380D01*
X168990476Y-99500000D01*
X169038095Y-99547619D01*
X169085714Y-99642857D01*
X169085714Y-99738095D01*
X169038095Y-99880952D01*
X168466666Y-100452380D01*
X169085714Y-100452380D01*
%TO.C,R1*%
X168133333Y-102752380D02*
X167800000Y-102276190D01*
X167561904Y-102752380D02*
X167561904Y-101752380D01*
X167942857Y-101752380D01*
X168038095Y-101800000D01*
X168085714Y-101847619D01*
X168133333Y-101942857D01*
X168133333Y-102085714D01*
X168085714Y-102180952D01*
X168038095Y-102228571D01*
X167942857Y-102276190D01*
X167561904Y-102276190D01*
X169085714Y-102752380D02*
X168514285Y-102752380D01*
X168800000Y-102752380D02*
X168800000Y-101752380D01*
X168704761Y-101895238D01*
X168609523Y-101990476D01*
X168514285Y-102038095D01*
%TO.C,Q5*%
X155514761Y-46454619D02*
X155419523Y-46407000D01*
X155324285Y-46311761D01*
X155181428Y-46168904D01*
X155086190Y-46121285D01*
X154990952Y-46121285D01*
X155038571Y-46359380D02*
X154943333Y-46311761D01*
X154848095Y-46216523D01*
X154800476Y-46026047D01*
X154800476Y-45692714D01*
X154848095Y-45502238D01*
X154943333Y-45407000D01*
X155038571Y-45359380D01*
X155229047Y-45359380D01*
X155324285Y-45407000D01*
X155419523Y-45502238D01*
X155467142Y-45692714D01*
X155467142Y-46026047D01*
X155419523Y-46216523D01*
X155324285Y-46311761D01*
X155229047Y-46359380D01*
X155038571Y-46359380D01*
X156371904Y-45359380D02*
X155895714Y-45359380D01*
X155848095Y-45835571D01*
X155895714Y-45787952D01*
X155990952Y-45740333D01*
X156229047Y-45740333D01*
X156324285Y-45787952D01*
X156371904Y-45835571D01*
X156419523Y-45930809D01*
X156419523Y-46168904D01*
X156371904Y-46264142D01*
X156324285Y-46311761D01*
X156229047Y-46359380D01*
X155990952Y-46359380D01*
X155895714Y-46311761D01*
X155848095Y-46264142D01*
%TO.C,Q1*%
D19*
X158028638Y-104620330D02*
X157957276Y-104584650D01*
X157885914Y-104513288D01*
X157778871Y-104406245D01*
X157707509Y-104370564D01*
X157636147Y-104370564D01*
X157671828Y-104548969D02*
X157600466Y-104513288D01*
X157529104Y-104441926D01*
X157493423Y-104299202D01*
X157493423Y-104049435D01*
X157529104Y-103906711D01*
X157600466Y-103835350D01*
X157671828Y-103799669D01*
X157814552Y-103799669D01*
X157885914Y-103835350D01*
X157957276Y-103906711D01*
X157992957Y-104049435D01*
X157992957Y-104299202D01*
X157957276Y-104441926D01*
X157885914Y-104513288D01*
X157814552Y-104548969D01*
X157671828Y-104548969D01*
X158706576Y-104548969D02*
X158278404Y-104548969D01*
X158492490Y-104548969D02*
X158492490Y-103799669D01*
X158421128Y-103906711D01*
X158349766Y-103978073D01*
X158278404Y-104013754D01*
%TO.C,F4*%
D16*
X158002666Y-60176971D02*
X157669333Y-60176971D01*
X157669333Y-60700780D02*
X157669333Y-59700780D01*
X158145523Y-59700780D01*
X158955047Y-60034114D02*
X158955047Y-60700780D01*
X158716952Y-59653161D02*
X158478857Y-60367447D01*
X159097904Y-60367447D01*
%TO.C,F3*%
X143209666Y-49889971D02*
X142876333Y-49889971D01*
X142876333Y-50413780D02*
X142876333Y-49413780D01*
X143352523Y-49413780D01*
X143638238Y-49413780D02*
X144257285Y-49413780D01*
X143923952Y-49794733D01*
X144066809Y-49794733D01*
X144162047Y-49842352D01*
X144209666Y-49889971D01*
X144257285Y-49985209D01*
X144257285Y-50223304D01*
X144209666Y-50318542D01*
X144162047Y-50366161D01*
X144066809Y-50413780D01*
X143781095Y-50413780D01*
X143685857Y-50366161D01*
X143638238Y-50318542D01*
%TO.C,F2*%
X172316666Y-66828571D02*
X171983333Y-66828571D01*
X171983333Y-67352380D02*
X171983333Y-66352380D01*
X172459523Y-66352380D01*
X172792857Y-66447619D02*
X172840476Y-66400000D01*
X172935714Y-66352380D01*
X173173809Y-66352380D01*
X173269047Y-66400000D01*
X173316666Y-66447619D01*
X173364285Y-66542857D01*
X173364285Y-66638095D01*
X173316666Y-66780952D01*
X172745238Y-67352380D01*
X173364285Y-67352380D01*
%TO.C,F1*%
X153792228Y-54521666D02*
X153792228Y-54188333D01*
X153268419Y-54188333D02*
X154268419Y-54188333D01*
X154268419Y-54664523D01*
X153268419Y-55569285D02*
X153268419Y-54997857D01*
X153268419Y-55283571D02*
X154268419Y-55283571D01*
X154125561Y-55188333D01*
X154030323Y-55093095D01*
X153982704Y-54997857D01*
%TO.C,D2*%
X155361904Y-93652380D02*
X155361904Y-92652380D01*
X155600000Y-92652380D01*
X155742857Y-92700000D01*
X155838095Y-92795238D01*
X155885714Y-92890476D01*
X155933333Y-93080952D01*
X155933333Y-93223809D01*
X155885714Y-93414285D01*
X155838095Y-93509523D01*
X155742857Y-93604761D01*
X155600000Y-93652380D01*
X155361904Y-93652380D01*
X156314285Y-92747619D02*
X156361904Y-92700000D01*
X156457142Y-92652380D01*
X156695238Y-92652380D01*
X156790476Y-92700000D01*
X156838095Y-92747619D01*
X156885714Y-92842857D01*
X156885714Y-92938095D01*
X156838095Y-93080952D01*
X156266666Y-93652380D01*
X156885714Y-93652380D01*
%TO.C,D1*%
X147548904Y-103852380D02*
X147548904Y-102852380D01*
X147787000Y-102852380D01*
X147929857Y-102900000D01*
X148025095Y-102995238D01*
X148072714Y-103090476D01*
X148120333Y-103280952D01*
X148120333Y-103423809D01*
X148072714Y-103614285D01*
X148025095Y-103709523D01*
X147929857Y-103804761D01*
X147787000Y-103852380D01*
X147548904Y-103852380D01*
X149072714Y-103852380D02*
X148501285Y-103852380D01*
X148787000Y-103852380D02*
X148787000Y-102852380D01*
X148691761Y-102995238D01*
X148596523Y-103090476D01*
X148501285Y-103138095D01*
%TO.C,C11*%
D20*
X151081042Y-74687677D02*
X151095315Y-74701949D01*
X151109587Y-74744766D01*
X151109587Y-74773311D01*
X151095315Y-74816128D01*
X151066770Y-74844673D01*
X151038225Y-74858945D01*
X150981136Y-74873218D01*
X150938319Y-74873218D01*
X150881229Y-74858945D01*
X150852684Y-74844673D01*
X150824140Y-74816128D01*
X150809867Y-74773311D01*
X150809867Y-74744766D01*
X150824140Y-74701949D01*
X150838412Y-74687677D01*
X151109587Y-74402229D02*
X151109587Y-74573498D01*
X151109587Y-74487863D02*
X150809867Y-74487863D01*
X150852684Y-74516408D01*
X150881229Y-74544953D01*
X150895501Y-74573498D01*
X151109587Y-74116781D02*
X151109587Y-74288050D01*
X151109587Y-74202416D02*
X150809867Y-74202416D01*
X150852684Y-74230960D01*
X150881229Y-74259505D01*
X150895501Y-74288050D01*
%TO.C,C10*%
X148668042Y-74687677D02*
X148682315Y-74701949D01*
X148696587Y-74744766D01*
X148696587Y-74773311D01*
X148682315Y-74816128D01*
X148653770Y-74844673D01*
X148625225Y-74858945D01*
X148568136Y-74873218D01*
X148525319Y-74873218D01*
X148468229Y-74858945D01*
X148439684Y-74844673D01*
X148411140Y-74816128D01*
X148396867Y-74773311D01*
X148396867Y-74744766D01*
X148411140Y-74701949D01*
X148425412Y-74687677D01*
X148696587Y-74402229D02*
X148696587Y-74573498D01*
X148696587Y-74487863D02*
X148396867Y-74487863D01*
X148439684Y-74516408D01*
X148468229Y-74544953D01*
X148482501Y-74573498D01*
X148396867Y-74216688D02*
X148396867Y-74188143D01*
X148411140Y-74159599D01*
X148425412Y-74145326D01*
X148453957Y-74131054D01*
X148511046Y-74116781D01*
X148582408Y-74116781D01*
X148639498Y-74131054D01*
X148668042Y-74145326D01*
X148682315Y-74159599D01*
X148696587Y-74188143D01*
X148696587Y-74216688D01*
X148682315Y-74245233D01*
X148668042Y-74259505D01*
X148639498Y-74273778D01*
X148582408Y-74288050D01*
X148511046Y-74288050D01*
X148453957Y-74273778D01*
X148425412Y-74259505D01*
X148411140Y-74245233D01*
X148396867Y-74216688D01*
%TO.C,C9*%
D16*
X152733333Y-64357142D02*
X152685714Y-64404761D01*
X152542857Y-64452380D01*
X152447619Y-64452380D01*
X152304761Y-64404761D01*
X152209523Y-64309523D01*
X152161904Y-64214285D01*
X152114285Y-64023809D01*
X152114285Y-63880952D01*
X152161904Y-63690476D01*
X152209523Y-63595238D01*
X152304761Y-63500000D01*
X152447619Y-63452380D01*
X152542857Y-63452380D01*
X152685714Y-63500000D01*
X152733333Y-63547619D01*
X153209523Y-64452380D02*
X153400000Y-64452380D01*
X153495238Y-64404761D01*
X153542857Y-64357142D01*
X153638095Y-64214285D01*
X153685714Y-64023809D01*
X153685714Y-63642857D01*
X153638095Y-63547619D01*
X153590476Y-63500000D01*
X153495238Y-63452380D01*
X153304761Y-63452380D01*
X153209523Y-63500000D01*
X153161904Y-63547619D01*
X153114285Y-63642857D01*
X153114285Y-63880952D01*
X153161904Y-63976190D01*
X153209523Y-64023809D01*
X153304761Y-64071428D01*
X153495238Y-64071428D01*
X153590476Y-64023809D01*
X153638095Y-63976190D01*
X153685714Y-63880952D01*
%TO.C,C6*%
X153683333Y-95857142D02*
X153635714Y-95904761D01*
X153492857Y-95952380D01*
X153397619Y-95952380D01*
X153254761Y-95904761D01*
X153159523Y-95809523D01*
X153111904Y-95714285D01*
X153064285Y-95523809D01*
X153064285Y-95380952D01*
X153111904Y-95190476D01*
X153159523Y-95095238D01*
X153254761Y-95000000D01*
X153397619Y-94952380D01*
X153492857Y-94952380D01*
X153635714Y-95000000D01*
X153683333Y-95047619D01*
X154540476Y-94952380D02*
X154350000Y-94952380D01*
X154254761Y-95000000D01*
X154207142Y-95047619D01*
X154111904Y-95190476D01*
X154064285Y-95380952D01*
X154064285Y-95761904D01*
X154111904Y-95857142D01*
X154159523Y-95904761D01*
X154254761Y-95952380D01*
X154445238Y-95952380D01*
X154540476Y-95904761D01*
X154588095Y-95857142D01*
X154635714Y-95761904D01*
X154635714Y-95523809D01*
X154588095Y-95428571D01*
X154540476Y-95380952D01*
X154445238Y-95333333D01*
X154254761Y-95333333D01*
X154159523Y-95380952D01*
X154111904Y-95428571D01*
X154064285Y-95523809D01*
%TO.C,C5*%
X150133333Y-108957142D02*
X150085714Y-109004761D01*
X149942857Y-109052380D01*
X149847619Y-109052380D01*
X149704761Y-109004761D01*
X149609523Y-108909523D01*
X149561904Y-108814285D01*
X149514285Y-108623809D01*
X149514285Y-108480952D01*
X149561904Y-108290476D01*
X149609523Y-108195238D01*
X149704761Y-108100000D01*
X149847619Y-108052380D01*
X149942857Y-108052380D01*
X150085714Y-108100000D01*
X150133333Y-108147619D01*
X151038095Y-108052380D02*
X150561904Y-108052380D01*
X150514285Y-108528571D01*
X150561904Y-108480952D01*
X150657142Y-108433333D01*
X150895238Y-108433333D01*
X150990476Y-108480952D01*
X151038095Y-108528571D01*
X151085714Y-108623809D01*
X151085714Y-108861904D01*
X151038095Y-108957142D01*
X150990476Y-109004761D01*
X150895238Y-109052380D01*
X150657142Y-109052380D01*
X150561904Y-109004761D01*
X150514285Y-108957142D01*
%TO.C,C4*%
X142707142Y-88566666D02*
X142754761Y-88614285D01*
X142802380Y-88757142D01*
X142802380Y-88852380D01*
X142754761Y-88995238D01*
X142659523Y-89090476D01*
X142564285Y-89138095D01*
X142373809Y-89185714D01*
X142230952Y-89185714D01*
X142040476Y-89138095D01*
X141945238Y-89090476D01*
X141850000Y-88995238D01*
X141802380Y-88852380D01*
X141802380Y-88757142D01*
X141850000Y-88614285D01*
X141897619Y-88566666D01*
X142135714Y-87709523D02*
X142802380Y-87709523D01*
X141754761Y-87947619D02*
X142469047Y-88185714D01*
X142469047Y-87566666D01*
%TO.C,C3*%
X136333333Y-117107142D02*
X136285714Y-117154761D01*
X136142857Y-117202380D01*
X136047619Y-117202380D01*
X135904761Y-117154761D01*
X135809523Y-117059523D01*
X135761904Y-116964285D01*
X135714285Y-116773809D01*
X135714285Y-116630952D01*
X135761904Y-116440476D01*
X135809523Y-116345238D01*
X135904761Y-116250000D01*
X136047619Y-116202380D01*
X136142857Y-116202380D01*
X136285714Y-116250000D01*
X136333333Y-116297619D01*
X136666666Y-116202380D02*
X137285714Y-116202380D01*
X136952380Y-116583333D01*
X137095238Y-116583333D01*
X137190476Y-116630952D01*
X137238095Y-116678571D01*
X137285714Y-116773809D01*
X137285714Y-117011904D01*
X137238095Y-117107142D01*
X137190476Y-117154761D01*
X137095238Y-117202380D01*
X136809523Y-117202380D01*
X136714285Y-117154761D01*
X136666666Y-117107142D01*
%TD*%
M02*
